<?xml version="1.0" encoding="UTF-8" standalone="no"?>
<!-- Created with Inkscape (http://www.inkscape.org/) -->

<svg
   version="1.1"
   id="svg2"
   width="240"
   height="160"
   viewBox="40 40 150 140"
   sodipodi:docname="adly-4-ruedas-seeklogo.eps"
   xmlns:inkscape="http://www.inkscape.org/namespaces/inkscape"
   xmlns:sodipodi="http://sodipodi.sourceforge.net/DTD/sodipodi-0.dtd"
   xmlns="http://www.w3.org/2000/svg"
   xmlns:svg="http://www.w3.org/2000/svg">
  <defs
     id="defs6" />
  <sodipodi:namedview
     id="namedview4"
     pagecolor="transparent"
     bordercolor="#000000"
     borderopacity="0.25"
     inkscape:showpageshadow="2"
     inkscape:pageopacity="0.0"
     inkscape:pagecheckerboard="0"
     inkscape:deskcolor="#d1d1d1" />
  <g
     id="g8"
     inkscape:groupmode="layer"
     inkscape:label="ink_ext_XXXXXX"
     transform="matrix(1.3333333,0,0,-1.3333333,0,257.33333)">
    <g
       id="g10"
       transform="scale(0.1)">
      <path
         d="M 0,1927.56 H 1927.56 V 0 H 0 v 1927.56"
         style="fill:transparent;fill-opacity:1;fill-rule:evenodd;stroke:none"
         id="path12" />
      <path
         d="M 291.848,853.641 H 447.883 V 1105.25 Z"
         style="fill:#ed1c24;fill-opacity:1;fill-rule:evenodd;stroke:none"
         id="path14" />
      <path
         d="m 1403.52,843.191 -0.74,164.249 c -54.51,7.47 -79.14,50.77 -88.85,107.51 l -0.74,220.25 h 80.63 l -1.5,-170.23 c 1.5,-59.72 18.67,-103.77 89.59,-97.06 71.68,-6.71 88.85,39.57 88.11,98.55 l -1.5,166.5 h 81.38 v -215.02 c -3.73,-56 -29.12,-101.54 -93.33,-113.49 l -0.74,-162.009 z m -916.813,8.211 c 0,120.95 0,241.148 0,360.608 -18.664,0 -215.019,-320.291 -239.656,-357.623 -54.5,0 -108.258,-0.746 -162.0119,-1.489 L 370.984,1300.11 c 11.946,14.93 29.864,36.58 52.262,36.58 l 145.586,0.74 c -0.746,-161.26 -1.496,-323.27 -2.238,-486.028 -26.879,0 -53.012,0 -79.887,0 z m 237.418,96.309 -0.75,295.649 c 44.051,0 114.23,10.46 114.977,-23.14 V 964.887 c -0.747,-26.879 -79.887,-17.176 -114.227,-17.176 z m 53.008,-99.297 -149.32,1.496 1.492,487.52 c 400.925,8.96 341.191,11.2 342.687,-389.719 -9.707,-101.535 -87.351,-99.297 -194.859,-99.297 z m 419.577,2.242 c -104.51,5.973 -131.39,53.008 -147.07,120.203 l 2.24,365.081 h 120.2 l 2.99,-338.952 c 0.74,-31.359 24.63,-55.992 52.26,-60.476 l 116.47,-1.489 v -84.367 z"
         style="fill:#2e3192;fill-opacity:1;fill-rule:evenodd;stroke:none"
         id="path16" />
    </g>
  </g>
</svg>
