<?xml version="1.0" encoding="UTF-8" standalone="no"?>
<!-- Created with Inkscape (http://www.inkscape.org/) -->

<svg
   version="1.1"
   id="svg2"
   width="257.33334"
   height="257.33334"
   viewBox="0 0 257.33334 257.33334"
   sodipodi:docname="adly-4-ruedas-seeklogo.eps"
   xmlns:inkscape="http://www.inkscape.org/namespaces/inkscape"
   xmlns:sodipodi="http://sodipodi.sourceforge.net/DTD/sodipodi-0.dtd"
   xmlns="http://www.w3.org/2000/svg"
   xmlns:svg="http://www.w3.org/2000/svg">
  <defs
     id="defs6" />
  <sodipodi:namedview
     id="namedview4"
     pagecolor="transparent"
     bordercolor="#000000"
     borderopacity="0.25"
     inkscape:showpageshadow="2"
     inkscape:pageopacity="0.0"
     inkscape:pagecheckerboard="0"
     inkscape:deskcolor="#d1d1d1" />
  <g
     id="g8"
     inkscape:groupmode="layer"
     inkscape:label="ink_ext_XXXXXX"
     transform="matrix(1.3333333,0,0,-1.3333333,0,257.33333)">
    <g
       id="g10"
       transform="scale(0.1)">
      <path
         d="M 0,1927.56 H 1927.56 V 0 H 0 v 1927.56"
         style="fill:transparent;fill-opacity:1;fill-rule:evenodd;stroke:none"
         id="path12" />
      <path
         d="M 291.848,853.641 H 447.883 V 1105.25 Z"
         style="fill:#ed1c24;fill-opacity:1;fill-rule:evenodd;stroke:none"
         id="path14" />
      <path
         d="m 1403.52,843.191 -0.74,164.249 c -54.51,7.47 -79.14,50.77 -88.85,107.51 l -0.74,220.25 h 80.63 l -1.5,-170.23 c 1.5,-59.72 18.67,-103.77 89.59,-97.06 71.68,-6.71 88.85,39.57 88.11,98.55 l -1.5,166.5 h 81.38 v -215.02 c -3.73,-56 -29.12,-101.54 -93.33,-113.49 l -0.74,-162.009 z m -916.813,8.211 c 0,120.95 0,241.148 0,360.608 -18.664,0 -215.019,-320.291 -239.656,-357.623 -54.5,0 -108.258,-0.746 -162.0119,-1.489 L 370.984,1300.11 c 11.946,14.93 29.864,36.58 52.262,36.58 l 145.586,0.74 c -0.746,-161.26 -1.496,-323.27 -2.238,-486.028 -26.879,0 -53.012,0 -79.887,0 z m 237.418,96.309 -0.75,295.649 c 44.051,0 114.23,10.46 114.977,-23.14 V 964.887 c -0.747,-26.879 -79.887,-17.176 -114.227,-17.176 z m 53.008,-99.297 -149.32,1.496 1.492,487.52 c 400.925,8.96 341.191,11.2 342.687,-389.719 -9.707,-101.535 -87.351,-99.297 -194.859,-99.297 z m 419.577,2.242 c -104.51,5.973 -131.39,53.008 -147.07,120.203 l 2.24,365.081 h 120.2 l 2.99,-338.952 c 0.74,-31.359 24.63,-55.992 52.26,-60.476 l 116.47,-1.489 v -84.367 z m 550.25,146.332 c 43.3,0 78.39,-35.836 78.39,-79.136 0,-43.305 -35.09,-78.395 -78.39,-78.395 -43.31,0 -79.14,35.09 -79.14,78.395 0,43.3 35.83,79.136 79.14,79.136 z m 0,16.422 c 52.26,0 95.56,-42.551 95.56,-95.558 0,-52.266 -43.3,-95.567 -95.56,-95.567 -53.01,0 -95.57,43.301 -95.57,95.567 0,53.007 42.56,95.558 95.57,95.558 z m -35.09,-153.051 v 107.512 h 39.56 c 7.47,0 13.45,-0.746 17.93,-2.984 4.47,-1.496 7.46,-5.231 9.7,-10.453 2.99,-4.481 3.73,-9.707 3.73,-15.68 0,-8.215 -1.49,-14.188 -5.97,-19.41 -3.73,-5.227 -10.45,-8.961 -18.66,-10.453 2.98,-1.496 5.22,-3.735 6.72,-5.227 3.73,-3.73 6.71,-8.215 9.7,-14.187 l 15.68,-29.118 h -14.93 l -11.95,22.399 c -2.99,5.972 -5.97,11.203 -8.21,14.187 -2.24,3.731 -4.48,5.973 -5.97,7.465 -1.5,1.496 -3.74,2.238 -5.23,2.985 -1.49,0 -3.73,0.75 -6.72,0.75 h -13.44 v -47.786 z m 11.94,59.731 h 25.39 c 5.22,0 8.96,0.746 11.94,2.238 3.74,1.496 5.97,3.735 7.47,6.723 1.49,2.984 2.24,5.972 2.24,9.703 0,4.48 -1.49,8.957 -4.48,11.945 -2.99,3.735 -8.21,5.227 -14.94,5.227 h -27.62 V 920.09"
         style="fill:#2e3192;fill-opacity:1;fill-rule:evenodd;stroke:none"
         id="path16" />
      <path
         d="m 365.012,590.844 h -46.289 v 35.086 h -94.817 v 39.57 l 83.617,91.832 h 57.489 V 657.289 h 31.355 V 625.93 h -31.355 z m -46.289,66.445 v 62.715 c -8.211,-11.199 -17.172,-22.399 -26.875,-32.852 -8.961,-10.453 -18.668,-20.16 -29.118,-29.863 h 55.993"
         style="fill:#2e3192;fill-opacity:1;fill-rule:evenodd;stroke:none"
         id="path18" />
      <path
         d="m 558.379,729.707 v -40.316 h 30.613 c 14.184,0 23.891,1.496 29.863,4.48 5.223,2.988 7.465,8.961 7.465,16.426 0,6.719 -2.242,11.945 -7.465,14.93 -4.484,2.988 -14.933,4.48 -29.863,4.48 z M 510.598,590.844 v 172.461 h 94.07 c 14.187,0 24.637,-0.75 31.359,-2.239 7.461,-0.75 13.434,-2.988 19.407,-5.226 6.722,-3.735 11.949,-8.215 15.679,-14.934 4.481,-5.972 5.977,-12.691 5.977,-20.902 0,-11.949 -3.735,-21.652 -11.949,-29.117 -7.465,-6.723 -19.411,-11.946 -35.09,-14.934 11.949,0 20.906,-1.496 26.879,-4.48 5.972,-2.989 10.453,-8.211 12.691,-14.934 0.746,-3.73 2.242,-12.687 4.481,-27.621 2.238,-14.934 5.226,-27.625 8.211,-38.074 h -50.766 c -1.496,2.984 -2.988,8.957 -3.734,17.168 -0.747,1.492 -0.747,2.238 -0.747,2.988 l -2.988,23.145 c -1.492,8.957 -4.476,14.929 -8.211,17.918 -3.734,2.984 -13.441,4.476 -28.371,4.476 h -29.117 v -65.695 h -47.781"
         style="fill:#2e3192;fill-opacity:1;fill-rule:evenodd;stroke:none"
         id="path20" />
      <path
         d="m 707.699,763.305 h 50.02 V 665.5 c 0,-13.437 2.988,-23.891 10.453,-31.355 6.719,-6.723 17.172,-9.707 31.355,-9.707 14.188,0 25.387,2.984 32.106,9.707 7.465,7.464 11.199,17.918 11.199,31.355 v 97.805 h 50.023 V 665.5 c 0,-26.879 -7.468,-46.289 -22.402,-58.98 -15.676,-12.692 -38.82,-18.665 -71.668,-18.665 -14.933,0 -29.121,1.493 -40.32,4.477 -11.945,2.988 -21.649,7.469 -29.117,13.441 -7.465,6.719 -13.438,14.184 -16.422,23.145 -3.735,8.961 -5.227,21.648 -5.227,36.582 v 97.805"
         style="fill:#2e3192;fill-opacity:1;fill-rule:evenodd;stroke:none"
         id="path22" />
      <path
         d="m 930.93,590.844 v 172.461 h 146.33 v -37.328 h -98.549 v -29.868 h 94.069 V 661.02 H 978.711 V 627.422 H 1080.25 V 590.844 H 930.93"
         style="fill:#2e3192;fill-opacity:1;fill-rule:evenodd;stroke:none"
         id="path24" />
      <path
         d="m 1187.76,725.227 h -31.36 v -97.055 h 31.36 c 22.4,0 38.08,3.734 48.53,11.195 9.7,7.469 14.93,20.16 14.93,36.586 0,16.422 -5.23,29.117 -15.68,37.328 -10.45,7.469 -26.13,11.946 -47.78,11.946 z m -79.88,-134.383 v 172.461 h 87.34 c 17.17,0 30.62,-1.492 40.32,-2.989 10.45,-2.238 19.41,-5.222 27.62,-9.707 11.95,-7.464 21.66,-17.171 28.37,-30.605 6.72,-12.695 10.46,-27.629 10.46,-44.797 0,-17.172 -3.74,-31.355 -9.71,-44.051 -6.72,-11.945 -15.68,-21.652 -27.62,-28.367 -7.47,-4.484 -16.43,-7.469 -26.14,-9.707 -8.95,-1.496 -23.89,-2.238 -43.3,-2.238 h -87.34"
         style="fill:#2e3192;fill-opacity:1;fill-rule:evenodd;stroke:none"
         id="path26" />
      <path
         d="m 1385.61,658.781 h 61.96 l -29.12,66.446 z m -83.62,-67.937 89.59,172.461 h 58.23 l 84.37,-172.461 h -55.25 l -15.68,35.086 h -93.32 l -16.43,-35.086 h -51.51"
         style="fill:#2e3192;fill-opacity:1;fill-rule:evenodd;stroke:none"
         id="path28" />
      <path
         d="m 1537.91,648.328 h 49.28 v -2.238 c 0,-8.211 2.98,-14.184 8.21,-18.668 5.97,-3.731 14.18,-5.973 26.13,-5.973 10.45,0 18.67,1.496 23.14,4.481 5.23,2.988 8.21,7.465 8.21,13.437 0,8.961 -11.94,15.68 -35.83,19.414 -5.23,1.492 -8.96,1.492 -11.2,2.239 -23.89,4.48 -40.32,10.453 -49.28,17.921 -9.7,8.211 -14.93,18.664 -14.93,32.102 0,17.918 7.47,31.355 20.91,40.316 14.18,9.707 33.59,14.184 59.72,14.184 25.39,0 43.31,-4.477 56,-12.691 11.94,-8.211 17.92,-21.653 19.41,-39.571 h -46.29 v 0.75 c 0,5.973 -2.98,11.196 -8.21,14.184 -4.48,2.984 -11.95,5.223 -22.4,5.223 -8.96,0 -16.42,-1.489 -21.65,-4.477 -5.22,-2.984 -8.21,-6.719 -8.21,-11.945 0,-8.211 11.94,-14.184 35.09,-18.664 3.73,-0.747 6.72,-1.493 8.96,-2.243 0.74,0 1.49,0 2.24,0 25.38,-5.222 42.55,-11.195 50.77,-17.918 4.47,-4.476 8.21,-8.957 10.45,-14.929 2.24,-5.973 3.73,-12.696 3.73,-20.16 0,-17.918 -7.47,-31.356 -21.65,-41.063 -14.19,-9.707 -35.09,-14.184 -61.22,-14.184 -26.88,0 -47.78,4.477 -61.22,14.184 -13.44,8.961 -20.16,23.145 -20.16,42.555 v 3.734"
         style="fill:#2e3192;fill-opacity:1;fill-rule:evenodd;stroke:none"
         id="path30" />
    </g>
  </g>
</svg>
