<?xml version="1.0" standalone="no"?>
<!DOCTYPE svg PUBLIC "-//W3C//DTD SVG 20010904//EN"
 "http://www.w3.org/TR/2001/REC-SVG-20010904/DTD/svg10.dtd">
<svg version="1.0" xmlns="http://www.w3.org/2000/svg"
 width="451.000000pt" height="414.000000pt" viewBox="0 0 451.000000 414.000000"
 preserveAspectRatio="xMidYMid meet">

<g transform="translate(0.000000,414.000000) scale(0.100000,-0.100000)"
fill="#6a813d" stroke="none">
<path d="M2246 4120 c-3 -8 -119 -348 -256 -754 -138 -407 -257 -754 -265
-773 l-14 -33 -849 -2 -849 -3 689 -484 c540 -378 688 -487 683 -500 -24 -60
-525 -1555 -522 -1557 1 -2 315 215 696 482 l693 486 52 -36 c28 -19 339 -237
691 -485 352 -247 641 -446 643 -442 2 6 -327 989 -481 1437 l-45 132 690 483
691 484 -854 5 -854 5 -262 775 c-144 426 -264 780 -266 785 -3 6 -7 3 -11 -5z"/>
</g>
</svg>
