<?xml version="1.0" encoding="UTF-8" standalone="no"?>
<svg
   version="1.1"
   width="600"
   height="400"
   id="svg16"
   viewBox="0 40 566.53149 108.1109"
   sodipodi:docname="f48b5c217534d973e6d2d2bac7fd2dc0.cdr"
   xmlns:inkscape="http://www.inkscape.org/namespaces/inkscape"
   xmlns:sodipodi="http://sodipodi.sourceforge.net/DTD/sodipodi-0.dtd"
   xmlns="http://www.w3.org/2000/svg"
   xmlns:svg="http://www.w3.org/2000/svg">
   <g transform="scale(1,1.8)">
  <defs
     id="defs20" />
  <sodipodi:namedview
     id="namedview18"
     pagecolor="#ffffff"
     bordercolor="#666666"
     borderopacity="1.0"
     inkscape:pageshadow="2"
     inkscape:pageopacity="0.0"
     inkscape:pagecheckerboard="0" />
  <path
     d="m 320.36569,66.104 v 1.9536 c 0,2.48 2.9685,5.8615 4.5584,5.8615 4.6491,0 15.5721,-5.5735 18.2977,-7.7522 4.8296,-3.8605 8.7287,-9.1094 8.7287,-17.6471 v -2.6053 c 0,-1.3975 -1.0891,-6.1869 -1.9539,-6.1869 -0.6857,0 -4.1613,1.3025 -7.1635,1.3025 h -1.6282 c -2.3377,0 -5.089,-1.0006 -6.5123,-1.9539 -2.0486,1.3722 -6.9599,9.4575 -8.4606,12.0537 -2.1316,3.6879 -5.8663,9.4593 -5.8663,14.9741 z"
     style="fill:transparent;fill-rule:evenodd"
     id="path2" />
  <path
     d="m 188.26699,55.599 4.8489,-2.5307 -1.0176,-6.5064 -0.3708,-0.1264 z"
     style="fill:#030303;fill-rule:evenodd"
     id="path4" />
  <path
     d="m 60.609894,55.5908 4.7982,-2.5123 -0.5117,-8.5385 z"
     style="fill:#030303;fill-rule:evenodd"
     id="path6" />
  <path
     d="m 458.97029,57.2686 5.1125,-2.5721 -0.972,-7.7547 z"
     style="fill:#030303;fill-rule:evenodd"
     id="path8" />
  <path
     d="m 216.79539,63.1264 c 0.7427,3.1309 1.978,5.766 1.978,9.8159 l 0.0774,0.9822 -0.4031,6.8329 c 2.5087,-1.6798 26.7761,-30.4076 27.3076,-32.6486 z"
     style="fill:transparent;fill-rule:evenodd"
     id="path10" />
  <path
     d="m 320.36569,66.104 c 0,-5.5148 3.7347,-11.2862 5.8663,-14.9741 0.7971,-1.379 2.5209,-4.3324 4.3387,-6.9559 3.875,-5.5922 4.5522,-3.3457 10.6342,-3.1439 h 1.6282 c 7.6221,0 9.1174,-3.6658 9.1174,7.4897 0,8.5377 -3.8991,13.7866 -8.7287,17.6471 -6.0531,4.8387 -22.8561,14.0286 -22.8561,-0.0629 z m -6.1869,0.6511 v 2.6053 c 0,5.8093 5.0556,10.2912 10.2895,11.2178 4.2052,0.7444 13.3118,-3.5597 16.3066,-5.1352 9.036,-4.7532 17.6879,-12.3922 17.6879,-25.9464 0.1678,-7.2448 -1.3981,-14.5899 -7.8148,-18.8869 -1.3553,2.0242 -3.5504,4.2332 -6.8381,4.2332 -4.3999,0 -8.3724,-1.3354 -8.4659,-5.5358 -5.0298,3.3684 -9.5204,11.0044 -13.1105,16.1958 -3.4538,4.9941 -8.0547,13.0612 -8.0547,21.2522 z"
     style="fill:#030303;fill-rule:evenodd"
     id="path12" />
  <path
     d="m 241.37689,54.2237 c -4.7151,5.8059 -12.0356,14.5513 -17.1774,20.4145 -6.281,7.1632 -4.8226,5.9653 -5.4261,-1.6959 0,-8.2656 -4.7624,-8.3719 3.3908,-12.6003 l 16.5107,-8.5618 c 5.9485,-3.056 6.4783,-2.2065 2.702,2.4435 z m 15.819,13.5085 c 7.6646,-4.0558 31.2537,-14.0023 42.0047,-14.0023 2.8298,-4.2262 5.2188,-9.5715 8.0081,-14.1347 3.0549,-4.9975 5.3459,-8.7443 9.1633,-12.9793 2.4792,-2.7507 6.1719,-6.6143 10.4749,-9.9802 7.5285,-5.8884 27.3999,-15.6093 33.8952,4.2049 1.9843,2.9636 6.5268,5.7441 9.5749,10.2884 1.2158,1.8124 2.4766,4.3693 3.1706,6.5982 0.4872,1.565 1.1511,7.069 2.2328,7.8619 0.3138,-3.7732 3.7157,-15.8724 4.9258,-19.8222 1.6228,-5.2965 4.1281,-14.3696 10.7039,-14.3696 h 1.3022 c 8.4739,0 13.623,26.4878 15.4998,33.9956 3.7611,15.0463 2.1345,17.2386 7.7392,0.3163 2.7751,-8.3777 14.0695,-33.0094 22.9986,-33.0094 h 1.6282 c 1.9559,0 3.9073,1.9514 3.9073,3.9076 v 1.6282 c 0,3.5158 -4.1165,8.8395 -5.6475,11.611 -2.0752,3.7562 -3.9662,7.8267 -5.6236,11.9602 -1.8023,4.4943 -7.289,22.6454 -7.289,27.879 v 0.9771 c 1.8561,-0.4325 16.5628,-7.1765 18.1207,-8.2548 0.9959,-0.6891 6.8947,-16.2039 7.7276,-18.6482 2.1568,-6.3292 5.078,-12.5694 7.5906,-18.7855 2.0256,-5.0108 4.553,-15.8565 10.5194,-15.8565 h 0.6511 c 6.6651,0 5.5355,9.8144 5.5355,16.6074 0,5.7759 0.2562,11.2062 0.2746,16.6637 0.0162,4.8042 3.1822,3.5629 10.101,0.8765 0.9391,-0.3645 3.9631,-1.6047 6.3476,-2.8973 4.1619,-2.2567 2.488,-4.5918 2.488,-8.456 0,-9.718 23.8896,-17.9099 35.1666,-17.9099 h 4.8844 c 4.5247,0 7.9055,0.4445 11.1779,1.8468 8.2193,3.5223 8.3548,13.7837 -2.0608,13.7837 h -1.628 c -3.7953,0 -3.5498,-4.5589 -10.0941,-4.5589 h -1.9537 c -4.3996,0 -10.2535,4.0578 -13.3503,4.8846 4.4651,2.3222 3.9271,6.7156 0.9768,10.7459 3.9484,0.9196 8.7594,2.8658 12.5691,4.3634 4.0371,1.5868 8.7951,2.8987 12.9541,4.3038 6.739,2.2765 16.4814,9.1599 16.4814,17.7092 v 0.6514 c 0,11.613 -28.847,24.4224 -41.6789,24.4224 -4.1539,0 -15.304,0.3583 -15.304,-5.5357 0,-6.1821 13.6931,-12.0484 21.1652,-12.0484 h 0.6511 c 2.2561,0 3.7276,0.9768 5.8612,0.9768 1.7802,0 7.2241,-3.1731 10.3762,-6.2938 3.5496,-3.5138 2.9384,-7.0256 -1.2792,-9.856 -3.64,-2.4421 -9.1287,-4.288 -12.0269,-5.0174 -3.7947,-0.9552 -6.7263,-0.9796 -10.3844,-2.3144 -1.2787,-0.4666 -8.7766,-3.8716 -9.1534,-3.8716 -0.9669,0 -13.3407,6.2901 -15.2453,7.2224 -2.3215,1.1364 -14.3858,6.0012 -14.3858,8.0824 0,3.1212 3.9076,5.1494 3.9076,8.1408 v 4.2333 c 0,5.9579 -1.664,14.9791 -7.4892,14.9791 h -0.6514 c -8.4835,0 -7.3111,-21.8174 -10.0941,-21.8174 -1.6742,0 -7.3024,2.6779 -8.9062,3.4673 -3.9353,1.9369 -3.9665,2.8661 -5.6472,7.0524 -1.1866,2.9559 -2.495,5.9638 -3.8897,8.8095 -1.5556,3.1739 -3.3656,4.7676 -7.9316,4.7676 -2.7496,0 -4.8844,-1.7904 -4.8844,-4.5587 v -3.2565 c 0,-1.1225 0.241,-1.2608 0.3257,-2.2793 -1.4851,0.1236 -10.1463,6.3527 -11.664,7.5478 -1.8706,1.4729 -9.2296,8.4081 -11.1291,8.4081 h -0.6514 c -5.6446,0 -7.8919,-3.7454 -9.1219,-8.136 -1.2166,-4.3424 -2.8264,-9.0028 -3.979,-13.6051 -0.8336,-3.329 -6.2742,-27.1454 -7.0871,-28.0809 -0.0678,3.0379 -1.1778,9.1514 -1.7008,12.6272 -0.4558,3.0283 -1.8168,10.1342 -1.8913,12.7622 -0.1395,4.9263 -1.2501,7.8488 -3.6544,10.6733 -1.8893,2.2195 -5.165,5.6185 -9.0343,5.6185 h -1.954 c -2.3881,0 -4.8841,-3.1269 -4.8841,-5.5358 0,-3.9469 2.0353,-11.787 2.9305,-15.6305 -2.0021,1.3408 -5.5137,6.3437 -7.5696,8.386 -2.8134,2.7944 -6.0563,4.7223 -9.3668,6.9143 -5.5341,3.6646 -16.744,6.5174 -26.0448,6.5174 h -0.9771 c -7.2153,0 -15.5585,-3.3488 -19.2999,-6.7496 -1.6158,-1.4683 -4.9944,-5.1182 -5.997,-7.0282 -1.0477,-1.9956 -3.0317,-7.5708 -3.0317,-10.3192 v -2.2794 h -1.3022 c -3.4877,0 -17.6842,4.7693 -20.9412,6.0855 -6.3624,2.5704 -13.2398,5.3237 -18.7892,8.5629 -6.1928,3.615 -10.8811,6.8295 -16.6643,10.688 -2.4316,1.6223 -9.2653,7.617 -13.5062,10.0737 -2.1127,1.2238 -3.604,1.0608 -5.9678,1.0608 -2.3995,0 -4.8841,-2.4846 -4.8841,-4.8844 v -0.3257 c 0,-2.8222 23.4034,-28.3405 26.7542,-32.8351 4.1627,-5.584 24.3904,-29.1283 25.67,-33.92 -1.4967,0.1245 -26.0614,13.4853 -29.6359,15.3 -2.6825,1.3618 -29.6263,15.1186 -29.6263,15.6354 0,3.0138 3.5818,6.2923 3.5818,11.0715 v 6.8383 c 0,3.9107 -1.7966,9.7691 -5.8612,9.7691 h -2.605 c -1.3748,0 -3.7454,-2.1283 -4.4547,-3.3602 -1.5361,-2.6685 -1.0919,-3.024 -2.0576,-5.7577 -1.285,-3.6377 -1.6084,-9.5857 -3.2562,-12.6995 -1.5205,0.354 -6.3411,2.8465 -8.0305,3.6915 -3.5731,1.7873 -4.3019,2.3199 -6.0855,5.9627 -1.9128,3.9064 -4.9977,14.1171 -9.6539,14.1171 h -3.9073 c -3.5657,0 -3.2561,-3.2338 -3.2561,-6.8386 -1.3357,0.9788 -0.7376,2.4982 -3.4889,4.6522 -1.9109,1.4959 -4.5122,0.7759 -7.5983,0.8674 -2.8664,0.0854 -7.3318,4.9009 -12.0316,4.9009 -4.347,0 -8.0765,-1.0443 -7.1638,-6.5126 0,-0.5072 1.7153,-6.016 1.954,-6.5129 -5.961,0 -7.1326,0.1015 -10.0163,-3.3341 -0.9252,-1.1027 -3.291,-8.4039 -3.3341,-10.3425 h -0.6514 c -0.0555,2.499 -3.2006,11.0871 -3.9733,13.9362 -1.1939,4.4025 -4.3773,7.8815 -10.0281,7.8815 h -1.628 c -2.8332,0 -5.535396,-1.5398 -5.535396,-4.2333 v -1.9539 c 0,-0.5924 6.345896,-17.2247 7.122796,-19.5786 2.0824,-6.3071 5.4188,-13.8827 6.8786,-20.149 -2.9968,0.6985 -13.2616,6.8049 -16.822196,8.5765 -1.5633,0.7779 -9.038,4.3328 -13.3339,6.8984 -2.2388,1.3371 -4.0209,2.0087 -2.2782,4.2344 1.2226,1.5619 3.4543,4.5661 3.4543,8.9467 v 9.1177 c 0,3.5093 -2.8307,7.4897 -5.8609,7.4897 h -1.6282 c -4.4805,0 -5.4695,-5.7561 -6.5586,-9.3972 -1.1695,-3.9106 -2.622,-8.8253 -3.5353,-12.7459 -1.8094,0.1505 -7.3897,2.5217 -9.1639,3.2099 -3.6949,1.4338 -3.564,3.6499 -5.2769,7.0965 -2.384,4.7968 -4.4717,13.7906 -10.9574,13.7906 h -1.3025 c -3.9246,0 -3.5818,-3.9093 -3.5818,-6.8386 0,-3.3106 0.0881,-3.4515 -3.1037,-1.5661 -5.2379,3.0943 -14.4771,10.3583 -20.3406,10.3583 -4.2856999,0 -7.1636999,-1.2903 -7.1636999,-5.8614 0,-4.3351 3.1904,-7.8432 7.1869999,-10.6303 3.9963,-2.787 8.799,-4.8531 12.0223,-6.3048 4.2582,-1.9176 7.9829,-3.7856 12.1552,-5.754 5.6087,-2.6459 7.2525,-2.4911 10.099,-8.136 3.678,-7.2938 7.5546,-17.8569 10.592,-25.5526 1.7183,-4.3535 3.2901,-8.407 5.0621,-12.8478 1.3515,-3.3882 3.524,-10.5548 7.6802,-10.5548 h 1.6279 c 5.5842,0 5.1196,11.177 5.1871,16.956 0.2435,5.1557 0.0133,16.6944 0.3484,21.7945 1.4445,-0.0324 22.535996,-10.4522 25.507796,-11.9387 3.1298,-1.5653 10.0384,-4.4124 12.4759,-6.0849 1.7382,-1.1928 0.9606,-11.6093 7.2771,-11.6093 6.345,0.3164 8.9674,-1.7617 10.0213,14.0749 1.4641,13.0547 4.4844,13.5272 10.8159,-0.4002 2.3028,-5.1143 6.7702,-14.9772 13.678,-14.9772 10.5568,0 6.4893,12.2395 5.2353,18.2611 -0.6761,3.2471 -1.2583,7.4279 -1.6271,10.747 -0.8507,7.6586 -1.3289,15.0094 -1.3289,23.419 4.3506,-2.9132 12.5218,-5.0732 14.2841,-10.1376 3.6771,-9.8263 17.8568,-49.9909 24.4644,-49.7792 h 1.3025 c 5.3422,0 6.0503,14.5267 6.014,26.0019 -0.0442,14.0108 2.6904,11.681 15.6192,5.588 10.635,-5.0122 22.4722,-11.1192 26.4532,-12.8078 7.0463,-2.9886 14.0848,-7.0872 20.9829,-9.6256 3.1493,-1.1585 13.466,-5.6648 19.3303,-7.4478 7.5396,-2.2918 11.9344,2.6178 7.8519,8.9105 -4.5039,6.9426 -16.2255,20.9316 -18.3707,23.6313 -2.3891,3.0061 -20.609,25.4027 -20.8982,26.6434 z m 11.071,-38.0994 c 0.5789,-0.5788 -0.5788,0.5789 0,0 z m 15.9523,13.8342 c 5.9156,-7.0752 20.5169,-21.8474 20.5169,-30.4415 0,-7.6085 -4.976,-12.1703 -13.3504,-11.723 -6.7595,0 -34.431,12.9583 -40.5918,16.0662 -9.8739,4.9811 -20.0237,9.6639 -30.2151,13.9669 -9.6828,4.0884 -8.0628,5.245 -8.5586,-5.4357 -0.1996,-4.3027 -0.5423,-9.121 -1.095,-13.1187 -2.592,-18.7456 -19.5551,-13.6446 -24.9415,-0.6319 -2.708,6.5424 -7.907,18.8776 -12.0546,28.815 -6.8539,16.4209 -7.0288,10.9358 -5.3105,-2.2235 1.3853,-9.208 6.7105,-30.2927 -7.4795,-30.5997 h -4.5584 c -5.2642,0 -10.008,2.7868 -12.1118,7.4549 -5.5573,12.3295 -4.6384,7.9701 -7.0421,-0.1157 -1.2796,-4.3044 -5.6914,-6.6881 -10.4772,-6.6881 -5.7753,0 -9.938,1.4318 -12.6212,4.637 -0.9454,1.1293 -2.4044,4.2474 -2.7598,6.0321 -0.7203,3.6161 -0.9179,3.0053 -3.9393,4.5269 -1.7873,0.9 -10.366596,5.0494 -16.704596,7.9489 -7.0305,3.2159 -6.9565,4.4918 -6.9565,-2.9554 0,-4.1026 -0.3515,-16.6875 -1.0945,-20.0718 C 81.755694,3.8166 77.253494,0 70.943594,0 h -0.3257 c -5.8182,0 -9.0738,4.8164 -11.071,8.7922 -1.6762,3.3367 -4.3818,10.4335 -5.6622,14.201 -3.2154,9.4598 -8.034,18.828 -11.6394,28.0874 -1.8541,4.7622 -6.8987,6.4664 -11.3919,8.4711 -4.5048,2.01 -8.9778,4.2202 -13.4206,6.4426 -3.8409,1.921 -7.7280999,3.8128 -10.8858999,6.4196 -8.6383,7.1314 -10.3192,26.2533 4.8089999,26.2533 6.1118,0 13.0116,-4.0297 16.8548,-6.0446 3.3426,-1.7518 3.1975,-0.7707 6.0242,1.5517 1.3875,1.1404 3.0552,2.2136 4.7982,2.2136 h 3.9076 c 5.0434,0 10.521,-5.2818 11.9177,-9.2478 0.7809,-2.2175 2.2093,-4.7905 3.1903,-7.2294 2.4835,-6.1742 4.2274,-7.3704 5.9624,-0.8603 0.8255,3.0977 1.8264,6.5188 2.5946,8.3247 3.3307,7.8319 15.448,9.7606 21.1479,2.7037 3.5141,-5.1534 3.528,-15.6169 2.2286,-23.4314 -0.4215,-2.5351 -0.637,-3.8895 1.836,-5.226 l 6.0307,-3.257 c 3.573896,-1.9295 4.264396,-2.9276 2.838296,1.7957 -1.075996,3.5643 -2.933296,8.2639 -3.571096,9.849 -0.394,0.9791 -1.4834,3.9042 -2.4738,6.7757 -2.1413,6.2081 -3.2411,12.6238 3.6567,16.7281 1.917896,1.1412 4.244596,1.7725 6.834296,1.7725 h 2.2794 c 5.601,0 11.1469,-4.036 13.9331,-8.1703 1.0743,-1.5942 1.3468,-2.4988 3.2993,-1.4267 2.2331,1.1381 1.3578,1.2526 1.2892,3.636 -0.1321,4.5612 2.3292,6.6991 6.1616,9.2869 5.1089,3.4492 12.8889,1.4258 17.7789,-1.5656 1.916,-1.1719 4.8127,-1.7371 7.7888,-1.9622 3.0299,-0.2284 3.5552,0.5877 6.1849,1.2416 0.8972,0.2234 1.9766,0.2628 3.803,0.2628 h 3.2561 c 10.5364,0 11.2448,-14.3629 16.244,-19.2918 2.4137,-2.3796 2.6362,-0.6241 2.9647,0.849 0.7886,3.5365 2.6031,8.3407 3.712,10.1744 1.7359,2.8701 5.3954,6.2238 9.9666,6.3148 4.5561,0.1286 5.2923,0.212 5.2101,3.2561 0,5.7393 7.0027,10.4205 13.35,10.4205 h 0.6514 c 6.2068,0 12.7463,-6.6068 16.6675,-9.7081 5.0229,-3.9728 9.4657,-7.4705 15.3538,-10.696 6.338,-3.4719 21.6989,-11.3284 32.0105,-14.1262 4.8022,-1.3022 4.5448,-1.6325 6.0316,2.643 2.6835,7.7176 9.7594,15.2416 17.3517,18.4326 5.8433,2.4565 12.5317,3.0342 18.7356,3.0342 6.8519,0 12.1822,-1.7918 17.7134,-3.1263 2.6773,-0.646 5.4221,-2.2227 7.939,-3.6097 6.0815,-3.3511 4.6576,-2.9454 7.6385,1.1223 0.6211,0.7395 2.1867,2.2839 2.935,2.9262 3.8829,3.3324 10.8978,2.787 15.0293,0.216 3.0702,-1.9103 6.4919,-4.415 8.3427,-7.6133 3.3686,-5.8235 3.0095,-4.8835 4.6644,0.5394 0.9527,3.123 2.1191,6.5285 2.9245,8.1332 2.0642,4.1128 4.5986,6.9304 9.3203,8.2633 8.9745,2.5333 14.601,-3.8946 19.8859,-8.4736 3.2388,-2.8063 2.2572,-2.2519 4.8696,0.1882 1.8354,1.7149 4.4569,3.0625 7.1677,3.0625 h 1.9536 c 11.9577,0 13.2072,-12.541 16.8815,-18.614 2.029,-3.3539 4.0042,-4.5637 4.5978,-0.3968 1.226,8.6012 4.9674,16.7315 14.3387,16.7315 11.6402,0 14.0015,-12.2624 14.0015,-24.097 0,-6.1552 -3.5371,-6.5319 3.1096,-10.0457 3.4648,-1.8318 8.1403,-4.2611 11.5758,-5.9321 5.0619,-2.4622 5.8686,-1.764 11.1515,0.8853 2.0639,1.0349 4.7019,1.561 7.0725,2.0449 4.5791,0.9348 6.3513,1.1698 8.0994,1.7637 5.4539,1.8513 7.7312,3.039 1.442,6.1942 -2.0106,1.0092 -4.1834,0.205 -6.9588,0.205 h -1.3025 c -6.3632,0 -14.654,2.7865 -20.2972,7.115 -13.8135,10.5947 -3.0472,23.1692 12.157,23.1692 6.8791,0 13.3531,-1.2452 19.8671,-3.5776 5.2592,-1.883 8.7197,-3.812 13.3923,-5.8192 6.4826,-2.7851 17.8623,-11.6116 17.8623,-20.5617 V 66.104 c 0,-9.5366 -8.1292,-16.9073 -14.5474,-20.2947 -4.2262,-2.2306 -7.8169,-3.3534 -12.7429,-4.8407 -2.0319,-0.6137 -4.271,-1.6152 -6.5738,-2.2178 -7.8251,-1.431 -8.5556,-7.5351 -1.3026,-7.4897 h 1.6283 c 1.2452,0 4.0209,4.5589 9.4427,4.5589 h 3.9076 c 14.6219,0 15.5613,-16.1541 6.8851,-23.565 -3.5116,-2.9993 -8.233,-4.7653 -13.072,-4.7653 h -13.3503 c -6.8828,0 -18.1661,4.1757 -23.0097,6.6215 -7.3675,3.7202 -11.8695,7.1691 -14.042,13.1337 -1.4604,4.0099 0.0139,6.8349 -3.9084,8.8376 -2.7737,1.262 -3.2871,0.7126 -3.4121,-4.0841 -0.0972,-3.7296 -0.2372,-7.5581 -0.2372,-11.4832 0,-7.5815 0.0221,-9.6219 -3.386,-14.1982 -6.3445,-8.5192 -18.1811,-2.5942 -21.407,5.6855 -3.2238,8.2743 -6.7595,16.6308 -10.1474,25.0205 -1.7448,4.3206 -3.2644,8.2531 -5.0108,12.5731 -1.3575,3.3588 -1.8292,6.0622 -3.7832,7.8415 -4.4645,4.0657 -3.8103,0.6032 -2.7924,-3.0189 1.7113,-6.0877 5.0979,-15.2221 6.2496,-17.5229 3.1807,-6.3556 9.0181,-11.1118 9.0181,-20.2884 v -0.3255 c 0,-5.767 -5.4283,-10.4204 -11.3967,-10.4204 h -1.3022 c -7.0886,0 -12.6544,8.1071 -15.5636,12.7658 -0.7076,1.133 -2.9143,5.0125 -5.1299,8.8359 -6.099,10.5256 -4.6301,9.8821 -7.6731,-0.1964 -0.8424,-2.7893 -1.7983,-5.4791 -2.9965,-8.2761 -2.541,-5.9309 -3.8738,-10.0477 -9.5559,-12.9123 -11.2133,-5.6538 -18.4994,4.5155 -21.8287,13.6624 -2.151,5.913 -3.7432,3.0498 -6.5211,-0.0281 -4.8257,-5.347 0.5363,-6.3368 -9.4181,-13.3123 -17.1842,-8.4688 -32.8091,-1.3434 -45.7849,13.3769 -3.9816,4.4176 -6.4749,7.9923 -9.9471,12.8469 -4.5462,6.6975 -9.5111,14.6078 -13.5805,15.8877 l -5.629,1.3552 c -10.0596,2.4222 -5.4502,-0.3498 -0.3912,-6.4001 z"
     style="fill:#030303;fill-rule:evenodd"
     id="path14" />
  </g>
</svg>
