<?xml version="1.0" encoding="UTF-8" standalone="no"?>
<svg height="100" id="svg2" version="1.1" viewBox="27 97 61 61" width="150" xml:space="preserve" xmlns="http://www.w3.org/2000/svg" xmlns:cc="http://creativecommons.org/ns#" xmlns:dc="http://purl.org/dc/elements/1.1/" xmlns:rdf="http://www.w3.org/1999/02/22-rdf-syntax-ns#" xmlns:svg="http://www.w3.org/2000/svg">
	<metadata id="metadata8">
		<rdf:RDF>
			<cc:Work rdf:about="">
				<dc:format>image/svg+xml</dc:format>
				<dc:type rdf:resource="http://purl.org/dc/dcmitype/StillImage"/>
			</cc:Work>
		</rdf:RDF>
	</metadata>
	<defs id="defs6"/>
	<g id="g10" transform="matrix(1.3333333,0,0,-1.3333333,0,257.33333)">
		<g id="g12" transform="scale(0.1)">

			<path d="M 0,1100 H 720 V 800 H 180 " id="path14" style="fill:#ffffff;fill-opacity:1;fill-rule:evenodd;stroke:none"/>

			<path d="M 773.063,790.336 V 1137.23 H 85.0391 V 790.336 Z M 213.145,896.852 c -5.04,-0.723 -7.918,-0.723 -12.957,-0.723 -22.309,0 -38.141,15.832 -38.141,36.703 0,27.352 16.555,34.547 35.984,37.426 5.035,0.719 10.793,0.719 16.551,1.437 12.234,0.723 22.313,1.442 22.313,10.797 0,15.113 -12.235,15.832 -22.313,15.832 -11.516,0 -19.43,-5.035 -20.152,-16.551 l -28.063,0.719 c 1.434,28.788 23.746,37.428 48.215,38.148 20.871,0 51.098,-3.6 51.098,-33.827 v -62.614 c 0,-10.797 -1.438,-19.429 3.601,-26.629 h -28.07 c -1.441,4.317 -3.598,7.914 -3.598,11.516 -6.476,-7.199 -14.394,-10.797 -23.031,-12.234 z m 1.437,21.586 c 20.152,2.16 21.594,17.996 21.594,24.472 v 15.113 c -5.039,-5.039 -12.957,-5.757 -21.594,-6.476 -1.437,-0.723 -2.156,-0.723 -2.875,-0.723 -9.359,-2.156 -20.152,-6.476 -20.152,-18.711 0,-12.234 8.633,-13.675 18.711,-13.675 1.441,0 2.879,0 4.316,0 z M 638.48,896.852 c -4.32,-0.723 -7.917,-0.723 -12.953,-0.723 -22.312,0 -38.144,15.832 -38.144,37.426 0,26.629 16.551,34.543 35.984,36.703 5.758,0.719 10.793,1.437 16.551,1.437 12.238,0.723 22.312,1.442 22.312,11.52 0,14.39 -11.515,15.832 -22.312,15.832 -11.516,0 -18.711,-5.758 -20.152,-16.555 l -28.067,0.723 c 1.442,28.065 23.75,37.425 48.219,37.425 20.871,0 51.816,-2.88 51.816,-33.827 v -61.895 c 0,-10.797 -2.156,-20.148 2.883,-26.629 h -28.07 c -1.438,3.598 -2.875,7.914 -3.598,11.516 -6.476,-7.196 -14.394,-10.797 -23.031,-12.953 z m 1.438,21.586 c 20.152,2.16 22.312,17.996 22.312,25.195 l -0.718,14.39 c -4.321,-4.316 -12.957,-5.039 -21.594,-6.476 -0.719,0 -2.156,-0.723 -2.875,-0.723 -9.359,-2.156 -19.434,-6.476 -19.434,-18.711 0,-12.234 7.918,-13.675 17.993,-13.675 1.441,0 2.878,0 4.316,0 z m -307.305,2.882 c 20.149,0.719 26.629,18.711 26.629,38.141 0,18.715 -7.199,38.144 -26.629,38.144 -22.308,0 -27.351,-20.152 -27.351,-38.144 0,-17.988 5.043,-38.141 27.351,-38.141 z m 0,-24.468 c -11.515,2.156 -21.59,8.632 -27.351,17.992 h 0.722 v -50.379 h -29.507 v 152.575 h 26.628 v -12.96 h 0.719 c 6.481,11.52 16.555,17.28 28.789,18.71 1.438,0 3.598,0 5.754,0 36.707,0 52.539,-30.224 52.539,-64.048 0,-32.387 -17.273,-61.89 -51.097,-61.89 -2.161,0 -5.036,0 -7.196,0 z m 125.946,92.839 c -16.551,0 -31.668,-10.796 -31.668,-38.144 V 897.57 h -29.508 v 119.47 h 27.347 l -0.718,-18.716 c 7.199,14.396 17.996,21.596 34.547,21.596 z m 50.375,72.689 h 29.511 V 897.57 h -29.511 z m 38.863,0 h 30.23 v -27.35 h -30.23 z m 0,-45.34 h 30.23 V 897.57 h -30.23 z m -78.445,45.34 h 30.23 v -27.35 h -30.23 z m 0,-45.34 h 30.23 V 897.57 h -30.23 v 119.47" id="path16" style="fill:#ed1c24;fill-opacity:1;fill-rule:evenodd;stroke:none"/>
		</g>
	</g>
</svg>