<?xml version="1.0" encoding="UTF-8" standalone="no"?>
<svg
   version="1.1"
   width="350"
   height="190"
   id="svg33"
   viewBox="70 250 454 240"
   sodipodi:docname="asia-motors-seeklogo.cdr"
   xmlns:inkscape="http://www.inkscape.org/namespaces/inkscape"
   xmlns:sodipodi="http://sodipodi.sourceforge.net/DTD/sodipodi-0.dtd"
   xmlns="http://www.w3.org/2000/svg"
   xmlns:svg="http://www.w3.org/2000/svg">
  <defs
     id="defs37" />
  <sodipodi:namedview
     id="namedview35"
     pagecolor="#ffffff"
     bordercolor="#000000"
     borderopacity="0.25"
     inkscape:showpageshadow="2"
     inkscape:pageopacity="0.0"
     inkscape:pagecheckerboard="0"
     inkscape:deskcolor="#d1d1d1"
     inkscape:document-units="pt" />
  <g
     id="Layer1000">
    <path
       d="m 207.6001,400.786 h -35.9765 l -7.6303,19.9052 h -19.9204 l 37.203,-99.0012 h 22.604 l 37.2263,99.0012 h -26.242 z m -6.5461,-17.8512 -11.0605,-29.0897 -11.5625,29.0897 z"
       style="fill:#e30016;fill-rule:evenodd"
       id="path2" />
    <path
       d="m 418.0479,400.786 h -35.9765 l -7.6303,19.9052 H 354.5206 L 391.7237,321.69 h 22.604 l 37.2263,99.0012 h -26.2421 z m -6.5461,-17.8512 -11.0605,-29.0897 -11.5625,29.0897 z"
       style="fill:#e30016;fill-rule:evenodd"
       id="path4" />
    <path
       d="m 324.9153,321.69 h 23.739 v 99.0012 h -23.739 z"
       style="fill:#e30016;fill-rule:evenodd"
       id="path6" />
    <path
       d="m 239.2855,337.5672 c -4.5961,9.8847 -2.8446,22.3634 8.4206,31.962 11.793,10.0483 24.6143,10.9942 35.8154,19.412 12.4807,9.379 0.6061,19.5871 -6.9607,20.8862 -16.2553,2.7907 -25.4126,-1.7609 -36.87,-9.8785 l 6.4925,19.2167 c 23.7524,8.5918 68.2509,7.2737 67.8475,-29.2473 -0.1306,-11.8437 -8.0251,-19.1401 -29.4528,-29.7655 -12.291,-6.0948 -19.9066,-9.3606 -20.5123,-18.1066 -0.8272,-11.9409 26.5076,-16.8412 39.7094,-3.621 l 2.3255,-15.4258 c -17.6221,-8.6409 -56.6643,-7.2632 -66.8151,14.5678 z"
       style="fill:#e30016;fill-rule:evenodd"
       id="path8" />

   
    <path
       d="m 297.0193,260.7012 c 121.4166,0 219.8443,49.5164 219.8443,110.5978 0,61.0815 -98.4277,110.5981 -219.8443,110.5981 -121.4164,0 -219.8441,-49.5166 -219.8441,-110.5981 0,-61.0814 98.4277,-110.5978 219.8441,-110.5978 z m 0,23.667 c 111.924,0 205.3715,38.9201 205.3715,86.9308 0,48.0107 -93.4475,86.9314 -205.3715,86.9314 -111.924,0 -205.3718,-38.9207 -205.3718,-86.9314 0,-48.0107 93.4478,-86.9308 205.3718,-86.9308 z"
       style="fill:#e30016;fill-rule:evenodd"
       id="path30" />
  </g>
</svg>
