<?xml version="1.0" encoding="UTF-8" standalone="no"?>
<svg
   version="1.1"
   width="595.27557pt"
   height="841.88977pt"
   id="svg33"
   viewBox="0 0 595.27557 841.88977"
   sodipodi:docname="asia-motors-seeklogo.cdr"
   xmlns:inkscape="http://www.inkscape.org/namespaces/inkscape"
   xmlns:sodipodi="http://sodipodi.sourceforge.net/DTD/sodipodi-0.dtd"
   xmlns="http://www.w3.org/2000/svg"
   xmlns:svg="http://www.w3.org/2000/svg">
  <defs
     id="defs37" />
  <sodipodi:namedview
     id="namedview35"
     pagecolor="#ffffff"
     bordercolor="#000000"
     borderopacity="0.25"
     inkscape:showpageshadow="2"
     inkscape:pageopacity="0.0"
     inkscape:pagecheckerboard="0"
     inkscape:deskcolor="#d1d1d1"
     inkscape:document-units="pt" />
  <g
     id="Layer1000">
    <path
       d="m 207.6001,400.786 h -35.9765 l -7.6303,19.9052 h -19.9204 l 37.203,-99.0012 h 22.604 l 37.2263,99.0012 h -26.242 z m -6.5461,-17.8512 -11.0605,-29.0897 -11.5625,29.0897 z"
       style="fill:#e30016;fill-rule:evenodd"
       id="path2" />
    <path
       d="m 418.0479,400.786 h -35.9765 l -7.6303,19.9052 H 354.5206 L 391.7237,321.69 h 22.604 l 37.2263,99.0012 h -26.2421 z m -6.5461,-17.8512 -11.0605,-29.0897 -11.5625,29.0897 z"
       style="fill:#e30016;fill-rule:evenodd"
       id="path4" />
    <path
       d="m 324.9153,321.69 h 23.739 v 99.0012 h -23.739 z"
       style="fill:#e30016;fill-rule:evenodd"
       id="path6" />
    <path
       d="m 239.2855,337.5672 c -4.5961,9.8847 -2.8446,22.3634 8.4206,31.962 11.793,10.0483 24.6143,10.9942 35.8154,19.412 12.4807,9.379 0.6061,19.5871 -6.9607,20.8862 -16.2553,2.7907 -25.4126,-1.7609 -36.87,-9.8785 l 6.4925,19.2167 c 23.7524,8.5918 68.2509,7.2737 67.8475,-29.2473 -0.1306,-11.8437 -8.0251,-19.1401 -29.4528,-29.7655 -12.291,-6.0948 -19.9066,-9.3606 -20.5123,-18.1066 -0.8272,-11.9409 26.5076,-16.8412 39.7094,-3.621 l 2.3255,-15.4258 c -17.6221,-8.6409 -56.6643,-7.2632 -66.8151,14.5678 z"
       style="fill:#e30016;fill-rule:evenodd"
       id="path8" />
    <path
       d="m 247.6182,579.8534 5.6254,-33.6175 10.0964,33.6175 h 11.8607 l 10.0965,-33.6175 5.6253,33.6175 h 12.9237 l -6.8748,-55.4051 h -17.0833 l -10.6177,31.6321 -10.6178,-31.6321 h -17.0832 l -6.8749,55.4051 z"
       style="fill:#e30016;fill-rule:evenodd"
       id="path10" />
    <path
       d="m 366.0199,523.529 0.0145,7.8815 h 15.4071 v 48.4429 h 14.9641 v -48.4429 h 15.4072 l 0.0144,-7.8815 z"
       style="fill:#e30016;fill-rule:evenodd"
       id="path12" />
    <path
       d="m 408.2414,551.1489 c 0,17.6749 13.1409,30.0396 30.9195,30.0396 17.7786,0 30.9194,-12.3647 30.9194,-30.0396 0,-17.9623 -13.6173,-29.9522 -30.9194,-29.9522 -17.3021,0 -30.9195,11.9899 -30.9195,29.9522 z m 30.9195,22.6602 c -10.1982,0 -15.8769,-7.8809 -15.8769,-22.6602 0,-14.7792 6.9803,-23.0966 15.8769,-23.0966 8.8965,0 15.8768,8.3174 15.8768,23.0966 0,14.7793 -5.6786,22.6602 -15.8768,22.6602 z"
       style="fill:#e30016;fill-rule:evenodd"
       id="path14" />
    <path
       d="m 510.6382,579.8534 h 15.512 l -20.7887,-28.7867 c 6.8026,-3.02 11.8366,-5.957 11.8366,-14.4419 0,-11.1552 -8.96,-13.5944 -19.4933,-13.5944 h -23.275 v 56.823 h 13.6333 v -49.5465 c 8.6317,0 15.1628,0.2767 15.1628,9.4258 0,5.8499 -3.5275,9.6024 -11.8304,10.7169 z"
       style="fill:#e30016;fill-rule:evenodd"
       id="path16" />
    <path
       d="m 305.5238,551.1489 c 0,17.6749 13.1408,30.0396 30.9194,30.0396 17.7787,0 30.9195,-12.3647 30.9195,-30.0396 0,-17.9623 -13.6173,-29.9522 -30.9195,-29.9522 -17.3021,0 -30.9194,11.9899 -30.9194,29.9522 z m 30.9194,22.6602 c -10.1982,0 -15.8768,-7.8809 -15.8768,-22.6602 0,-14.7792 6.9803,-23.0966 15.8768,-23.0966 8.8966,0 15.8769,8.3174 15.8769,23.0966 0,14.7793 -5.6787,22.6602 -15.8769,22.6602 z"
       style="fill:#e30016;fill-rule:evenodd"
       id="path18" />
    <path
       d="m 527.0777,533.5837 c -2.4157,5.6017 -1.4667,12.2658 4.8376,17.6373 6.5995,5.6233 12.0324,5.4878 18.301,10.1987 6.1094,5.1239 2.0047,11.4832 -2.9651,12.3538 -6.8672,1.203 -13.4096,0.2646 -19.8216,-4.2783 l 2.5554,8.7178 c 12.2118,3.4997 33.8526,4.2334 36.8672,-10.6992 2.1524,-10.6618 -7.2257,-15.7907 -16.6145,-20.4463 -5.3431,-2.6494 -8.8132,-4.4357 -10.3371,-7.8367 -1.6549,-3.6928 -0.5022,-6.7418 2.8701,-8.4504 4.7501,-2.4065 13.0779,-2.3146 18.5858,2.7835 l 0.7783,-8.1657 c -9.9246,-4.4922 -29.6264,-4.4069 -35.0571,8.1855 z"
       style="fill:#e30016;fill-rule:evenodd"
       id="path20" />
    <path
       d="m 134.8982,524.4483 h 13.2855 v 55.4051 h -13.2855 z"
       style="fill:#e30016;fill-rule:evenodd"
       id="path22" />
    <path
       d="m 87.7641,533.5837 c -2.4158,5.6017 -1.4668,12.2658 4.8375,17.6373 6.5995,5.6233 12.0324,5.4878 18.301,10.1987 6.1095,5.1239 2.0047,11.4832 -2.9651,12.3538 -6.8672,1.203 -13.4096,0.2646 -19.8216,-4.2783 l 2.5554,8.7178 c 12.2118,3.4997 33.8526,4.2334 36.8672,-10.6992 2.1524,-10.6618 -7.2256,-15.7907 -16.6145,-20.4463 -5.3431,-2.6494 -8.8131,-4.4357 -10.337,-7.8367 -1.6549,-3.6928 -0.5023,-6.7418 2.8701,-8.4504 4.7501,-2.4065 13.0778,-2.3146 18.5857,2.7835 l 0.7783,-8.1657 c -9.9246,-4.4922 -29.6264,-4.4069 -35.057,8.1855 z"
       style="fill:#e30016;fill-rule:evenodd"
       id="path24" />
    <path
       d="m 189.7272,568.7136 h -20.1339 l -4.2703,11.1398 h -11.1483 l 20.8204,-55.4052 h 12.6501 l 20.8334,55.4052 h -14.6861 z m -3.6634,-9.9902 -6.19,-16.2798 -6.4708,16.2798 z"
       style="fill:#e30016;fill-rule:evenodd"
       id="path26" />
    <path
       d="m 63.6643,568.7136 h -20.134 l -4.2702,11.1398 H 28.1117 l 20.8204,-55.4052 h 12.6502 l 20.8334,55.4052 H 67.7295 Z m -3.6635,-9.9902 -6.1899,-16.2798 -6.4709,16.2798 z"
       style="fill:#e30016;fill-rule:evenodd"
       id="path28" />
    <path
       d="m 297.0193,260.7012 c 121.4166,0 219.8443,49.5164 219.8443,110.5978 0,61.0815 -98.4277,110.5981 -219.8443,110.5981 -121.4164,0 -219.8441,-49.5166 -219.8441,-110.5981 0,-61.0814 98.4277,-110.5978 219.8441,-110.5978 z m 0,23.667 c 111.924,0 205.3715,38.9201 205.3715,86.9308 0,48.0107 -93.4475,86.9314 -205.3715,86.9314 -111.924,0 -205.3718,-38.9207 -205.3718,-86.9314 0,-48.0107 93.4478,-86.9308 205.3718,-86.9308 z"
       style="fill:#e30016;fill-rule:evenodd"
       id="path30" />
  </g>
</svg>
