<?xml version="1.0" encoding="UTF-8" standalone="no"?>
<!-- Created with Inkscape (http://www.inkscape.org/) -->

<svg
   version="1.1"
   id="svg2"
   width="257.33334"
   height="257.33334"
   viewBox="0 0 257.33334 257.33334"
   sodipodi:docname="atala-seeklogo.eps"
   xmlns:inkscape="http://www.inkscape.org/namespaces/inkscape"
   xmlns:sodipodi="http://sodipodi.sourceforge.net/DTD/sodipodi-0.dtd"
   xmlns="http://www.w3.org/2000/svg"
   xmlns:svg="http://www.w3.org/2000/svg">
  <defs
     id="defs6" />
  <sodipodi:namedview
     id="namedview4"
     pagecolor="transparent"
     bordercolor="#000000"
     borderopacity="0.25"
     inkscape:showpageshadow="2"
     inkscape:pageopacity="0.0"
     inkscape:pagecheckerboard="0"
     inkscape:deskcolor="#d1d1d1" />
  <g
     id="g8"
     inkscape:groupmode="layer"
     inkscape:label="ink_ext_XXXXXX"
     transform="matrix(1.3333333,0,0,-1.3333333,0,257.33333)">
    <g
       id="g10"
       transform="scale(0.1)">
      <path
         d="M 0,1927.56 H 1927.56 V 0 H 0 v 1927.56"
         style="fill:transparent;fill-opacity:1;fill-rule:evenodd;stroke:none"
         id="path12" />
      <path
         d="m 1612.84,805.281 c 0.73,0.367 1.65,0.918 2.57,1.282 -1.66,-26.231 38.89,-30.45 70.26,-25.68 35.59,5.5 81.27,28.07 137.22,67.695 l 19.63,40.176 c -81.45,-42.012 -123.83,-62.191 -114.47,-17.981 l 85.85,161.067 h -102.36 l -17.99,-21.09 c -17.42,20.73 -49.34,26.23 -80.71,22.75 v -77.418 c 19.99,14.125 42.37,21.461 48.06,-3.672 l -48.06,-82.555 z m -180.15,20.914 c 6.6,3.301 13.39,6.789 20.36,10.457 23.66,-57.422 73.01,-74.117 159.79,-31.371 v 64.574 l -7.53,-12.656 c -64.2,-15.961 -35.58,50.266 -26.23,66.043 4.04,6.969 18.16,22.012 33.76,32.84 v 77.418 c -18.71,-2.2 -37.06,-7.53 -52.29,-14.68 -38.16,-18.16 -76.13,-63.109 -105.67,-135.754 -7.7,-5.136 -15.04,-9.722 -22.19,-13.761 z m 0,140.34 v 49.165 c 63.1,66.59 71.72,108.6 20.36,74.67 -6.97,-7.71 -13.76,-16.51 -20.36,-26.05 v 76.86 c 41.64,13.95 71.91,4.41 78.33,1.29 13.76,-6.79 67.51,-42.38 -78.33,-175.935 z M 1030.74,799.961 c 31.37,-31.371 88.61,-25.5 187.85,27.516 20.18,-57.969 85.13,-65.856 214.1,-1.282 v 43.11 c -42.2,-24.032 -74.3,-30.086 -91,-29.352 -19.62,0.735 -19.62,17.613 3.49,53.57 35.04,27.149 64.02,51.368 87.51,73.012 v 49.165 c -14.87,-15.774 -32.66,-32.837 -53.57,-50.63 16.14,34.305 33.75,70.26 53.57,99.25 v 76.86 c -56.51,-18.89 -134.48,-81.27 -202.17,-262.516 -77.23,-44.582 -101.08,-44.945 -88.24,-1.285 l 85.31,151.531 h -105.31 l -12.1,-21.1 c -13.03,22.57 -47.34,30.64 -79.44,27.7 v -79.428 c 19.99,14.125 42.38,21.461 48.06,-3.672 l -48.06,-82.555 z M 406.633,779.414 h 60.355 l 39.075,72.281 c 53.57,2.75 104.203,17.977 150.25,51 -48.981,-135.023 17.246,-165.289 222.531,-69.16 4.949,-59.992 63.105,-64.211 146.026,-26.972 1.83,-2.383 3.85,-4.586 5.87,-6.602 v 69.894 l -7.34,-12.656 c -64.021,-15.961 -35.587,50.266 -26.416,66.043 4.036,6.969 18.346,22.012 33.756,32.84 v 79.428 c -15.78,-1.28 -31.185,-5.32 -43.295,-11.37 -40.91,-21.28 -92.277,-67.144 -115.757,-145.476 -95.583,-57.055 -135.208,-50.082 -110.622,-0.367 l 66.774,120.527 h 84.39 l 26.782,48.066 h -84.387 l 36.324,69.16 H 779.594 l -42.012,-69.16 h -57.055 l -27.148,-48.066 h 48.062 C 679.793,939.02 601.094,903.613 536.152,902.695 l 114.473,198.125 c 56.871,73.93 -94.66,68.06 -243.992,-41.27 v -46.97 c 39.262,31.56 77.418,54.12 114.66,67.69 -41.828,-54.66 -81.457,-109.329 -114.66,-163.813 z m -321.5939,3.117 h 78.5159 l 77.972,75.219 h 132.266 l -45.129,-78.336 h 77.969 v 137.043 c -3.488,-6.059 -7.156,-12.113 -10.641,-17.98 H 292.16 c 39.074,46.23 77.231,84.203 114.473,114.103 v 46.97 c -19.262,-14.13 -38.711,-30.09 -57.422,-47.7 C 270.695,938.102 181.719,858.117 85.0391,782.531"
         style="fill:#2568b5;fill-opacity:1;fill-rule:evenodd;stroke:none"
         id="path14" />
    </g>
  </g>
</svg>
