<?xml version="1.0" encoding="UTF-8"?>
<svg version="1.1" xmlns="http://www.w3.org/2000/svg" viewBox="58 0 90 90" width="150" height="100">
<path d="M0 0 C9.18040129 7.60865944 14.02573087 17.3465707 16 29 C17.17301917 43.15314929 13.46689757 56.02215375 4.33984375 66.99609375 C-1.65793405 73.34909301 -10.09786462 79.39753657 -19.05859375 80.1796875 C-20.70680448 80.18632014 -22.35498571 80.10281339 -24 80 C-21.82136657 77.82136657 -19.96382775 76.93199687 -17.1875 75.625 C-7.31718627 70.72524598 -2.19266728 64.17565667 1.375 53.75 C4.35504219 43.00682271 4.1494256 33.00938646 -1 23 C-6.15715645 14.54279784 -12.88761291 9.04419603 -22.375 6.125 C-33.59919258 3.49506366 -43.90618364 4.67821388 -53.8125 10.6875 C-60.64659805 15.56899861 -63.37281246 22.2567104 -66 30 C-66.33 30 -66.66 30 -67 30 C-67.63706651 20.12546914 -64.85740752 12.49491098 -58.609375 4.80859375 C-43.20994534 -12.49707599 -18.17722321 -13.03619038 0 0 Z " fill="#FF6712" transform="translate(136,9)"/>
<path d="M0 0 C-2.16092661 2.16092661 -3.84912625 2.8960528 -6.625 4.125 C-16.29890866 8.92705567 -21.53432707 15.86743015 -25 26 C-28.20632462 36.43206095 -27.28202149 47.1636785 -22.375 56.9375 C-17.42947777 65.10001242 -10.2966655 70.61082634 -1.234375 73.578125 C10.63115873 75.81847053 21.06803856 73.93394889 31.3046875 67.56640625 C37.58427181 62.81524907 40.15736897 56.16041529 43 49 C43.33 49 43.66 49 44 49 C44.80145752 58.01639705 41.28786657 66.30207701 35.62109375 73.2265625 C28.19717312 81.34815278 18.21977564 87.3099812 7.1171875 88.37109375 C-7.00843782 88.77889845 -17.44465414 84.96470483 -27.8671875 75.26171875 C-36.88690326 65.91295756 -39.30258976 54.21882549 -39.31469727 41.65795898 C-39.09530342 29.47705665 -34.4171647 19.83074496 -26.12109375 11 C-18.71165432 4.05458607 -10.17826194 -0.19204268 0 0 Z " fill="#031756" transform="translate(92,0)"/>
<path d="M0 0 C-0.75925781 0.6290625 -1.51851562 1.258125 -2.30078125 1.90625 C-10.39512767 8.54022523 -10.39512767 8.54022523 -14 18 C-14.2092142 24.34249364 -12.63444463 28.85120344 -9 34 C-4.18072315 38.46664684 -0.65729983 39.16731885 5.8125 39.25 C7.61654297 39.28867188 7.61654297 39.28867188 9.45703125 39.328125 C13.3212885 38.9702445 15.64829015 37.89340528 19 36 C19.99 35.67 20.98 35.34 22 35 C22.71727778 33.35448038 23.38325228 31.68577711 24 30 C24.66 29.34 25.32 28.68 26 28 C25.77723437 33.45775804 24.55196848 36.42017838 20.81640625 40.42578125 C14.48554532 45.91252739 7.12968923 47.45217167 -1.05078125 47.33203125 C-7.06506769 46.65492615 -11.98213043 44.37878933 -15.921875 39.734375 C-21.12584831 32.05231916 -21.70661575 26.30889442 -21 17 C-19.32214034 10.27787436 -14.51945234 5.8954794 -9 2 C-2.90958904 -1.45479452 -2.90958904 -1.45479452 0 0 Z " fill="#FF6814" transform="translate(96,21)"/>
<path d="M0 0 C4.60214839 3.49988558 7.42455475 8.269758 9.234375 13.69921875 C10.13336522 22.13688414 9.15533428 28.68396088 4.234375 35.69921875 C1.44434509 38.79608059 -1.49488519 41.20644108 -5.765625 41.69921875 C-5.765625 41.03921875 -5.765625 40.37921875 -5.765625 39.69921875 C-4.8375 38.97734375 -3.909375 38.25546875 -2.953125 37.51171875 C0.52153539 34.70241886 1.91553377 32.02208724 3.234375 27.69921875 C3.79986433 21.76158079 3.0770597 16.98819785 0.234375 11.69921875 C-3.35828567 7.35020846 -6.35011236 5.15055435 -11.953125 4.41015625 C-18.78557733 4.00447939 -24.25440777 5.58534915 -29.765625 9.69921875 C-31.43188247 11.76675383 -32.70352639 13.77183318 -33.92578125 16.125 C-34.34150391 16.90423828 -34.34150391 16.90423828 -34.765625 17.69921875 C-35.095625 17.69921875 -35.425625 17.69921875 -35.765625 17.69921875 C-36.5224676 11.77061839 -35.02323887 8.53750324 -31.55078125 3.71875 C-23.57485512 -5.30434368 -10.00975079 -5.56274367 0 0 Z " fill="#031756" transform="translate(119.765625,24.30078125)"/>

</svg>
