<svg height="40" viewBox="-180 46 1198 700" width="60" xmlns="http://www.w3.org/2000/svg"><g fill="#0a53a0"><path d="M0 170.565l309.916 143.81s42.363-20.066 83.61-39.018c0 0 7.805-4.459 7.805-13.377 0 0 0-10.034-10.034-14.493 0 0-139.35-64.659-278.701-128.203L362.312 4.46 383.494 0l20.066 4.46 374.575 172.794s37.904 17.837 37.904 41.248c0 0 0 23.411-37.904 40.133L484.941 393.527l293.194 134.892s37.904 16.722 37.904 42.362c0 0 0 22.296-37.904 41.248L403.56 782.595s-7.803 6.688-20.066 6.688l-21.182-6.688-249.716-113.71 278.701-127.089 10.034-14.492s0-6.69-7.804-14.493l-83.61-37.903L0 618.718V455.956l134.892-62.43L0 333.328z"/></g></svg>