<?xml version="1.0" standalone="no"?>
<!DOCTYPE svg PUBLIC "-//W3C//DTD SVG 20010904//EN"
 "http://www.w3.org/TR/2001/REC-SVG-20010904/DTD/svg10.dtd">
<svg version="1.0" xmlns="http://www.w3.org/2000/svg"
 width="150" height="100" viewBox="56 56 66 66"
 preserveAspectRatio="xMidYMid meet">

<g transform="translate(0.000000,180.000000) scale(0.100000,-0.100000)"
fill="#e92d2d" stroke="none">
<path d="M395 930 l0 -150 141 0 c163 0 174 4 181 73 6 52 -7 77 -41 78 -19 0
-19 1 4 12 14 6 28 16 32 22 13 18 9 70 -8 93 -14 21 -22 22 -162 22 l-147 0
0 -150z m203 68 l3 -38 -45 0 -46 0 0 41 0 40 43 -3 c41 -3 42 -4 45 -40z m2
-128 l0 -40 -45 0 -45 0 0 40 0 40 45 0 45 0 0 -40z"/>
<path d="M766 978 c-11 -15 -16 -45 -16 -88 0 -106 5 -110 161 -110 72 0 129
4 129 9 0 5 2 15 5 23 4 10 -14 13 -87 13 -89 0 -93 1 -96 23 -3 21 -1 22 92
22 l96 0 0 53 c0 29 -5 58 -12 65 -8 8 -53 12 -134 12 -116 0 -124 -1 -138
-22z m182 -45 c3 -21 -1 -23 -42 -23 -38 0 -46 3 -46 18 0 27 10 33 50 30 28
-2 36 -8 38 -25z"/>
<path d="M1106 984 c-22 -22 -22 -151 0 -182 14 -21 22 -22 143 -22 125 0 129
1 133 23 4 21 2 22 -86 22 -87 0 -91 1 -94 23 -3 21 -1 22 92 22 l96 0 0 46
c0 82 -3 84 -145 84 -99 0 -127 -3 -139 -16z m174 -49 c0 -22 -4 -25 -40 -25
-36 0 -40 3 -40 25 0 23 4 25 40 25 36 0 40 -2 40 -25z"/>
</g>
</svg>
