<?xml version="1.0" encoding="iso-8859-1"?>
<!-- Generator: Adobe Illustrator 27.0.0, SVG Export Plug-In . SVG Version: 6.00 Build 0)  -->
<svg version="1.1" id="Layer_1" xmlns="http://www.w3.org/2000/svg" xmlns:xlink="http://www.w3.org/1999/xlink" x="0px" y="0px" width="240" height="160"
	 viewBox="63 193 114 114" style="enable-background:new 0 0 500 500;" xml:space="preserve">

<g>
	
	<g>
		<g>
			
				<radialGradient id="SVGID_1_" cx="442.1969" cy="-2859.3105" r="347.7032" gradientTransform="matrix(0.2804 0 0 -0.2804 -18.3567 -566.4097)" gradientUnits="userSpaceOnUse">
				<stop  offset="0.1989" style="stop-color:#F7F7F7"/>
				<stop  offset="0.7099" style="stop-color:#D6D6D7"/>
				<stop  offset="1" style="stop-color:#C8C9CA"/>
			</radialGradient>
			<path style="fill:url(#SVGID_1_);" d="M120.363,302.665c-29.064,0-52.628-23.564-52.628-52.628s23.564-52.628,52.628-52.628
				s52.628,23.564,52.628,52.628S149.427,302.665,120.363,302.665z"/>
		</g>
		<g>
			<g>
				<path style="fill:#009B43;" d="M123.708,203.951c0.297,0.743,1.115,0.52,1.635,1.041c0.297-0.074,0.595,0.372,0.966,0.297
					c0.446,0.223,0.966,0.149,1.338,0.446c1.264,0.149,2.676,0.074,3.865,0.446l0.074-0.074c-0.223-0.297-0.446-0.818-0.892-0.966
					c-0.372-0.372-4.906-1.635-4.906-1.635l-1.71-0.818c-0.372,0-0.52-0.446-0.892-0.297c-0.223,0-0.446-0.149-0.372-0.372
					c0.669,0.074,1.412,0.223,2.081,0.595c0.223-0.297-0.223-0.595-0.223-0.818c0-0.149,0.149-0.149,0.223-0.223l0.446,0.446
					c0.372,1.189,1.635,1.264,2.676,1.487c0,0,0.595,0.223,1.561,0.446c0.297,0,0.446,0.595,0.743,0.297
					c-0.149-1.412-1.635-1.041-2.379-1.858l-1.041-0.818l-1.264-0.669c-1.561-0.446-3.345-0.074-4.832,0.52
					C121.701,202.167,122.444,203.505,123.708,203.951z"/>
			</g>
			<g>
				<path style="fill:#009B43;" d="M108.99,204.099c-0.223,0.446-0.892,0.595-0.818,1.041c3.048-0.892,4.683-1.858,5.798-2.973
					c0.446-0.149,0.966-0.595,1.412-0.52c-0.372,0.595-1.189,0.669-1.71,1.189c0,0.074,0.074,0.074,0.149,0.149
					c0.372-0.372,2.527-0.595,2.973-0.52c-3.196,0.966-6.318,2.304-7.359,2.676v0.149h2.081c0.743-0.074,1.412-0.595,2.23-0.669
					c1.264-0.52,2.75-0.669,3.494-1.858c0.446-0.743,1.189-1.115,1.561-1.858c-0.743-0.223-1.858-0.149-2.602,0.223
					c-1.635,0-3.494,0.074-4.98,0.743C110.105,202.167,109.807,203.505,108.99,204.099z"/>
			</g>
			<g>
				<path style="fill:#009B43;" d="M106.388,205.66c-1.71,0.074-2.602,1.338-3.791,2.379c0.743-0.074,1.561-0.223,2.304-0.669
					c1.635-1.412,3.419-2.825,4.609-4.683l-0.297-0.52c-0.892,0.149-1.784,0.297-2.453,0.818c-1.189,0.074-2.081,1.189-3.048,2.007
					c-0.818,0.52-0.595,1.635-0.966,2.23c0.892-0.595,3.048-2.973,5.501-4.088l0.149,0.149c-0.595,0.669-1.561,1.338-2.379,1.858
					c0.074,0.074,0.372,0.074,0.52,0.149C106.611,205.363,106.537,205.586,106.388,205.66z"/>
			</g>
			<g>
				<path style="fill:#009B43;" d="M135.081,206.552c0.223,0,0.669,0.297,0.818-0.074c-0.52-0.52-1.189-0.892-1.858-0.966
					c-0.595-0.297-2.081-0.892-3.345-2.379c0-0.074,0-0.149,0.074-0.223c0.52,0.52,3.196,2.081,4.46,2.453
					c0.818,0.372,1.264,1.264,2.081,1.412v-0.149c-1.487-1.412-3.048-2.75-4.906-3.791c-0.743-0.372-1.561-0.297-2.379-0.446
					c0,1.338,1.189,2.23,1.858,3.196C132.851,206.106,133.891,207.147,135.081,206.552z"/>
			</g>
			<g>
				<path style="fill:#009B43;" d="M140.135,208.039c1.784,1.933,4.163,2.527,5.575,4.757c0.297,0.446,0.669,0.892,1.041,0.966
					c0-0.446-0.595-0.669-0.669-1.115c-1.561-0.892-3.865-4.014-3.865-4.014c-0.595-0.446-1.041-0.966-1.71-1.264
					c-0.966-0.743-2.379-1.041-2.973-2.304c0-0.223-0.297-0.446-0.074-0.743c0.52,0.297,0.669,0.892,1.115,1.338
					c0.223,0.074,3.568,1.412,4.46,3.122c0.074,0.074,3.271,3.568,3.94,3.865h0.074c-0.223-0.743-0.818-1.412-1.115-2.156
					c-1.784-1.338-2.453-3.494-4.46-4.609c-1.264-0.446-2.379-1.264-3.642-1.71l-0.223-0.223c-0.297-0.074-0.669-0.372-0.892-0.074
					c0.149,0.52,0.669,1.041,0.892,1.561C138.054,206.627,139.169,207.221,140.135,208.039z"/>
			</g>
			<g>
				<path style="fill:#009B43;" d="M92.116,215.547c0.446-0.52,0.595-1.264,1.115-1.858c0.446-0.743,2.973-3.568,3.419-4.757
					c0.595-0.074-0.074,0.52,0.149,0.743c0.743-0.743,1.71-1.338,2.527-1.933c0.372-0.372,1.041-0.818,1.264-0.966
					c0.297-0.223,0.372-0.595,0.818-0.743c0.074,0,0.074,0.149,0.074,0.223c-1.264,1.561-3.122,2.527-4.534,3.717
					c0,0-0.372,0.297-0.669,0.818c-0.297,0.074-3.94,4.832-4.088,5.649h0.149c0.595-1.189,1.784-2.007,2.676-3.122
					c1.487-2.453,4.311-2.899,6.095-4.906c0.743-1.041,1.635-2.23,1.487-3.717c-0.372,0.074-0.743,0.149-1.115,0.372
					c-2.304,2.304-5.575,2.75-7.656,5.501c-0.818,0.52-0.966,1.561-1.487,2.304C92.339,213.762,91.744,214.729,92.116,215.547z"/>
			</g>
			<g>
				<path style="fill:#009B43;" d="M118.727,207.742c-1.189-0.595-2.304-1.115-3.568-1.412l-1.115,0.074
					c-1.561-0.818-3.271-0.52-4.98-0.52c-0.818,0-1.635,0-2.23,0.446c-0.149,0.074-0.074,0.297,0,0.372
					c0.743,0.074,4.757,0,7.062,0.446l2.081-0.372c0.223,0.595-0.743,0.074-0.743,0.595c0.446,0.149,0.892,0,1.338,0.223
					c0.074,0.074-0.074,0.149-0.149,0.149c-1.412-0.149-7.731-0.669-8.177-0.595c-0.743-0.223-1.71-0.223-2.304,0.149l0.074,0.149
					c0.669-0.074,1.338,0.297,2.007,0.297c2.007,0.595,4.46,0.223,6.541,0.52c0.892,0.149,1.784-0.074,2.676,0.149
					C117.687,208.113,118.504,208.411,118.727,207.742z"/>
			</g>
			<g>
				<path style="fill:#009B43;" d="M120.363,208.633c0.669,0.669,1.71,0.446,2.527,0.595c2.156-0.818,4.46-2.453,6.987-1.784
					l0.149-0.149c-0.52-0.297-1.264-0.074-1.858-0.223c-2.379,0-4.237,1.71-6.69,0.966c1.412-0.446,3.122-0.446,3.865-0.743
					c0,0,0.669-0.223,1.71-0.297c0.149-0.149,0.446-0.074,0.52-0.297c-0.074-0.149-0.149-0.149-0.297-0.223
					c-0.669-0.52-1.635-0.446-2.527-0.52c-1.858,0.446-3.345,1.561-4.906,2.527C120.065,208.633,120.288,208.633,120.363,208.633z"
					/>
			</g>
			<g>
				<path style="fill:#009B43;" d="M132.182,206.85c-0.297-0.074-0.669-0.223-0.892-0.074c0,0-0.074-0.074-0.074-0.149l-2.825-0.372
					l-0.149,0.074c0.149,0.297,0.595,0.149,0.818,0.297c1.115,0,2.081,0.595,3.196,0.297v-0.074H132.182z"/>
			</g>
			<g>
				<path style="fill:#009B43;" d="M144.298,212.424c0.297,0.372,0.446,0.892,0.743,1.264c0.669,0.52,1.412,0.892,2.081,1.487
					l0.149-0.149c-0.52-0.297-0.743-0.892-1.189-1.338c-0.669-0.966-1.487-1.412-2.156-2.304c-0.892-0.446-1.561-1.041-2.379-1.487
					c-1.71-1.858-4.088-2.973-6.69-2.75l-0.223,0.297c0.372,0.372,0.595,0.966,0.818,1.487c0.669,0.669,1.115,1.561,1.933,2.007
					c0.966,0.372,1.635,1.189,2.676,1.412c0.595,0.149,1.115,0.446,1.635,0.818c2.081,0.595,2.973,2.676,4.98,3.345
					c0.223,0.149,0.669,0.149,0.892,0c0-0.074,0-0.149,0-0.223c-0.595-0.818-1.635-1.487-1.635-1.487
					c-2.081-0.669-4.386-3.494-8.177-5.203c-0.297-0.149-1.784-1.189-2.081-1.71l0.223-0.223c0.223,0.223,6.616,3.568,8.325,5.724
					C144.967,213.688,143.778,212.796,144.298,212.424z"/>
			</g>
			<g>
				<path style="fill:#009B43;" d="M126.607,211.533l0.223,0.149c1.189-0.52,2.676-0.074,3.568-1.115
					c1.115-0.966,1.784-2.304,3.345-2.602v-0.149c-1.412,0.223-4.683,2.973-5.278,2.825c0.149-0.297,0.595-0.669,0.892-0.892
					c1.189-1.041,1.412-0.966,2.379-1.71c0.372-0.223,0.892-0.149,1.115-0.52l-0.074-0.149c-0.372,0.074-0.818,0.074-1.264,0.149
					c-0.966,0-1.858,0.52-2.602,1.041C127.87,209.154,127.499,210.566,126.607,211.533z"/>
			</g>
			<g>
				<path style="fill:#009B43;" d="M123.708,210.195c-0.074,0.223-0.52,0.372-0.446,0.669c0.297,0.149,0.297-0.223,0.595-0.074
					c0.595-0.372,1.487-0.149,2.081-0.743c0.595-0.595,1.858-0.52,1.933-1.338c-0.966,0-1.71,0.446-2.453,0.892
					c-0.223,0.223-0.669,0.52-0.966,0.372c0.297-0.372,1.487-1.264,2.379-1.338c0.595-0.52,1.561-0.074,2.081-0.669v-0.149
					C126.904,207.37,124.748,208.485,123.708,210.195z"/>
			</g>
			<g>
				<path style="fill:#009B43;" d="M105.199,207.965c-0.223,0.074-0.372,0.297-0.297,0.52c0.818,0.818,2.379,0.966,2.379,0.966
					c0.52,0.074,1.041,0.223,1.561,0.297c0.372,0.223,1.71,1.115,1.338,1.189l0.149,0.52c0.52,1.041,1.784,1.264,2.825,1.189
					c0.074-0.743-0.818-0.669-1.115-1.189c-0.818-0.818-1.784-1.635-2.676-2.379C108.172,208.188,106.685,208.039,105.199,207.965z"
					/>
			</g>
			<g>
				<path style="fill:#009B43;" d="M96.873,214.134c0,0-3.271,2.453-4.311,3.642c1.561-0.818,2.825-2.304,4.609-2.825
					c0.297-0.446,0.818-0.149,1.189-0.595c2.602-0.892,4.237-3.419,5.649-5.575c0.149-0.074,0.149-0.372,0-0.446
					c-0.743,0.372-1.338,0.149-2.081,0.372c-0.966,0.595-1.71,1.264-2.602,1.933c-0.223,0-0.297,0.149-0.446,0.223
					c-2.081,0.966-3.642,2.973-5.129,4.609c-0.297,0.446-0.743,0.892-0.966,1.338c0.297,0,0.446-0.372,0.669-0.446
					c0.595-0.52,4.906-3.791,4.906-3.791s3.271-2.379,4.311-2.825c-0.446,1.115-1.858,1.561-2.602,2.379
					c0.372,0.074,0.669-0.074,0.966-0.223c0.074,0.074,0.149,0.149,0.149,0.223c-0.743,0.669-1.784,0.297-2.602,0.892
					C97.914,213.391,97.394,213.688,96.873,214.134z"/>
			</g>
			<g>
				<path style="fill:#009B43;" d="M133.297,209.451c0-0.074,0.966-0.223,1.412-0.297v-0.297l-0.372-0.52
					c-1.412,0-2.453,1.338-3.345,2.304l0.149,0.149c0.966-0.223,1.858-0.52,2.825-0.669l1.635,0.149v-0.074
					c-0.818-0.966-2.453-0.446-3.419-0.149c0.074-0.074-0.074-0.074,0-0.149C132.479,209.674,132.925,209.526,133.297,209.451z"/>
			</g>
			<g>
				<path style="fill:#009B43;" d="M110.03,208.559v0.223c1.487,0.52,2.676,1.784,4.534,1.487c0.372,0,0.818,0.223,1.115,0.149
					c-0.743-1.264-2.081-2.156-3.642-1.858v0.223c0.372,0.446,1.264,0.297,1.784,0.669c0,0.149,0.149,0.372,0,0.446
					C113.152,209.823,110.774,208.633,110.03,208.559z"/>
			</g>
			<g>
				<path style="fill:#009B43;" d="M104.381,209.079c0.297,0.297,0.743,0.669,1.189,0.669c-0.149-0.297-0.372-0.52-0.52-0.743
					C104.827,208.782,104.455,208.782,104.381,209.079z"/>
			</g>
			<g>
				<path style="fill:#009B43;" d="M108.915,210.12c-0.892-0.372-2.081-0.074-2.973-0.52l-0.149,0.074
					c-0.074,0.818,0.892,0.52,1.338,0.966c0.223,0.149,0.52-0.149,0.669,0.074c0.818,0,1.487,0.223,2.156,0.52
					C109.956,210.789,109.361,210.492,108.915,210.12z"/>
			</g>
			<g>
				<path style="fill:#009B43;" d="M103.34,210.789c0.595-0.223,1.338-0.149,1.858-0.372c-0.074-0.52-0.743-0.52-1.189-0.743
					C103.638,209.972,103.34,210.417,103.34,210.789z"/>
			</g>
			<g>
				<path style="fill:#009B43;" d="M149.65,214.506c1.338,0.446,1.858,1.784,2.899,2.602h0.223l-0.223-0.52
					c-1.487-1.561-3.122-3.048-4.311-4.906c-0.074-0.223-0.297-0.52-0.149-0.743c0.446,0.223,0.595,0.669,0.818,1.041
					c0.297,0.372,2.23,2.899,2.825,3.122c0-0.446-0.372-0.743-0.149-1.115c0.074,0,0.446,1.635,0.966,2.081
					c0.074,0,0.149,0.074,0.223,0c-0.372-0.595-0.446-1.338-0.818-1.933c-0.446-0.446-0.446-1.041-1.041-1.264
					c0.074-0.372-0.297-0.372-0.52-0.595c-0.743-1.041-2.156-1.264-2.973-2.453h-0.223c-0.149,0.966,0.297,1.858,0.52,2.75
					C147.717,213.762,149.055,213.762,149.65,214.506z"/>
			</g>
			<g>
				<path style="fill:#009B43;" d="M112.112,210.863c0.297,0.074,0.595,0.669,0.966,0.372c0.074-0.149,0.149-0.297,0-0.446
					c-0.595-0.149-1.041-0.446-1.561-0.743C111.443,210.492,111.889,210.492,112.112,210.863z"/>
			</g>
			<g>
				<path style="fill:#009B43;" d="M88.176,217.107c0.297-0.595,1.115-0.669,1.338-1.338c0.223-0.52,0.966-2.527,1.264-2.899
					c0.595,0.074-0.223,0.52,0.074,0.743c0.595-0.223,1.041-0.818,1.189-1.487c0.149-0.223-0.074-0.595,0.223-0.743
					c0-0.372,0.372-0.743,0-0.966c-0.52,0.223-0.892,0.743-1.338,1.115c-0.595,0.743-0.818,1.858-1.412,2.602
					c0,0.892-1.041,1.115-1.338,1.784C88.176,216.29,88.028,216.81,88.176,217.107z"/>
			</g>
			<g>
				<path style="fill:#009B43;" d="M136.419,212.276c0.595,0.297,3.122,1.189,4.163,1.338c0.223,0,0.446,0.223,0.669,0.074
					l-0.297-0.223c-1.784-0.743-3.419-2.007-5.352-2.453c-0.669-0.297-1.561-0.223-2.304-0.223
					c-0.743,0.149-1.412,0.446-2.156,0.595c0.446,0.297,0.743,0.892,1.264,1.041c1.412,1.189,3.196,1.71,5.055,2.081
					c0.372,0,0.669,0.372,1.041,0.223c1.041,0.446,2.23,0.595,3.196,1.338c0.818,0,1.858,0.074,2.676,0.074
					c-0.595-1.115-1.784-1.487-2.899-1.561c-0.372-0.074-0.595,0.372-0.818,0c0.074-0.372,0.595,0,0.669-0.297
					c-1.115-0.446-3.048-0.743-3.122-0.818c-0.818-0.149-2.825-1.264-3.568-1.561c-0.297-0.149-1.041-0.074-1.041-0.446
					C134.56,211.384,135.527,211.83,136.419,212.276z"/>
			</g>
			<g>
				<path style="fill:#009B43;" d="M105.868,214.654c1.487-0.595,1.784-2.081,2.304-3.345c-0.149-0.297-0.52-0.149-0.818-0.297
					l-0.966-0.074c-0.743-0.223-1.561,0.297-2.379,0.149c-1.933,0.223-2.379,2.453-4.088,2.973c-0.966,0.818-2.379,0.966-3.271,1.71
					l0.074,0.074c1.041-0.446,3.419-0.966,3.865-1.041c1.189-0.223,1.635-1.561,2.453-2.23l0.074,0.074
					c0.074,0.297-0.223,0.372-0.372,0.669c-0.074,0.297-0.446,0.446-0.446,0.743c0,0,3.345-1.858,4.311-2.23
					c0.074,0.074,0.149,0.149,0.149,0.223c-0.595,0.372-3.196,1.635-3.94,2.156c-0.372,0.074-1.189,0.743-4.014,1.338
					c-0.595,0.223-1.041,0.372-2.676,0.595c-0.595,0.223-1.264,0.446-1.784,0.892c0.669,0.074,1.561,0.074,2.379,0
					c1.635-0.297,3.271-0.52,5.055-0.669c1.338,0,2.007-1.264,3.271-1.561C105.347,214.803,105.57,214.729,105.868,214.654z"/>
			</g>
			<g>
				<path style="fill:#009B43;" d="M91.596,213.688l-0.074-0.074c-0.297,0.149-0.52,0.446-0.818,0.743
					c-0.074,0.52-0.595,0.966-0.446,1.487c0.372-0.074,0.818-0.223,1.115-0.52L91.596,213.688z"/>
			</g>
			<g>
				<path style="fill:#009B43;" d="M151.583,216.885c-0.892-1.412-2.453-1.858-3.717-2.973h-0.372c0,0.892,0.595,1.71,1.041,2.453
					c0.074,0.446,0.223,0.818,0.52,1.189c0.149,0.595,0.595,1.041,0.669,1.635c0.297,0.595,0.669,0.892,0.818,1.487
					c1.635,1.338,2.156,3.271,3.791,4.534c0.892,0.446,1.412,1.264,1.933,2.081c0.149-0.074,0.074-0.223,0.149-0.297
					c0.223-0.223,0.446,0.223,0.595,0.372c0.074,0,0.149,0.149,0.223,0c-0.52-0.892-1.858-1.784-1.784-1.784
					c0,0-2.899-5.426-7.21-9.812l0.149-0.223c0.372,0.223,3.048,2.75,3.196,3.122c0.818,0.892,1.487,2.081,2.156,2.973
					c0.074-0.074,0.149-0.149,0.074-0.149c-0.074-0.966-0.149-1.858-0.297-2.899C153.144,217.702,152.103,217.702,151.583,216.885z"
					/>
			</g>
			<g>
				<path style="fill:#009B43;" d="M154.184,219.04l0.074,0.149c0.149,0.743,0.595,1.338,0.892,2.007
					c0.297,0.446,0.223,0.892,0.595,1.189c0.446,1.635,1.264,3.048,2.304,4.237c1.264,1.189,1.338,3.271,3.048,4.237l0.074-0.074
					c-0.297-0.818-0.223-1.784-0.818-2.453c-0.818-0.892-1.264-2.081-2.304-2.899l0.223-0.149c0.149,0,0.223,0.223,0.372,0.223
					c0.149-1.412-3.345-4.757-2.973-6.17c-0.52-0.966-1.115-2.156-1.115-3.345c-0.149-0.149,0-0.52-0.372-0.446
					C153.813,216.662,154.333,217.777,154.184,219.04z"/>
			</g>
			<g>
				<path style="fill:#009B43;" d="M89.737,220.378c-1.71,0.52-2.23,2.527-3.196,3.568c-0.372,0.669-2.973,4.832-3.271,6.318
					c-0.223,0.669-0.223,1.561-0.223,2.379l0.074,0.149c0.297-0.297,0.446-0.818,0.595-1.189c0.149-0.223,0-0.52,0.223-0.669
					c0-2.453,2.081-4.163,3.494-5.798c1.264-0.743,1.784-2.453,2.602-3.419c1.041-1.041,1.635-2.304,1.561-3.717
					c0-0.52-0.297-1.041,0-1.487c-0.074-0.595-0.595-0.372-0.892-0.149c-0.818,0.074-1.635,0.595-2.081,1.115
					c-0.743,0.446-0.966,1.264-1.487,1.933c0.074,0.446-0.372,0.669-0.372,1.041c-0.818,0.892-1.487,2.156-1.784,3.345
					c-0.297,0.892-0.52,1.635-0.595,2.602h0.223c0.52-0.892,2.899-4.683,3.345-5.649c0.149-0.595,1.71-2.304,2.156-2.527
					l0.149,0.149c-0.297,0.669-0.818,1.115-1.189,1.71v0.297l0.297-0.074c0.297-0.223,0.595-0.595,0.892-0.595
					C90.406,219.932,89.96,220.081,89.737,220.378z"/>
			</g>
			<g>
				<path style="fill:#009B43;" d="M155.894,218.892c0-0.297-0.149-0.52,0.149-0.743l0.223,0.149
					c-0.149,0.669-0.372,1.635,0.297,2.156c0.074,0.297,1.115,2.081,2.081,3.494c0.149-0.223,0-0.669,0.149-0.966
					c0.372,0.149,0.074,0.743,0.149,1.041c0,0.595,0.149,1.189,0.446,1.71c0.149,0.595,1.71,2.676,1.71,3.345
					c0.297,0.149-0.074,1.041,0.372,0.669c-0.074-0.892,0.074-2.23-0.446-3.048c-0.52-1.561-0.818-3.345-1.784-4.757
					c0-0.297-0.149-0.223-0.297-0.595c-1.338-1.115-1.858-2.527-2.676-3.94c-0.446-0.372-0.669-0.892-1.189-1.189
					c0,0.818,0.149,1.041,0.372,1.635C155.522,218.297,155.597,218.371,155.894,218.892z"/>
			</g>
			<g>
				<path style="fill:#009B43;" d="M78.885,233.163c0-0.149,0.074-0.372,0-0.52c0.149-1.189,0.669-3.717,0.743-4.088
					c0.074-0.223,0.52-1.338,0.818-1.784c0.52-1.041,0.669-1.71,1.115-2.304c0.074-0.372,0.372-0.595,0.446-0.966
					c0.595-0.818,0.818-1.858,0.892-2.973c0.149-0.297-0.074-0.818,0.223-0.966c0.372,0.52-0.074,1.189,0.149,1.784
					c0,0,0.669-1.189,0.743-1.635c0.297-0.669,0.372-1.412,0.743-2.081c0.074,0,0.149,0,0.223,0
					c-0.074,0.595-0.297,1.189-0.446,1.71c0,0.966-0.743,1.264-0.892,2.007c-0.52,0.595-0.595,1.264-0.966,1.933
					c-0.074,0.149-0.446,1.041-0.892,2.007c-0.372,0.743-0.743,1.487-1.115,2.156c-0.149,0.669-0.446,1.115-0.595,1.933
					c0,0.149-0.52,2.304-0.595,3.494c1.264-0.743,1.115-2.304,1.71-3.419c0.446-1.189,1.041-2.379,1.412-3.642
					c0.223-0.892,0.595-1.561,0.892-2.453c0.818-0.892,0.818-2.156,1.561-3.048c0-0.52,0.223-0.892,0.223-1.338
					c0.297-0.595-0.223-1.115,0-1.858l-0.223-0.818c-0.446,0.074-0.446,0.818-0.818,1.189c-1.264,1.487-2.527,3.122-3.048,5.055
					c-0.669,0.892-1.635,1.635-1.933,2.75c-0.743,1.264-1.041,2.75-1.264,4.237c-0.074,1.338,0.595,2.379,0.743,3.568h0.149V233.163
					z"/>
			</g>
			<g>
				<path style="fill:#009B43;" d="M138.574,217.405l0.297,0.372c0.743,0.372,1.338,1.189,2.156,1.189
					c1.115,0.372,2.23,0.818,3.419,0.446l-0.074-0.446c-0.966-0.52-3.048-1.264-3.865-1.561c0.595-0.372,2.602,0.297,3.122,0.743
					l0.223-0.074c0.223-0.372-0.372-0.372-0.372-0.743c0.149-0.743,1.115,0,1.189-0.669c-0.669-0.149-1.412-0.223-2.23-0.297
					C141.027,216.29,139.838,217.107,138.574,217.405z"/>
			</g>
			<g>
				<path style="fill:#009B43;" d="M95.981,218.817c-0.074,0.074,0,0.223,0.074,0.223l1.635,0.074
					c1.561-0.149,3.196-0.52,3.94-1.933c-2.081,0-3.94,0.743-6.021,0.446c-1.041,0.223-2.304,0-3.048,0.966l0.149,0.149
					c1.115-0.595,6.244-0.818,6.616-0.595c-0.818,0.446-1.784,0.074-2.602,0.372C97.096,219.412,96.279,218.52,95.981,218.817z"/>
			</g>
			<g>
				<path style="fill:#009B43;" d="M151.434,224.392c0.297,0.743,0.669,0.966,1.115,1.412c0.743,0.669,2.973,2.75,3.865,3.791
					c0.074-0.223,0.149-0.52,0.074-0.743c-0.669-1.561-1.933-2.825-3.196-3.94c-0.966-1.115-1.487-2.379-2.676-3.419
					c-0.966-1.189-1.264-2.75-2.453-3.865c-1.189-0.669-2.453-0.297-3.717-0.149c0.074,0.372,0.149,0.595,0.372,0.892
					c0.074,0.743,0.52,1.264,0.52,1.933c0.223,1.189,0.818,2.304,1.561,3.196c0.372,0.149,0.595,0.52,0.966,0.669
					c1.115,0.966,2.156,1.933,2.825,3.196c0.446,0.446,0.743,1.189,1.338,1.487c1.041,1.338,2.973,1.71,4.386,2.602l0.149-0.074
					c0.074-1.71-1.784-2.156-2.899-2.825c0.297-0.149,0.743-0.074,1.115,0.074c0.223,0.074-1.115-1.264-2.081-1.858
					c0,0-2.081-2.081-2.825-3.717c-0.52-0.818-1.561-1.933-1.041-1.412c0,0-1.858-2.825-3.345-3.642
					c0.074-0.149,0.223-0.149,0.372-0.149c1.338,0.595,2.676,2.156,3.122,2.899c0.743,0.892,1.858,2.973,1.858,2.973
					c-0.297-0.297-0.297-0.669-0.297-1.041h0.149c0,0.223,0.297,0.297,0.223,0.52C151.062,224.021,151.137,224.021,151.434,224.392z
					"/>
			</g>
			<g>
				<path style="fill:#009B43;" d="M82.973,226.251c1.784-1.041,1.338-3.345,2.453-4.832c0.966-1.115,1.264-2.453,2.156-3.568l0,0
					c-1.933,0.52-1.933,2.899-2.973,4.237C84.088,223.5,83.196,224.764,82.973,226.251z"/>
			</g>
			<g>
				<path style="fill:#009B43;" d="M90.109,222.46c-1.189,2.453-3.791,4.163-5.129,6.541c-0.074,0.669-0.595,1.189-0.372,1.858
					h0.149l1.041-1.264c0.297-0.297,2.081-2.23,2.081-2.23c0.595-0.52,0-1.635,0.669-2.081c0.223,0.223-0.074,0.52,0.074,0.743
					l0.297-0.297c0.446-1.189,3.271-3.345,4.237-4.98c0.074,0,0.074,0.149,0.149,0.223c-0.149,0.223-0.372,0.52-0.446,0.818
					c0.52-0.223,1.041-0.52,1.561-0.966c0.149,0.074,0,0.149,0.074,0.223c-1.189,1.041-4.163,3.122-4.014,3.345
					c0.297-0.149-0.892,1.041-1.561,1.858c-0.149,0.297-0.892,1.635-1.561,2.23c-0.966,1.412-2.973,2.453-3.419,4.088
					c2.23-1.115,3.568-3.345,5.426-4.832c0.223-0.743,1.115-1.412,1.71-1.858c1.189-1.784,3.865-2.453,4.088-4.906
					c-0.074-0.669,0.074-1.412,0-2.081c-1.189-0.149-2.304,0.223-3.196,0.818C91.67,220.824,90.629,221.567,90.109,222.46z"/>
			</g>
			<g>
				<path style="fill:#009B43;" d="M154.259,220.824c-0.149,1.338,1.041,3.419,1.264,3.791c0.446,0.595,1.041,1.115,1.561,1.561
					l-0.074-0.223c-0.669-0.818-1.189-1.71-1.487-2.75C155.151,222.534,154.779,221.567,154.259,220.824z"/>
			</g>
			<g>
				<path style="fill:#009B43;" d="M81.858,229.075c-0.223,0.52-0.595,1.041-0.52,1.635c0.52-0.966,1.933-2.75,2.156-2.676
					c0.595-0.52,0.818-1.412,0.669-2.156C83.122,226.771,82.453,227.886,81.858,229.075z"/>
			</g>
			<g>
				<path style="fill:#009B43;" d="M157.752,226.92l-0.149,0.223c0.52,0.52,0.52,1.412,1.338,1.784
					C158.867,228.183,158.198,227.514,157.752,226.92z"/>
			</g>
			<g>
				<path style="fill:#009B43;" d="M157.158,228.035c-0.372,1.189-0.297,2.602,0,3.94c0.297,0.595,0.669,1.264,1.041,1.933
					c1.041,1.487,1.041,3.419,1.487,5.129c0.074,0.446,0.446,0.743,0.446,1.189c0.446,0.52,0.892,1.041,0.892,1.784
					c0,0.595,0.223,1.041,0.297,1.635c0.149,0.297-0.074,0.595,0.223,0.818c0.223,1.189,0.52,2.23,1.189,3.196
					c0.297,0.074,0.297-0.372,0.52-0.595c0-0.149,0-0.372-0.223-0.372c-0.372-0.595-0.892-1.189-0.892-2.007
					c-0.595-1.487-0.52-2.973-1.189-5.872c-1.71-2.973-2.527-8.177-3.271-9.069c0.074-0.074,0.074-0.074,0.149-0.074
					c1.264,1.338,1.784,3.196,2.23,4.98c0.446-0.372,0.446,0.223,0.223,1.561c0.223,0.595,1.041,2.081,1.041,2.081
					c0.074,0.446,0.297,0.892,0.297,1.264c0.297,0.223,0.074,0.818,0.446,0.892c0.074-0.372-0.074-0.966,0.149-1.338
					c0.297,0.372,0.149,0.818,0.074,1.338c-0.223,0.743-0.149,2.23-0.149,2.23s0.149,1.264,0.372,1.933
					c0.297,0.669,0.446,1.487,0.966,1.933c0.223-0.074,0.074-0.52,0.149-0.669c0.149-1.71-1.115-2.973-0.669-4.757
					c0.149-2.081-0.966-3.865-0.892-6.021c-0.223-0.818,0.223-1.933-0.446-2.676C160.428,230.785,158.644,229.372,157.158,228.035z"
					/>
			</g>
			<g>
				<path style="fill:#009B43;" d="M152.623,230.859c-0.074-0.595-0.595-1.041-1.115-1.338c-0.149-0.669-1.412-1.784-2.081-2.379
					c-0.223,0.297,0.372,1.71,0.372,2.007C150.319,230.116,151.657,230.785,152.623,230.859z"/>
			</g>
			<g>
				<path style="fill:#009B43;" d="M86.987,232.495c0.297,0.372,0.669-0.372,1.115-0.297c1.487-0.595,1.487-2.304,1.412-3.717
					h-0.223c-0.892,0.818-1.635,1.635-2.304,2.527v0.297c0,0.149-0.074,0.446,0.223,0.446c0.372-0.446,0.818-0.966,1.189-1.412
					c0.372,0.223,0.52-0.595,0.892-0.372C88.697,231.008,87.433,231.38,86.987,232.495z"/>
			</g>
			<g>
				<path style="fill:#009B43;" d="M162.361,234.947c0,0.595,0.074,1.264,0.297,1.784c-0.149,0.595,0.372,0.966,0.297,1.635
					c0.892,1.635-0.223,3.717,0.743,5.352c0.446,1.041,0.074,2.379,0.446,3.494h0.074c0.074-0.818,0.818-1.487,0.52-2.379
					c0.297-1.115-0.372-2.825-0.223-2.825c-0.446-1.189-0.297-2.75-1.338-3.791v-0.149h0.149c0.149,0.297,0.446,0.669,0.669,0.743
					c0.074-0.743-0.074-1.858,0-2.453c0-0.223-0.446-2.379-0.446-2.304c-0.223-0.669-0.669-2.007-0.595-1.933
					c-0.52-1.041,0.446-2.379-0.595-3.271c-0.818,0.743-0.669,1.933-0.669,2.973C162.138,232.792,162.658,233.907,162.361,234.947z"
					/>
			</g>
			<g>
				<path style="fill:#009B43;" d="M164.442,235.245c0.372,1.858-0.074,3.791,0.149,5.055c0,0.223,0.149,0.595,0.297,0.52
					c0.074-0.52,0.297-1.041,0.595-1.487c0.074,0.074,0.149-0.074,0.223,0.074c-0.372,0.892-0.669,1.858-0.595,2.825
					c0.297,0.595,0.074,1.487,0.223,2.081c0.966-1.041,1.784-2.379,1.561-3.94c0.074-0.372-0.297-0.595-0.149-1.041
					c-0.297-0.446-0.223-1.041-0.595-1.412c-0.966-1.561-0.446-3.717-1.264-5.352c-0.223-0.892-0.818-1.71-1.338-2.453l-0.297-0.149
					c-0.074,1.115,0.074,2.304,0.52,3.345C163.848,233.387,164.294,234.353,164.442,235.245z"/>
			</g>
			<g>
				<path style="fill:#009B43;" d="M77.918,250.855c0.149-0.149,0-0.372,0.149-0.446c0.074-1.041,0.074-3.271,0.074-3.271
					c0-0.595-0.074-2.304-0.074-2.304l0.074-0.074c-0.074-1.189,0.669-4.014,0.966-3.865c0.743-1.264,0.446-2.527,0.52-3.271
					c0,0,0.595-2.527,0.595-3.865h0.149c0.297,0.149,0,0.372,0.074,0.52c0.372-0.074,0.297-0.743,0.743-0.892
					c0.074,0.074,0,0.149,0,0.223c-0.372,0.595-0.446,1.338-0.669,2.007c-0.074,0.149-0.149,3.271-0.595,4.609
					c0.297,0-0.743,2.23-1.115,3.196c-0.149,0.669-0.223,1.487-0.223,2.156c0.149,0.446,0,0.966,0.074,1.338
					c0.446-0.52,0.223-1.338,0.743-1.858c0-0.743,0.372-1.412,0.52-2.081c1.189-1.858,0.966-4.237,1.784-6.17
					c-0.074-0.297,0.223-0.52,0.372-0.818c0.149-0.669,0.372-1.264,0.446-1.933c-0.074-1.189,0.074-2.453,0-3.717l-0.074-0.074
					c-1.264,1.264-2.23,2.379-2.973,3.865c-1.487,2.156-0.818,4.906-1.71,7.285c-0.595,1.561-0.52,3.419-0.52,5.055
					c-0.372,0.966-0.372,2.081-0.52,3.122C77.175,249.963,77.621,250.335,77.918,250.855z"/>
			</g>
			<g>
				<path style="fill:#009B43;" d="M157.975,238.962c0,0.223,0.743,1.338,1.041,2.007c0.074-0.892,0.149-1.784-0.074-2.527
					c-0.074-1.635-0.595-2.899-1.189-4.311c-0.595-1.933-2.527-2.75-4.088-3.494l-0.074,0.149c0.52,1.264,0.297,2.676,0.818,3.865
					c0.223,0.966,0.818,1.71,1.561,2.527c0,0.595,0.669,0.818,0.892,1.264c0,0.297,0.074,0.669,0.223,0.892
					c0.372,0.595,0.669,1.189,1.115,1.71c0.074,1.189,0.818,2.23,1.71,2.973c0.074,0,0.149,0,0.223-0.074
					c-0.149-0.52-4.757-10.555-5.426-12.042c0.446,0.297,2.081,2.676,2.23,3.494c0.297,0.669,0.372,1.115,0.595,1.635
					c0.52,0.595,0-0.52,0.52-0.52C158.05,237.401,157.827,238.292,157.975,238.962z"/>
			</g>
			<g>
				<path style="fill:#009B43;" d="M75.986,237.326L75.986,237.326L75.986,237.326L75.986,237.326z"/>
			</g>
			<g>
				<path style="fill:#009B43;" d="M74.796,248.253c0.52,0.074,0.074-0.52,0.372-0.595l0.074-3.271
					c0.149-0.818,0.149-1.933,0.297-2.676c0.297-0.372,0.372-1.933,0.372-1.933c0.149-0.892,0.149-2.156,0.149-2.453
					c-0.074-0.818,0.149-1.487,0.223-2.23c0.297-0.52,0.372-1.264,0.892-1.561c0.149,0.297-0.149,0.669-0.149,1.041
					c-0.446,0.669-0.52,1.487-0.446,2.304c0.446,0,0.372-0.446,0.669-0.669c0.297-0.297,0.149-0.743,0.446-1.041
					c0.074,0,0.149,0,0.223,0c-0.149,0.52-0.297,1.115-0.595,1.487c-1.115,0.818-0.669,2.304-0.966,3.568
					c-0.074,0.52-0.149,0.595-0.074,1.189c-0.297,0.743-0.446,1.487-0.372,2.379c0,0,0.223,3.494-0.52,5.203
					c0.074,0.892,0.297,1.71,0.446,2.602c0.372,0.223,0,0.743,0.446,1.041c0.372-0.297,0.297-0.818,0.297-1.338
					c0-0.297-0.297-0.595-0.074-0.818c-0.446-0.669-0.223-1.635-0.223-2.379c0.149-0.595,0.223-1.189,0.446-1.71l-0.074-2.899
					c-0.372-0.669,0.52-1.041,0.446-1.784c1.115-1.784,0.372-4.163,1.264-6.021c0.297-1.635-0.223-2.973-0.669-4.311l-1.561,2.156
					c-0.223,0.446-0.297,1.041-0.669,1.487c0,0.52-0.149,0.818-0.074,1.189c-0.149,1.041-0.446,1.933-0.669,2.973
					c-0.818,1.487-1.115,3.196-1.338,4.906c0.149,0.892,0.074,1.933,0.669,2.602C73.904,247.361,74.573,247.658,74.796,248.253z"/>
			</g>
			<g>
				<path style="fill:#009B43;" d="M75.986,237.326C75.986,237.252,75.986,237.252,75.986,237.326L75.986,237.326z"/>
			</g>
			<g>
				<path style="fill:#009B43;" d="M81.635,238.813c-0.149,0.892-0.223,1.858-0.52,2.676c-0.818,1.784-1.264,3.642-1.784,5.575
					c-0.446,0.966-0.52,2.23-0.669,3.271h0.149c0.149-0.074,0.149-0.372,0.223-0.52c0.297-0.074,0-0.52,0.223-0.595
					c0.297-1.561,1.041-2.825,1.487-4.311c0.074-0.595,0.52-1.561,0.595-1.784c0.446-0.966,0.966-2.825,0.966-3.122
					c0.223-0.297,0.297-0.595,0.372-0.966c0.372-0.892,0.595-1.858,0.446-2.899c0.074-0.297-0.074-0.669,0.149-0.966
					c0.223,0.372,0,0.892,0.149,1.264c0.818-0.892,0.966-2.379,1.933-3.196l0.074,0.074c-0.446,0.595-0.52,1.338-1.115,1.858
					c-0.223,0.892-0.743,1.561-0.892,2.379c0.074,0.372,0,0.446-0.149,1.115c-0.446,1.189-0.595,2.23-1.115,3.271
					c-0.149,0.892-0.743,2.23-1.338,3.568c0.074,0.372-0.743,1.858-0.595,2.23c0.966-1.041,1.858-2.007,2.527-3.196
					c0.297-0.595-0.074-1.115,0-1.71c0.966-0.669,1.115-1.635,1.635-2.453c1.635-2.453,2.156-5.352,2.081-8.4l-0.149-0.297
					c-2.156,0.669-3.271,2.825-4.163,4.757c0,0.446-0.52,0.892-0.372,1.412C81.635,238.144,81.784,238.516,81.635,238.813z"/>
			</g>
			<g>
				<path style="fill:#009B43;" d="M162.287,248.476v-0.372c-0.446-0.595-0.892-1.338-0.966-2.156
					c-0.52-1.189-0.669-2.602-0.818-4.014c-0.297-0.743-0.743-1.561-1.264-2.081l-0.074,0.297c0,1.71,1.189,2.973,1.189,4.609
					c0.372,0.892,0.743,1.71,1.115,2.602C161.692,247.807,161.915,248.402,162.287,248.476z"/>
			</g>
			<g>
				<path style="fill:#009B43;" d="M159.388,245.8c0.074-0.074,1.71,2.825,2.379,3.791l0.223-0.372
					c-0.297-0.818-0.892-1.487-1.115-2.304c-0.372-0.074,0-0.52-0.297-0.52c-0.372-1.561-2.156-2.081-3.196-2.899
					c-0.074,0.372,0,0.818,0.074,1.189l-0.074,0.074c0.149,0.446,0.223,1.041,0.446,1.561c1.338,1.71,2.453,3.122,3.494,4.757h0.074
					c0.52-0.743-0.074-1.412-0.446-1.933c-0.446-1.115-1.561-1.933-2.379-2.75c-0.074-0.149-0.223-0.297,0-0.372
					c0.297,0.297,0.595,0.743,0.966,0.743c-0.297-0.966-1.041-1.487-1.635-2.23l0.149-0.074
					C158.644,244.834,159.536,245.874,159.388,245.8z"/>
			</g>
			<g>
				<path style="fill:#009B43;" d="M166.152,251.747c0.297-0.595,0.595-1.041,0.669-1.635c0.669-1.561,0.223-3.494-0.372-4.906
					c-0.223-0.223,0-0.743-0.372-0.743c-0.595,1.115-1.189,2.23-1.412,3.419c-0.223,1.041,0.446,2.081,0.818,3.048
					c0.223-0.446-0.074-0.892-0.074-1.338c0-0.372,0.074-0.818,0.074-0.818s0-2.527,0.446-3.122c0.297,0.52-0.074,3.568-0.074,4.46
					c0.372,0.074,0-0.743,0.446-0.595C166.301,250.26,165.632,251.003,166.152,251.747z"/>
			</g>
			<g>
				<path style="fill:#009B43;" d="M83.27,244.834c-0.52,0.446-0.446,1.189-0.966,1.635c-0.818,0.149-0.595,1.264-1.487,1.338
					c0.074,0.446-0.595,0.595-0.595,0.966c0.074,0.223,0.223,0.372,0.372,0.372c0.52-0.149,0.892-0.743,0.966-0.818
					c-0.074-0.297,0.297-0.297,0.372-0.52c0.223-0.372,0.297-0.966,0.595-1.189c0.223,0.595-0.372,1.338-0.595,1.933l-0.892,0.966
					c-0.074,0.297,0.074,0.446,0.223,0.595c0.372-0.223,1.635-1.115,1.412-1.635C83.196,247.436,83.493,246.172,83.27,244.834z"/>
			</g>
			<g>
				<path style="fill:#009B43;" d="M74.573,253.828L74.573,253.828c-0.074-0.372,0.149-0.743-0.149-0.966
					c-0.149-0.743-0.595-1.338-1.115-1.858c0.372-0.595-0.149-1.264-0.223-1.933c-0.074-0.149,0.074-0.297,0.223-0.223
					c0.446,0.446,0.149,1.487,0.818,1.71c0.149-0.223-0.074-0.669,0.223-0.669c0.223,0.074,0.149,0.297,0.223,0.52
					c-0.372,0.52-0.074,1.189,0.074,1.784c0.074,0.446,0.372,0.892,0.223,1.264c0.372,0.669,0.372,1.487,0.818,2.081l0.223,0.074
					v-1.933c-0.074-0.149-0.223-0.372-0.074-0.52c-0.446-0.892-0.595-1.858-0.818-2.825c-0.149-0.818-0.669-1.561-1.041-2.23
					c-0.595-0.52-0.595-1.264-1.115-1.784l-0.372,1.115c0,0.149,0.074,0.446-0.074,0.595c0,0.818-0.297,1.635-0.074,2.453
					C72.418,251.97,73.458,253.011,74.573,253.828z"/>
			</g>
			<g>
				<path style="fill:#009B43;" d="M164.591,249.889c-0.297-0.669-0.743-1.412-0.743-2.081l-0.149-0.52
					c-0.297,0-0.372,0.52-0.595,0.743c-0.743,0.743-0.892,1.784-1.189,2.75c-0.223,1.041-0.223,2.379-0.297,3.419
					c0.149,1.338-0.446,2.602-0.743,3.94c-0.446,0.446-0.372,1.115-0.52,1.635c-0.669,1.487,0.149,3.271-0.297,4.906
					c0,0.372-0.297,0.669-0.074,1.041c0.446,0,0.892-0.372,1.189-0.743c0-0.074,0-0.223-0.074-0.297
					c0.074-1.115-0.074-2.527-0.372-3.568c0.372,0,0.446,0.595,0.52,0.743c0.223-0.446,0.372-1.115,0.52-1.635
					c0.297-1.189,0.446-1.858,0.595-2.453c0.149-1.115,0.595-5.055,0.669-7.136c0.297-0.446-0.074-1.338,0.446-1.561
					c0.074,1.115,0.074,5.501-0.372,6.764c0.372,0,0.52-0.669,0.892-0.818l0,0c-0.223,0.52-0.595,1.115-0.892,1.635
					c-0.297,0.52-0.074,1.264-0.52,1.71c-0.074,0.743-0.669,2.899-0.892,3.94c-0.074,0.892-0.52,2.081,0.297,2.304l0.149-0.223
					c0.149-1.71,1.041-3.122,1.635-4.609c0.297-1.784,0.372-3.494,0.818-5.203C165.409,253.085,164.888,251.301,164.591,249.889z"/>
			</g>
			<g>
				<path style="fill:#009B43;" d="M79.256,252.639v-0.297c0.074-0.074,0.223-0.297,0.446-0.223c0-0.52,0.297-0.892,0.223-1.412
					c0.074-0.52,0.446-1.189-0.074-1.487c-0.595,1.041-1.115,2.156-0.818,3.419L79.256,252.639L79.256,252.639z"/>
			</g>
			<g>
				<path style="fill:#009B43;" d="M161.023,251.821c-0.446-0.743-0.595-1.561-1.189-2.156c-0.595,0.818-1.561,1.561-1.858,2.527
					c-0.372,0.595-0.743,2.007-0.595,3.94c0.149,1.115,0.297,2.379,0.149,3.419c0.074,1.264-0.149,2.676-0.074,4.088
					c0.223,0.595,0.446,1.189,0.52,1.784c0.074,0.743-0.297,1.487,0,2.156c0.372-0.297,0.074-0.966,0.297-1.412
					c0.149-0.372,0-0.892,0.223-1.189c-0.223-0.966-0.223-1.933-0.669-2.75l0.074-0.149l0.223,0.149
					c0.149,0.297,0.149,0.743,0.52,0.669c-0.149-1.412-0.074-2.899,0.074-3.494c0.223-0.966,0.52-3.271,0.446-2.453
					c0,0,0.595-4.237,0.818-5.575c0.297,0.372,0.297,0.892,0.223,1.412c0.074,0.149,0,0.223,0,0.372
					c-0.074,1.041-0.223,1.71-0.297,2.602c-0.074,0.446-0.446,0.966-0.149,1.189l0.149-0.074c0.223-0.223,0.297-0.818,0.595-0.743
					c-0.297,0.892-0.818,1.487-1.189,2.304c-0.074,0.446-0.297,3.196-0.297,4.163c0.074,0.223-0.372,3.791-0.149,4.088l0.223-0.223
					c0.297-0.892,0.372-1.858,0.595-2.825c-0.223-2.081-0.074-4.088,0.743-5.872C161.023,255.984,161.172,253.605,161.023,251.821z"
					/>
			</g>
			<g>
				<path style="fill:#009B43;" d="M82.824,264.458c-0.669-1.561-0.966-4.757-0.966-4.757c-0.372-2.007-1.115-3.94-1.264-6.095
					c0-0.149,0.149-0.074,0.223-0.074c0.074,0.372,0.074,0.818,0.297,1.115c0.149-0.074,0.223-0.372,0.297-0.52
					c0.074,0.074,0.149,0.149,0.149,0.223c-0.372,0.966-0.223,1.561,0,2.602c0,0.297,0.149,0.669,0.372,0.966
					c0.074,0.595,0.074,1.561,0.372,2.676c0.297,0.372,0,0.818,0.372,1.115c0,0,0.074,1.784,0.595,2.676
					c0.074,0.297-0.074,0.595,0.149,0.818c0.074,0.966,0.297,1.858,0.669,2.602c0.223,0.074,0.074,0.595,0.446,0.372
					c0.297-0.818-0.446-1.338-0.297-2.081c-0.372-1.041-0.297-2.081-0.446-3.122c0.297-1.784,0-3.865-0.372-5.649
					c-0.297-0.595-0.446-1.189-0.595-1.784c-0.669-1.264-0.52-2.825-1.338-3.94c-0.223-0.372-0.372-0.743-0.446-1.189
					c-0.223-0.074-0.372-0.52-0.595-0.297c0.074,0.52-0.297,0.892-0.223,1.412c-0.52,1.338-1.115,2.75-0.818,4.386l0.149,0.149
					c-0.149,0.52,0.446,0.669,0.223,1.189c0.669,1.115,0.818,2.379,1.189,3.642c0.223,1.338,1.115,2.379,1.041,3.791
					c0.223,0.149,0.074,0.446,0.297,0.595c0.074,0.966,0.52,1.784,1.041,2.602c0.297,0.743,0.743,1.487,1.264,1.933
					c0.074-0.149,0-0.52,0.074-0.743C83.122,268.026,82.824,264.458,82.824,264.458z"/>
			</g>
			<g>
				<path style="fill:#009B43;" d="M168.159,253.754l-0.149-0.297c0-1.041-0.595-2.081-0.52-3.196
					c-0.52,0.372-0.52,1.115-0.892,1.635c-1.338,2.081-1.858,4.386-2.007,6.913c0,0.595-0.446,1.189,0.074,1.635
					c0.149,0.223,0,0.669,0.149,0.818l0.223-0.669c0.297-1.412,0.818-1.784,0.818-1.784c0.149-0.372,0.074-0.446,0.223-1.115
					c0.149-1.487,0.669-2.899,0.818-4.311l0.297-0.297l0.149,0.223c-0.223,3.419-1.264,5.278-1.115,5.724
					c0.297-0.297,0.743-0.669,1.115-0.892c0.149-0.074,0.149,0.149,0.149,0.223c-0.52,0.446-1.115,0.892-1.635,1.412
					c-0.52,1.041-0.892,2.081-1.338,3.196c0.223,0.297-0.52,1.412-0.595,2.156c-0.297,0.818-0.52,1.71-1.115,2.453
					c-0.223,0.966-1.041,1.71-1.487,2.527c-0.149,0.074-0.149,0.223-0.074,0.372c1.487-1.115,1.635-2.973,3.048-4.088
					c0.52-1.487,1.264-2.75,1.933-4.088c0.149-0.372,0.446-0.669,0.52-1.041c0.966-1.784,1.561-3.717,1.784-5.798
					C168.308,254.869,168.308,254.274,168.159,253.754z"/>
			</g>
			<g>
				<path style="fill:#009B43;" d="M77.398,260.295c0.372,0.52,0.446,1.189,0.743,1.71c0.669,1.189,1.041,2.527,1.412,3.791
					c0,0.52,0.297,0.966,0.446,1.487c0.074,0.669,0.818,0.743,1.338,0.892l0.074-0.223c-0.669-1.189-1.635-3.419-1.338-3.642
					c-0.52-1.189-1.041-2.304-1.264-3.642c-0.149-0.074-0.372-1.189-0.223-0.743c-0.297-0.595-0.149-1.189-0.297-1.71
					c0-1.264-0.743-2.304-0.743-3.494c0.074-0.074,0.223,0,0.297,0.149c-0.149,0.669,0.446,1.041,0.446,1.635
					c0.149,0,0.223-0.074,0.297-0.074c0.149,1.041,0.223,2.081,0.446,3.196c0.223,0.818,0.223,1.71,0.595,2.453
					c0.446,1.115,0.372,0.818,0.446,1.264c0.446,0.52,0.149,1.338,0.966,1.412c-0.074,0.446-0.074,0.669,0,1.041
					c0.52,0.743,0.149,1.933,1.189,2.527l0.892,0.372c0.223,0,0.074-0.297,0-0.372c-0.446-1.041-0.966-2.081-1.264-3.122
					c-0.223-0.223,0.074-0.669-0.297-0.818c-0.149-0.669,0-1.338-0.446-1.784c-0.149-0.372-0.372-0.743-0.372-1.189
					c-0.372-0.446-0.372-1.115-0.52-1.635c-0.149-0.372-0.223-0.818-0.372-1.189c0.074-0.446-0.372-0.743-0.372-1.115
					c-0.372-0.966-0.446-1.858-0.669-2.899c-0.52-1.264-0.818-2.75-1.561-3.865c-0.223,0.52-0.446,1.115-0.446,1.71
					C76.06,255.018,76.655,257.917,77.398,260.295z"/>
			</g>
			<g>
				<path style="fill:#009B43;" d="M78.81,267.654c0.074-0.297-0.223-0.446-0.372-0.669c-0.446-0.966-1.338-2.23-1.264-2.379
					c-0.52-0.595-0.892-1.561-1.412-2.156c-0.149-0.966-1.041-1.71-1.561-2.527c0-0.52,0.446,0,0.669-0.074
					c0.074-0.818-0.52-2.304-0.52-2.75c-0.297-0.595-0.52-1.338-0.818-1.933c-0.074-0.372-0.595-0.818-0.372-1.189
					c0.372,0.446,0.818,0.966,0.892,1.561c0.372,0.446,0.372,1.115,0.818,1.561c0.372-0.149,0.446,2.527,0.892,4.088
					c0.149,0.372,0.297,0.669,0.669,1.115c0.372,0.52,1.858,2.973,2.23,4.311c0.818,0.595,0.446,1.71,1.338,2.304
					c0.223-0.372-0.223-0.743-0.372-1.115c-0.223-0.669-0.372-1.264-0.669-1.933c-0.223-1.115-0.669-2.23-1.189-3.271
					c-0.223-0.669-0.669-1.264-0.892-2.007c-0.52-1.264-0.669-2.75-1.115-4.014c-0.074-0.446-0.595-0.669-0.595-1.189
					c-0.743-1.115-1.933-1.858-2.75-2.899c-0.52,2.081-0.223,4.163,0.52,6.095c-0.074,0.595,0.446,1.115,0.297,1.635
					c0.446,0.446,0,1.189,0.52,1.635C74.276,264.383,76.283,267.134,78.81,267.654z"/>
			</g>
			<g>
				<path style="fill:#009B43;" d="M156.191,259.552l-0.966,1.635c-0.297,1.561-0.446,3.494,0.372,4.757
					c0.372-0.446,0.297-1.041,0.074-1.561c-0.149-0.446,0-2.081,0-2.081c0.074-0.446-0.074-1.041,0-1.412
					c0.297,0,0.52,0.52,0.52,1.189c-0.149,0.743-0.223,1.412-0.149,2.081c0.074,0.149,0.223,0.372,0.446,0.297
					c0.074-0.372-0.149-0.743,0.223-0.966v-1.487c-0.074-0.149-0.223-0.372-0.074-0.52
					C156.563,260.964,156.489,260.147,156.191,259.552z"/>
			</g>
			<g>
				<path style="fill:#009B43;" d="M162.435,267.208L162.435,267.208c0.446-0.297,0.595-0.966,0.743-1.487
					c0.149-1.784,1.635-3.271,1.115-5.203c-0.297,0.297-0.446,0.669-0.595,1.041C162.956,263.268,162.658,265.201,162.435,267.208z"
					/>
			</g>
			<g>
				<path style="fill:#009B43;" d="M85.129,266.688c0.297-0.297,0.297-0.669,0.297-0.669c0.297-0.669-0.149-0.595-0.149-1.784
					c-0.074-0.372-0.297-0.892,0.074-1.115c0.223,0.446,0.372,0.966,0.446,1.561c0.074,0.372,0.149,0.892,0.372,1.264
					c-0.372,0.372-0.595,0.818-0.372,1.264c0.223,0.223,0.446,0.743,0.818,0.52v-0.595c-0.223-1.71-0.372-3.568-1.338-4.906
					c-0.297,0-0.372,0.446-0.372,0.743c-0.52,0.743-0.297,1.561-0.297,2.453C84.906,265.87,84.608,266.539,85.129,266.688z"/>
			</g>
			<g>
				<path style="fill:#009B43;" d="M164.74,266.762c-0.223,0.446-0.818,0.818-0.892,1.338c-0.595,0.669-0.892,1.561-1.635,2.156
					l0.074,0.074l0.149-0.074c0.446,0.149,1.041,0.074,1.487,0c0.372-0.595,0.52-1.338,1.115-1.784
					c0.966-1.189,1.487-2.825,1.115-4.609C165.557,264.755,165.26,265.796,164.74,266.762z"/>
			</g>
			<g>
				<path style="fill:#009B43;" d="M159.834,271.445c0.446-0.966,1.338-1.784,1.784-2.825c0.595-1.041,0.223-2.23,0.149-3.419
					c-2.23,0.669-3.642,3.048-4.534,4.98c-0.074,0.669-0.743,1.189-0.446,2.007l0.149-0.074c0.297-0.669,1.71-2.304,2.676-3.865
					c0.372-0.669,0.52-1.71,1.338-2.007c0,0.52-0.966,2.007-1.115,2.825c-0.52,0.669-0.966,1.338-1.487,2.081
					c0.372,0.223,0.669-0.52,1.115-0.297c-0.149,0.223-0.52,0.297-0.743,0.446c-1.338,0.669-2.156,1.784-2.825,2.973
					c0.223-0.074-0.966,0.966-1.561,1.784c-0.297,0.297,0.297,0.223,0.223,0.52c-1.041,0.149-1.784,0.892-2.527,1.635
					c0.297,0.223,0.743-0.149,1.189-0.149C156.117,276.872,157.455,273.527,159.834,271.445z"/>
			</g>
			<g>
				<path style="fill:#009B43;" d="M78.81,270.999c-0.818-0.669-1.264-1.71-2.007-2.453c0.074-0.892,0.372,0.372,0.743,0.223
					l-0.149-0.446c0.074-0.074,0.149-0.074,0.297-0.074c0.074,0.446,0.297,0.892,0.52,1.264c0.446,1.115,1.71,1.784,2.527,2.676
					l0.074-0.074c0.074-0.149,0-0.297-0.149-0.446c0.149-0.446-0.223-0.669-0.149-1.041c-0.669-0.818-1.115-1.858-2.007-2.453
					c-1.189-0.669-2.602-1.115-3.494-2.23c-0.149,0.223-0.074,0.52,0.074,0.669c0.074,1.189,0.446,2.304,1.041,3.271
					c1.115,1.115,2.156,2.527,3.791,2.602C79.628,271.966,78.81,270.999,78.81,270.999z"/>
			</g>
			<g>
				<path style="fill:#009B43;" d="M157.083,267.431c-0.223-0.446-0.074-1.189-0.595-1.412c-0.669,0.446-1.264,1.041-1.858,1.635
					c-1.041,1.635-2.007,3.048-2.899,4.98c-0.743,0.669-0.743,1.933-0.892,3.419c-0.074,0.372-0.149,0.892-0.074,1.264
					c0.297-0.669,1.041-0.966,1.041-1.784c0.223-0.966,0.669-2.379,0.669-2.379l0.892-1.71c0.223-0.595,0.446-0.818,0.743-1.189
					c0.372-0.669,1.933-3.271,1.933-3.271c0.149,0,0.149,0.074,0.297,0.149c-1.412,3.494-2.379,3.791-2.825,5.129
					c0,0.297-1.189,2.007-0.966,2.899c0.297,0,0.595-0.372,0.892-0.595l0.149,0.149c-0.223,0.297-0.52,0.595-0.818,0.818
					c-0.595,1.264-2.379,2.156-2.304,3.717c1.115-0.669,1.71-2.007,2.676-2.973c0.818-1.933,2.156-3.494,3.271-5.278
					C156.786,269.884,157.158,268.621,157.083,267.431z"/>
			</g>
			<g>
				<path style="fill:#009B43;" d="M86.169,272.709c0.818,1.338,1.784,2.602,2.75,3.791c0.966,1.041,1.784,2.379,2.602,3.494
					c0.149,0.223,0.372,0.52,0.595,0.446v-0.149c-0.52-2.453-2.676-4.014-3.94-6.021c-0.223-0.446-0.446-0.669-0.297-0.892
					c-0.297-0.892-0.818-1.71-1.041-2.602c-0.074-0.297-0.669-0.52-0.446-0.892c0.149,0,0.223,0.149,0.372,0.223
					c0.297,0.669,0.818,1.338,1.115,2.081c0.297-0.372-0.372-0.966,0.149-1.189c0.074,0.52,0.223,1.115,0.223,1.635
					c0.074,0.818,0.595,1.412,0.818,2.156c0.149,0.223,1.412,1.561,1.264,1.487c0.446,0.297,0.52,0.892,0.892,1.264
					c0.074,0.074,0.223,0.074,0.297,0c-0.074-0.074,0-0.149,0-0.223c-0.372-0.223-0.074-0.743-0.223-1.041
					c0.074-0.149,0.149-0.446-0.149-0.52c-0.074-0.52-0.297-1.189-0.446-1.71l-1.189-1.412c-1.412-1.71-2.007-3.865-4.237-4.757
					c-0.372,0.52,0.074,1.115-0.074,1.71C85.203,270.628,85.723,271.668,86.169,272.709z"/>
			</g>
			<g>
				<path style="fill:#009B43;" d="M90.332,276.277C90.332,276.277,90.332,276.202,90.332,276.277
					C90.332,276.202,90.332,276.277,90.332,276.277z"/>
			</g>
			<g>
				<path style="fill:#009B43;" d="M81.561,271.594c0,0.818,0.52,1.561,1.041,2.156c0.892,0.446,1.487,1.561,2.304,2.156
					c0.818,0.446,1.189,1.338,1.933,1.784c1.115,1.412,2.527,2.304,4.237,2.527c-0.074-0.446-0.595-0.595-0.743-1.041
					c-1.412-1.115-3.865-2.676-3.865-2.676c-0.52-0.669-1.412-2.081-2.007-2.825c-0.52-0.743-1.412-1.115-2.007-1.784l0.074-0.149
					c0.446,0.297,0.892,0.669,1.338,0.743c-0.297-0.818-1.041-1.338-1.487-2.156l0.149-0.074c0.818,0.297,1.115,1.412,1.71,1.933
					c0,0,1.264,1.71,1.71,2.453c0.372,0.223,0.372,0.446,0.595,0.595c0.372,0.966,1.412,1.635,2.304,2.156
					c-0.669-1.115-1.635-2.156-2.379-3.271c-0.52-0.966-1.041-1.933-1.635-2.899c-0.223-0.074-0.52-0.149-0.446-0.52
					c-0.446-0.669-1.115-1.561-2.007-1.71c-0.372-0.52-1.041-0.149-1.487-0.446c-0.149,0.297,0,0.818,0.223,1.041
					C81.338,270.33,81.115,271.073,81.561,271.594z"/>
			</g>
			<g>
				<path style="fill:#009B43;" d="M154.036,275.757c0.892-0.892,1.784-2.007,2.007-3.196h-0.149
					c-0.669,0.818-1.115,1.71-1.635,2.527C154.11,275.311,153.813,275.608,154.036,275.757z"/>
			</g>
			<g>
				<path style="fill:#009B43;" d="M86.244,281.406c0.966,0.966,2.304,1.338,3.642,1.412c0.074-0.372-0.297-0.669-0.52-1.041
					c-1.189-0.223-2.156-0.966-3.271-1.412l0.223-0.223c-1.041-0.892-1.858-2.304-2.973-3.122c-0.52-0.669-1.412-0.669-2.007-1.264
					c0.074-0.074,0.149-0.149,0.223-0.149c0.297,0.149,0.52,0.372,0.818,0.372c-0.52-0.818-1.338-0.743-1.858-1.561l0.074-0.074
					c0.892,0.52,1.933,1.115,2.602,1.933c0.223,0.149,0.372,0.149,0.595-0.074l0.52,1.189c1.115,1.189,2.23,2.75,3.791,3.494
					c0.372,0,0.669,0.446,1.115,0.223c-0.074-0.149,0.074-0.446-0.074-0.52c-1.858-1.933-3.791-3.494-5.724-5.426
					c-0.52-0.743-1.338-1.041-2.007-1.412s-1.338-0.669-2.156-0.743c-0.446,0.074-0.743-0.595-1.041,0
					c0.595,1.115,1.115,2.304,2.081,3.122c1.115,1.189,2.825,1.264,3.791,2.825C84.906,279.547,85.054,280.885,86.244,281.406z"/>
			</g>
			<g>
				<path style="fill:#009B43;" d="M150.096,273.973c-1.858,1.115-3.122,2.825-3.94,4.757c-1.561,2.527-3.94,4.534-5.203,7.21
					c-0.074,0.372-0.52,0.669-0.446,1.041c0.892-0.595,1.71-1.189,2.527-1.933c0.595-0.52,0.743-0.595,1.115-1.041
					c1.189-1.115,2.676-3.345,3.345-4.163l0.743-1.933c0.223-1.115,0.595-2.453,1.487-2.899c0.074,0.074,0.074,0.149,0.074,0.223
					c-0.743,0.892-1.041,2.081-1.264,3.196c0,0-0.223,1.635-1.635,3.271c0.223,0.149,0.446-0.223,0.669-0.149
					c1.115-0.966,2.825-1.561,2.527-3.345c0.372-0.892,0.297-1.933,0.446-2.825C150.245,275.013,150.691,274.195,150.096,273.973z"
					/>
			</g>
			<g>
				<path style="fill:#009B43;" d="M92.934,280.588c1.487,0.818,2.602,2.156,3.791,3.419c0.446,0.297,0.966,0.595,1.338,1.041
					c0.149,0.372,0.743,0.52,0.892,0.892l1.041,1.041c0.372,0.297,0.892,0.595,1.338,0.669c-0.297-0.743-0.966-1.264-1.561-1.933
					c-0.446-0.074-0.818-0.52-1.264-0.743c0.149-0.149,0.372-0.372,0.149-0.595c-0.892-0.743-1.561-1.71-2.453-2.453
					c-0.52-0.074-1.784-1.784-2.304-2.379c-0.074-0.149-0.372-0.372-0.223-0.595c0.595,0.223,0.818,1.041,1.412,1.338
					c0.223-0.223,0-0.595,0-0.966c0-0.149-0.074-0.372,0.149-0.372c0.297,0.372,0.297,0.966,0.372,1.487
					c0.297,0.966,1.115,1.487,1.71,2.23c0.52,0.297,1.412,1.487,1.933,1.933c0.074-0.297,0.149-0.372,0.297-0.595
					c-0.743-1.561-2.007-2.602-3.196-3.791c-0.223-0.743-0.892-1.412-1.412-2.081c-0.892-0.669-1.858-1.784-3.122-1.933
					c-0.372,0.892,0.372,1.487,0.372,2.379C92.339,279.324,92.413,280.068,92.934,280.588z"/>
			</g>
			<g>
				<path style="fill:#009B43;" d="M158.421,277.838c-0.818,0.818-1.858,1.71-2.825,2.602v0.074
					c1.264-0.818,2.453-1.858,3.791-2.676l0.149,0.074c-0.372,0.372-0.892,0.818-1.412,1.115c-0.149,0.074,0,0.372-0.223,0.297
					c-0.892,0.149-0.892,1.115-1.784,1.338c-0.074,0.074,0,0.149,0.074,0.223c2.156-0.074,3.717-1.933,4.534-3.791l-0.074-0.074
					C159.982,277.392,159.165,277.54,158.421,277.838z"/>
			</g>
			<g>
				<path style="fill:#009B43;" d="M153.664,279.324c0.149,0,0.372-0.223,0.52-0.372c0.149-0.297,0.372-0.595,0.223-0.892
					l-0.446,0.372C153.961,278.804,153.59,279.027,153.664,279.324z"/>
			</g>
			<g>
				<path style="fill:#009B43;" d="M143.778,281.183c0.223-0.595,0.446-1.264,0.446-1.858c-0.372,0-0.446,0.52-0.669,0.669
					c0,0.52-0.595,0.818-0.372,1.412c-0.669,0.966-1.71,1.635-1.784,2.825C142.068,283.19,143.109,282.149,143.778,281.183z"/>
			</g>
			<g>
				<path style="fill:#009B43;" d="M90.704,283.71c-0.223-0.446-0.743-0.372-1.189-0.372c-1.412-0.446-2.825-0.52-4.311-0.818
					c0-0.297,0.223-0.074,0.372-0.149c0-0.149-0.149-0.223-0.149-0.372c0.223-0.372,0.297,0.297,0.595,0c0-0.074,0-0.149,0-0.223
					c-0.892-0.372-1.115-1.71-2.304-1.561c-0.149,0.743,0.223,1.487,0.818,2.007c1.784,1.264,4.088,1.115,6.244,1.635
					C90.629,283.859,90.704,283.785,90.704,283.71z"/>
			</g>
			<g>
				<path style="fill:#009B43;" d="M95.238,286.089c0.595,0.892,1.71,0.818,2.527,1.412c0.52,0.223,1.041,0.966,1.561,0.52
					c0-0.074,0-0.149,0-0.223c-1.115-0.595-3.419-2.007-3.419-2.156l-1.189-1.115c-0.743-0.595-1.635-0.52-2.453-0.966l-0.223-0.223
					c0.446-0.297,0.892,0.372,1.264,0.223c-0.743-0.595-1.784-0.818-2.379-1.635l0.074-0.149l0.669,0.372
					c0.149-0.074,0.074-0.297,0.297-0.223c0.52,0.818,1.487,1.189,2.156,1.71c0.743,0.446,1.264,1.189,2.007,1.561
					c0.223,0.223,0.892,0.669,1.635,1.338c0.595,0.149,1.189,0.595,1.71,0.818v-0.149c-1.041-1.264-2.304-2.527-3.717-3.419
					c-0.669-0.743-1.487-1.338-2.081-2.081c-1.338-0.595-2.676-0.966-4.088-1.264c-0.297,0.669,0.297,1.115,0.52,1.635
					C91.075,284.305,93.603,284.825,95.238,286.089z"/>
			</g>
			<g>
				<path style="fill:#009B43;" d="M140.73,284.602l0.149,0.297c0.223-0.669,0.372-1.487,0.818-2.081
					c0.297-0.818,1.115-1.338,1.264-2.23h-0.074C141.919,281.777,140.656,282.967,140.73,284.602z"/>
			</g>
			<g>
				<path style="fill:#009B43;" d="M103.489,288.096l-1.189-2.453c-0.223-0.446-0.372-0.966-0.595-1.412
					c-0.669-1.338-1.858-2.304-2.825-3.345v0.669c0.223,0.149,0,0.52,0.223,0.669c0.818,2.23,2.973,3.494,3.94,5.724
					C103.192,288.096,103.34,288.245,103.489,288.096z"/>
			</g>
			<g>
				<path style="fill:#009B43;" d="M154.11,281.555c-1.041,0.074-1.71,1.115-2.527,1.487c-0.743,0.595-1.561,1.338-2.304,1.933
					c-1.933,0.595-3.865,1.561-5.055,3.196l0.074,0.149c0.372-0.074,0.892-0.223,0.818-0.743c1.412-0.446,2.825-0.892,3.791-2.007
					l0.372,0.074c1.041-0.52,4.014-2.304,4.163-2.081c0.595-0.446,1.412-1.115,2.23-1.189c-0.074,0.297-0.52,0.446-0.743,0.743
					c-0.743,0.595-3.345,2.007-4.534,2.527c0.149,0.074,0,0.223-0.074,0.297c-0.818,0.149-1.561,0.595-2.23,1.041
					c0,0-1.189,0.669-1.933,0.892v0.074l2.676-0.223c1.933-0.743,3.717-1.933,5.501-2.899c0.372-0.297,0.743-0.595,1.189-0.669
					c0.892-0.743,1.784-1.635,2.527-2.602l0.074-0.372h-0.52C156.489,281.406,155.225,281.183,154.11,281.555z"/>
			</g>
			<g>
				<path style="fill:#009B43;" d="M96.65,288.691c-0.669-0.743-1.338-0.595-1.858-0.818c0,0-1.412-1.041-2.23-1.189
					c-0.743-0.223-2.081-0.446-2.081-0.446c-0.743-0.297-1.635-0.446-2.304-0.966v-0.223c0.595-0.223,1.041,0.595,1.635,0.52
					c0.074-0.297-0.446-0.446-0.223-0.743c0.52,0.446,1.041,0.743,1.635,1.189c0.669,0,1.412,0.297,2.081,0.372
					c0.074-0.297,0.818,0.223,1.338,0.52c1.041,0.818,2.304,1.487,3.717,1.635c0.149-0.297-0.297-0.223-0.372-0.446
					c-0.595-0.149-1.041-0.595-1.635-0.669c-1.487-1.189-3.196-2.081-4.832-2.899c-1.71-0.743-3.94-0.372-5.649-1.189l-0.074,0.223
					c0.446,0.52,0.892,1.041,1.189,1.635l1.784,1.264c1.784,0.595,3.642,1.115,5.129,2.23
					C94.792,288.542,95.684,288.691,96.65,288.691z"/>
			</g>
			<g>
				<path style="fill:#009B43;" d="M102.3,287.724c-0.446-1.189-1.635-2.23-2.379-3.196l-0.074,0.149
					c0.297,0.743,0.818,1.338,1.338,2.007C101.705,286.981,101.556,287.873,102.3,287.724z"/>
			</g>
			<g>
				<path style="fill:#009B43;" d="M116.349,295.009c1.264-0.223,2.527,0,3.865-0.074v-0.074c-1.115-0.149-2.156-0.743-3.271-0.372
					c-1.412-1.041-2.825-1.635-3.94-2.973c-0.446-0.669-1.264-1.115-1.784-1.71c-1.933-0.966-3.568-2.602-5.352-3.717
					c-0.892-0.52-1.858-0.743-2.899-0.892l-0.074,0.297c0.743,1.338,1.338,2.602,2.379,3.717c2.379,2.081,5.129,3.271,8.177,3.791
					c-0.149-0.966-1.264-1.264-2.007-1.635c-0.669-0.297-1.858-0.52-1.858-0.52c-0.52-0.297-1.041-0.446-1.487-0.818
					c-0.446-0.223-1.784-1.041-1.71-1.412c-0.743-0.669-1.561-1.115-2.304-1.635c-0.074-0.074,0-0.149,0.074-0.223
					c0.52,0.149,0.966,0.52,1.487,0.743c0.149-0.149-0.074-0.446,0.149-0.52c0.149,0,0.149,0.223,0.223,0.297
					c0.52,1.264,1.71,2.304,2.899,2.899c0.149-0.372-0.372-0.595-0.372-1.041c0.074-0.074,0.149-0.074,0.223-0.074
					c0.595,1.115,1.635,1.858,2.825,1.858c0-0.297,1.71,0.892,2.527,1.933c0.074,0.149-0.074,0.297-0.074,0.372
					c0.446,0.223,0.966,0.446,1.412,0.743C115.605,294.266,115.977,294.563,116.349,295.009z"/>
			</g>
			<g>
				<path style="fill:#009B43;" d="M137.682,290.698c-0.446,0.074-0.892,0.223-1.264,0.52c-0.149,0.149-1.487,0.892-2.156,1.264
					l0.149,0.149c1.189-0.297,2.527-0.595,3.717-0.892c0.669-0.223,1.338-0.297,1.933-0.669c1.635-0.446,2.75-1.858,3.791-3.048
					l-0.149-0.223c-0.669-0.223-1.412-0.074-2.156-0.223c-1.561,0.669-3.345,0.595-4.534,1.858c-1.635,0.669-2.527,2.23-4.163,2.825
					c-0.074,0.149-0.372,0.074-0.297,0.297c1.338-0.149,3.642-1.858,3.717-1.784c0.52-0.223,0.818-0.446,1.635-0.743
					c1.115-0.446,4.237-1.412,4.237-1.412l0.074,0.149c-0.149,0.372-0.743,0.372-1.115,0.595c-0.669,0.372-1.487,0.372-2.007,0.892
					c0.074,0.149,0.149,0.223,0,0.372C138.649,290.4,138.128,290.549,137.682,290.698z"/>
			</g>
			<g>
				<path style="fill:#009B43;" d="M111.294,293.374c-0.818,0.149-1.412-0.446-2.156-0.149l0.149,0.223
					c1.264,0.669,2.825,0.074,4.014,0.669c0.52,0.074,1.041,0,1.487,0.297c0.074,0,0.074-0.074,0.149-0.074
					c0.149-0.446-0.595-0.446-0.743-0.818c-0.372,0.297-0.669-0.446-1.189-0.223c-0.595-0.297-1.264-0.297-1.858-0.446
					c-2.081-0.669-4.088-1.264-5.724-2.75c-0.52-0.52-1.189-1.115-1.858-1.412c-1.635-0.52-3.642-0.669-5.129,0.372v0.372
					c1.041,0.595,1.858,1.264,2.973,1.71c2.007,1.412,4.609,1.412,7.062,1.858l0.149-0.149l-0.074-0.074
					c-1.412-0.669-3.048-1.041-4.757-1.115c-0.223-0.074-0.52,0.372-0.595-0.074c0-0.223,0.372-0.074,0.446-0.297l-0.074-0.149
					c-1.115-0.669-2.156-1.338-3.494-1.561l-0.149-0.223c1.041-0.297,2.007,0.297,2.825,0.818c0.074-0.297,1.041,1.189,2.304,1.189
					c0.818,0,0.595-0.074,1.041,0.149c0.372,0,3.419,1.264,4.757,1.561c0.669,0.297,1.561,0.074,2.007,0.52h-0.223
					C112.186,293.448,111.666,293.597,111.294,293.374z"/>
			</g>
			<g>
				<path style="fill:#009B43;" d="M144.298,288.914c-1.115,0.446-1.933,1.487-3.048,2.081c-0.074,0.074-0.149,0.149-0.074,0.223
					c0.595-0.149,1.264-0.297,1.784-0.595c0.297,0,4.683-1.635,4.906-1.412c0.446,0,0.966-0.297,1.487-0.446
					c0.074,0.074,0.074,0.074,0.074,0.149c-0.818,0.669-2.23,0.595-3.271,1.041c0,0-0.52,0.074-1.635,0.595
					c-0.074,0.149-0.372,0.074-0.223,0.297c0.297,0,0.669,0.074,0.818,0.297c-0.52,0.149-1.115-0.074-1.635,0
					c-0.372-0.074-0.892-0.074-1.041,0.297c0.372,0.223,0.818,0.446,1.264,0.52c0.372,0,0.595,0,0.892-0.223
					c1.71-0.223,3.494-0.743,4.683-2.081c0.372-0.297,0.892-0.743,0.966-1.189C148.312,288.022,146.082,288.319,144.298,288.914z"/>
			</g>
			<g>
				<path style="fill:#009B43;" d="M119.173,290.772c0.223-0.743,0.669-1.041,0.892-1.784l-0.223-0.149
					c-0.818-0.074-1.635,0.074-2.379,0.446c-0.149,0.223-0.446,0.446-0.372,0.743c0,0-0.297,0.595-0.149,1.189
					c0.223,0.669,0.818,1.264,0.52,2.081c0.372,0.892,1.412,0.595,2.156,0.892c0.223,0.074,0.595,0.223,0.743,0
					c-0.595-0.892-0.818-1.933-1.189-2.899C119.173,291.069,119.396,290.326,119.173,290.772z"/>
			</g>
			<g>
				<path style="fill:#009B43;" d="M125.194,292.556c0.595-0.372,1.412-0.892,1.412-1.635c0.223-0.743-0.074-1.189-0.149-1.264
					l-0.818-0.669c-1.189-0.223-2.23,0.223-3.419,0.297c-0.743,0-1.264-0.297-1.784-0.297c-0.074,0.297-0.669,1.635-0.892,1.933
					c0.074,0,3.419,0,4.088,0.074c0.372,0.372,0.966,0.818,0.743,1.412C124.6,292.927,124.971,292.63,125.194,292.556z"/>
			</g>
			<g>
				<path style="fill:#009B43;" d="M100.739,292.779c-0.892-0.52-1.858-0.669-2.75-0.966c-1.041-0.892-2.676-0.52-3.568-1.487
					l0.074-0.074c0.52,0.149,1.041,0.372,1.487,0.52c0.446,0,0.743,0.372,1.115,0.223c-0.223-0.372-0.743-0.52-1.041-0.818
					c0-0.074,0-0.149,0.074-0.223c1.115,0.223,1.71,1.635,2.973,1.635c0.446,0.223,0.446,0.149,0.966,0.372
					c0.446,0.223,0.966,0.223,1.338,0.52c0.223-0.074,0.743,0.297,0.669-0.223c-0.669-0.149-1.189-0.743-1.71-1.041
					c-0.966-0.372-1.784-1.041-2.75-1.487c-0.52-0.446-1.264-0.446-1.933-0.595c-0.223,0.223-0.372-0.223-0.595,0
					c-0.297-0.149-0.743,0-1.041,0.074c-0.446,0.149-0.966,0.223-1.264,0.52c1.041,0.743,2.007,1.635,3.122,2.23
					c1.041,0.892,2.156,1.487,3.419,1.561C99.995,293.448,100.516,293.299,100.739,292.779z"/>
			</g>
			<g>
				<path style="fill:#009B43;" d="M128.837,291.738c-0.297-0.446-0.818-0.074-1.189-0.074c-0.297,0.149-0.52,0-0.743,0.149
					c-0.52,0.743-1.487,0.966-2.007,1.635c0.966,0,1.71-0.52,2.602-0.818C127.945,292.333,128.614,292.259,128.837,291.738z"/>
			</g>
			<g>
				<path style="fill:#009B43;" d="M160.28,271.817c-1.338,1.264-2.23,2.527-3.494,3.865c-0.595,0.669-1.264,1.338-1.784,2.007
					c0.074,0.149-0.149,0.297,0.074,0.446c1.041-1.264,3.196-2.973,3.494-3.642c0.149-0.074,0.372,0,0.52,0.074
					c0.52,0,0.892-0.149,1.338-0.372c0,0.074,0.149,0.149,0.074,0.223c-2.081,0.52-4.163,2.676-4.98,3.94
					c0.223,0.149-1.338,1.338-2.007,1.858c-0.149,0.297-0.595,0.52-0.372,0.892c1.561-0.52,2.75-1.933,4.014-2.899
					c1.487-1.933,3.642-3.048,5.352-4.534c0.52-0.892,1.041-1.784,1.487-2.75C162.584,270.85,161.32,271.222,160.28,271.817z
					 M162.435,271.966l-1.189,0.892c0.074,0.223,0.372,0.149,0.52,0.074c0.074-0.074,0.223-0.149,0.446-0.149
					c-0.223,0.52-1.041,0.149-1.487,0.446c-0.446,0.297-0.892,0.595-1.338,0.818c0.297-0.52,1.041-0.669,1.487-1.189h0.297
					c0.372-0.446,0.892-0.818,1.338-1.115v0.223H162.435z"/>
			</g>
			<g>
				<path style="fill:#009B43;" d="M145.636,286.237c1.71-1.189,4.014-1.561,5.352-3.345c1.115-0.446,1.338-1.784,1.858-2.825
					c0.074-0.52,0.372-0.892,0.446-1.412c-0.149-0.149-0.446-0.297-0.52,0c-2.453,0.595-3.865,3.122-6.244,3.94
					c-1.784,1.189-3.048,3.196-5.055,4.311c0.223,0.297,0.669,0,0.892,0.223c0.595-0.223,1.115-0.818,1.561-1.264
					c0.595-0.595,1.041-1.264,1.635-1.858l0.074,0.074c-0.074,0.372-0.669,0.669-0.446,1.115c1.338-0.372,2.973-2.156,2.973-2.156
					l0.149,0.149c0,0.223-0.669,0.743-1.71,2.007c-1.264,0.149-2.453,1.115-3.196,2.081
					C144.521,287.947,144.818,286.609,145.636,286.237z M148.684,282.595c0.297-0.446,2.304-2.453,3.122-2.304l-2.081,1.635
					c0.372,0.372,1.115-0.446,1.189,0.223c-0.892-0.223-1.561,0.52-2.23,0.818V282.595z"/>
			</g>
			<g>
				<path style="fill:#009B43;" d="M132.999,291.738c1.338-0.966,2.527-2.007,3.94-2.899c1.412-0.669,2.825-1.784,3.345-3.345
					c0.074-0.595,0.149-1.264,0.223-1.933c-0.074-0.297,0.372-0.446,0.074-0.669c-2.007,0.297-3.642,1.561-5.055,2.973
					c-0.52,1.189-1.71,1.635-2.676,2.453c-0.892,1.189-1.933,2.527-3.048,3.568c-0.966,0.743-2.23,1.115-3.122,1.784
					c2.007-0.446,4.014-1.041,5.947-1.71C132.628,291.738,132.776,291.664,132.999,291.738z M129.952,292.482
					c-0.223-0.297,0.297-0.223,0.372-0.446c1.487-1.858,4.088-3.345,4.683-3.717c0.52-0.669,1.041-1.487,0.818-0.818
					c0.297,0.297,0.52-0.149,0.818-0.297c0.595-0.446,0.966-1.189,1.338-1.858c0.223-0.149,0.297-0.595,0.669-0.669
					c0.074,0.149-0.52,0.966-0.892,2.007c-0.446,0.446-1.635,1.412-2.379,2.081c-0.149,0.223-2.156,0.966-2.676,1.635
					c0.223,0.446-0.372,0.372-0.52,0.52C131.364,291.292,130.844,292.11,129.952,292.482z"/>
			</g>
			<g>
				<path style="fill:#009B43;" d="M139.095,291.887l-2.081,0.446c-1.338,0.446-2.825,1.041-4.237,0.595
					c-1.933,0.074-3.419,0.297-5.129,0.892c-0.297,0.223-0.892-0.074-0.818,0.372l2.23,0.52c0.595,0.372,1.412,0.149,1.933,0.669
					c0.743-0.149,1.338,0.372,2.081,0.297c1.412,0.372,2.527-0.595,4.014-0.52c2.75,0.297,4.906-0.892,7.136-1.933v-0.149
					c-0.743-0.743-1.784-1.115-2.825-1.264C140.507,291.59,139.764,291.961,139.095,291.887z M142.663,293.597
					c-2.156-0.149-4.683-0.297-6.616,0.595v0.074l1.338,0.446c-0.074,0.223-0.52,0-0.743-0.074
					c-1.412-0.074-3.642,0.074-3.642,0.074c-0.446-0.074-0.223-0.149-0.446-0.074c-1.189-0.074-2.304-0.595-3.494-0.52
					c-0.074,0-0.074-0.149-0.074-0.223c2.081-0.223,4.311,1.041,6.318,0c2.081-0.966,5.278-0.818,5.278-0.818l2.007,0.297v0.223
					H142.663z"/>
			</g>
			<g>
				<path style="fill:#009B43;" d="M115.382,294.86c-0.669,0.149-1.041-0.372-1.71-0.149c-1.635-0.52-3.568-0.074-4.98-0.966
					c-0.297-0.149-0.743-0.372-1.115-0.149c-0.297-0.297-0.892-0.074-1.264-0.223c-2.156-0.446-4.609-0.595-6.318,0.818
					l-0.074,0.223c1.338,1.189,3.122,1.189,4.832,1.338c0.446-0.074,1.115-0.074,1.635,0.074c1.933,0.372,3.94,0.966,5.947,0.149
					c1.041-0.074,2.007-0.743,3.048-0.669C115.382,295.009,115.457,294.86,115.382,294.86z M113.524,295.083
					c-1.487-0.223-2.825,0.743-4.088,0.297c-0.52,0-1.041,0.372-1.338,0.074c0.223-0.372-0.223-0.297-0.372-0.446
					c-0.595,0-1.264-0.372-1.933-0.297c-0.818-0.149-2.379-0.372-2.379-0.372c-0.52-0.223-1.264-0.223-1.933-0.223v-0.149
					c0.372-0.074,0.818-0.149,1.115-0.223c0.074-0.223-0.372-0.223-0.223-0.446c0.446,0.223,0.966,0.223,1.264,0.595
					c0.446,0,0.892,0.149,1.264,0c0.372,0.074,1.933,0.743,3.196,0.818C109.956,295.306,111.74,294.712,113.524,295.083
					L113.524,295.083z"/>
			</g>
			<g>
				<path style="fill:#009B43;" d="M122.667,294.637c-0.223-0.52-0.892-0.892-1.338-0.372l0.223,0.372
					c-0.074,0.297,0,0.595-0.149,0.892c0.149,0.372,0.669,0.074,0.966,0.074C122.593,295.306,122.816,294.935,122.667,294.637z"/>
			</g>
			<g>
				<path style="fill:#009B43;" d="M125.269,294.488c-0.372,0.372-1.115,0-1.264,0.446c0.595,0.149,1.189,0.297,1.784,0.595
					c0.446,0.372,0.818,0.743,0.892,1.338c-0.074,0.446-0.149,0.892-0.223,1.189c0.372-0.149,0.372-0.669,0.446-1.115
					c0.372,0.223-0.074,0.818,0.223,1.041c0.223-0.297,0.149-0.669,0.372-1.041c0.446,0.223,0,0.595,0.149,0.966
					c0.595-0.223,0-0.966,0.372-1.264c0.297,0.223,0.074,0.52,0.297,0.818l0.149-0.074c-0.223-0.818-0.372-1.561-0.892-2.23
					C126.83,294.86,126.086,294.488,125.269,294.488z"/>
			</g>
			<g>
				<path style="fill:#009B43;" d="M124.228,296.421c0.149,0,0.372,0.074,0.372-0.074c-0.372-0.372-0.892-0.818-1.412-0.966
					c-0.149,0.223-0.372,0.446-0.669,0.595c0.297,0.52,0.595,1.115,1.041,1.487c0.149-0.372-0.446-0.372-0.223-0.743
					c0.297,0.074,0.52,0.52,0.892,0.595c-0.074-0.297-0.595-0.372-0.372-0.743l0.743,0.743
					C124.823,296.942,124.154,296.867,124.228,296.421z"/>
			</g>
			<g>
				<path style="fill:#009B43;" d="M115.903,297.536c-0.52-0.074-0.074-0.52-0.223-0.892c0.149-0.446,0.595-0.149,0.818-0.297
					c0.743,0.372,1.189-0.446,1.784-0.669v-0.074c-0.223-0.297-0.669-0.074-1.115-0.149c-0.669,0-1.189,0.669-1.561,1.041
					c-0.297,0.966,0.372,1.561,0.669,2.379c0.52,0.074,1.115-0.223,1.487-0.595c-0.297-0.223-0.669-0.52-1.041-0.743
					C116.423,297.833,116.2,297.536,115.903,297.536z"/>
			</g>
			<g>
				<path style="fill:#009B43;" d="M124.897,295.678l-0.074,0.149c0.223,0.223,0.446,0.372,0.595,0.669
					c0.223,0.297,0,1.189,0.595,1.115c0.223-0.446,0.149-0.966-0.074-1.412C125.715,295.901,125.269,295.827,124.897,295.678z"/>
			</g>
			<g>
				<path style="fill:#009B43;" d="M118.802,297.313l0.074,0.074c0.223-0.149,0.223-0.372,0.372-0.52
					c0.223,0.074,0.595-0.074,0.743,0.149c0.297-0.223,0.149-0.669,0.297-0.966l-0.074-0.223
					C119.322,295.827,119.025,296.644,118.802,297.313z"/>
			</g>
			<g>
				<path style="fill:#009B43;" d="M117.464,296.942c-0.149,0.297,0.074,0.52,0.223,0.818c0.595,0.074,0.52-0.52,0.743-0.966
					c0.074-0.297,0.446-0.52,0.223-0.818C118.356,296.198,117.761,296.421,117.464,296.942z"/>
			</g>
			<g>
				<path style="fill:#009B43;" d="M132.553,298.131c-1.041-0.669-2.23-1.041-3.419-1.264c-0.149,0.149-0.297,0.446-0.149,0.595
					c0.966,0.223,1.71,0.669,2.602,1.189c0.372-0.149,0.669,0.595,1.041,0.149C132.553,298.577,132.702,298.354,132.553,298.131z"/>
			</g>
			<g>
				<path style="fill:#009B43;" d="M114.193,297.239c-0.892,0.595-2.379,0.669-2.825,1.858c0.149,0.149,0.297,0.223,0.446,0.223
					c0.966-0.52,2.081-0.818,3.048-1.264l0.074-0.372C115.011,297.387,114.565,296.867,114.193,297.239z"/>
			</g>
		</g>
		<g>
			<g>
				<polygon style="fill:#FFFFFF;" points="101.779,223.872 103.415,228.778 108.469,228.778 104.381,231.751 105.942,236.657 
					101.779,233.609 97.691,236.657 99.252,231.751 95.089,228.778 100.218,228.778 				"/>
				<path style="fill:#231815;" d="M97.691,236.88c-0.074,0-0.074,0-0.149-0.074c-0.074-0.074-0.149-0.149-0.074-0.297l1.561-4.683
					l-4.014-2.899c-0.074-0.074-0.149-0.149-0.074-0.297c0-0.074,0.149-0.149,0.223-0.149h4.906l1.561-4.683
					c0-0.074,0.149-0.149,0.223-0.149l0,0c0.074,0,0.223,0.074,0.223,0.149l1.487,4.683h4.906c0.074,0,0.223,0.074,0.223,0.149
					s0,0.223-0.074,0.297l-4.014,2.899l1.487,4.683c0,0.074,0,0.223-0.074,0.297c-0.074,0.074-0.223,0.074-0.297,0l-4.014-2.899
					l-4.014,2.899C97.765,236.88,97.691,236.88,97.691,236.88z M95.907,229.001l3.494,2.527c0.074,0.074,0.149,0.149,0.074,0.297
					l-1.338,4.088l3.494-2.527c0.074-0.074,0.223-0.074,0.297,0l3.494,2.527l-1.338-4.088c0-0.074,0-0.223,0.074-0.297l3.494-2.527
					h-4.311c-0.074,0-0.223-0.074-0.223-0.149l-1.338-4.163l-1.338,4.163c0,0.074-0.149,0.149-0.223,0.149H95.907z"/>
			</g>
			<g>
				<polygon style="fill:#FFFFFF;" points="137.534,223.872 139.095,228.778 144.224,228.778 140.061,231.751 141.622,236.657 
					137.534,233.609 133.371,236.657 134.932,231.751 130.769,228.778 135.898,228.778 				"/>
				<path style="fill:#231815;" d="M133.371,236.88c-0.074,0-0.074,0-0.149-0.074c-0.074-0.074-0.149-0.149-0.074-0.297l1.561-4.683
					l-4.014-2.899c-0.074-0.074-0.149-0.149-0.074-0.297c0-0.074,0.149-0.149,0.223-0.149h4.906l1.561-4.683
					c0-0.074,0.149-0.149,0.223-0.149l0,0c0.074,0,0.223,0.074,0.223,0.149l1.561,4.683h4.906c0.074,0,0.223,0.074,0.223,0.149
					s0,0.223-0.074,0.297l-4.014,2.899l1.487,4.683c0,0.074,0,0.223-0.074,0.297s-0.223,0.074-0.297,0l-4.014-2.899l-4.014,2.899
					C133.445,236.88,133.445,236.88,133.371,236.88z M137.534,233.387c0.074,0,0.074,0,0.149,0.074l3.494,2.527l-1.338-4.088
					c0-0.074,0-0.223,0.074-0.297l3.494-2.527h-4.311c-0.074,0-0.223-0.074-0.223-0.149l-1.338-4.163l-1.338,4.163
					c0,0.074-0.149,0.149-0.223,0.149h-4.311l3.494,2.527c0.074,0.074,0.149,0.149,0.074,0.297l-1.338,4.088l3.494-2.527
					C137.385,233.387,137.459,233.387,137.534,233.387z"/>
			</g>
			<g>
				<polygon style="fill:#FFFFFF;" points="120.14,213.911 121.701,218.743 126.83,218.743 122.667,221.716 124.228,226.622 
					120.14,223.575 115.977,226.622 117.538,221.716 113.45,218.743 118.579,218.743 				"/>
				<path style="fill:#231815;" d="M124.228,226.845c-0.074,0-0.074,0-0.149-0.074l-3.94-2.899l-4.014,2.899
					c-0.074,0.074-0.223,0.074-0.297,0s-0.149-0.149-0.074-0.297l1.561-4.683l-4.014-2.899c-0.074-0.074-0.149-0.149-0.074-0.297
					c0-0.074,0.149-0.149,0.223-0.149h4.906l1.561-4.683c0-0.074,0.149-0.149,0.223-0.149l0,0c0.074,0,0.223,0.074,0.223,0.149
					l1.487,4.683h4.906c0.074,0,0.223,0.074,0.223,0.149c0,0.074,0,0.223-0.074,0.297l-4.014,2.899l1.487,4.683
					c0,0.074,0,0.223-0.074,0.297C124.377,226.845,124.302,226.845,124.228,226.845z M114.193,218.966l3.494,2.527
					c0.074,0.074,0.149,0.149,0.074,0.297l-1.338,4.163l3.494-2.527c0.074-0.074,0.223-0.074,0.297,0l3.494,2.527l-1.338-4.163
					c0-0.074,0-0.223,0.074-0.297l3.494-2.527h-4.311c-0.074,0-0.223-0.074-0.223-0.149l-1.338-4.163l-1.338,4.163
					c0,0.074-0.149,0.149-0.223,0.149H114.193z"/>
			</g>
			<g>
				<path style="fill:#231815;" d="M148.238,243.645c0-1.264,1.041-2.304,2.23-2.304c1.264,0,2.23,1.041,2.23,2.304
					s-0.966,2.304-2.23,2.304C149.278,245.874,148.238,244.908,148.238,243.645z"/>
			</g>
			<g>
				<path style="fill:#231815;" d="M135.304,254.869l-0.669,0.372c-0.52,0.297-0.372,0.669,0.074,0.818h5.203
					c0.595,0,0.743-0.595,0.074-0.818l-0.52-0.297v-13.231c-0.074-0.372-0.297-0.446-0.669-0.223l-4.386,2.156
					c-0.297,0.223-0.223,0.595,0,0.669l0.743,0.297c0.149,0.074,0.074,0.149,0.074,0.149v10.109H135.304z"/>
			</g>
			<g>
				<g>
					<path style="fill:#231815;" d="M141.845,254.869l-0.669,0.372c-0.52,0.297-0.372,0.669,0.074,0.818h5.203
						c0.595,0,0.743-0.595,0.074-0.818l-0.446-0.297v-13.231c-0.074-0.372-0.297-0.446-0.669-0.223l-4.386,2.156
						c-0.297,0.223-0.223,0.595,0,0.669l0.743,0.297c0.149,0.074,0.074,0.149,0.074,0.149L141.845,254.869L141.845,254.869z"/>
				</g>
			</g>
			<g>
				<path style="fill:#231815;" d="M152.623,246.246c-0.074-0.372-0.297-0.446-0.669-0.223l-4.386,2.156
					c-0.372,0.223-0.223,0.595,0,0.669l0.669,0.297c0.149,0.074,0.074,0.149,0.074,0.149v5.649l-0.669,0.372
					c-0.52,0.297-0.372,0.669,0.074,0.818h5.203c0.52,0,0.669-0.595,0.074-0.818l-0.52-0.297v-8.771H152.623z"/>
			</g>
			<g>
				<path style="fill:#231815;" d="M88.325,254.572c0,0.297-0.149,0.297-0.149,0.297l-0.669,0.372
					c-0.446,0.223-0.372,0.743,0.223,0.818c-0.52,0,7.433,0,7.433,0c3.122,0,4.386-2.453,4.386-4.237
					c0.074-1.561-1.635-3.271-2.899-3.271c-0.074,0-0.074-0.149,0-0.149c1.189,0,2.527-1.338,2.527-2.973s-1.264-3.345-4.237-3.494
					h-7.21c-0.595,0-0.446,0.669-0.149,0.818c0,0,0.595,0.297,0.595,0.372c0.149,0.149,0.223,0.074,0.223,0.297v11.15H88.325z
					 M94.792,253.605c-0.149,0.223-0.669,0.446-1.115,0.446c-0.52,0-1.041-0.074-1.041-0.52v-3.791
					c0.074-0.297,0.446-0.446,0.892-0.446c0.52,0,0.818,0.074,1.338,0.52c0.52,0.52,0.372,1.264,0.446,1.858
					C95.238,252.564,95.015,253.457,94.792,253.605z M94.792,247.138c-0.149,0.149-0.743,0.52-1.487,0.52
					c-0.372,0-0.669,0-0.669-0.372v-3.048c0.149-0.52,1.487-0.595,1.933-0.074c0.297,0.297,0.52,0.669,0.52,1.71
					C95.015,246.321,95.015,246.841,94.792,247.138z"/>
			</g>
			<g>
				<path style="fill:#231815;" d="M122.072,256.058h1.115c0.595,0,0.743-0.595,0.074-0.818l-0.52-0.297v-6.318
					c0-0.892-0.372-1.71-0.892-2.304c-0.446-0.52-1.338-1.115-2.602-1.115s-1.933,0.297-2.676,0.892
					c-0.52,0.372-0.446,0.074-0.446-0.074v-0.818c-0.074-0.297-0.372-0.446-0.669-0.223l-4.163,2.081
					c-0.446,0.223-0.372,0.595-0.149,0.669l0.669,0.297c0.149,0.074,0.074,0.223,0.074,0.223v6.69l-0.669,0.372
					c-0.52,0.297-0.372,0.669,0.074,0.818h5.203c0.595,0,0.743-0.595,0.074-0.818l-0.52-0.297v-5.798
					c0.074-1.264,0.966-1.412,1.487-1.412c0.669,0,1.189,0.297,1.264,1.412v5.724l-0.669,0.372c-0.52,0.297-0.372,0.669,0.074,0.818
					h3.865V256.058z"/>
			</g>
			<g>
				<g>
					<path style="fill:#231815;" d="M109.956,252.267c-0.966,0.818-2.081,1.487-2.973,1.487c-1.338,0-2.304-0.743-2.602-1.635
						c0,0,0-0.074,0.074-0.074c0.074,0.074,6.17-2.23,6.17-2.23c0.223-0.149,0.223-0.223,0.223-0.446
						c-0.074-1.338-1.858-4.46-5.352-4.311c-2.899,0-5.278,2.602-5.278,5.724c-0.074,2.304,1.338,5.649,5.426,5.798
						c2.527,0,4.683-1.71,5.501-3.419C111.294,252.342,110.253,251.896,109.956,252.267z M103.786,249.442
						c-0.149-0.818,0.149-2.379,1.635-2.602c1.338-0.074,1.71,1.041,1.71,1.635c0,0.149,0,0.149,0,0.223l-3.048,1.041
						C103.935,249.814,103.786,249.591,103.786,249.442z"/>
				</g>
				<g>
					<path style="fill:#231815;" d="M133.371,252.267c-0.966,0.818-2.081,1.487-2.973,1.487c-1.338,0-2.304-0.743-2.602-1.635
						c0,0,0-0.074,0.074-0.074c0.074,0.074,6.17-2.23,6.17-2.23c0.223-0.149,0.223-0.223,0.223-0.446
						c-0.074-1.338-1.858-4.46-5.352-4.311c-2.899,0-5.278,2.602-5.352,5.724c-0.074,2.304,1.338,5.649,5.426,5.798
						c2.527,0,4.683-1.71,5.501-3.419C134.709,252.342,133.668,251.896,133.371,252.267z M127.201,249.442
						c-0.149-0.818,0.149-2.379,1.635-2.602c1.412-0.074,1.784,1.041,1.71,1.635c0,0.149,0,0.149,0,0.223l-3.048,1.041
						C127.35,249.814,127.201,249.591,127.201,249.442z"/>
				</g>
			</g>
			<g>
				<path style="fill:#FFFFFF;" d="M134.932,285.569c0.223-0.446,0.743-0.818,1.115-1.115c0.595-0.52,1.264-0.966,1.933-1.412
					c-3.717,0-7.433,0-11.15,0c-6.318,0-12.562,0-18.881,0c-2.007,0-4.088,0-6.095,0c0.223,0.372,0.446,0.669,0.669,1.041
					c0.149,0.297,0.149,0.297,0.446,0.372c0.743,0.149,1.487,0.297,2.23,0.52c1.635,0.669,3.048,2.007,4.46,2.973
					c1.264,0.892,2.676,1.561,3.717,2.75c0.52,0.595,1.041,1.115,1.71,1.561c0.297,0.223,0.669,0.446,0.966,0.669
					c0.223,0.149,0.892,0.743,1.189,0.669c-0.074-0.149-0.297-0.446-0.223-0.595c0.149-0.223,0.149-0.446,0.074-0.743
					c-0.149-0.372-0.372-0.743-0.52-1.115c-0.149-0.446-0.074-0.966,0.074-1.412c-0.074-0.669,0.52-1.189,1.115-1.412
					c0.446-0.149,0.966-0.297,1.412-0.297c0.297,0,0.818-0.074,1.115,0.074c0.297,0.149,0.669,0.074,0.966,0.149
					c0.52,0.074,0.966,0.223,1.487,0.149c1.115-0.149,2.156-0.446,3.271-0.297c0.372,0.074,0.743,0.52,0.966,0.743
					c0.595,0.52,0.446,1.338,0.372,2.007c0.595-0.074,1.338-0.372,1.858,0.074l0.223,0.223c0.223-0.223,0.446-0.372,0.595-0.595
					c0.446-0.446,0.818-0.892,1.189-1.338c0.52-0.595,0.892-1.338,1.561-1.784C133.445,286.981,134.486,286.535,134.932,285.569z"/>
			</g>
			<g>
				<path d="M101.408,282.818L101.408,282.818c0.074,0.149,0.223,0.223,0.297,0.297c0,0.074,0.074,0.149,0.074,0.223h36.052
					c0.223-0.149,0.595-0.297,0.743-0.446h0.074h-37.241V282.818z"/>
			</g>
			<g>
				<g>
					<path d="M134.709,266.985c-0.223-0.52-0.669-1.338-0.818-2.081v-0.074c-0.446-1.115-1.264-1.71-2.304-1.71
						c-0.074,0-0.149,0-0.149,0c-0.743,0-1.115,0.372-1.487,0.743l-0.074,0.074c-0.892,1.71,0,3.048,0.818,4.237
						c0.446,0.669,0.818,1.264,0.966,1.933c0.149,0.669-0.149,1.412-0.669,1.71c-0.669,0.297-1.561-0.149-2.156-0.372
						c-0.297-0.149-0.669-0.297-0.966-0.446c-1.858-0.892-4.014-1.189-6.095-1.189c-0.149,0-0.818-0.149-1.115-0.149
						c-0.297,0-0.446-0.074-0.818-0.223h-0.074c-0.595-0.149-0.966-0.446-1.487-0.669c-0.223-0.149-0.52-0.297-0.818-0.446
						c-0.074,0-0.149-0.074-0.223-0.074c-0.074,0-0.074,0-0.149,0c0,0-0.074-0.074-0.074-0.149
						c-0.149-0.149-0.223-0.372-0.446-0.446c-0.074-0.074-0.149-0.074-0.297-0.074c-0.074,0-0.149,0-0.223,0.074
						c-0.149-0.297-0.297-0.595-0.446-0.892c-0.074-0.074-0.074-0.149-0.149-0.149c-0.52-0.297-0.892-0.818-1.338-1.338
						c-0.372-0.446-0.743-0.966-1.264-1.338c-0.149-0.223-0.372-0.446-0.669-0.446c-0.074,0-0.149,0-0.223,0
						c-0.074-0.074-0.149-0.223-0.297-0.297c-0.297-0.223-0.743-0.372-1.115-0.446h-0.149c-0.074,0-0.149,0-0.223,0
						c-0.149,0-0.223,0-0.297,0.074c-0.074,0-0.074-0.074-0.074-0.074c-0.149-0.074-0.372-0.149-0.52-0.149
						c-0.074,0-0.223,0-0.297-0.074c-0.223-0.223-0.446-0.446-0.743-0.446c-0.223,0-0.372,0.074-0.52,0.297c0,0,0,0,0,0.074
						c-0.223,0-0.372,0.074-0.52,0.223l0,0c-0.446,0-1.115,0.223-1.412,0.595c-0.149,0.149-0.149,0.372-0.223,0.595
						c-0.074,0-0.074,0-0.149,0.074c-0.149,0.074-0.297,0.149-0.446,0.223c-0.297,0.149-0.595,0.297-0.892,0.595
						c-0.074,0.074-0.074,0.074-0.074,0.149c-0.149,0.372-0.446,0.669-0.818,1.041c-0.223,0.223-0.52,0.446-0.743,0.743
						c0,0,0,0.074-0.074,0.074c-0.149,0.297-0.149,0.669,0,0.892c0.074,0.149,0.149,0.223,0.297,0.223
						c0,0.372,0.223,0.669,0.372,0.818c0.074,0.074,0.149,0.223,0.149,0.297c0,0.149,0.074,0.223,0.223,0.297
						s0.223,0.149,0.372,0.149c0,0,0,0.074-0.074,0.149c-0.074,0.297,0,0.595,0.223,0.892c0.223,0.297,0.446,0.446,0.743,0.446
						s0.52-0.149,0.669-0.223c0.074-0.074,0.149-0.074,0.223-0.149c0,0,0.074,0,0.074-0.074c0,0,0.149,0.074,0.223,0.074
						c0.149,0.074,0.297,0.149,0.52,0.149h0.074c0,0,0,0,0.074,0c0,0.149,0,0.297,0,0.446c0,0.446-0.074,0.892,0.074,1.338
						c-0.074-0.074-0.223-0.074-0.297-0.074c0,0,0,0-0.074,0h-0.074c-0.074,0-0.074,0-0.149,0c-0.074-0.074-0.223-0.149-0.372-0.149
						c0,0-2.156,0-2.379,0c0,0-0.149,0-0.297,0c-0.743,0-1.041-0.074-1.115-0.149c-0.372-0.297-1.041-0.595-1.635-0.595
						c-0.074,0-0.223,0-0.297,0c-0.595,0.074-0.818,0.52-0.892,0.669c0,0,0,0,0,0.074c-0.149,0.223-0.149,0.595-0.149,0.818
						c0,0.149,0.074,0.297,0.223,0.372c0.074,0,0.074,0.074,0.149,0.074c0,0.074,0,0.223,0.074,0.297
						c0.074,0.223,0.297,0.372,0.52,0.372c0.074,0,0.149,0,0.223,0c0.074,0.446,0.297,0.818,0.743,0.818h0.074
						c0.372,0,0.818-0.223,0.892-0.669c0.223,0.074,0.372,0.074,0.595,0.074c0.446,0.149,0.669,0.446,1.115,0.446
						c0.446,0.074,0.743,0.074,1.041,0.074s0.743,0,0.966,0.074c0.223,0.149,0.297,0.446,0.446,0.669
						c0.149,0.297,0.297,0.446,0.595,0.595l0,0c0.297,0.223,0.669,0.595,1.041,0.446c-0.074,0,0.446,0.372,0.446,0.446
						c0.223,0.149,0.372,0.297,0.595,0.372c0.149,0.074,0.223,0.074,0.297,0.149c0.149,0.074,0.223,0.074,0.372,0.074
						c0.223,0,0.446-0.149,0.52-0.223c-0.074,0.595,0,1.264,0,1.933c0,1.041,0,2.156-0.149,3.048v0.074c-0.074,0-0.149,0-0.297,0
						c-0.372,0-0.669,0.074-0.892,0.297c-0.074,0.074-0.074,0.074-0.149,0.149c-0.297,0.372-0.223,0.818-0.149,1.041v0.074
						c-0.074,0.223,0.074,0.446,0.297,0.52c0.074,0,0.149,0.074,0.223,0.074c0.074,0,0.223,0,0.297-0.074
						c0.149,0.074,0.297,0.149,0.446,0.149c0.074,0,0.149,0,0.223-0.074c0.074,0,0.223-0.074,0.223-0.223
						c0.149,0.074,0.372,0.223,0.669,0.223c0.074,0,0.149,0,0.223,0c0.074,0,0.149-0.074,0.223-0.074
						c0.223-0.149,0.372-0.372,0.372-0.595c0-0.074,0-0.223,0-0.297c0,0.074,0.595-0.669,0.595-0.743v-0.074
						c0.074-0.149,0.074-0.297,0.074-0.52c0-0.223,0.074-0.446,0.074-0.669c0.149-0.595,0.223-1.115,0.297-1.71
						c0.149-0.669,0.149-1.338,0.892-1.561c0.446-0.149,0.818-0.074,1.264-0.149c1.71-0.223,3.271-0.966,5.055-1.115
						c0.446-0.074,0.892,0,1.338,0c0.074,0.892,0.372,1.635,0.743,2.379c0.52,1.115,1.264,1.784,2.156,1.933
						c0,0.074-0.074,0.074-0.074,0.149c-0.074,0.223-0.223,0.446-0.297,0.669c-0.074,0.149-0.074,0.223-0.074,0.372
						c-0.074,0-0.223-0.074-0.372-0.074c-0.149,0-0.372,0.074-0.446,0.149l-0.074,0.074c-0.074,0.074-0.149,0.074-0.223,0.149
						c-0.074,0.074-0.223,0.149-0.297,0.223c-0.223,0.149-0.446,0.297-0.52,0.52l0,0c-0.149,0.223-0.149,0.446,0,0.595
						c0,0,0,0,0,0.074c0.074,0.149,0.297,0.372,0.595,0.372c0.149,0,0.297,0,0.372-0.149c0.074,0.074,0.297,0.223,0.52,0.223
						c0.372,0,0.818-0.223,0.892-0.223c0.372-0.223,0.595-0.595,0.743-0.892c0.149-0.297,0.223-0.52,0.372-0.818l0.074-0.074
						c0.149-0.223,0.372-0.372,0.595-0.446c0.074,0,0.074-0.074,0.149-0.074c0.372-0.223,0.595-0.743,0.743-1.115
						c0.074-0.149,0-0.297-0.074-0.446l-0.52-0.892c-0.372-0.52,0.074-1.487,0.372-1.933c-0.149,0.223,4.163,3.048,4.609,3.196
						c0.074,0,0.074,0.074,0.149,0.074c0,0.223,0,0.446,0.074,0.743c0,0.149,0,0.223,0,0.297c0,0.223,0,0.372,0,0.52
						c0,0.372-0.149,0.595-0.372,0.743c-0.074,0.074-0.149,0.074-0.149,0.149c-0.223,0.372-0.149,0.818,0.074,1.115
						c0.074,0.149,0.223,0.149,0.372,0.223l0,0c0.149,0,0.223-0.074,0.372-0.149c0.074-0.074,0.074-0.074,0.149-0.149
						c0.149,0.074,0.297,0.149,0.446,0.149c0.297,0,0.595-0.149,0.818-0.297c0.149-0.074,0.223-0.223,0.223-0.372l0.074-1.487v-0.52
						v-0.818c0.223-0.52,0.149-1.115-0.372-1.784c-0.074-0.074-0.149-0.149-0.297-0.223c-0.52-0.149-0.892-0.595-1.264-1.189
						c-0.149-0.223-0.372-0.52-0.595-0.818c-0.446-0.52-0.52-1.264-0.669-2.007c-0.074-0.595,0-1.189,0.223-1.71
						c0.892,0.52,2.081-0.446,2.527-1.189c0.669-1.189,0.223-2.676,0-3.196c-0.223-0.743-0.669-1.338-1.041-2.007
						c-0.595-0.966-1.115-1.858-1.041-2.973c0,0.297,0.372,0.743,0.446,0.966c0.372,0.446,0.818,0.892,1.189,1.338
						c0.372,0.297,1.858,1.561,2.156,0.595C135.006,267.58,135.006,267.431,134.709,266.985z"/>
				</g>
				<g>
					<path style="fill:#FFFFFF;" d="M113.747,278.135c0.223,0,0.446,0,0.669,0c0.149,0,0.297,0,0.446,0
						c0.743-0.074,1.487-0.297,2.23-0.52c0.892-0.223,1.784-0.52,2.825-0.595c0.297,0,0.52,0,0.743,0s0.446,0,0.595,0
						c0,0,0.223,0,0.446-0.149c0.446-0.372,0.818-1.115,1.189-1.487l0,0c0.074,0,0.297,0.223,0.297,0.297
						c0.074,0.149,0,0.223-0.074,0.372c-0.149,0.297-0.446,0.446-0.595,0.743c-0.223,0.52-0.52,1.041-0.446,1.635
						c0,0.297,0.149,0.446,0.149,0.669c0.074,0.223,0.074,0.52,0.223,0.743c0.372,0.818,1.041,1.71,2.007,1.71c0,0,0,0,0.074,0
						c0.149,0,0,0,0.297,0c-0.074,0.446-0.372,0.892-0.52,1.338c-0.074,0.149-0.074,0.297-0.149,0.52c0,0.074,0,0.149,0,0.223
						c-0.074,0.223-0.149,0.223-0.297,0.223s-0.372-0.074-0.52-0.074c-0.149,0-0.223,0.074-0.297,0.223l0.149,0.149
						c0.223-0.074,0.297-0.074,0.372-0.074c0.297,0-0.743,0.446-0.52,0.743c0.074,0.074,0.149,0.074,0.223,0.074
						c0.223,0,0.52-0.149,0.669-0.223c0.223-0.149,0.372-0.372,0.52-0.595c0.074-0.223,0.223-0.446,0.372-0.669
						c0.074-0.223,0.223-0.372,0.446-0.52c0,0,0,0,0.074-0.074c0.223-0.149,0.446-0.297,0.669-0.446
						c0.223-0.223,0.372-0.52,0.446-0.743l-0.595-0.892c-0.149-0.595-0.149-1.189,0-1.858c0.149-0.52,0.446-0.818,0.818-1.189
						c0.446-0.446,0.892-0.818,1.264-1.338c0.595-0.743,1.115-1.71,1.041-2.676c0.149,0,0.223,0.149,0.372,0.223
						c0.149,0.074,0.372,0.074,0.52,0.074s0.297,0,0.52,0c0,0,0,0,0.074,0c0.223,0,0.52,0.074,0.743,0.074c0,0,0,0,0.074,0
						c0.595,0,1.264-0.595,1.561-1.041c0.446-0.818,0.297-1.933-0.074-2.75c-0.669-1.933-2.379-3.271-2.081-5.352
						c0.074-0.297,0.223-0.446,0.818-0.52c0.149,0.074,0.223,0.372,0.223,0.52c0,0.372,0.446,0.966,0.669,1.264
						c0.297,0.297,0.52,0.595,0.818,0.892c0.223,0.223,0.446,0.372,0.669,0.52c0.074,0.074,0.446,0.223,0.446,0.297c0,0,0,0,0.074,0
						c0,0,0.074,0,0.149-0.074c0-0.074-0.818-1.412-1.041-2.602c-0.372-0.818-0.966-1.412-1.858-1.412c-0.074,0-0.074,0-0.149,0
						c-0.52,0-0.818,0.223-1.115,0.595c-1.189,2.304,1.412,3.791,1.858,5.798c0.149,0.966-0.223,1.858-0.966,2.304
						c-0.297,0.149-0.595,0.223-0.892,0.223c-0.669,0-1.264-0.223-1.784-0.595c-0.595,0-1.115-0.669-1.784-0.669c0,0,0,0-0.074,0
						c-1.487-0.743-3.271-0.892-4.906-0.892c0,0-0.818-0.074-1.115-0.149c-0.297,0-0.52-0.074-1.041-0.223
						c-0.966-0.223-1.561-0.818-2.379-1.189c-0.074,0-0.149,0.074-0.149,0.074c-0.297,0-0.446-0.52-0.743-0.669
						c-0.223,0.223,0.074,0.743-0.223,0.892c-0.223-0.669-0.52-1.338-0.892-1.933c-1.041-0.669-1.635-1.933-2.676-2.75
						c0-0.149-0.149-0.297-0.223-0.297c0,0,0,0-0.074,0c-0.074,0.149,0.149,0.223-0.074,0.297c-0.297-0.149-0.372-0.52-0.669-0.669
						c-0.297-0.223-0.818-0.297-1.115-0.446c0,0,0,0-0.074,0c-0.074,0-0.149,0.074-0.074,0.074l0,0
						c0.223,0.074,0.074,0.223,0.074,0.372c0,0-0.52-0.446-0.595-0.446c-0.297-0.149-0.595-0.074-0.892-0.297
						c-0.149-0.074-0.223-0.297-0.372-0.297c-0.149-0.074-0.743,0.297-0.743,0.372c0.149,0.297,0.743,0.595,0.595,1.041
						c-0.223-0.074-0.372-0.297-0.52-0.595c-0.074-0.223-0.223-0.297-0.52-0.297c-0.372,0-0.892,0.223-1.041,0.372
						c-0.149,0.149-0.149,0.743-0.223,0.818c0,0,0,0-0.074,0c-0.074,0-0.074-0.074-0.149-0.149
						c-0.446,0.297-0.892,0.372-1.189,0.818c-0.297,0.818-1.115,1.264-1.635,1.933c-0.074,0.149-0.074,0.372,0,0.446h0.074
						c0.223,0,0.372-0.297,0.52-0.446h0.074h0.074c0.074,0,0.074,0,0.074,0.074l-0.446,0.446c-0.372,0.52,0.297,0.892,0.446,1.338
						c0.074,0.074,0.149,0.074,0.223,0.074c0.372,0,0.52-0.669,0.966-0.669c0.074,0,0.074,0,0.149,0
						c0.149,0,0.446,0.149,0.446,0.372c0,0.743-1.71,0.52-1.041,1.487c0.149,0.149,0.223,0.223,0.372,0.223
						c0.223,0,0.446-0.223,0.669-0.297c0.074-0.074,0.149-0.074,0.223-0.074c0.297,0,0.52,0.223,0.743,0.223l0,0
						c0.223-0.149,0.074-0.595,0.372-0.595l0,0c0.372,0.892-0.074,2.007,0.223,2.899v0.074c0,0.149-0.074,0.372,0,0.669
						c0.074,0.149,0.074,0.223,0.074,0.372c0,0.297,0.074,0.52-0.074,0.52c-0.074,0-0.149-0.074-0.372-0.223
						c-0.149-0.149-0.223-0.743-0.446-1.115l0,0c-0.074,0-0.223,0-0.297,0c-0.149,0-0.223,0-0.372-0.149c0,0-2.156,0-2.379,0
						c0,0-0.074,0-0.297,0c-0.372,0-1.115,0-1.412-0.223c-0.372-0.223-0.892-0.446-1.338-0.446c-0.074,0-0.149,0-0.223,0
						c-0.446,0.074-0.52,0.446-0.595,0.52c-0.074,0.149-0.074,0.446-0.074,0.446l0.372-0.074c0,0,0.149-0.223,0.446-0.223h0.074
						c0.223,0,0.372,0.074,0.372,0.074s0,0.223-0.223,0.297c-0.223,0.074-0.297,0.074-0.52,0.223
						c-0.149,0.149-0.223,0.372-0.074,0.372h0.074c0.149-0.074,0.223-0.149,0.372-0.149c0,0,0,0,0.074,0
						c0.149,0.074,0.223,0.223,0.223,0.372s0.074,0.595,0.223,0.595c0,0,0,0,0.074,0c0.223,0,0.446-0.074,0.446-0.52
						c0-0.223,0.074-0.223,0.149-0.223s0.223,0.149,0.372,0.223c0.074,0.074,0.149,0.074,0.223,0.074s0.149,0,0.223,0
						c0.149,0,0.223,0,0.297,0.074c0.52,0.372,0.818,0.372,0.892,0.372l0,0c1.041,0.149,1.264,0.074,2.23,0.223
						c0.446,0.074,0.372,0.446,0.52,0.743s0.372,0.446,0.595,0.595c0.074,0.074,0.669,0.446,0.669,0.446c0-0.223,0-0.595,0-0.892
						c0.074-0.149-0.074-0.372,0.149-0.372c0,0,0,0,0.074,0c0.372,0.297,0.074,0.818,0.223,1.264
						c0.149,0.52,0.892,0.743,1.338,0.966c0.074,0,0.074,0.074,0.149,0.074c0.223,0,0.223-0.297,0.446-0.372
						c0.074-0.074,0.149-0.149,0.297-0.149c0.149,0,0.297,0.074,0.297,0.223c-0.223,1.71,0.149,3.717-0.223,5.501
						c0,0.149-0.074,0.372-0.149,0.52c0,0.074,0,0.074,0,0.149c-0.223,0-0.446-0.074-0.669-0.074c-0.223,0-0.446,0.074-0.595,0.223
						c-0.297,0.223,0,0.669-0.074,0.892c0.074-0.149,0.297-0.223,0.223-0.372c0.149-0.223,0.372-0.446,0.595-0.446
						c0.297,0.446-0.372,0.446-0.297,0.818c0,0.149,0.074,0.223,0.149,0.223h0.074c0.149-0.223,0.223-0.297,0.297-0.297
						c0.223,0,0.446,0.372,0.743,0.372h0.074c0.372-0.297,0.074-0.52-0.149-0.743c0.074-0.149,0.149-0.149,0.223-0.149
						c0.074,0,0.149,0,0.223,0.074c0.446-0.223,0.595-0.669,0.669-1.115c0.074-0.372,0.074-0.743,0.074-1.189
						c0.074-0.372,0.149-0.818,0.223-1.189c0.074-0.372,0.223-0.669,0.149-1.041c0-0.446,0-0.892,0-1.338
						c0-0.223,0-0.446,0.074-0.669s0.074-0.372,0-0.52c-0.074-0.074-0.149-0.149-0.149-0.223c0.074-0.149,0.297,0,0.297-0.223
						c0-0.149-0.074-0.297-0.149-0.446c0,0,0-0.446,0.074-0.446c0.297,0.297,0.52,0.743,0.446,1.189
						c-0.297,0.595-0.297,1.189-0.297,1.858c0.074,0,0.074,0.074,0.149,0.074c0.149,0,0.297-0.149,0.446-0.223
						C113.598,278.21,113.673,278.135,113.747,278.135z"/>
				</g>
				<g>
					<path style="fill:none;" d="M131.513,281.777c-0.074,0-0.074-0.074-0.149-0.074c-0.446-0.223-4.757-3.048-4.609-3.196
						c-0.297,0.446-0.743,1.412-0.372,1.933l0.52,0.892c0.074,0.149,0.074,0.297,0.074,0.446c-0.149,0.372-0.372,0.892-0.743,1.115
						h5.426c0-0.074,0-0.223,0-0.297C131.513,282.298,131.513,282.001,131.513,281.777z"/>
				</g>
				<g>
					<path style="fill:none;" d="M129.952,275.013v0.074C129.952,275.087,129.952,275.087,129.952,275.013L129.952,275.013z"/>
				</g>
				<g>
					<path style="fill:none;" d="M131.141,264.829L131.141,264.829L131.141,264.829
						C131.141,264.755,131.141,264.829,131.141,264.829z"/>
				</g>
				<g>
					<path style="fill:none;" d="M124.228,281.926c-0.892-0.149-1.635-0.818-2.156-1.933c-0.372-0.818-0.669-1.561-0.743-2.379
						c-0.446,0.074-0.892,0-1.338,0c-1.71,0.149-3.345,0.892-5.055,1.115c-0.446,0.074-0.818,0-1.264,0.149
						c-0.743,0.223-0.743,0.892-0.892,1.561c-0.149,0.595-0.223,1.115-0.297,1.71c-0.074,0.223-0.074,0.446-0.074,0.669h11.373
						c0.074-0.223,0.223-0.52,0.297-0.669C124.154,282.075,124.154,282.001,124.228,281.926z"/>
				</g>
				<g>
					<path style="fill:#FFFFFF;" d="M122.518,284.751L122.518,284.751c-0.149,0-0.223-0.149-0.372-0.223
						c0.074-0.149,0.223-0.372,0.446-0.446c0,0.074,0.074,0.074,0.074,0.149c-0.074,0.074-0.149,0.223-0.149,0.372
						C122.593,284.677,122.518,284.677,122.518,284.751z"/>
				</g>
				<g>
					<path d="M131.141,264.829L131.141,264.829C131.141,264.829,131.141,264.755,131.141,264.829L131.141,264.829z"/>
				</g>
				<g>
					<path d="M108.99,266.837c-0.297-0.297-0.223-0.966-0.669-1.115c0.074,0.223,0,0.52,0,0.743
						c-0.297,0.372-0.149,0.966-0.074,1.264c0.149,0,0.223-0.297,0.223-0.446C108.544,266.985,108.841,267.06,108.99,266.837z"/>
				</g>
				<g>
					<path d="M109.213,270.702c0.149-0.297-0.149-0.372-0.297-0.595c0.223-0.149-0.149-0.372-0.074-0.595
						c-0.223-0.52,0.446-1.115-0.074-1.561c-0.149,0.372-0.446,0.446-0.372,0.892C108.767,269.512,108.544,270.405,109.213,270.702z
						"/>
				</g>
				<g>
					<path d="M107.875,271.297c0,0.669-0.297,1.561,0.223,2.081l0.149-0.074c-0.372-0.52-0.149-1.412-0.297-2.007L107.875,271.297
						L107.875,271.297z"/>
				</g>
				<g>
					<path d="M109.064,273.155c0.149,0,0.149-0.149,0.149-0.297c-0.074-0.223-0.297-0.223-0.446-0.223
						c-0.149-0.446-0.149-1.115,0-1.561c-0.074-0.149,0-0.372-0.297-0.372l-0.074,1.338
						C108.618,272.486,108.469,273.081,109.064,273.155L109.064,273.155z"/>
				</g>
				<g>
					<path d="M108.172,270.479c0-0.446-0.446-0.818-0.223-1.264c0.149-0.372-0.297-0.372-0.52-0.372h-0.074v0.223
						c0.446,0.149,0.149,0.818,0.223,1.264c0.074,0.149,0.223,0.223,0.372,0.223C108.098,270.479,108.098,270.479,108.172,270.479z"
						/>
				</g>
				<g>
					<path d="M109.213,274.418c-0.149-0.074-0.074-0.372-0.223-0.372c0,0-0.074,0-0.149,0c0.297,0.818-0.446,1.858,0.149,2.527
						c0.223,0,0.446-0.223,0.446-0.446C108.99,275.757,109.287,275.087,109.213,274.418z"/>
				</g>
				<g>
					<path d="M110.476,264.607c0-0.223-0.223-0.446-0.372-0.52c-0.074,0.149-0.074,0.446,0.149,0.669
						C110.402,264.681,110.476,264.681,110.476,264.607z"/>
				</g>
				<g>
					<path d="M106.685,265.276c0.074-0.446,0.223-1.189-0.074-1.412c-0.074,0.669-0.074,1.189-0.223,1.784
						C106.388,265.647,106.76,265.499,106.685,265.276z"/>
				</g>
				<g>
					<path d="M106.834,266.688h-0.074c-0.074,0.149-0.372,0.149-0.223,0.372c0,0,0,0,0.074,0c0.074,0,0.223,0.149,0.297,0.149
						c0.074,0,0.074-0.074,0.149-0.223C106.983,266.985,107.057,266.688,106.834,266.688z"/>
				</g>
				<g>
					<path d="M105.645,265.722c-0.223,0-0.446,0.074-0.669,0.074c-0.074,0-0.149,0-0.223-0.074v0.669
						c0.074,0.074,0.149,0.149,0.297,0.149c0.297,0,0.595-0.446,0.892-0.669C105.868,265.722,105.793,265.722,105.645,265.722z"/>
				</g>
				<g>
					<path d="M111.814,267.283L111.814,267.283l0.074-0.372c-0.074-0.372,0.223-0.669,0.074-0.966
						c-0.149,0.223-0.595,0.52-0.446,0.892C111.666,267.06,111.591,267.283,111.814,267.283z"/>
				</g>
				<g>
					<path d="M111.294,271.891c0.297-0.297-0.446-0.595,0-0.818c0.149,0.297,0.297,0.669,0.52,0.966
						c0.074-0.149,0-0.223,0.074-0.372c-0.446-0.669-0.223-1.412-0.223-2.081c-0.149,0.074-0.149,0.223-0.074,0.297
						c-0.074,0.149-0.223,0.446-0.372,0.446c-0.074,0-0.074,0-0.149-0.074C111.071,270.85,110.774,271.52,111.294,271.891z"/>
				</g>
				<g>
					<path d="M109.659,266.316c0.372-0.297,0.149-0.818,0.223-1.189c-0.074-0.297-0.446-0.595-0.743-0.743
						c-0.074,0.297,0,0.669,0.074,0.966C109.882,265.35,109.584,266.019,109.659,266.316z"/>
				</g>
				<g>
					<path d="M114.713,269.884c-0.818-0.223-0.223-1.115-0.446-1.71c-0.149-0.074-0.074-0.372-0.297-0.372c0,0,0,0-0.074,0
						c0.446,0.743-0.149,1.858,0.297,2.676c0.223,0.223,0.074,0.52,0.52,0.52C115.308,270.702,114.565,270.33,114.713,269.884z"/>
				</g>
				<g>
					<path d="M112.929,273.824c-0.149-0.297-0.074-0.743,0-1.041c0.149-0.149,0.223-0.446,0.074-0.52
						c-0.149,0.595-0.52,1.189-0.372,1.784c0.52,0.52,1.264,1.189,0.966,2.081h0.149c0.149-0.297,0.074-0.743,0-1.115
						c-0.372-0.446-0.52-1.041-0.52-1.71C113.078,273.452,113.078,273.824,112.929,273.824z"/>
				</g>
				<g>
					<path d="M112.483,266.391c0.297,0,0.223-0.446,0.446-0.595c0-0.223,0.074-0.595-0.223-0.669
						c-0.074,0.223-0.223,0.074-0.446,0.223C112.409,265.647,112.335,266.019,112.483,266.391L112.483,266.391z"/>
				</g>
				<g>
					<path d="M113.375,268.323h-0.149c0.149,0.669-0.149,1.041-0.074,1.71c-0.074,0.297,0.149,0.446,0.372,0.52
						c0.074-0.074,0.297,0,0.223-0.223C113.152,269.81,113.598,268.992,113.375,268.323z"/>
				</g>
				<g>
					<path d="M112.558,270.553c0.52-0.818-0.149-1.858,0.446-2.602c-0.223-0.223,0-0.743-0.372-0.818l-0.149,1.041
						c-0.074,0.297-0.446,0.446-0.223,0.743c0.446,0.743,0,1.635,0.223,2.453C112.855,271.297,112.409,270.85,112.558,270.553z"/>
				</g>
				<g>
					<path d="M115.605,273.006c-0.149-0.372,0.149-0.52,0.297-0.743c0.149-0.52-0.149-1.115-0.372-1.635l0.149-0.074l0.297,0.52
						l0.074-0.074c0.149-0.149,0.149-0.372,0-0.446c0.149-0.743-0.446-1.264-0.595-1.933c-0.297,0.52,0.297,0.892,0.149,1.412
						c0,0.223-0.149,0.372-0.297,0.372c-0.074,0-0.074,0-0.149-0.074l0.223,0.892c-0.446,0.372-0.074,0.966-0.149,1.412
						c-0.149,0.223,0.223,0.669-0.223,0.818c0.223,0.372,0.297,0.966,0.595,1.338c0.074-0.223,0.372-0.297,0.52-0.52
						C116.795,273.601,115.828,273.452,115.605,273.006z"/>
				</g>
				<g>
					<path d="M114.416,267.728c0.223,0,0.223-0.297,0.297-0.372c0-0.446-0.372-0.669-0.669-0.966v0.223
						C114.565,266.837,114.119,267.431,114.416,267.728z"/>
				</g>
				<g>
					<path d="M111.22,274.642c-0.149-0.074-0.074-0.52-0.297-0.52h-0.074c0.074,0.372,0.223,0.818,0.223,1.264h0.149
						C111.591,275.236,111.145,274.939,111.22,274.642z"/>
				</g>
				<g>
					<path d="M110.476,272.709c-0.223,0.446-0.372,1.041-0.149,1.487c0.149-0.074,0.149-0.223,0.149-0.372
						C110.253,273.527,110.699,273.081,110.476,272.709z"/>
				</g>
				<g>
					<path d="M111.071,268.992c0-0.074,0.074-0.074,0.149-0.149c0-0.074,0.074-0.223-0.074-0.297
						c0.223-0.52-0.446-0.892-0.149-1.412c-0.223-0.595,0.446-1.189,0.223-1.71c-0.223,0.223-0.372,0.52-0.372,0.966
						c-0.223,0.372-0.149,0.892-0.223,1.338c-0.52,0.074,0.149,0.446-0.074,0.818c0,0.074,0.149,0.149,0.223,0.149
						c0.074,0,0.149,0,0.223-0.149L111.071,268.992z"/>
				</g>
				<g>
					<path d="M110.03,274.716c-0.223,0.149-0.074,0.595-0.074,0.818c0.372,0.223,0.074,0.743,0.297,1.041
						c0.149-0.223,0.223-0.595,0.074-0.818C110.402,275.385,109.956,275.162,110.03,274.716z"/>
				</g>
				<g>
					<path d="M110.03,272.709L110.03,272.709c-0.223-1.041,0.372-1.858,0.149-2.825c0,0,0,0-0.074,0
						c-0.223,0-0.372,0.223-0.52,0.446c0.372,0.743-0.074,1.487,0.223,2.23C109.956,272.634,109.956,272.709,110.03,272.709z"/>
				</g>
				<g>
					<path d="M111.74,276.128h-0.074c-0.149,0.074-0.074,0.223,0,0.297c0,0.446-0.372,0.966,0,1.264
						c0.223-0.372,0.074-0.966,0.297-1.338C111.889,276.277,111.889,276.128,111.74,276.128z"/>
				</g>
				<g>
					<path d="M111.517,272.709C111.517,272.709,111.443,272.709,111.517,272.709c-0.149,0-0.149,0.074-0.223,0.074
						c-0.074,0.743,0.446,1.338,0.446,2.081c0.372,0,0.149-0.446,0.372-0.595C111.814,273.824,111.368,273.303,111.517,272.709z"/>
				</g>
				<g>
					<path style="fill:#FFFFFF;" d="M132.851,280.514c-1.041-0.297-1.412-1.338-2.081-2.156c-0.297-0.372-0.52-0.818-0.595-1.338
						c-0.149-0.52-0.074-0.966-0.149-1.487c-0.074-0.372,0-0.669,0-1.041c-0.149,0-0.223,0-0.372-0.074
						c-0.149,0.669-0.52,1.412-1.115,2.23c-0.223,0.297-0.52,0.595-0.743,0.818c-0.074,0.074-0.223,0.149-0.297,0.297l-0.297,0.297
						c0.074,0.074,0.149,0.149,0.223,0.149c0.074,0.074,0.223,0.074,0.297,0.149c0.149,0.149,0.297,0.297,0.446,0.372
						c0.372,0.297,0.818,0.595,1.189,0.892c0.223,0.149,0.52,0.372,0.743,0.52c0.446,0.297,0.892,0.595,1.338,0.892
						c0.223,0.149,0.595,0.149,0.669,0.52c0,0.372,0.074,0.743,0.074,1.115c0,0.149,0,0.372,0,0.52c0,0.446-0.149,0.892-0.595,1.189
						c-0.074,0.149-0.074,0.446,0,0.595c0.372-0.372,0.52-0.966,1.041-1.189c0.223,0.446-0.446,0.446-0.372,0.892
						c0.074,0.074,0.149,0.149,0.223,0.149c0.223,0,0.446-0.149,0.595-0.223l0.074-1.412v-0.52v-0.966
						C133.371,281.406,133.074,280.885,132.851,280.514z"/>
				</g>
				<g>
					<path d="M114.342,275.013c-0.297-0.074-0.52-0.446-0.595-0.669s0.149-1.041,0-1.115c-0.149-0.149-0.149-0.372,0.074-0.446
						c0.595-0.223-0.372-0.595,0-0.966c0.297,0.074,0.297,0.372,0.446,0.52c0.297,0.297-0.074,1.189-0.149,1.487
						c-0.074,0.223-0.074,0.446,0,0.669C114.267,274.642,114.49,274.79,114.342,275.013z"/>
				</g>
				<g>
					<path d="M113.97,277.095c0.074-0.074,0.149,0.149,0.149,0.223c0,0.074-0.223,0.149-0.297,0.223
						c-0.372,0.223-0.074-0.149-0.074-0.297c-0.149,0-0.297,0-0.446,0c0.297-0.372,0.818-0.818,0.966-1.264
						c0.297,0.074,0.074,0.446,0.297,0.595c0.223-0.297,0.446-0.372,0.743-0.372c-0.074,0-0.52-0.669-0.595-0.743
						c-0.223-0.297-0.149-0.52,0.074-0.818c0,0,0.223,0.446,0.223,0.52c0.149,0.223,0.223,0.074,0.372,0.223
						c0.074,0.074,0.149,0.223,0.149,0.297c0.074,0.223,0.223,0.669,0.074,0.892c-0.149,0.149-0.446,0.149-0.669,0.223
						c-0.149,0.074-0.223,0.223-0.372,0.297c-0.074,0-0.223-0.074-0.297-0.074C114.193,277.02,114.044,277.02,113.97,277.095z"/>
				</g>
			</g>
		</g>
		<g>
			<g>
				<defs>
					<path id="SVGID_7_" d="M120.363,306.085c-30.923,0-56.047-25.125-56.047-56.047s25.125-56.047,56.047-56.047
						s56.047,25.125,56.047,56.047S151.285,306.085,120.363,306.085z M120.363,197.409c-28.99,0-52.628,23.638-52.628,52.628
						s23.564,52.628,52.628,52.628c28.99,0,52.628-23.638,52.628-52.628C172.991,221.047,149.353,197.409,120.363,197.409z"/>
				</defs>
				<clipPath id="SVGID_00000149365019767883724630000017859202295590504380_">
					<use xlink:href="#SVGID_7_"  style="overflow:visible;"/>
				</clipPath>
				<g style="clip-path:url(#SVGID_00000149365019767883724630000017859202295590504380_);">
					<g>
						
							<image style="overflow:visible;enable-background:new    ;" width="154" height="154" xlink:href="A4EA0A5A.png"  transform="matrix(0.739 0 0 0.739 63.4633 193.1157)">
						</image>
					</g>
				</g>
			</g>
		</g>
		<g>
			
				<linearGradient id="SVGID_00000121278481833380193900000000860543345441768853_" gradientUnits="userSpaceOnUse" x1="87.7347" y1="284.5909" x2="162.0902" y2="210.2353" gradientTransform="matrix(1 0 0 -1 0 502)">
				<stop  offset="0.2849" style="stop-color:#F2F2F2"/>
				<stop  offset="1" style="stop-color:#1A1A1A"/>
			</linearGradient>
			<path style="fill:url(#SVGID_00000121278481833380193900000000860543345441768853_);" d="M120.363,306.307
				c-31.071,0-56.27-25.273-56.27-56.27c0-31.071,25.273-56.27,56.27-56.27c31.071,0,56.27,25.273,56.27,56.27
				C176.633,281.034,151.434,306.307,120.363,306.307z M120.363,194.213c-30.774,0-55.824,25.05-55.824,55.824
				s25.05,55.824,55.824,55.824s55.824-25.05,55.824-55.824S151.137,194.213,120.363,194.213z"/>
		</g>
		<g>
			
				<linearGradient id="SVGID_00000046311688254813084470000009953738267064548252_" gradientUnits="userSpaceOnUse" x1="161.6398" y1="210.6857" x2="80.4685" y2="291.8571" gradientTransform="matrix(1 0 0 -1 0 502)">
				<stop  offset="0.2849" style="stop-color:#FFFFFF"/>
				<stop  offset="1" style="stop-color:#1A1A1A"/>
			</linearGradient>
			<path style="fill:url(#SVGID_00000046311688254813084470000009953738267064548252_);" d="M120.363,302.888
				c-29.139,0-52.851-23.712-52.851-52.851s23.712-52.851,52.851-52.851s52.851,23.712,52.851,52.851
				S149.501,302.888,120.363,302.888z M120.363,197.632c-28.841,0-52.331,23.489-52.331,52.331s23.489,52.331,52.331,52.331
				s52.331-23.489,52.331-52.331C172.768,221.122,149.278,197.632,120.363,197.632z"/>
		</g>
	</g>
	
</g>
</svg>
