<svg xmlns="http://www.w3.org/2000/svg" width="150" height="100" viewBox="23 25 100 94" version="1.1"><path d="M 54.376 36.712 C 53.022 37.662, 49.431 44.366, 31.636 79.165 C 24.136 93.830, 18 106.365, 18 107.019 C 18 108.581, 77.617 107.771, 87 106.082 C 101.558 103.461, 114.111 94.602, 117.533 84.533 C 119.384 79.088, 119.383 78.989, 117.403 76.338 C 115.213 73.404, 114.016 72.574, 109.500 70.859 L 106.500 69.720 110.601 68.467 C 123.645 64.480, 133.943 51.452, 129.894 44.058 C 129.124 42.651, 126.245 40.375, 123.497 39 C 118.527 36.514, 118.329 36.498, 87 36.212 C 69.675 36.053, 54.994 36.278, 54.376 36.712 M 73.231 56.877 C 71.454 60.109, 70 63.034, 70 63.377 C 70 63.720, 74.388 63.999, 79.750 63.998 C 90.803 63.997, 95.435 62.394, 97.980 57.689 C 99.416 55.035, 99.369 54.771, 97.139 52.939 C 95.184 51.333, 93.205 51, 85.620 51 L 76.462 51 73.231 56.877 M 59.250 84.442 C 57.462 88.070, 56 91.254, 56 91.519 C 56 91.784, 60.855 92, 66.788 92 C 75.987 92, 78.233 91.669, 82.038 89.750 C 87.577 86.957, 90.065 82.638, 87.573 80.142 C 86.283 78.850, 83.439 78.430, 74.217 78.173 L 62.500 77.846 59.250 84.442" stroke="none" fill="#f4f4f4" fill-rule="evenodd"/><path d="M 28 27.989 C 28 28.564, 31.600 30.675, 36 32.682 C 40.400 34.689, 44 36.598, 44 36.924 C 44 37.251, 41.931 41.564, 39.403 46.509 C 36.874 51.454, 28.282 68.325, 20.308 84 C 12.335 99.675, 5.403 112.928, 4.905 113.450 C 1.645 116.872, 3.174 117, 46.750 116.975 C 86.758 116.952, 89.885 116.823, 95.500 114.955 C 105.752 111.546, 112.268 107.752, 118.588 101.511 C 125.719 94.470, 129 87.177, 129 78.372 C 129 73.281, 129.361 72.390, 133.339 67.659 C 139.986 59.755, 142.318 54.076, 141.809 47.035 C 141.216 38.844, 137.644 33.662, 130.177 30.161 L 124.500 27.500 76.250 27.222 C 43.202 27.032, 28 27.274, 28 27.989 M 54.376 36.712 C 53.022 37.662, 49.431 44.366, 31.636 79.165 C 24.136 93.830, 18 106.365, 18 107.019 C 18 108.581, 77.617 107.771, 87 106.082 C 101.558 103.461, 114.111 94.602, 117.533 84.533 C 119.384 79.088, 119.383 78.989, 117.403 76.338 C 115.213 73.404, 114.016 72.574, 109.500 70.859 L 106.500 69.720 110.601 68.467 C 123.645 64.480, 133.943 51.452, 129.894 44.058 C 129.124 42.651, 126.245 40.375, 123.497 39 C 118.527 36.514, 118.329 36.498, 87 36.212 C 69.675 36.053, 54.994 36.278, 54.376 36.712 M 73.231 56.877 C 71.454 60.109, 70 63.034, 70 63.377 C 70 63.720, 74.388 63.999, 79.750 63.998 C 90.803 63.997, 95.435 62.394, 97.980 57.689 C 99.416 55.035, 99.369 54.771, 97.139 52.939 C 95.184 51.333, 93.205 51, 85.620 51 L 76.462 51 73.231 56.877 M 59.250 84.442 C 57.462 88.070, 56 91.254, 56 91.519 C 56 91.784, 60.855 92, 66.788 92 C 75.987 92, 78.233 91.669, 82.038 89.750 C 87.577 86.957, 90.065 82.638, 87.573 80.142 C 86.283 78.850, 83.439 78.430, 74.217 78.173 L 62.500 77.846 59.250 84.442" stroke="none" fill="#201e1f" fill-rule="evenodd"/></svg>