<?xml version="1.0" encoding="utf-8"?>
<!-- Generator: Adobe Illustrator 19.2.1, SVG Export Plug-In . SVG Version: 6.00 Build 0)  -->
<svg version="1.1" id="layer" xmlns="http://www.w3.org/2000/svg" xmlns:xlink="http://www.w3.org/1999/xlink" x="0px" y="0px" width="300" height="200"
	 viewBox="157 60 329 329" style="enable-background:new 0 0 652 652;" xml:space="preserve">


<path fill="#de0510" d="M202.3,154.5c-118.2,39.8-160.6,103.3-94.7,142c65.9,38.6,215.1,37.7,333.2-2.1
	c118.2-39.8,160.6-103.3,94.7-142C469.6,113.7,320.4,114.7,202.3,154.5 M437,284.2c-104.9,35.3-234.7,37.7-289.8,5.4
	c-55.2-32.4-14.9-87.2,90-122.5c104.9-35.3,234.7-37.7,289.8-5.4C582.2,194,541.9,248.9,437,284.2 M188,290.7l218.9-66.4l-64.2-17.8
	l31.7-9.6l-40.8-11.3l-49.2,59.5l-78.7,23.8l-44.9,0l78.2-94.4h163.1l82.2,22.8l-57.6,17.5l85.7,23.7l-107.6,34l-220.3,22L188,290.7
	z"/>
</svg>
