<?xml version="1.0" encoding="UTF-8"?>
<!DOCTYPE svg PUBLIC "-//W3C//DTD SVG 1.1//EN" "http://www.w3.org/Graphics/SVG/1.1/DTD/svg11.dtd">
<svg xmlns="http://www.w3.org/2000/svg" version="1.1" width="240px" height="160px" viewBox="-36 0 820 820" style="shape-rendering:geometricPrecision; text-rendering:geometricPrecision; image-rendering:optimizeQuality; fill-rule:evenodd; clip-rule:evenodd" xmlns:xlink="http://www.w3.org/1999/xlink">
<g><path style="opacity:0.933" fill="#1f1f1e" d="M 326.5,-0.5 C 355.167,-0.5 383.833,-0.5 412.5,-0.5C 525.417,2.58391 637.75,13.2506 749.5,31.5C 749.5,107.167 749.5,182.833 749.5,258.5C 740.51,367.785 710.676,471.119 660,568.5C 596.017,686.986 501.85,771.986 377.5,823.5C 375.833,823.5 374.167,823.5 372.5,823.5C 247.094,771.263 152.261,685.263 88,565.5C 37.1599,467.131 7.65991,362.798 -0.5,252.5C -0.5,178.833 -0.5,105.167 -0.5,31.5C 107.918,13.4932 216.918,2.82654 326.5,-0.5 Z"/></g>
<g><path style="opacity:1" fill="#d7d7d7" d="M 388.5,5.5 C 425.379,5.9208 462.046,7.58746 498.5,10.5C 498.5,18.5 498.5,26.5 498.5,34.5C 458.031,32.341 417.697,30.6743 377.5,29.5C 381.167,29.5 384.833,29.5 388.5,29.5C 388.5,21.5 388.5,13.5 388.5,5.5 Z"/></g>
<g><path style="opacity:1" fill="#dedede" d="M 388.5,5.5 C 388.5,13.5 388.5,21.5 388.5,29.5C 384.833,29.5 381.167,29.5 377.5,29.5C 308.368,30.7666 239.368,34.4332 170.5,40.5C 170.5,32.1667 170.5,23.8333 170.5,15.5C 243.005,9.00667 315.671,5.67334 388.5,5.5 Z"/></g>
<g><path style="opacity:1" fill="#edecec" d="M 498.5,10.5 C 506.521,10.4425 514.521,10.7758 522.5,11.5C 521.912,20.103 522.578,28.4363 524.5,36.5C 515.825,35.8681 507.158,35.2015 498.5,34.5C 498.5,26.5 498.5,18.5 498.5,10.5 Z"/></g>
<g><path style="opacity:1" fill="#f8f8f8" d="M 522.5,11.5 C 555.672,13.1344 588.672,16.1344 621.5,20.5C 621.5,28.5 621.5,36.5 621.5,44.5C 620.5,44.5 619.5,44.5 618.5,44.5C 587.188,41.5786 555.855,38.9119 524.5,36.5C 522.578,28.4363 521.912,20.103 522.5,11.5 Z"/></g>
<g><path style="opacity:1" fill="#cbcbcb" d="M 170.5,15.5 C 170.5,23.8333 170.5,32.1667 170.5,40.5C 162.559,41.6062 154.559,42.2729 146.5,42.5C 144.533,34.9032 143.866,26.9032 144.5,18.5C 145.791,18.7373 146.791,18.404 147.5,17.5C 155.167,16.8333 162.833,16.1667 170.5,15.5 Z"/></g>
<g><path style="opacity:1" fill="#bfbfbe" d="M 147.5,17.5 C 146.791,18.404 145.791,18.7373 144.5,18.5C 143.866,26.9032 144.533,34.9032 146.5,42.5C 134.679,44.4795 122.679,46.1461 110.5,47.5C 111.209,46.596 112.209,46.2627 113.5,46.5C 113.5,38.1667 113.5,29.8333 113.5,21.5C 124.819,20.0942 136.152,18.7608 147.5,17.5 Z"/></g>
<g><path style="opacity:1" fill="#e7e7e7" d="M 621.5,20.5 C 637.55,21.6864 653.55,23.3531 669.5,25.5C 669.5,34.1667 669.5,42.8333 669.5,51.5C 652.263,49.8109 635.263,47.4775 618.5,44.5C 619.5,44.5 620.5,44.5 621.5,44.5C 621.5,36.5 621.5,28.5 621.5,20.5 Z"/></g>
<g><path style="opacity:1" fill="#d4d4d4" d="M 113.5,21.5 C 113.5,29.8333 113.5,38.1667 113.5,46.5C 112.209,46.2627 111.209,46.596 110.5,47.5C 96.0779,48.9413 81.7446,50.9413 67.5,53.5C 68.1364,44.4355 67.4698,35.7688 65.5,27.5C 81.2831,24.8556 97.2831,22.8556 113.5,21.5 Z"/></g>
<g><path style="opacity:1" fill="#d7d7d6" d="M 669.5,25.5 C 678.469,27.0194 687.469,28.3528 696.5,29.5C 697.136,38.5645 696.47,47.2312 694.5,55.5C 686.066,54.572 677.733,53.2386 669.5,51.5C 669.5,42.8333 669.5,34.1667 669.5,25.5 Z"/></g>
<g><path style="opacity:1" fill="#e6e6e5" d="M 65.5,27.5 C 67.4698,35.7688 68.1364,44.4355 67.5,53.5C 58.4845,54.7248 49.4845,56.0581 40.5,57.5C 40.5,48.8333 40.5,40.1667 40.5,31.5C 48.6104,29.6066 56.9438,28.2733 65.5,27.5 Z"/></g>
<g><path style="opacity:1" fill="#242423" d="M 377.5,29.5 C 417.697,30.6743 458.031,32.341 498.5,34.5C 507.158,35.2015 515.825,35.8681 524.5,36.5C 555.855,38.9119 587.188,41.5786 618.5,44.5C 635.263,47.4775 652.263,49.8109 669.5,51.5C 677.733,53.2386 686.066,54.572 694.5,55.5C 703.647,57.5252 712.98,59.1919 722.5,60.5C 722.667,124.501 722.5,188.501 722,252.5C 719.883,290.2 715.049,327.534 707.5,364.5C 698.067,408.56 685.067,451.56 668.5,493.5C 658.451,516.994 647.451,539.994 635.5,562.5C 605.719,615.636 568.052,662.636 522.5,703.5C 514.46,710.177 506.46,716.844 498.5,723.5C 461.28,751.454 420.947,774.287 377.5,792C 375.5,792.667 373.5,792.667 371.5,792C 358.35,786.452 345.35,780.619 332.5,774.5C 270.44,742.606 216.774,699.94 171.5,646.5C 162.822,635.128 154.155,623.795 145.5,612.5C 134.069,595.969 123.402,578.969 113.5,561.5C 105.559,546.617 97.8922,531.617 90.5,516.5C 82.4242,497.262 74.7576,477.928 67.5,458.5C 62.9693,443.354 58.3027,428.354 53.5,413.5C 40.9221,365.1 32.2554,316.1 27.5,266.5C 27.5,197.5 27.5,128.5 27.5,59.5C 31.9522,59.3686 36.2856,58.702 40.5,57.5C 49.4845,56.0581 58.4845,54.7248 67.5,53.5C 81.7446,50.9413 96.0779,48.9413 110.5,47.5C 122.679,46.1461 134.679,44.4795 146.5,42.5C 154.559,42.2729 162.559,41.6062 170.5,40.5C 239.368,34.4332 308.368,30.7666 377.5,29.5 Z"/></g>
<g><path style="opacity:1" fill="#f0f0f0" d="M 40.5,31.5 C 40.5,40.1667 40.5,48.8333 40.5,57.5C 36.2856,58.702 31.9522,59.3686 27.5,59.5C 27.5,128.5 27.5,197.5 27.5,266.5C 27.8319,305.67 27.4985,344.67 26.5,383.5C 15.2804,335.797 8.11377,287.464 5,238.5C 4.33333,171.5 4.33333,104.5 5,37.5C 16.6847,34.7894 28.518,32.7894 40.5,31.5 Z"/></g>
<g><path style="opacity:1" fill="#c5c5c4" d="M 696.5,29.5 C 708.893,31.1767 721.227,33.1767 733.5,35.5C 733.5,133.833 733.5,232.167 733.5,330.5C 727.658,365.865 719.325,400.532 708.5,434.5C 708.831,410.994 708.498,387.661 707.5,364.5C 715.049,327.534 719.883,290.2 722,252.5C 722.5,188.501 722.667,124.501 722.5,60.5C 712.98,59.1919 703.647,57.5252 694.5,55.5C 696.47,47.2312 697.136,38.5645 696.5,29.5 Z"/></g>
<g><path style="opacity:1" fill="#f8f8f8" d="M 33.5,253.5 C 32.8427,190.285 33.5094,127.285 35.5,64.5C 197.218,37.2783 359.884,29.7783 523.5,42C 587.925,46.2322 651.925,53.8989 715.5,65C 716.664,129.096 716.831,193.263 716,257.5C 709.703,357.361 684.37,452.028 640,541.5C 599.963,619.547 544.129,684.047 472.5,735C 442.139,755.934 409.639,773.1 375,786.5C 290.755,752.942 220.755,700.275 165,628.5C 115.256,562.004 79.5896,488.337 58,407.5C 44.2776,357.055 36.1109,305.722 33.5,253.5 Z"/></g>
<g><path style="opacity:1" fill="#bbbaba" d="M 733.5,35.5 C 736.803,36.1651 740.137,36.8318 743.5,37.5C 744.667,105.831 744.833,174.164 744,242.5C 742.38,272.203 738.88,301.537 733.5,330.5C 733.5,232.167 733.5,133.833 733.5,35.5 Z"/></g>
<g><path style="opacity:1" fill="#030304" d="M 329.5,47.5 C 456.011,46.0266 581.677,55.3599 706.5,75.5C 706.667,139.168 706.5,202.834 706,266.5C 698.651,374.534 668.318,475.534 615,569.5C 557.921,665.123 477.755,733.789 374.5,775.5C 266.518,731.265 184.018,658.265 127,556.5C 79.1213,467.516 51.4547,372.516 44,271.5C 43.5,206.168 43.3333,140.834 43.5,75.5C 138.348,59.8757 233.681,50.5423 329.5,47.5 Z"/></g>
<g><path style="opacity:1" fill="#c4c4c3" d="M 35.5,64.5 C 33.5094,127.285 32.8427,190.285 33.5,253.5C 32.5009,190.669 32.1676,127.669 32.5,64.5C 33.5,64.5 34.5,64.5 35.5,64.5 Z"/></g>
<g><path style="opacity:1" fill="#bfbfc0" d="M 334.5,84.5 C 317.532,82.514 300.199,81.8473 282.5,82.5C 299.423,81.5009 317.089,81.1676 335.5,81.5C 335.737,82.791 335.404,83.791 334.5,84.5 Z"/></g>
<g><path style="opacity:1" fill="#8f8f8f" d="M 371.5,82.5 C 389.671,81.1725 408.004,81.1725 426.5,82.5C 426.376,83.1067 426.043,83.44 425.5,83.5C 407.674,82.5032 389.674,82.1699 371.5,82.5 Z"/></g>
<g><path style="opacity:1" fill="#bcbcbc" d="M 490.5,83.5 C 473.167,82.1667 455.833,82.1667 438.5,83.5C 437.711,83.2172 437.044,82.7172 436.5,82C 454.842,81.167 473.176,81.3337 491.5,82.5C 491.376,83.1067 491.043,83.44 490.5,83.5 Z"/></g>
<g><path style="opacity:1" fill="#bfbfbf" d="M 618.5,82.5 C 600.992,82.17 583.659,82.5033 566.5,83.5C 565.711,83.2172 565.044,82.7172 564.5,82C 582.671,81.1713 600.671,81.338 618.5,82.5 Z"/></g>
<g><path style="opacity:1" fill="#fdfdfd" d="M 136.5,82.5 C 171.998,81.3357 207.664,81.169 243.5,82C 252.299,82.8035 258.799,86.9702 263,94.5C 264.95,111.32 259.784,125.487 247.5,137C 243.186,139.66 238.519,141.327 233.5,142C 243.669,144.002 248.335,150.169 247.5,160.5C 247.531,175.92 242.198,189.086 231.5,200C 224.937,204.747 217.603,207.747 209.5,209C 173.495,209.833 137.495,209.667 101.5,208.5C 110.9,176.007 119.733,143.34 128,110.5C 143.092,109.675 158.259,109.175 173.5,109C 161.288,99.9478 148.954,91.1145 136.5,82.5 Z"/></g>
<g><path style="opacity:1" fill="#fdfdfd" d="M 282.5,82.5 C 300.199,81.8473 317.532,82.514 334.5,84.5C 326.936,112.921 319.603,141.421 312.5,170C 313.106,178.91 317.939,182.743 327,181.5C 335.823,181.755 342.49,178.088 347,170.5C 355.189,141.066 363.356,111.732 371.5,82.5C 389.674,82.1699 407.674,82.5032 425.5,83.5C 417.173,114.476 409.006,145.476 401,176.5C 396.571,192.595 386.404,203.095 370.5,208C 353.029,209.107 335.529,209.607 318,209.5C 301.783,209.637 285.616,209.137 269.5,208C 262,205.833 257.167,201 255,193.5C 254.333,188.5 254.333,183.5 255,178.5C 261,155.833 267,133.167 273,110.5C 288.426,109.675 303.926,109.175 319.5,109C 306.747,100.636 294.414,91.8022 282.5,82.5 Z"/></g>
<g><path style="opacity:1" fill="#fdfdfd" d="M 438.5,83.5 C 455.833,82.1667 473.167,82.1667 490.5,83.5C 481.832,113.17 473.165,142.837 464.5,172.5C 485.156,173.5 505.823,173.833 526.5,173.5C 524.626,185.535 522.626,197.535 520.5,209.5C 481.167,209.5 441.833,209.5 402.5,209.5C 410.899,175.894 419.899,142.561 429.5,109.5C 444.504,109.667 459.504,109.5 474.5,109C 473.956,108.283 473.289,107.783 472.5,107.5C 461.167,99.5 449.833,91.5 438.5,83.5 Z"/></g>
<g><path style="opacity:1" fill="#fbfbfb" d="M 618.5,82.5 C 609.681,112.773 601.015,143.106 592.5,173.5C 613.167,173.5 633.833,173.5 654.5,173.5C 652.806,185.302 650.473,196.969 647.5,208.5C 608.506,209.5 569.506,209.833 530.5,209.5C 538.589,175.802 547.589,142.468 557.5,109.5C 572.504,109.667 587.504,109.5 602.5,109C 601.956,108.283 601.289,107.783 600.5,107.5C 589.129,99.4876 577.796,91.4876 566.5,83.5C 583.659,82.5033 600.992,82.17 618.5,82.5 Z"/></g>
<g><path style="opacity:1" fill="#414142" d="M 472.5,107.5 C 473.289,107.783 473.956,108.283 474.5,109C 459.504,109.5 444.504,109.667 429.5,109.5C 443.833,108.833 458.167,108.167 472.5,107.5 Z"/></g>
<g><path style="opacity:1" fill="#424243" d="M 600.5,107.5 C 601.289,107.783 601.956,108.283 602.5,109C 587.504,109.5 572.504,109.667 557.5,109.5C 571.833,108.833 586.167,108.167 600.5,107.5 Z"/></g>
<g><path style="opacity:1" fill="#09090a" d="M 182.5,109.5 C 189.373,108.965 196.04,109.799 202.5,112C 207.504,121.935 204.504,128.601 193.5,132C 187.849,133.47 182.182,133.636 176.5,132.5C 178.973,124.943 180.973,117.276 182.5,109.5 Z"/></g>
<g><path style="opacity:1" fill="#060607" d="M 175.5,181.5 C 171.629,181.815 167.962,181.482 164.5,180.5C 166.676,170.796 169.009,161.129 171.5,151.5C 193.764,148.919 199.264,157.252 188,176.5C 184.428,179.635 180.262,181.302 175.5,181.5 Z"/></g>
<g><path style="opacity:1" fill="#919191" d="M 164.5,180.5 C 167.962,181.482 171.629,181.815 175.5,181.5C 171.649,182.809 167.649,182.809 163.5,181.5C 163.624,180.893 163.957,180.56 164.5,180.5 Z"/></g>
<g><path style="opacity:1" fill="#585857" d="M 576.5,190.5 C 581.64,189.512 586.974,189.179 592.5,189.5C 592.737,190.791 592.404,191.791 591.5,192.5C 586.944,190.558 581.944,189.892 576.5,190.5 Z"/></g>
<g><path style="opacity:1" fill="#2b2b2a" d="M 540.5,189.5 C 541.873,189.343 543.207,189.51 544.5,190C 546.601,194.491 548.934,194.491 551.5,190C 553.259,189.202 554.926,189.369 556.5,190.5C 555.004,195.488 553.67,200.488 552.5,205.5C 551.167,205.5 549.833,205.5 548.5,205.5C 549.363,203.105 549.363,200.771 548.5,198.5C 547.5,199.167 546.5,199.833 545.5,200.5C 544.667,199.5 543.833,198.5 543,197.5C 541.864,200.096 541.031,202.763 540.5,205.5C 539.167,205.5 537.833,205.5 536.5,205.5C 537.707,200.134 539.04,194.8 540.5,189.5 Z"/></g>
<g><path style="opacity:1" fill="#272726" d="M 561.5,189.5 C 572.65,188.528 575.484,193.195 570,203.5C 566.067,205.478 561.9,205.978 557.5,205C 557,204.5 556.5,204 556,203.5C 555.118,197.638 556.952,192.971 561.5,189.5 Z"/></g>
<g><path style="opacity:1" fill="#232322" d="M 576.5,190.5 C 581.944,189.892 586.944,190.558 591.5,192.5C 589.631,193.165 587.631,193.831 585.5,194.5C 584.624,198.224 583.624,201.89 582.5,205.5C 581.167,205.5 579.833,205.5 578.5,205.5C 579.191,201.404 580.191,197.404 581.5,193.5C 579.396,193.799 577.396,193.466 575.5,192.5C 575.863,191.817 576.196,191.15 576.5,190.5 Z"/></g>
<g><path style="opacity:1" fill="#252524" d="M 597.5,189.5 C 607.907,187.609 611.074,191.609 607,201.5C 606.5,203.333 605.333,204.5 603.5,205C 592.908,208.159 589.408,204.659 593,194.5C 594.025,192.313 595.525,190.646 597.5,189.5 Z"/></g>
<g><path style="opacity:1" fill="#282827" d="M 612.5,189.5 C 616.846,189.334 621.179,189.501 625.5,190C 627.325,191.466 627.825,193.299 627,195.5C 625.818,197.344 624.651,199.177 623.5,201C 624.148,202.44 624.481,203.94 624.5,205.5C 622.833,205.5 621.167,205.5 619.5,205.5C 619.512,201.554 617.512,199.887 613.5,200.5C 614.167,204.5 612.5,206.167 608.5,205.5C 609.524,200.071 610.857,194.738 612.5,189.5 Z"/></g>
<g><path style="opacity:1" fill="#272726" d="M 633.5,189.5 C 637.884,189.174 642.217,189.508 646.5,190.5C 646.167,191.167 645.833,191.833 645.5,192.5C 641.833,193.167 638.167,193.833 634.5,194.5C 637.926,194.975 641.092,195.975 644,197.5C 644.183,204.114 640.85,206.781 634,205.5C 631.833,205.167 629.667,204.833 627.5,204.5C 627.833,203.833 628.167,203.167 628.5,202.5C 632.167,201.833 635.833,201.167 639.5,200.5C 628.791,201.134 626.791,197.467 633.5,189.5 Z"/></g>
<g><path style="opacity:1" fill="#f3f3f3" d="M 562.5,193.5 C 564.5,193.5 566.5,193.5 568.5,193.5C 569.313,199.82 566.646,202.487 560.5,201.5C 560.107,198.487 560.774,195.82 562.5,193.5 Z"/></g>
<g><path style="opacity:1" fill="#ececec" d="M 598.5,193.5 C 600.5,193.5 602.5,193.5 604.5,193.5C 605.278,200.388 602.278,203.055 595.5,201.5C 595.722,198.496 596.722,195.829 598.5,193.5 Z"/></g>
<g><path style="opacity:1" fill="#e1e1e0" d="M 615.5,193.5 C 617.833,193.5 620.167,193.5 622.5,193.5C 622.5,194.5 622.5,195.5 622.5,196.5C 620.167,196.5 617.833,196.5 615.5,196.5C 615.5,195.5 615.5,194.5 615.5,193.5 Z"/></g>
<g><path style="opacity:1" fill="#fbfafb" d="M 431.5,332.5 C 429.998,330.825 428.665,328.992 427.5,327C 426.517,326.409 425.85,326.743 425.5,328C 430.19,339.399 431.356,351.232 429,363.5C 428.333,364.833 427.667,364.833 427,363.5C 426.261,361.779 425.427,360.113 424.5,358.5C 424.167,359.667 423.833,360.833 423.5,362C 426.201,376.202 426.035,390.368 423,404.5C 422.632,405.91 421.799,406.91 420.5,407.5C 419.338,405.176 418.171,402.842 417,400.5C 418.072,396.294 418.406,391.961 418,387.5C 417.292,391.245 415.792,394.579 413.5,397.5C 423.119,426.006 427.286,455.339 426,485.5C 428.175,483.306 429.508,480.639 430,477.5C 432.076,481.95 433.743,486.616 435,491.5C 435.699,496.237 436.532,500.904 437.5,505.5C 438.087,511.303 437.42,516.803 435.5,522C 431.239,523.363 426.905,523.696 422.5,523C 418.345,521.189 416.345,518.023 416.5,513.5C 420.634,513.787 424.301,515.287 427.5,518C 428.944,518.781 430.277,518.614 431.5,517.5C 425.57,514.236 420.57,509.903 416.5,504.5C 415.756,505.991 415.09,507.491 414.5,509C 413.5,509.667 412.5,509.667 411.5,509C 410.029,506.757 409.029,504.257 408.5,501.5C 406.509,504.14 405.509,507.14 405.5,510.5C 407.674,517.15 409.508,523.817 411,530.5C 405.64,531.587 400.473,531.587 395.5,530.5C 396.136,541.35 391.803,549.516 382.5,555C 375.033,554.88 370.533,551.047 369,543.5C 367.412,547.309 367.078,551.309 368,555.5C 369.22,561.295 371.22,566.628 374,571.5C 366.834,564.972 363.334,556.805 363.5,547C 363.616,537.863 368.116,533.03 377,532.5C 377.667,531.833 377.667,531.167 377,530.5C 375.229,529.696 373.729,528.529 372.5,527C 372.833,526.667 373.167,526.333 373.5,526C 377.716,524.796 382.049,524.13 386.5,524C 389.397,522.635 392.23,521.135 395,519.5C 396.44,520.148 397.94,520.481 399.5,520.5C 399.604,517.91 398.937,515.577 397.5,513.5C 397.824,511.431 398.658,511.098 400,512.5C 400.537,503.442 401.203,494.442 402,485.5C 400.847,487.497 399.347,487.83 397.5,486.5C 390.606,474.472 385.439,461.805 382,448.5C 381.11,445.294 381.443,442.294 383,439.5C 388.04,454.573 396.374,467.573 408,478.5C 411.967,488.139 413.3,487.806 412,477.5C 410.919,473.203 409.919,468.87 409,464.5C 408.667,464.167 408.333,463.833 408,463.5C 407.798,465.256 407.298,466.922 406.5,468.5C 395.735,456.035 388.901,441.702 386,425.5C 385.124,415.813 384.124,406.146 383,396.5C 381.648,398.594 381.148,400.927 381.5,403.5C 379.801,403.66 378.134,403.494 376.5,403C 375.284,401.26 373.618,400.26 371.5,400C 369.536,398.549 368.203,396.716 367.5,394.5C 367.44,393.957 367.107,393.624 366.5,393.5C 365.203,395.973 365.203,398.307 366.5,400.5C 367.897,402.379 369.563,404.046 371.5,405.5C 372.897,418.125 373.73,430.792 374,443.5C 379.736,461.31 387.402,478.31 397,494.5C 397.667,495.5 397.667,496.5 397,497.5C 395.624,496.295 394.458,494.962 393.5,493.5C 387.149,484.128 381.315,474.461 376,464.5C 370.793,453.331 367.793,441.664 367,429.5C 365.725,431.717 364.725,434.051 364,436.5C 358.164,429.837 354.831,422.171 354,413.5C 357.06,410.048 359.06,406.048 360,401.5C 360.968,389.757 361.968,378.09 363,366.5C 362.333,365.167 361.667,365.167 361,366.5C 359.341,373.104 358.008,379.77 357,386.5C 355.907,384.651 354.574,382.984 353,381.5C 353.237,389.156 353.237,396.823 353,404.5C 350.927,407.73 349.094,411.063 347.5,414.5C 351.682,424.857 356.349,434.857 361.5,444.5C 361.408,450.746 362.075,456.913 363.5,463C 363.167,464.167 362.833,465.333 362.5,466.5C 358.6,460.306 355.767,453.639 354,446.5C 353.439,445.978 352.772,445.645 352,445.5C 349.44,446.53 346.94,447.697 344.5,449C 341.568,452.442 338.235,455.275 334.5,457.5C 333.516,455.402 333.849,453.402 335.5,451.5C 340.701,445.287 346.368,439.954 352.5,435.5C 351.838,426.138 347.171,422.805 338.5,425.5C 336.903,424.263 335.737,422.596 335,420.5C 334.085,421.328 333.419,422.328 333,423.5C 332.762,445.446 328.262,466.446 319.5,486.5C 310.894,507.939 296.228,523.773 275.5,534C 274.591,540.265 271.258,544.932 265.5,548C 261.179,548.499 256.846,548.666 252.5,548.5C 252.5,547.5 252.5,546.5 252.5,545.5C 259.405,545.744 265.405,543.577 270.5,539C 267.197,538.94 263.864,539.107 260.5,539.5C 257.402,539.681 254.569,539.015 252,537.5C 248.739,539.926 245.073,541.593 241,542.5C 239.779,543.272 238.779,544.272 238,545.5C 238.722,557.469 236.889,568.969 232.5,580C 234.071,585.973 234.405,591.973 233.5,598C 237.55,604.242 241.884,610.408 246.5,616.5C 244.925,617.446 243.258,617.446 241.5,616.5C 240.09,616.868 239.09,617.701 238.5,619C 232.796,619.687 227.13,619.521 221.5,618.5C 221.5,617.5 221.5,616.5 221.5,615.5C 217.496,615.73 213.829,616.897 210.5,619C 205.891,620.074 201.724,619.24 198,616.5C 197.333,614.833 197.333,613.167 198,611.5C 202.414,604.666 207.747,598.666 214,593.5C 214.496,591.965 214.33,590.465 213.5,589C 215.546,584.408 217.713,579.908 220,575.5C 221.044,576.623 221.71,577.956 222,579.5C 223,577.167 224,574.833 225,572.5C 228.485,560.569 231.652,548.569 234.5,536.5C 233.609,535.41 232.609,535.41 231.5,536.5C 230.338,531.533 230.171,526.533 231,521.5C 238.921,519.593 245.255,515.26 250,508.5C 249.94,512.055 249.273,515.388 248,518.5C 250.503,515.498 252.503,512.165 254,508.5C 253.974,486.951 258.641,466.618 268,447.5C 268.667,446.833 269.333,446.167 270,445.5C 271.637,460.071 272.637,460.071 273,445.5C 275.102,437.239 277.102,428.906 279,420.5C 281.841,411.648 287.008,404.482 294.5,399C 291.075,396.715 290.575,393.882 293,390.5C 299.499,379.661 308.666,372.161 320.5,368C 326.561,363.394 332.061,358.228 337,352.5C 339.969,346.901 343.303,341.567 347,336.5C 346.722,340.139 346.722,343.806 347,347.5C 347.29,345.956 347.956,344.623 349,343.5C 350.835,345.449 352.001,347.783 352.5,350.5C 355.23,338.57 357.73,326.57 360,314.5C 364.562,295.179 374.729,279.679 390.5,268C 397.524,264.236 404.857,261.069 412.5,258.5C 410.343,257.21 408.01,256.376 405.5,256C 404.269,254.817 404.269,253.651 405.5,252.5C 415.353,244.214 426.353,237.714 438.5,233C 465.425,231.002 488.758,238.835 508.5,256.5C 504.759,257.603 501.092,257.269 497.5,255.5C 495.627,255.482 495.294,255.982 496.5,257C 509.914,261.311 521.247,268.811 530.5,279.5C 530.966,277.295 530.966,275.295 530.5,273.5C 539.144,278.978 546.311,285.978 552,294.5C 553.953,297.255 555.12,300.255 555.5,303.5C 547.524,303.744 539.858,305.411 532.5,308.5C 528.01,303.841 523.677,299.008 519.5,294C 515.244,290.955 511.077,287.788 507,284.5C 506.333,285.167 506.333,285.833 507,286.5C 510.667,290.167 514.333,293.833 518,297.5C 520.267,300.701 521.934,304.034 523,307.5C 515.201,298.526 506.367,290.86 496.5,284.5C 496.167,284.833 495.833,285.167 495.5,285.5C 501.765,290.926 507.931,296.593 514,302.5C 514.688,303.332 514.521,303.998 513.5,304.5C 509.448,300.894 505.114,298.06 500.5,296C 504.978,300.147 509.145,304.647 513,309.5C 514.404,311.394 515.57,313.394 516.5,315.5C 512.266,320.237 507.766,324.904 503,329.5C 501.04,332.585 499.207,335.752 497.5,339C 494.397,339.604 491.73,340.937 489.5,343C 488.056,343.781 486.723,343.614 485.5,342.5C 489.384,338.432 493.05,334.099 496.5,329.5C 491.381,328.897 487.381,326.397 484.5,322C 470.269,315.894 457.269,317.727 445.5,327.5C 455.613,326.975 463.779,330.642 470,338.5C 470.667,340.5 470.667,342.5 470,344.5C 465.167,348 460.333,351.5 455.5,355C 448.669,359.361 443.836,357.861 441,350.5C 439.84,344.192 438.84,337.859 438,331.5C 437.417,333.002 436.584,334.335 435.5,335.5C 434.148,334.476 432.815,333.476 431.5,332.5 Z"/></g>
<g><path style="opacity:1" fill="#181818" d="M 446.5,266.5 C 447.552,266.351 448.552,266.517 449.5,267C 445.62,270.548 441.453,273.714 437,276.5C 436.382,284.928 436.716,293.262 438,301.5C 434.502,293.551 432.169,285.217 431,276.5C 428.695,274.978 427.195,272.978 426.5,270.5C 433.013,270.833 439.346,270 445.5,268C 446.056,267.617 446.389,267.117 446.5,266.5 Z"/></g>
<g><path style="opacity:1" fill="#131313" d="M 379.5,285.5 C 380.239,285.369 380.906,285.536 381.5,286C 376.7,294.068 372.867,302.568 370,311.5C 368.005,322.113 366.172,332.78 364.5,343.5C 362.043,341.557 360.71,339.057 360.5,336C 362.428,317.365 368.762,300.532 379.5,285.5 Z"/></g>
<g><path style="opacity:1" fill="#f4f4f4" d="M 555.5,307.5 C 573.019,306.661 590.352,307.994 607.5,311.5C 607.291,312.086 606.957,312.586 606.5,313C 585.041,315.089 564.374,320.089 544.5,328C 533.751,332.415 525.918,339.915 521,350.5C 519.482,348.386 519.149,346.053 520,343.5C 522.412,339.084 525.578,335.251 529.5,332C 534.933,328.225 540.6,324.892 546.5,322C 527.813,323.286 513.646,332.119 504,348.5C 499.733,344.904 499.399,340.904 503,336.5C 510.524,325.318 520.69,317.485 533.5,313C 540.918,311.05 548.251,309.217 555.5,307.5 Z"/></g>
<g><path style="opacity:1" fill="#f7f7f7" d="M 562.5,433.5 C 559.603,433.681 556.77,433.348 554,432.5C 551.667,434.5 549.333,436.5 547,438.5C 545.118,437.907 544.118,436.573 544,434.5C 542.612,435.554 541.112,435.72 539.5,435C 538.887,432.853 538.221,430.686 537.5,428.5C 534.341,427.845 531.841,426.178 530,423.5C 525.304,414.371 521.47,404.871 518.5,395C 519.567,391.765 521.567,389.265 524.5,387.5C 525.478,387.977 526.311,388.643 527,389.5C 526.567,398.703 528.9,407.036 534,414.5C 537.669,419.205 542.003,420.205 547,417.5C 550.553,420.258 554.386,422.591 558.5,424.5C 561.413,421.678 563.58,418.345 565,414.5C 565.472,407.004 566.805,399.67 569,392.5C 572.68,388.817 576.014,384.817 579,380.5C 579.828,376.129 579.661,371.795 578.5,367.5C 577.241,372.049 574.574,375.382 570.5,377.5C 567.132,375.962 564.632,373.628 563,370.5C 555.748,376.037 548.748,375.704 542,369.5C 541.667,364.5 541.333,359.5 541,354.5C 539.401,359.285 537.401,363.952 535,368.5C 533.686,369.313 532.519,370.313 531.5,371.5C 531.167,371 530.833,370.5 530.5,370C 533.766,361.887 535.266,353.387 535,344.5C 544.795,336.852 555.629,331.186 567.5,327.5C 568.961,333.473 570.295,339.473 571.5,345.5C 569.833,345.5 568.167,345.5 566.5,345.5C 566.744,348.263 568.077,350.429 570.5,352C 583.778,356.047 588.611,364.881 585,378.5C 580.273,384.897 575.94,391.564 572,398.5C 571.192,408.578 569.859,418.578 568,428.5C 566.648,430.749 564.815,432.416 562.5,433.5 Z"/></g>
<g><path style="opacity:1" fill="#141412" d="M 431.5,332.5 C 430.903,332.735 430.57,333.235 430.5,334C 432.691,344.247 434.358,354.58 435.5,365C 435,366.5 434.5,368 434,369.5C 433,370.833 432,370.833 431,369.5C 431.49,383.771 429.823,397.771 426,411.5C 425.21,423.817 426.376,435.817 429.5,447.5C 429.5,448.5 429.5,449.5 429.5,450.5C 430.66,458.538 432.327,466.205 434.5,473.5C 434.5,474.833 435.167,475.5 436.5,475.5C 440.314,487.546 441.314,499.879 439.5,512.5C 438.832,510.031 438.165,507.698 437.5,505.5C 436.532,500.904 435.699,496.237 435,491.5C 433.743,486.616 432.076,481.95 430,477.5C 429.508,480.639 428.175,483.306 426,485.5C 427.286,455.339 423.119,426.006 413.5,397.5C 415.792,394.579 417.292,391.245 418,387.5C 418.406,391.961 418.072,396.294 417,400.5C 418.171,402.842 419.338,405.176 420.5,407.5C 421.799,406.91 422.632,405.91 423,404.5C 426.035,390.368 426.201,376.202 423.5,362C 423.833,360.833 424.167,359.667 424.5,358.5C 425.427,360.113 426.261,361.779 427,363.5C 427.667,364.833 428.333,364.833 429,363.5C 431.356,351.232 430.19,339.399 425.5,328C 425.85,326.743 426.517,326.409 427.5,327C 428.665,328.992 429.998,330.825 431.5,332.5 Z"/></g>
<g><path style="opacity:1" fill="#f1f1f1" d="M 496.5,364.5 C 495.863,360.643 494.863,356.809 493.5,353C 493.673,350.979 494.34,349.146 495.5,347.5C 497.892,350.213 500.559,352.713 503.5,355C 509.474,357.619 515.474,360.285 521.5,363C 525.85,366.469 527.016,370.636 525,375.5C 520.624,368.925 514.457,365.758 506.5,366C 503.316,364.496 500.149,362.996 497,361.5C 496.517,362.448 496.351,363.448 496.5,364.5 Z"/></g>
<g><path style="opacity:1" fill="#f8f8f8" d="M 483.5,349.5 C 484.93,349.421 486.264,349.754 487.5,350.5C 488.324,353.785 488.824,357.118 489,360.5C 492.906,369.643 496.24,378.976 499,388.5C 500.141,395.084 499.474,401.417 497,407.5C 495.192,409.396 493.025,409.896 490.5,409C 488.291,407.127 486.458,404.96 485,402.5C 481.717,395.355 479.051,388.021 477,380.5C 477.442,387.667 478.276,394.833 479.5,402C 479.167,403.167 478.833,404.333 478.5,405.5C 475.319,401.83 473.486,397.497 473,392.5C 473.075,377.346 476.575,363.013 483.5,349.5 Z"/></g>
<g><path style="opacity:1" fill="#f5f5f5" d="M 672.5,350.5 C 674.604,350.201 676.604,350.534 678.5,351.5C 652.676,369.109 624.01,378.775 592.5,380.5C 592.33,379.178 592.663,378.011 593.5,377C 601.613,375.971 609.613,374.471 617.5,372.5C 616.624,371.749 615.624,371.249 614.5,371C 607.508,370.5 600.508,370.334 593.5,370.5C 593.089,367.447 592.423,364.447 591.5,361.5C 591.709,360.914 592.043,360.414 592.5,360C 614.618,359.716 636.618,358.05 658.5,355C 663.288,353.457 667.954,351.957 672.5,350.5 Z"/></g>
<g><path style="opacity:1" fill="#f6f6f6" d="M 218.5,354.5 C 221.97,353.875 224.804,354.875 227,357.5C 229.805,361.091 230.805,365.091 230,369.5C 225.16,373.369 220.993,377.203 217.5,381C 210.756,382.131 205.089,380.131 200.5,375C 201,374.833 201.5,374.667 202,374.5C 204.453,375.493 206.953,375.66 209.5,375C 205.996,373.082 202.663,370.916 199.5,368.5C 198.534,366.604 198.201,364.604 198.5,362.5C 206.589,363.114 213.256,360.447 218.5,354.5 Z"/></g>
<g><path style="opacity:1" fill="#e9e8e8" d="M 27.5,266.5 C 32.2554,316.1 40.9221,365.1 53.5,413.5C 53.8303,432.674 53.497,451.674 52.5,470.5C 42.442,441.939 33.7754,412.939 26.5,383.5C 27.4985,344.67 27.8319,305.67 27.5,266.5 Z"/></g>
<g><path style="opacity:1" fill="#121213" d="M 411.5,361.5 C 411.738,368.173 410.571,374.84 408,381.5C 407.79,387.231 407.124,392.897 406,398.5C 404.322,389.446 402.655,380.446 401,371.5C 402.734,373.451 404.901,374.451 407.5,374.5C 408.449,369.991 409.782,365.658 411.5,361.5 Z"/></g>
<g><path style="opacity:1" fill="#171615" d="M 393.5,493.5 C 392.957,493.56 392.624,493.893 392.5,494.5C 394.726,497.619 396.393,500.952 397.5,504.5C 396.178,504.33 395.011,504.663 394,505.5C 389.794,496.091 384.794,487.091 379,478.5C 373.344,468.19 368.511,457.523 364.5,446.5C 363.643,445.575 362.643,444.908 361.5,444.5C 356.349,434.857 351.682,424.857 347.5,414.5C 349.094,411.063 350.927,407.73 353,404.5C 353.237,396.823 353.237,389.156 353,381.5C 354.574,382.984 355.907,384.651 357,386.5C 358.008,379.77 359.341,373.104 361,366.5C 361.667,365.167 362.333,365.167 363,366.5C 361.968,378.09 360.968,389.757 360,401.5C 359.06,406.048 357.06,410.048 354,413.5C 354.831,422.171 358.164,429.837 364,436.5C 364.725,434.051 365.725,431.717 367,429.5C 367.793,441.664 370.793,453.331 376,464.5C 381.315,474.461 387.149,484.128 393.5,493.5 Z"/></g>
<g><path style="opacity:1" fill="#e7e7e7" d="M 496.5,364.5 C 498.506,368.001 501.506,370.167 505.5,371C 506.833,372.333 508.167,373.667 509.5,375C 501.781,375.787 497.447,372.287 496.5,364.5 Z"/></g>
<g><path style="opacity:1" fill="#d0d0d0" d="M 235.5,369.5 C 237.527,369.338 239.527,369.505 241.5,370C 241.957,370.414 242.291,370.914 242.5,371.5C 240.235,372.647 237.902,372.814 235.5,372C 234.402,371.23 234.402,370.397 235.5,369.5 Z"/></g>
<g><path style="opacity:1" fill="#f6f6f6" d="M 464.5,370.5 C 465.15,370.804 465.817,371.137 466.5,371.5C 467.497,378.803 467.831,386.137 467.5,393.5C 456.344,391.33 446.51,393.997 438,401.5C 437.833,400.833 437.667,400.167 437.5,399.5C 442.836,386.173 451.836,376.506 464.5,370.5 Z"/></g>
<g><path style="opacity:1" fill="#d4d4d5" d="M 247.5,376.5 C 246.325,376.719 245.325,376.386 244.5,375.5C 246.052,374.202 247.052,374.535 247.5,376.5 Z"/></g>
<g><path style="opacity:1" fill="#d3d3d3" d="M 247.5,376.5 C 250.422,378.594 252.922,381.261 255,384.5C 255.749,385.635 255.583,386.635 254.5,387.5C 251.896,383.946 249.562,380.279 247.5,376.5 Z"/></g>
<g><path style="opacity:1" fill="#1b1b1c" d="M 311.5,384.5 C 315.526,384.677 318.359,386.677 320,390.5C 321.582,393.788 322.915,397.121 324,400.5C 324.798,402.259 324.631,403.926 323.5,405.5C 321.152,397.817 316.819,391.484 310.5,386.5C 310.863,385.817 311.196,385.15 311.5,384.5 Z"/></g>
<g><path style="opacity:1" fill="#eaeaea" d="M 585.5,384.5 C 586.693,384.97 587.36,385.97 587.5,387.5C 586.49,391.844 583.823,394.51 579.5,395.5C 580.572,391.402 582.572,387.735 585.5,384.5 Z"/></g>
<g><path style="opacity:1" fill="#555556" d="M 259.5,396.5 C 259.5,397.5 259.5,398.5 259.5,399.5C 258.088,397.396 257.088,395.063 256.5,392.5C 257.5,392.5 258.5,392.5 259.5,392.5C 259.5,393.833 259.5,395.167 259.5,396.5 Z"/></g>
<g><path style="opacity:1" fill="#929292" d="M 367.5,394.5 C 366.539,396.265 366.205,398.265 366.5,400.5C 365.203,398.307 365.203,395.973 366.5,393.5C 367.107,393.624 367.44,393.957 367.5,394.5 Z"/></g>
<g><path style="opacity:1" fill="#ececec" d="M 259.5,396.5 C 262.268,399.842 264.934,403.342 267.5,407C 270.96,409.44 274.627,411.273 278.5,412.5C 278.291,413.086 277.957,413.586 277.5,414C 275.167,414.667 272.833,414.667 270.5,414C 265.512,410.202 261.846,405.368 259.5,399.5C 259.5,398.5 259.5,397.5 259.5,396.5 Z"/></g>
<g><path style="opacity:1" fill="#f1f1f1" d="M 510.5,402.5 C 511.833,402.5 513.167,402.5 514.5,402.5C 514.498,412.163 516.165,421.496 519.5,430.5C 506.764,424.35 503.764,415.016 510.5,402.5 Z"/></g>
<g><path style="opacity:1" fill="#e9e9ea" d="M 429.5,450.5 C 429.5,449.5 429.5,448.5 429.5,447.5C 432.288,437.588 436.454,428.255 442,419.5C 446.08,414.587 450.913,410.587 456.5,407.5C 458,407.453 459,408.119 459.5,409.5C 454.603,412.888 450.103,416.888 446,421.5C 439.967,430.904 434.467,440.571 429.5,450.5 Z"/></g>
<g><path style="opacity:1" fill="#d3d3d3" d="M 707.5,364.5 C 708.498,387.661 708.831,410.994 708.5,434.5C 698.619,469.158 685.619,502.492 669.5,534.5C 669.829,520.656 669.496,506.99 668.5,493.5C 685.067,451.56 698.067,408.56 707.5,364.5 Z"/></g>
<g><path style="opacity:1" fill="#e0e0e0" d="M 53.5,413.5 C 58.3027,428.354 62.9693,443.354 67.5,458.5C 67.8296,474.342 67.4963,490.009 66.5,505.5C 61.5565,493.946 56.8898,482.279 52.5,470.5C 53.497,451.674 53.8303,432.674 53.5,413.5 Z"/></g>
<g><path style="opacity:1" fill="#1a1917" d="M 338.5,425.5 C 337.325,427.384 336.658,429.551 336.5,432C 336.064,437.865 335.397,443.699 334.5,449.5C 334.543,450.416 334.876,451.083 335.5,451.5C 333.849,453.402 333.516,455.402 334.5,457.5C 333.414,457.62 332.747,458.287 332.5,459.5C 330.03,469.077 326.863,478.41 323,487.5C 321.989,486.663 320.822,486.33 319.5,486.5C 328.262,466.446 332.762,445.446 333,423.5C 333.419,422.328 334.085,421.328 335,420.5C 335.737,422.596 336.903,424.263 338.5,425.5 Z"/></g>
<g><path style="opacity:1" fill="#171718" d="M 295.5,420.5 C 296.326,424.982 296.826,429.649 297,434.5C 297.875,436.513 299.209,436.513 301,434.5C 301.167,435 301.333,435.5 301.5,436C 298.617,441.145 296.617,446.645 295.5,452.5C 294.192,441.772 294.192,431.106 295.5,420.5 Z"/></g>
<g><path style="opacity:1" fill="#0a0a0b" d="M 335.5,451.5 C 334.876,451.083 334.543,450.416 334.5,449.5C 335.397,443.699 336.064,437.865 336.5,432C 336.658,429.551 337.325,427.384 338.5,425.5C 347.171,422.805 351.838,426.138 352.5,435.5C 346.368,439.954 340.701,445.287 335.5,451.5 Z"/></g>
<g><path style="opacity:1" fill="#f2f2f2" d="M 436.5,475.5 C 435.167,475.5 434.5,474.833 434.5,473.5C 439.035,463.1 443.868,452.767 449,442.5C 451.713,438.908 454.547,435.408 457.5,432C 458.448,431.517 459.448,431.351 460.5,431.5C 455.668,447.826 447.668,462.493 436.5,475.5 Z"/></g>
<g><path style="opacity:1" fill="#eeeeee" d="M 562.5,433.5 C 563.5,433.5 564.5,433.5 565.5,433.5C 563.611,441.29 558.611,444.29 550.5,442.5C 550.5,441.5 550.5,440.5 550.5,439.5C 555.299,439.101 559.299,437.101 562.5,433.5 Z"/></g>
<g><path style="opacity:1" fill="#f2f2f2" d="M 499.5,437.5 C 500.376,437.369 501.043,437.702 501.5,438.5C 505.798,446.131 505.298,453.464 500,460.5C 497.478,463.022 494.978,465.522 492.5,468C 493.217,472.606 495.55,476.106 499.5,478.5C 503.297,476.533 506.964,474.366 510.5,472C 517.671,465.163 524.504,457.996 531,450.5C 529.706,456.081 527.039,461.081 523,465.5C 517.968,470.867 512.635,475.867 507,480.5C 506.312,481.332 506.479,481.998 507.5,482.5C 511.155,484.057 514.488,483.557 517.5,481C 529.581,470.429 538.248,457.595 543.5,442.5C 545.527,442.338 547.527,442.505 549.5,443C 550.505,444.507 551.838,445.673 553.5,446.5C 553.333,446.833 553.167,447.167 553,447.5C 551.084,448.928 548.917,449.928 546.5,450.5C 537.549,466.918 526.049,480.918 512,492.5C 507.702,491.017 503.202,490.183 498.5,490C 494.031,487.148 491.698,482.981 491.5,477.5C 489.694,478.859 488.194,478.525 487,476.5C 482.247,469.194 479.747,461.361 479.5,453C 480.448,452.517 481.448,452.351 482.5,452.5C 482.215,454.288 482.548,455.955 483.5,457.5C 486.257,451.811 488.09,445.811 489,439.5C 491.061,444.065 490.895,448.565 488.5,453C 488.85,454.257 489.517,454.591 490.5,454C 494.917,449.227 497.917,443.727 499.5,437.5 Z"/></g>
<g><path style="opacity:1" fill="#0d0d0e" d="M 328.5,429.5 C 329.339,456.102 322.172,480.436 307,502.5C 299.796,511.371 291.629,519.205 282.5,526C 277.943,527.853 273.276,529.52 268.5,531C 264.167,531.667 259.833,531.667 255.5,531C 255,530.5 254.5,530 254,529.5C 253.256,521.474 254.59,513.808 258,506.5C 258.499,512.491 258.666,518.491 258.5,524.5C 259.552,524.649 260.552,524.483 261.5,524C 267.739,516.989 271.906,508.822 274,499.5C 274.333,503.833 274.667,508.167 275,512.5C 275.667,513.833 276.333,513.833 277,512.5C 282.659,504.848 286.992,496.515 290,487.5C 290.641,493.528 290.474,499.528 289.5,505.5C 293.181,504.602 296.514,502.935 299.5,500.5C 310.104,489.371 317.604,476.371 322,461.5C 325.362,450.97 327.529,440.303 328.5,429.5 Z"/></g>
<g><path style="opacity:1" fill="#f3f3f3" d="M 525.5,488.5 C 526.496,488.414 527.329,488.748 528,489.5C 528.755,500.685 528.588,511.851 527.5,523C 527.049,525.879 528.215,527.712 531,528.5C 536.744,540.631 533.244,548.465 520.5,552C 519.671,553.816 518.837,555.649 518,557.5C 517.275,558.059 516.442,558.392 515.5,558.5C 510.334,555.752 505.334,552.752 500.5,549.5C 506.163,548.613 511.829,548.446 517.5,549C 521.112,547.861 524.446,546.194 527.5,544C 524.061,541.861 520.894,539.361 518,536.5C 517.042,534.801 516.542,532.967 516.5,531C 518.166,523.995 517.666,517.161 515,510.5C 513.921,512.394 512.587,512.727 511,511.5C 508.687,506.207 505.854,501.207 502.5,496.5C 503.333,496.167 504.167,495.833 505,495.5C 508.345,497.141 511.845,497.641 515.5,497C 519.09,494.386 522.424,491.552 525.5,488.5 Z"/></g>
<g><path style="opacity:1" fill="#d6d6d6" d="M 67.5,458.5 C 74.7576,477.928 82.4242,497.262 90.5,516.5C 90.8286,529.011 90.4952,541.345 89.5,553.5C 80.9905,537.965 73.3238,521.965 66.5,505.5C 67.4963,490.009 67.8296,474.342 67.5,458.5 Z"/></g>
<g><path style="opacity:1" fill="#d6d6d6" d="M 448.5,500.5 C 451.018,501.511 451.018,502.844 448.5,504.5C 447.019,505.48 445.685,506.647 444.5,508C 443.365,508.749 442.365,508.583 441.5,507.5C 444.209,505.458 446.542,503.124 448.5,500.5 Z"/></g>
<g><path style="opacity:1" fill="#f6f6f6" d="M 479.5,503.5 C 482.363,504.353 484.696,506.02 486.5,508.5C 487.684,506.954 488.684,505.287 489.5,503.5C 490.478,503.977 491.311,504.643 492,505.5C 496,512.167 500,518.833 504,525.5C 506.699,530.041 507.032,534.708 505,539.5C 503.468,541.562 501.468,542.896 499,543.5C 499.148,544.825 498.982,545.992 498.5,547C 492.467,547.323 487.3,549.49 483,553.5C 479.7,558.396 477.367,563.73 476,569.5C 471.642,575.104 466.475,575.937 460.5,572C 458.04,570.542 455.873,568.709 454,566.5C 454.592,579.593 461.425,585.926 474.5,585.5C 474.5,586.833 474.5,588.167 474.5,589.5C 469.793,588.985 465.126,588.152 460.5,587C 450.221,576.718 447.054,564.552 451,550.5C 452.167,549.333 453.333,548.167 454.5,547C 461.38,545.42 468.38,544.42 475.5,544C 477.609,542.859 479.442,541.359 481,539.5C 483.079,535.553 485.579,532.053 488.5,529C 490.289,528.48 491.956,528.813 493.5,530C 495.333,531.833 497.167,533.667 499,535.5C 502.333,531.5 502.333,527.5 499,523.5C 494.291,517.124 488.625,511.791 482,507.5C 480.915,506.264 480.082,504.931 479.5,503.5 Z"/></g>
<g><path style="opacity:1" fill="#f4f4f5" d="M 346.5,527.5 C 347.117,527.611 347.617,527.944 348,528.5C 348.138,537.432 345.805,545.765 341,553.5C 340.333,554.5 340.333,555.5 341,556.5C 345.584,549.036 349.584,541.37 353,533.5C 355.544,535.002 357.71,536.836 359.5,539C 357.022,542.479 354.188,545.645 351,548.5C 347.637,556.536 345.637,564.869 345,573.5C 343.175,574.103 341.341,574.77 339.5,575.5C 340.394,578.392 341.728,581.059 343.5,583.5C 340.641,588.21 338.641,593.21 337.5,598.5C 339.342,598.277 341.175,597.943 343,597.5C 344.662,597.388 345.829,598.054 346.5,599.5C 342.604,603.345 341.27,607.845 342.5,613C 346.111,613.767 349.111,615.6 351.5,618.5C 355.7,617.863 359.866,617.196 364,616.5C 366.128,619.63 368.628,622.463 371.5,625C 365.2,624.847 358.867,624.514 352.5,624C 351.471,622.302 349.971,621.468 348,621.5C 342.955,623.23 338.122,625.23 333.5,627.5C 333.435,621.383 333.935,615.383 335,609.5C 331.095,616.198 329.095,623.531 329,631.5C 328.586,631.957 328.086,632.291 327.5,632.5C 326.035,625.787 326.701,619.287 329.5,613C 329.389,611.278 328.889,611.112 328,612.5C 325.779,616.224 324.279,620.224 323.5,624.5C 322.5,625.833 321.5,625.833 320.5,624.5C 319.222,622.278 318.222,619.944 317.5,617.5C 319.126,613.294 320.126,608.96 320.5,604.5C 321.833,604.5 323.167,604.5 324.5,604.5C 324.663,602.143 324.497,599.81 324,597.5C 320.913,589.666 317.58,581.999 314,574.5C 313.333,571.167 313.333,567.833 314,564.5C 326.712,562.307 335.712,555.307 341,543.5C 342.648,538.072 344.482,532.739 346.5,527.5 Z"/></g>
<g><path style="opacity:1" fill="#e5e5e5" d="M 668.5,493.5 C 669.496,506.99 669.829,520.656 669.5,534.5C 660.02,555.471 649.02,575.471 636.5,594.5C 636.828,583.654 636.494,572.987 635.5,562.5C 647.451,539.994 658.451,516.994 668.5,493.5 Z"/></g>
<g><path style="opacity:1" fill="#cacaca" d="M 90.5,516.5 C 97.8922,531.617 105.559,546.617 113.5,561.5C 113.828,572.679 113.495,583.679 112.5,594.5C 104.061,581.291 96.3945,567.625 89.5,553.5C 90.4952,541.345 90.8286,529.011 90.5,516.5 Z"/></g>
<g><path style="opacity:1" fill="#dddddd" d="M 358.5,549.5 C 361.429,552.696 360.929,555.362 357,557.5C 356.308,556.975 355.808,556.308 355.5,555.5C 356.883,553.68 357.883,551.68 358.5,549.5 Z"/></g>
<g><path style="opacity:1" fill="#e5e5e5" d="M 248.5,553.5 C 249.5,553.5 250.5,553.5 251.5,553.5C 248.712,559.992 246.545,566.659 245,573.5C 244.167,574.5 243.333,575.5 242.5,576.5C 242.742,568.536 244.742,560.87 248.5,553.5 Z"/></g>
<g><path style="opacity:1" fill="#eeeeef" d="M 358.5,558.5 C 361.488,558.155 362.821,559.488 362.5,562.5C 357.581,575.953 355.414,575.619 356,561.5C 357.045,560.627 357.878,559.627 358.5,558.5 Z"/></g>
<g><path style="opacity:1" fill="#ebebeb" d="M 442.5,558.5 C 443.5,558.5 444.5,558.5 445.5,558.5C 446.341,562.585 445.008,565.585 441.5,567.5C 441.167,566.5 440.833,565.5 440.5,564.5C 440.719,562.307 441.385,560.307 442.5,558.5 Z"/></g>
<g><path style="opacity:1" fill="#e5e5e5" d="M 397.5,565.5 C 398.376,565.369 399.043,565.702 399.5,566.5C 397.592,575.588 392.258,579.421 383.5,578C 390.249,576.08 394.916,571.914 397.5,565.5 Z"/></g>
<g><path style="opacity:1" fill="#f4f4f4" d="M 362.5,568.5 C 365.803,569.042 367.803,571.042 368.5,574.5C 367.54,579.088 365.54,583.088 362.5,586.5C 360.192,584.052 358.526,581.219 357.5,578C 358.781,574.603 360.448,571.436 362.5,568.5 Z"/></g>
<g><path style="opacity:1" fill="#4e4e4f" d="M 446.5,572.5 C 445.167,573.167 443.833,573.833 442.5,574.5C 441.711,574.217 441.044,573.717 440.5,573C 441.973,572.29 442.64,571.124 442.5,569.5C 444.619,569.468 445.952,570.468 446.5,572.5 Z"/></g>
<g><path style="opacity:1" fill="#f2f2f2" d="M 446.5,572.5 C 448.535,576.081 450.202,579.914 451.5,584C 446.038,599.593 441.705,599.26 438.5,583C 439.702,580.097 441.035,577.264 442.5,574.5C 443.833,573.833 445.167,573.167 446.5,572.5 Z"/></g>
<g><path style="opacity:1" fill="#e2e2e2" d="M 378.5,574.5 C 379.675,574.281 380.675,574.614 381.5,575.5C 379.948,576.798 378.948,576.465 378.5,574.5 Z"/></g>
<g><path style="opacity:1" fill="#bfbfbe" d="M 113.5,561.5 C 123.402,578.969 134.069,595.969 145.5,612.5C 144.506,621.652 144.173,630.985 144.5,640.5C 132.86,625.902 122.193,610.569 112.5,594.5C 113.495,583.679 113.828,572.679 113.5,561.5 Z"/></g>
<g><path style="opacity:1" fill="#131314" d="M 322.5,576.5 C 327.811,580.988 331.811,586.488 334.5,593C 333.372,595.296 331.705,597.129 329.5,598.5C 327.774,590.917 325.441,583.584 322.5,576.5 Z"/></g>
<g><path style="opacity:1" fill="#e4e4e4" d="M 369.5,576.5 C 370.649,576.791 371.316,577.624 371.5,579C 369.725,583.095 367.558,586.929 365,590.5C 364.308,589.975 363.808,589.308 363.5,588.5C 366.577,585.013 368.577,581.013 369.5,576.5 Z"/></g>
<g><path style="opacity:1" fill="#e8e8e9" d="M 374.5,578.5 C 376.377,579.659 376.877,581.326 376,583.5C 374.476,587.898 371.976,591.565 368.5,594.5C 367.386,593.277 367.219,591.944 368,590.5C 370.267,586.515 372.433,582.515 374.5,578.5 Z"/></g>
<g><path style="opacity:1" fill="#f0f0f0" d="M 385.5,584.5 C 386.833,584.5 388.167,584.5 389.5,584.5C 389.515,588.471 387.848,591.471 384.5,593.5C 383.064,590.232 383.397,587.232 385.5,584.5 Z"/></g>
<g><path style="opacity:1" fill="#e4e4e4" d="M 449.5,598.5 C 452.528,596.448 453.861,593.782 453.5,590.5C 452.327,593.522 450.66,596.189 448.5,598.5C 447.503,598.53 446.836,598.03 446.5,597C 448.923,593.884 451.257,590.717 453.5,587.5C 455.389,588.604 457.055,589.937 458.5,591.5C 456.416,595.336 454.083,599.003 451.5,602.5C 450.675,603.386 449.675,603.719 448.5,603.5C 448.366,601.708 448.699,600.042 449.5,598.5 Z"/></g>
<g><path style="opacity:1" fill="#6c6c6c" d="M 449.5,598.5 C 449.167,598.5 448.833,598.5 448.5,598.5C 450.66,596.189 452.327,593.522 453.5,590.5C 453.861,593.782 452.528,596.448 449.5,598.5 Z"/></g>
<g><path style="opacity:1" fill="#c8c8c9" d="M 465.5,594.5 C 469.34,595.568 469.507,597.235 466,599.5C 464.212,597.977 464.045,596.31 465.5,594.5 Z"/></g>
<g><path style="opacity:1" fill="#121213" d="M 215.5,598.5 C 217.857,598.337 220.19,598.503 222.5,599C 217.665,601.15 213.332,604.15 209.5,608C 208.552,608.483 207.552,608.649 206.5,608.5C 208.075,603.923 211.075,600.589 215.5,598.5 Z"/></g>
<g><path style="opacity:1" fill="#f6f6f6" d="M 635.5,562.5 C 636.494,572.987 636.828,583.654 636.5,594.5C 606.146,644.761 568.479,689.094 523.5,727.5C 522.508,719.684 522.174,711.684 522.5,703.5C 568.052,662.636 605.719,615.636 635.5,562.5 Z"/></g>
<g><path style="opacity:1" fill="#cacaca" d="M 145.5,612.5 C 154.155,623.795 162.822,635.128 171.5,646.5C 170.507,654.984 170.174,663.651 170.5,672.5C 161.365,662.24 152.698,651.573 144.5,640.5C 144.173,630.985 144.506,621.652 145.5,612.5 Z"/></g>
<g><path style="opacity:1" fill="#f7f7f7" d="M 217.5,623.5 C 220.079,623.083 222.246,623.75 224,625.5C 224.798,634.213 224.464,642.88 223,651.5C 219.515,652.622 216.015,652.456 212.5,651C 205.447,647.452 200.78,641.952 198.5,634.5C 198.041,624.947 202.041,622.28 210.5,626.5C 213.071,625.898 215.404,624.898 217.5,623.5 Z"/></g>
<g><path style="opacity:1" fill="#f3f3f3" d="M 229.5,623.5 C 233.115,623.206 236.282,624.206 239,626.5C 239.667,632.5 239.667,638.5 239,644.5C 238.928,652.469 235.594,654.469 229,650.5C 228.317,641.708 227.317,633.042 226,624.5C 227.744,627.118 228.911,626.785 229.5,623.5 Z"/></g>
<g><path style="opacity:1" fill="#e7e7e7" d="M 194.5,623.5 C 197.428,625.124 198.095,627.457 196.5,630.5C 195.579,628.223 194.913,625.89 194.5,623.5 Z"/></g>
<g><path style="opacity:1" fill="#c4c4c4" d="M 245.5,627.5 C 247.411,627.574 248.578,628.574 249,630.5C 251.147,637.406 252.48,644.406 253,651.5C 250.205,643.581 247.705,635.581 245.5,627.5 Z"/></g>
<g><path style="opacity:1" fill="#f1f1f1" d="M 359.5,629.5 C 362.079,629.083 364.246,629.75 366,631.5C 366.667,635.833 366.667,640.167 366,644.5C 365.685,647.636 364.518,650.303 362.5,652.5C 361.186,651.687 360.019,650.687 359,649.5C 358.454,642.816 358.62,636.149 359.5,629.5 Z"/></g>
<g><path style="opacity:1" fill="#f8f8f8" d="M 349.5,630.5 C 351.766,630.141 353.599,630.808 355,632.5C 355.667,638.5 355.667,644.5 355,650.5C 354.5,651 354,651.5 353.5,652C 346.5,652.667 339.5,652.667 332.5,652C 331.368,647.587 331.201,643.087 332,638.5C 337.716,635.455 343.55,632.789 349.5,630.5 Z"/></g>
<g><path style="opacity:1" fill="#e4e4e4" d="M 372.5,631.5 C 375.056,632.543 377.223,634.21 379,636.5C 381.421,641.594 382.921,646.928 383.5,652.5C 381.396,652.799 379.396,652.466 377.5,651.5C 376.239,647.939 375.406,644.272 375,640.5C 374.361,637.888 373.194,635.554 371.5,633.5C 371.863,632.817 372.196,632.15 372.5,631.5 Z"/></g>
<g><path style="opacity:1" fill="#e3e3e3" d="M 328.5,640.5 C 329.117,640.611 329.617,640.944 330,641.5C 330.824,644.882 330.657,648.216 329.5,651.5C 328.511,647.893 328.177,644.226 328.5,640.5 Z"/></g>
<g><path style="opacity:1" fill="#d7d7d7" d="M 324.5,642.5 C 325.725,643.152 326.392,644.319 326.5,646C 326.695,648.774 325.695,650.941 323.5,652.5C 322.119,652 321.453,651 321.5,649.5C 322.692,647.259 323.692,644.926 324.5,642.5 Z"/></g>
<g><path style="opacity:1" fill="#bfbfbf" d="M 225.5,646.5 C 226.586,646.62 227.253,647.287 227.5,648.5C 227.167,649.167 226.833,649.833 226.5,650.5C 225.571,649.311 225.238,647.978 225.5,646.5 Z"/></g>
<g><path style="opacity:1" fill="#dedede" d="M 171.5,646.5 C 216.774,699.94 270.44,742.606 332.5,774.5C 332.5,782.167 332.5,789.833 332.5,797.5C 288.567,776.056 248.567,748.89 212.5,716C 197.933,701.935 183.933,687.435 170.5,672.5C 170.174,663.651 170.507,654.984 171.5,646.5 Z"/></g>
<g><path style="opacity:1" fill="#e9e9e9" d="M 522.5,703.5 C 522.174,711.684 522.508,719.684 523.5,727.5C 516.1,734.564 508.1,740.898 499.5,746.5C 498.508,739.018 498.175,731.352 498.5,723.5C 506.46,716.844 514.46,710.177 522.5,703.5 Z"/></g>
<g><path style="opacity:1" fill="#d8d8d8" d="M 498.5,723.5 C 498.175,731.352 498.508,739.018 499.5,746.5C 461.612,775.879 420.112,799.546 375,817.5C 360.397,811.48 346.23,804.814 332.5,797.5C 332.5,789.833 332.5,782.167 332.5,774.5C 345.35,780.619 358.35,786.452 371.5,792C 373.5,792.667 375.5,792.667 377.5,792C 420.947,774.287 461.28,751.454 498.5,723.5 Z"/></g>
</svg>
