<?xml version="1.0" standalone="no"?>
<!DOCTYPE svg PUBLIC "-//W3C//DTD SVG 20010904//EN"
 "http://www.w3.org/TR/2001/REC-SVG-20010904/DTD/svg10.dtd">
<svg version="1.0" xmlns="http://www.w3.org/2000/svg"
 width="200.000000pt" height="200.000000pt" viewBox="0 0 200.000000 200.000000"
 preserveAspectRatio="xMidYMid meet">

<g transform="translate(0.000000,200.000000) scale(0.100000,-0.100000)"
fill="#000000" stroke="none">

<path d="M605 1609 c-4 -5 14 -18 38 -28 65 -28 235 -81 250 -78 7 1 13 -10
15 -25 3 -24 0 -28 -22 -28 -28 0 -35 -14 -11 -24 13 -5 15 -40 15 -236 0
-128 4 -230 9 -230 15 0 16 18 16 197 0 95 3 173 8 173 4 0 7 -6 7 -14 0 -20
48 -56 74 -56 27 0 66 34 66 57 0 9 3 13 8 9 4 -4 7 -33 7 -64 1 -203 6 -302
15 -302 6 0 10 83 10 230 0 196 2 231 15 236 24 9 17 24 -10 24 -20 0 -25 5
-25 25 0 17 5 25 18 25 19 0 244 75 276 92 10 6 14 14 9 19 -4 4 -64 -11 -136
-36 -126 -44 -131 -45 -257 -45 -137 0 -113 -5 -377 85 -7 2 -15 0 -18 -6z
m453 -133 c3 -26 2 -26 -57 -26 -57 0 -61 1 -61 23 0 32 1 32 62 31 49 -1 53
-3 56 -28z m27 -79 c1 -38 -8 -41 -33 -12 -28 32 -62 32 -100 0 -34 -29 -40
-26 -34 16 l4 30 82 -3 81 -3 0 -28z"/>
<path d="M743 1288 l-103 -109 0 -52 0 -52 110 111 c108 109 110 112 110 157
0 25 -3 48 -7 50 -5 2 -54 -45 -110 -105z"/>
<path d="M1140 1348 l0 -53 110 -110 110 -110 0 52 0 52 -102 108 c-57 59
-106 110 -110 111 -5 2 -8 -20 -8 -50z"/>
<path d="M372 1328 c-17 -17 -17 -579 0 -596 17 -17 248 -17 248 1 1 19 1 570
1 590 -1 15 -14 17 -119 17 -78 0 -122 -4 -130 -12z"/>
<path d="M1379 1328 c-4 -62 2 -591 6 -599 9 -14 228 -12 243 3 17 17 17 579
0 596 -17 17 -248 17 -249 0z"/>
<path d="M962 1234 c-22 -15 -22 -18 -22 -273 0 -237 1 -259 18 -274 25 -23
65 -21 87 3 16 18 17 43 16 272 -1 243 -2 254 -22 271 -26 21 -48 22 -77 1z"/>
<path d="M647 1054 c-4 -4 -7 -22 -7 -41 l0 -33 111 0 110 0 -3 38 -3 37 -101
3 c-55 1 -103 0 -107 -4z"/>
<path d="M1140 1020 l0 -40 111 0 110 0 -3 38 -3 37 -107 3 -108 3 0 -41z"/>
<path d="M1318 633 c-3 -36 -5 -38 -38 -38 -24 0 -36 -5 -38 -17 -2 -12 5 -17
30 -20 l33 -3 -3 -55 c-2 -41 -8 -60 -24 -72 -30 -26 -38 -22 -23 10 13 26 11
72 -4 72 -4 0 -29 -22 -56 -50 -66 -67 -117 -70 -60 -4 17 20 21 32 14 39 -7
7 -24 -5 -54 -40 -44 -51 -72 -57 -41 -10 25 37 15 53 -31 52 -29 -2 -39 -6
-41 -22 -6 -29 -20 -44 -64 -66 -62 -32 -93 -13 -76 47 9 34 123 148 138 139
15 -9 0 -33 -46 -70 -24 -20 -44 -43 -44 -51 0 -29 39 -12 84 36 37 39 47 57
44 78 -2 19 -9 28 -26 30 -24 4 -89 -31 -134 -72 -87 -78 -91 -186 -7 -186 38
0 61 12 122 63 52 43 69 44 41 2 -16 -24 -16 -27 -1 -42 15 -15 18 -15 35 0
23 21 29 21 49 2 14 -14 18 -14 39 -1 21 14 26 14 53 -1 29 -17 31 -17 60 5
39 28 43 28 39 -5 -2 -23 1 -29 20 -31 19 -3 22 1 22 29 l0 33 20 -22 c12 -12
23 -22 26 -22 12 0 82 40 93 54 16 19 1 22 -18 4 -11 -11 -12 -8 -7 14 14 62
-34 80 -77 28 -33 -39 -39 -38 -32 8 13 73 14 74 52 67 32 -6 34 -4 31 17 -2
13 -9 22 -17 20 -7 -1 -22 0 -32 3 -16 5 -18 13 -13 46 6 35 4 39 -14 39 -17
0 -21 -7 -24 -37z m-88 -185 c0 -24 -15 -37 -30 -28 -11 7 -11 11 -1 24 16 19
31 21 31 4z m180 1 c0 -17 -20 -49 -30 -49 -14 0 -12 34 2 48 15 15 28 15 28
1z"/>
<path d="M602 544 c-50 -40 -86 -107 -78 -149 8 -41 12 -42 67 -13 38 19 43
20 53 6 9 -12 17 -13 29 -7 22 13 21 8 -3 -35 -35 -58 -5 -50 50 14 49 56 59
80 18 43 -25 -22 -23 -2 3 31 31 40 16 43 -31 6 -42 -33 -66 -37 -30 -5 21 19
27 45 10 45 -5 0 -22 -16 -37 -35 -33 -41 -46 -45 -37 -10 9 36 -20 23 -36
-16 -14 -32 -30 -39 -30 -11 0 10 16 34 36 53 48 45 81 109 57 109 -5 0 -23
-12 -41 -26z"/>
<path d="M1147 543 c-10 -16 11 -39 23 -27 8 8 7 14 -4 23 -8 7 -17 8 -19 4z"/>
</g>
<g transform="translate(-15,-15) scale(2.3,2.3)">
<path d="M 50 10 A 40 40 0 1 1 50 90 A 40 40 0 1 1 50 10" stroke="#e0090c" stroke-width="6" fill="none"/>
</g>
</svg>
