<?xml version="1.0" encoding="UTF-8" standalone="no"?>
<!-- Created with Inkscape (http://www.inkscape.org/) -->

<svg
   version="1.1"
   id="svg2"
   width="600"
   height="400"
   viewBox="0 0 961.84003 184.30667"
   sodipodi:docname="byd-seeklogo.eps"
   xmlns:inkscape="http://www.inkscape.org/namespaces/inkscape"
   xmlns:sodipodi="http://sodipodi.sourceforge.net/DTD/sodipodi-0.dtd"
   xmlns="http://www.w3.org/2000/svg"
   xmlns:svg="http://www.w3.org/2000/svg">
<g transform="scale(1,1.2)">
  <defs
     id="defs6" />
  <sodipodi:namedview
     id="namedview4"
     pagecolor="#ffffff"
     bordercolor="#000000"
     borderopacity="0.25"
     inkscape:showpageshadow="2"
     inkscape:pageopacity="0.0"
     inkscape:pagecheckerboard="0"
     inkscape:deskcolor="#d1d1d1" />
  <g
     id="g8"
     inkscape:groupmode="layer"
     inkscape:label="ink_ext_XXXXXX"
     transform="matrix(1.3333333,0,0,-1.3333333,0,184.30667)">
    <g
       id="g10"
       transform="scale(0.1)">
      <path
         d="m 7122.72,1018.41 c -97.83,180 -305.22,286.95 -438.26,322.17 -133.05,35.22 -447.41,41.74 -637.83,41.74 -126.62,0 -339.65,0 -468.26,0 -38.97,0 -75.33,0 -108.26,0 -44.53,0 -82.74,0 -112.34,0 h -67.99 -151.14 c -22.96,0 -41.57,-18.61 -41.57,-41.58 v -171.19 c 0,-22.96 18.61,-41.58 41.57,-41.58 h 151.14 67.99 c 29.55,0 67.73,0 112.34,0 32.88,0 69.22,0 108.26,0 81.04,0 205.51,0 366.52,0 301.31,0 532.18,-7.83 642.72,-34.24 110.54,-26.41 197.28,-83.15 269.02,-179.671 71.74,-96.524 63.59,-222.899 63.59,-222.899 0,0 8.15,-126.379 -63.59,-222.898 C 6784.89,371.738 6698.15,315 6587.61,288.59 6477.07,262.172 6246.2,254.352 5944.89,254.352 c -161.01,0 -285.48,0 -366.52,0 -39.04,0 -75.38,0 -108.26,0 -44.61,0 -82.79,0 -112.34,0 h -67.99 -151.14 c -22.96,0 -41.57,-18.622 -41.57,-41.582 V 41.5781 C 5097.07,18.6094 5115.68,0 5138.64,0 h 151.14 67.99 c 29.6,0 67.81,0 112.34,0 32.93,0 69.29,0 108.26,0 128.61,0 341.64,0 468.26,0 190.42,0 504.78,6.51953 637.83,41.7383 133.04,35.2226 340.43,142.1717 438.26,322.1717 97.82,180 90.98,327.25 90.98,327.25 0,0 6.84,147.246 -90.98,327.25"
         style="fill:#ed1c24;fill-opacity:1;fill-rule:nonzero;stroke:none"
         id="path12" />
      <path
         d="M 3316.13,777.754 H 3084.3 c -54.84,0 -107.91,0 -138.76,0 -84.13,0 -201.52,5.863 -201.52,183.914 0,91.922 0,172.032 0,228.102 v 83.96 74.19 c 0,19 -15.4,34.4 -34.4,34.4 h -231.85 c -19,0 -34.4,-15.4 -34.4,-34.4 v -74.19 -83.96 c 0,-77.64 0,-193.157 0,-276.036 0,-135.98 18.91,-242.609 73.7,-300.328 54.78,-57.715 171.19,-90 302.28,-90 62.45,0 169.71,0 264.95,0 h 194.83 37 c 19.01,0 34.41,15.407 34.41,34.414 v 185.524 c 0,19.004 -15.4,34.41 -34.41,34.41"
         style="fill:#ed1c24;fill-opacity:1;fill-rule:nonzero;stroke:none"
         id="path14" />
      <path
         d="M 4734.95,1382.32 H 4503.1 c -19,0 -34.4,-15.4 -34.4,-34.4 v -74.19 -83.96 c 0,-56.07 0,-136.18 0,-228.102 0,-178.051 -117.39,-183.914 -201.53,-183.914 -30.84,0 -83.91,0 -138.76,0 h -81.34 -113.48 -37 -82.2 -168.41 -114.28 c -19.01,0 -34.42,-15.406 -34.42,-34.41 V 638.844 557.82 220.949 98.8398 35.4297 c 0,-19.0078 15.41,-34.41017 34.42,-34.41017 h 282.69 c 19.01,0 34.41,15.40237 34.41,34.41017 v 63.4101 122.1092 82.449 c 0,0.024 0,0.051 0,0.071 v 185.523 c 0,19.008 15.4,34.414 34.41,34.414 h 163.86 67.97 13.37 c 95.24,0 202.51,0 264.96,0 131.09,0 247.5,32.285 302.28,90 54.79,57.719 73.7,164.348 73.7,300.328 0,82.879 0,198.396 0,276.036 v 83.96 74.19 c 0,19 -15.4,34.4 -34.4,34.4"
         style="fill:#ed1c24;fill-opacity:1;fill-rule:nonzero;stroke:none"
         id="path16" />
      <path
         d="m 1995.04,691.668 c 0,8.316 4.85,15.652 4.85,15.652 72.39,88.043 110.22,150.653 110.22,278.477 0,127.833 -87.07,252.723 -190.76,316.303 -103.7,63.59 -200.55,80.22 -556.63,80.22 -293.79,0 -899.169,0 -1102.013,0 H 192.719 41.5781 C 18.6133,1382.32 0,1363.71 0,1340.74 v -171.19 c 0,-22.96 18.6133,-41.58 41.5781,-41.58 h 151.1409 67.988 c 269.074,0 1250.203,0 1338.753,0 102.72,0 224.34,-40.11 224.34,-158.478 0,-118.367 -141.2,-152.605 -230.21,-152.605 -61.08,0 -846.09,0 -1332.883,0 H 41.5781 C 18.6133,816.887 0,798.27 0,775.309 V 691.668 608.027 C 0,585.066 18.6133,566.449 41.5781,566.449 H 260.707 c 486.793,0 1271.803,0 1332.883,0 89.01,0 230.21,-34.238 230.21,-152.605 0,-118.375 -121.62,-158.485 -224.34,-158.485 -88.55,0 -1069.679,0 -1338.753,0 H 192.719 41.5781 C 18.6133,255.359 0,236.75 0,213.789 V 42.5898 C 0,19.6289 18.6133,1.01953 41.5781,1.01953 h 151.1409 67.988 c 202.844,0 808.223,0 1102.013,0 356.08,0 452.93,16.62887 556.63,80.21097 103.69,63.5895 190.76,188.4805 190.76,316.3085 0,127.824 -37.83,190.434 -110.22,278.477 0,0 -4.85,7.336 -4.85,15.652"
         style="fill:#ed1c24;fill-opacity:1;fill-rule:nonzero;stroke:none"
         id="path18" />
    </g>
  </g>
</g>
</svg>
