<?xml version="1.0" encoding="UTF-8" standalone="no"?>
<svg
   xmlns:dc="http://purl.org/dc/elements/1.1/"
   xmlns:cc="http://creativecommons.org/ns#"
   xmlns:rdf="http://www.w3.org/1999/02/22-rdf-syntax-ns#"
   xmlns:svg="http://www.w3.org/2000/svg"
   xmlns="http://www.w3.org/2000/svg"
   viewBox="11 11 230 230"
   height="100"
   width="150"
   xml:space="preserve"
   id="svg2"
   version="1.1"><metadata
     id="metadata8"><rdf:RDF><cc:Work
         rdf:about=""><dc:format>image/svg+xml</dc:format><dc:type
           rdf:resource="http://purl.org/dc/dcmitype/StillImage" /></cc:Work></rdf:RDF></metadata><defs
     id="defs6" /><g
     transform="matrix(1.3333333,0,0,-1.3333333,0,257.33333)"
     id="g10"><g
       transform="scale(0.1)"
       id="g12"><path
         id="path14"
         style="fill:transparent;fill-opacity:1;fill-rule:evenodd;stroke:none"
         d="M 0,1927.56 H 1927.56 V 0 H 0 v 1927.56" /><path
         id="path16"
         style="fill:#ed1c24;fill-opacity:1;fill-rule:evenodd;stroke:none"
         d="M 1010.2,786.457 V 167.426 h 53.1 v -35.348 c -31.74,0 -61.99,-0.062 -92.691,-0.062 V 479.57 c -2.921,-15.172 -13.843,-28.554 -34.261,-50.746 -65.34,27.961 -120.899,49.176 -52.317,162.356 8.524,38.758 3.625,77.492 -7.367,116.238 -50.656,93.398 -41.902,180.539 0.188,264.168 0.722,12.937 1.445,25.879 2.171,38.814 -19.441,57.45 -32.871,116.12 -40.253,175.98 -32.004,-11.99 -54.051,-37.43 -64.711,-72 4.679,-12.44 2.961,-26.43 0.515,-38.12 -2.765,-13.24 -11.953,-16.71 -22.804,-19.37 -5.239,-1.29 -4.782,-7.39 -11.036,-6.2 -5.3,1.01 -4.027,-10.33 -16.379,-4.84 -5.414,2.41 -12.199,-3.52 -17.503,-1.02 -41.879,19.71 -70.469,50.87 20.675,116.39 -9.629,86.08 -7.589,169.58 20.125,247.36 2.411,78.97 4.809,157.94 7.227,236.9 17.008,71.9 59.797,112.87 128.359,122.91 24.313,60.19 74.746,88.82 121.532,65.5 43.31,16.13 81.89,-7.21 116.7,-74.6 48.72,-11.24 90.05,-54.46 102.68,-117.24 1.3,-71.49 2.59,-142.96 3.89,-214.44 31.1,-73.37 39.52,-167.14 29.17,-277.84 51.46,-68.76 35.61,-107.96 -28.19,-95.83 -19.08,33.42 -32.72,41.44 -18.18,86.05 -18.87,23.25 -51.5,39.37 -83.16,44.31 -12.93,-9.32 -42.34,-35.67 3.03,-102.98 4.38,-6.52 -0.14,-48.62 -4.28,-56 -67.82,-120.968 -42.05,-207.769 -19.37,-250.984 -3.79,-85.398 -81.02,-55.125 -96.86,12.121 v 0" /><path
         id="path18"
         style="fill:#ed1c24;fill-opacity:1;fill-rule:nonzero;stroke:none"
         d="m 759.352,1408.27 v 0 0 z" /><path
         id="path20"
         style="fill:#ed1c24;fill-opacity:1;fill-rule:nonzero;stroke:none"
         d="m 1217.3,1423.08 v 0.01 h -0.01 c 0,0 0,-0.01 0.01,-0.01 v 0" /><path
         id="path22"
         style="fill:#ed1c24;fill-opacity:1;fill-rule:nonzero;stroke:none"
         d="m 1216.33,1427.44 v 0.01 -0.01" /><path
         id="path24"
         style="fill:#ffffff;fill-opacity:1;fill-rule:evenodd;stroke:none"
         d="m 887.41,1466.84 c 9.512,-13.11 23.891,-21.38 40.488,-27.43 l -3.918,-10.45 c -26.722,2.54 -42.832,9.95 -48.332,22.2 l 11.762,15.68 v 0" /><path
         id="path26"
         style="fill:#ffffff;fill-opacity:1;fill-rule:evenodd;stroke:none"
         d="m 1110.49,1479.9 c -12.78,-17.64 -32.12,-28.75 -54.44,-36.89 l 5.26,-14.05 c 35.95,3.42 57.6,13.38 65,29.86 l -15.82,21.08 v 0" /><path
         id="path28"
         style="fill:#ffffff;fill-opacity:1;fill-rule:evenodd;stroke:none"
         d="m 849.445,1221.26 123.223,0.13 c 40.382,95.84 -178.781,85.49 -123.223,-0.13 v 0" /><path
         id="path30"
         style="fill:#ffffff;fill-opacity:1;fill-rule:evenodd;stroke:none"
         d="m 832.195,1222.59 c -24.859,0.41 -28.398,-4.89 -46.445,-21.23 8.613,71.14 39.102,48.87 46.445,21.23 v 0" /><path
         id="path32"
         style="fill:#ffffff;fill-opacity:1;fill-rule:evenodd;stroke:none"
         d="m 1002.25,1221.49 129.88,0.27 c 0.59,34.66 13.08,66.07 22.34,96.42 2.79,31.34 -8.38,56.96 -33.49,65.47 -40.28,-9.83 -54.2,-12.73 -113.89,-3.13 0.58,-3.41 -25.508,-26.82 -24.973,-30.22 8.071,-51.18 21.663,-77.64 20.133,-128.81 v 0" /><path
         id="path34"
         style="fill:#ffffff;fill-opacity:1;fill-rule:evenodd;stroke:none"
         d="m 1156.55,1221.41 c 20.77,-4.84 36.64,-10.95 43.59,-21.33 -11.85,79.67 -45.3,68.21 -43.59,21.33 v 0" /><path
         id="path36"
         style="fill:#ffffff;fill-opacity:1;fill-rule:evenodd;stroke:none"
         d="m 901.297,1763.73 c 9.043,30.77 26.918,49.86 55.933,60.65 12.657,4.71 22.704,-0.02 26.532,-12.37 l 6.441,-17.62 c 3.621,-12.07 2.34,-16.38 -10.414,-19.02 -25.566,-5.31 -33.367,-11.12 -44.207,-27.28 -5.742,-8.56 -10.727,-10.73 -18.715,-5.52 -8.726,7.61 -19.316,8.42 -15.57,21.16 v 0" /><path
         id="path38"
         style="fill:#ffffff;fill-opacity:1;fill-rule:evenodd;stroke:none"
         d="m 1041.52,1821.01 c 22.92,-7.81 36.19,-30.42 50.49,-44.72 -6.74,-14.29 -6.25,-14.16 -21.62,-26.31 -5.74,17.47 -24.73,29.66 -41.24,36.32 0,12.95 5.9,23.93 12.37,34.71 v 0" /><path
         id="path40"
         style="fill:#ffffff;fill-opacity:1;fill-rule:evenodd;stroke:none"
         d="m 1019.72,1592.01 c -3.57,-7.4 -3.81,-8.65 3.91,-13.01 60.88,13.83 55.33,95.12 65.37,149.43 l -22.9,-1.28 c -14.53,-48.43 10.69,-116.81 -46.38,-135.14 v 0" /><path
         id="path42"
         style="fill:#ffffff;fill-opacity:1;fill-rule:evenodd;stroke:none"
         d="m 975.973,1593.17 c 2.972,-7.41 5.871,-9.81 -0.547,-14.17 -50.625,13.83 -49.5,55.77 -57.844,110.09 l 11.715,2.19 c 12.078,-48.43 -0.781,-79.78 46.676,-98.11 v 0" /><path
         id="path44"
         style="fill:#ffffff;fill-opacity:1;fill-rule:evenodd;stroke:none"
         d="m 984.504,1649.74 18.226,-3.36 c 3.73,-0.69 10.65,-0.45 10.48,-1.51 l -2,-11.64 c -0.17,-1.07 -4.28,-0.72 -5.64,-0.44 l -20.398,4.23 c -1.356,0.28 -2.488,0.89 -2.559,1.98 l -0.672,8.76 c -0.07,1.1 1.192,2.22 2.563,1.98 v 0" /><path
         id="path46"
         style="fill:#ffffff;fill-opacity:1;fill-rule:evenodd;stroke:none"
         d="m 881.797,1733.49 c 15.215,6.53 8.723,19.46 -7.856,14.29 -112.871,-38.26 -99.703,-179.23 -103.574,-306.33 -29.625,-96.74 -43.23,-191.24 -23.183,-282.49 l 28.746,36.35 c 0.675,68.06 15.836,129.42 50.629,181.71 -3.731,14.55 -17.661,27.69 -35.454,30.98 -11.457,206.57 18.641,303.09 90.692,325.49 v 0" /><path
         id="path48"
         style="fill:#ffffff;fill-opacity:1;fill-rule:evenodd;stroke:none"
         d="m 1106.11,1724.34 c -15.21,6.54 -2.89,28.61 13.7,23.44 123.97,-30.85 99.37,-182.42 94.61,-315.28 29.83,-88.63 49.84,-176.74 33.42,-273.54 l -36.43,36.35 c -11.4,70.2 -31.54,143.8 -56.87,194.19 1.03,14.54 12.29,31.41 34.61,34.7 11.46,206.56 -10.98,277.73 -83.04,300.14 v 0" /><path
         id="path50"
         style="fill:#ffffff;fill-opacity:1;fill-rule:evenodd;stroke:none"
         d="m 738.145,1142.5 c -30.356,-14.52 -44.27,-39.09 -53.313,-63.09 5.336,-8.89 18.66,-5.33 26.66,5.33 l 26.653,57.76 v 0" /><path
         id="path52"
         style="fill:#ed1c24;fill-opacity:1;fill-rule:evenodd;stroke:none"
         d="m 734.102,314.516 -73.727,-1.918 C 580.57,295.746 570.27,160.047 659.414,132.309 l 74.688,-1.922 v 33.738 l -43.411,-0.312 c -73.343,-0.528 -77.941,115.171 -1.128,115.746 l 44.539,0.339 v 34.618 0" /><path
         id="path54"
         style="fill:#ed1c24;fill-opacity:1;fill-rule:evenodd;stroke:none"
         d="m 784.703,315.418 c 29.922,0.113 55.84,-0.793 83.422,-31.199 l 76.352,-152.422 h -41.172 l -17.989,35.269 C 770.77,51.8438 684.82,265.395 833.68,267.555 c -2.625,16.343 -33.129,17.062 -49.66,18.195 l 0.683,29.668 z m 38.434,-80.031 c 18.758,0 34.058,-15.305 34.058,-34.059 0,-18.75 -15.3,-34.058 -34.058,-34.058 -18.754,0 -34.051,15.308 -34.051,34.058 0,18.754 15.297,34.059 34.051,34.059 v 0" /><path
         id="path56"
         style="fill:#ed1c24;fill-opacity:1;fill-rule:evenodd;stroke:none"
         d="m 1168.5,314.195 c -49.84,0 -90.5,-40.66 -90.5,-90.492 0,-49.836 40.66,-90.484 90.5,-90.484 49.83,0 90.49,40.648 90.49,90.484 0,49.832 -40.66,90.492 -90.49,90.492 z m 0,-32.507 c -31.93,0 -57.98,-26.059 -57.98,-57.985 0,-31.933 26.05,-57.988 57.98,-57.988 31.93,0 57.98,26.055 57.98,57.988 0,31.926 -26.05,57.985 -57.98,57.985 v 0" /><path
         id="path58"
         style="fill:#ed1c24;fill-opacity:1;fill-rule:evenodd;stroke:none"
         d="m 1297.64,313.32 h 33.4 V 133.219 h -33.4 v 180.101 0" /><path
         id="path60"
         style="fill:#ffffff;fill-opacity:1;fill-rule:evenodd;stroke:none"
         d="m 968.988,1181.08 -113.785,0.91 c 4.367,-54.47 20.192,-109.85 36.637,-164.34 -1.235,-30.056 -3.438,-57.939 -19.457,-86.154 -22.289,-68.058 -24.543,-133.449 5.504,-194.969 44.14,-178.363 9.906,43.532 1.121,119.121 0.972,34.805 7.254,69.602 21.289,104.407 l 15.297,-31.985 c 10.734,-6.359 19.844,-4.535 27.312,5.457 l -5.879,86.563 36,73.2 -4.039,87.79 v 0" /><path
         id="path62"
         style="fill:#ffffff;fill-opacity:1;fill-rule:evenodd;stroke:none"
         d="m 960.223,749.156 c -26.461,-76 -26.903,-102.949 9.054,-188.836 0.047,-0.218 1.246,-51.504 1.332,173.762 0,12.363 0.387,46.02 -10.386,15.074 v 0" /><path
         id="path64"
         style="fill:#ffffff;fill-opacity:1;fill-rule:evenodd;stroke:none"
         d="m 961.668,926.863 12.566,-124.152 c -10.476,35.109 -14.668,84.336 -31.433,105.293 -4.715,15.715 9.426,25.144 18.867,18.859 v 0" /><path
         id="path66"
         style="fill:#ffffff;fill-opacity:1;fill-rule:evenodd;stroke:none"
         d="m 1237.13,1065.8 c 8.35,-5.37 18.07,-5.37 29.12,0 4.7,17.74 -3.69,36.68 -17.75,49.08 l -13.39,-5.89 c -12.89,-8.38 -9.2,-24.11 2.02,-43.19 v 0" /><path
         id="path68"
         style="fill:#ffffff;fill-opacity:1;fill-rule:evenodd;stroke:none"
         d="m 1007.12,1183.13 h 94.49 c -48.75,-69.93 56.26,-111.11 -6.25,-183.536 -9.82,-11.317 -19.65,-15.063 -29.48,-11.254 -10.5,33.44 0.74,71.4 -11.17,101.99 l -16.52,2.45 c -9.89,7.06 -18.26,18.4 -19.63,34.01 l -11.44,56.34 v 0" /></g></g></svg>