<?xml version="1.0" encoding="UTF-8" standalone="no"?>
<svg
   version="1.1"
   width="150"
   height="100"
   id="svg6"
   viewBox="0 0 97 75"
   sodipodi:docname="79301ff93fb8969141b2079bb0e41485.cdr"
   xmlns:inkscape="http://www.inkscape.org/namespaces/inkscape"
   xmlns:sodipodi="http://sodipodi.sourceforge.net/DTD/sodipodi-0.dtd"
   xmlns="http://www.w3.org/2000/svg"
   xmlns:svg="http://www.w3.org/2000/svg">
  <defs
     id="defs10" />
  <sodipodi:namedview
     id="namedview8"
     pagecolor="#ffffff"
     bordercolor="#666666"
     borderopacity="1.0"
     inkscape:pageshadow="2"
     inkscape:pageopacity="0.0"
     inkscape:pagecheckerboard="0" />
  <path
     d="m 67.9921,66.822759 c -7.4954,-17.8206 -31.7319,-18.0779 -39.2292,0.148 5.7484,1.9984 12.3627,3.1374 19.4028,3.1374 7.2131,0 13.9808,-1.1946 19.8264,-3.2854 z m -43.2397,-1.4479 c 0.7231,-16.8415 2.8165,-31.6483 5.9967,-42.8925 -13.3826,4.0558 -22.6154,12.6372 -22.6154,22.5666 0,8.3654 6.5532,15.774 16.6187,20.3259 z m 45.1435,6.6716 c -6.412,2.0072 -13.6449,3.1382 -21.3004,3.1382 -26.3458,0 -47.7116,-13.3744 -47.7116,-29.8666 0,-12.9348 13.1442,-23.9511 31.5249,-28.1019 3.884,-11.0318002 9.0258,-17.44890021 15.0505,-17.20970021 5.4579,0 10.9103,6.16510001 15.3349,16.79280021 19.4142,3.7848 33.5132,15.1225 33.5132,28.5188 0,9.1218 -6.5384,17.289 -16.8395,22.7675 -3.0748,1.6351 -6.2779,2.8656 -9.572,3.9609 z m -5.0508,-49.7821 c 3.7638,11.1229 6.5061,25.8364 7.4182,42.7947 9.6772,-4.5743 15.9344,-11.8358 15.9344,-20.0101 0,-10.1111 -9.5723,-18.8246 -23.3526,-22.7846 z m 3.1283,34.8058 c -3.3449,-28.7402 -11.6674,-46.9069 -20.2802,-46.6563 -8.93,-0.4181002 -15.7382,18.4213 -18.7478,46.6302 8.9694,-16.1892 29.7287,-15.9704 39.028,0.0261 z"
     style="fill:#e30016;fill-rule:evenodd"
     id="path2" />
</svg>
