<svg id="Layer_1" data-name="Layer 1" xmlns="http://www.w3.org/2000/svg" xmlns:xlink="http://www.w3.org/1999/xlink" viewBox="0 0 639 130.4"><defs><style>.cls-1{fill:#231f20;}.cls-2{fill:url(#linear-gradient);}.cls-3{fill:url(#linear-gradient-2);}.cls-4{fill:url(#linear-gradient-3);}.cls-5{fill:url(#linear-gradient-4);}.cls-6{fill:url(#linear-gradient-5);}.cls-7{fill:url(#linear-gradient-6);}.cls-8{fill:url(#linear-gradient-7);}.cls-9{fill:url(#linear-gradient-8);}.cls-10{fill:url(#linear-gradient-9);}.cls-11{fill:url(#linear-gradient-10);}.cls-12{fill:url(#linear-gradient-11);}.cls-13{fill:url(#linear-gradient-12);}.cls-14{fill:url(#linear-gradient-13);}.cls-15{fill:url(#linear-gradient-14);}.cls-16{fill:url(#linear-gradient-15);}.cls-17{fill:url(#linear-gradient-16);}.cls-18,.cls-20{stroke:#b8b8b8;}.cls-18{fill:url(#linear-gradient-17);}.cls-19{fill:#191919;}.cls-20{fill:url(#linear-gradient-18);}.cls-21{fill:#fff;}.cls-22{fill:url(#linear-gradient-19);}.cls-23{fill:url(#linear-gradient-20);}.cls-24{fill:url(#linear-gradient-21);}.cls-25{fill:url(#linear-gradient-22);}.cls-26{fill:url(#linear-gradient-23);}.cls-27{fill:url(#linear-gradient-24);}.cls-28{fill:url(#linear-gradient-25);}.cls-29{fill:url(#linear-gradient-26);}.cls-30{fill:url(#linear-gradient-27);}.cls-31{fill:url(#linear-gradient-28);}.cls-32{fill:url(#linear-gradient-29);}.cls-33{fill:#929292;}.cls-34{fill:#f2f2f2;}.cls-35{fill:#848c8e;}.cls-36{fill:url(#linear-gradient-30);}.cls-37{fill:url(#linear-gradient-31);}.cls-38{fill:url(#linear-gradient-32);}</style><linearGradient id="linear-gradient" x1="425.4" y1="30.02" x2="425.4" y2="1.57" gradientUnits="userSpaceOnUse"><stop offset="0" stop-color="#fff"/><stop offset="0.25" stop-color="#1e1e1e"/><stop offset="0.66" stop-color="#c7c7c7"/><stop offset="0.9" stop-color="#c7c7c7"/></linearGradient><linearGradient id="linear-gradient-2" x1="321.3" y1="465.07" x2="321.3" y2="436.61" xlink:href="#linear-gradient"/><linearGradient id="linear-gradient-3" x1="465.89" y1="465.07" x2="465.89" y2="436.52" xlink:href="#linear-gradient"/><linearGradient id="linear-gradient-4" x1="492.86" y1="30.02" x2="492.86" y2="1.57" xlink:href="#linear-gradient"/><linearGradient id="linear-gradient-5" x1="532.97" y1="466.3" x2="532.97" y2="435.35" xlink:href="#linear-gradient"/><linearGradient id="linear-gradient-6" x1="245.42" y1="466.3" x2="245.42" y2="435.41" xlink:href="#linear-gradient"/><linearGradient id="linear-gradient-7" x1="401.27" y1="466.8" x2="401.27" y2="436.18" xlink:href="#linear-gradient"/><linearGradient id="linear-gradient-8" x1="746.74" y1="466.8" x2="746.74" y2="436.18" xlink:href="#linear-gradient"/><linearGradient id="linear-gradient-9" x1="425.4" y1="31.75" x2="425.4" y2="1.35" gradientUnits="userSpaceOnUse"><stop offset="0.03" stop-color="#3c3c3c"/><stop offset="0.06" stop-color="#2d2d2d"/><stop offset="0.24" stop-color="#787878"/><stop offset="0.34" stop-color="#a1a1a1"/><stop offset="0.58" stop-color="#fff"/><stop offset="0.78" stop-color="#e9e9e9"/><stop offset="0.91" stop-color="#ccc"/><stop offset="1" stop-color="#8b8b8b"/></linearGradient><linearGradient id="linear-gradient-10" x1="321.3" y1="466.8" x2="321.3" y2="436.4" xlink:href="#linear-gradient-9"/><linearGradient id="linear-gradient-11" x1="465.9" y1="466.8" x2="465.9" y2="436.4" xlink:href="#linear-gradient-9"/><linearGradient id="linear-gradient-12" x1="492.86" y1="31.75" x2="492.86" y2="1.35" xlink:href="#linear-gradient-9"/><linearGradient id="linear-gradient-13" x1="532.97" y1="468.11" x2="532.97" y2="435.05" xlink:href="#linear-gradient-9"/><linearGradient id="linear-gradient-14" x1="245.42" y1="468.11" x2="245.42" y2="435.11" xlink:href="#linear-gradient-9"/><linearGradient id="linear-gradient-15" x1="401.27" y1="466.8" x2="401.27" y2="435.93" xlink:href="#linear-gradient-9"/><linearGradient id="linear-gradient-16" x1="746.74" y1="466.8" x2="746.74" y2="435.93" xlink:href="#linear-gradient-9"/><linearGradient id="linear-gradient-17" x1="339.04" y1="554.57" x2="344.5" y2="492.18" gradientUnits="userSpaceOnUse"><stop offset="0.03" stop-color="#3c3c3c"/><stop offset="0.06" stop-color="#2d2d2d"/><stop offset="0.22" stop-color="#8f8f8f"/><stop offset="0.29" stop-color="#b8b8b8"/><stop offset="0.52" stop-color="#474747"/><stop offset="0.58" stop-color="#fff"/><stop offset="0.78" stop-color="#e9e9e9"/><stop offset="0.88" stop-color="#ccc"/><stop offset="0.94" stop-color="#8b8b8b"/><stop offset="1" stop-color="#606060"/></linearGradient><linearGradient id="linear-gradient-18" x1="602.79" y1="554.57" x2="608.25" y2="492.18" gradientTransform="matrix(-1, 0, 0, 1, 1263.75, 0)" xlink:href="#linear-gradient-17"/><linearGradient id="linear-gradient-19" x1="460.86" y1="537.36" x2="460.86" y2="517.42" gradientUnits="userSpaceOnUse"><stop offset="0.01"/><stop offset="0.12" stop-color="#00205f"/><stop offset="0.33" stop-color="#00053f"/><stop offset="0.76" stop-color="#000747"/><stop offset="0.9" stop-color="#001e9f"/><stop offset="1"/></linearGradient><linearGradient id="linear-gradient-20" x1="524.98" y1="537.36" x2="524.98" y2="517.42" gradientTransform="matrix(-1, 0, 0, 1, 1061.98, 0)" xlink:href="#linear-gradient-19"/><linearGradient id="linear-gradient-21" x1="341" y1="94.41" x2="341" y2="87.88" gradientUnits="userSpaceOnUse"><stop offset="0.03" stop-color="#686868"/><stop offset="0.34" stop-color="#a1a1a1"/><stop offset="0.58" stop-color="#fff"/><stop offset="0.78" stop-color="#e9e9e9"/><stop offset="0.91" stop-color="#ccc"/><stop offset="1" stop-color="#8b8b8b"/></linearGradient><linearGradient id="linear-gradient-22" x1="460.46" y1="529.45" x2="460.46" y2="522.93" xlink:href="#linear-gradient-21"/><linearGradient id="linear-gradient-23" x1="491.47" y1="529.45" x2="491.47" y2="522.93" xlink:href="#linear-gradient-21"/><linearGradient id="linear-gradient-24" x1="355.47" y1="94.41" x2="355.47" y2="87.88" xlink:href="#linear-gradient-21"/><linearGradient id="linear-gradient-25" x1="505.86" y1="529.73" x2="505.86" y2="522.64" xlink:href="#linear-gradient-21"/><linearGradient id="linear-gradient-26" x1="444.19" y1="529.73" x2="444.19" y2="522.66" xlink:href="#linear-gradient-21"/><linearGradient id="linear-gradient-27" x1="477.61" y1="529.45" x2="477.61" y2="522.83" xlink:href="#linear-gradient-21"/><linearGradient id="linear-gradient-28" x1="551.7" y1="529.45" x2="551.7" y2="522.83" xlink:href="#linear-gradient-21"/><linearGradient id="linear-gradient-29" x1="244.13" y1="90.03" x2="205.87" y2="90.03" gradientUnits="userSpaceOnUse"><stop offset="0.15" stop-color="#dadada"/><stop offset="1" stop-color="#666"/></linearGradient><linearGradient id="linear-gradient-30" x1="587.36" y1="525.08" x2="549.1" y2="525.08" gradientTransform="matrix(-1, 0, 0, 1, 982.33, -435.05)" xlink:href="#linear-gradient-29"/><linearGradient id="linear-gradient-31" x1="342.69" y1="514.81" x2="342.69" y2="500" gradientUnits="userSpaceOnUse"><stop offset="0.03" stop-color="#b0b0b0"/><stop offset="0.33" stop-color="#dcdcdc"/><stop offset="0.58" stop-color="#b5b5b5"/><stop offset="0.68" stop-color="#9d9d9d"/><stop offset="0.94" stop-color="#8b8b8b"/></linearGradient><linearGradient id="linear-gradient-32" x1="600.52" y1="514.81" x2="600.52" y2="500" gradientTransform="matrix(-1, 0, 0, 1, 1257.38, 0)" xlink:href="#linear-gradient-31"/></defs><title>Chrysler Logo Vector</title><polyline class="cls-1" points="400.42 32.96 450.38 32.96 450.38 27.28 415.69 27.28 415.72 2.56 400.42 2.56 400.42 32.96"/><path class="cls-1" d="M292.75,437.61V468H308v-12.4h26.55V468h15.26v-30.4H334.59V450H308V437.61H292.75" transform="translate(-180.5 -435.05)"/><path class="cls-1" d="M484.07,437.61l-14.21,12.84-14.71-12.84L437.4,436.4v1.21l21.67,18V468h15.28V455.36c.13-.09,20.06-17.75,20.06-17.75V436.4l-10.34,1.21" transform="translate(-180.5 -435.05)"/><polyline class="cls-1" points="467.39 32.96 518.33 32.96 518.33 27.84 482.67 27.84 482.67 20.09 516.99 20.09 516.99 14.99 482.67 14.99 482.67 7.67 517.67 7.67 517.7 2.56 467.39 2.56 467.39 32.96"/><path class="cls-1" d="M507,445.52c0,7,8.15,8.73,19.22,10.09,11.3,1.41,16.58,1.79,16.58,4.45,0,2.36-3.36,3.62-13.09,3.62a82.8,82.8,0,0,1-21.64-3.07c-.05.22-1.05,3.42-1.44,5.14a3.3,3.3,0,0,0,0,1.21,108.79,108.79,0,0,0,23.71,2.36c14.73,0,28.94-2.56,28.94-10.54,0-5.47-5.77-8.28-22.19-10.19-6.79-.79-14-1.3-14-3.92,0-2,2-2.85,11.66-2.85a82.5,82.5,0,0,1,19,2.36l1.24-7.09c-1.7-.29-11.28-.83-23.88-.83-10.47,0-24.13,1.44-24.13,9.26" transform="translate(-180.5 -435.05)"/><path class="cls-1" d="M219.58,452.82c0,9.82,10.36,16.5,31.82,16.5a145,145,0,0,0,18.53-1.42l1.33-7.56c-1.86.19-9,2.48-16.64,2.48-11.92,0-20-2.87-20-10s7.65-10,20.17-10a123.9,123.9,0,0,1,16.43,1.27v-1.21l-1.33-5.17a143.32,143.32,0,0,0-18.07-1.38c-21.77,0-32.28,6.45-32.28,16.5" transform="translate(-180.5 -435.05)"/><path class="cls-1" d="M373.52,468H388.8V443c2.09-.13,4.43-.38,8-.38a62.93,62.93,0,0,1,8.59.39c4.65.72,6.17,2.22,6.13,4.21s-2.06,3.95-6.77,4.64a52.21,52.21,0,0,1-7.88.48,21.54,21.54,0,0,1-4.65-1.32v1.2L409.6,468H429V466.8l-17.6-11.44a26.34,26.34,0,0,0,8.19-1.5c4.67-1.51,7-3.93,7-6.63.05-3.54-2.24-6.61-10.8-8.53-4.74-1.08-10.74-1.54-18.84-1.56-11,0-22.3.42-23.42.47V468" transform="translate(-180.5 -435.05)"/><path class="cls-1" d="M719,468h15.28V443c2.09-.13,4.41-.38,8-.38a63.59,63.59,0,0,1,8.62.39c4.62.72,6.14,2.22,6.1,4.21s-2,3.95-6.79,4.64a51.36,51.36,0,0,1-7.86.48,19.94,19.94,0,0,1-4.63-1.32v1.2L755.07,468h19.42V466.8l-17.6-11.44a26.4,26.4,0,0,0,8.2-1.5c4.65-1.51,6.94-3.93,7-6.63,0-3.54-2.26-6.61-10.83-8.53-4.75-1.08-10.72-1.54-18.83-1.56-11,0-22.33.42-23.43.47V468" transform="translate(-180.5 -435.05)"/><polyline class="cls-2" points="400.42 30.02 450.38 30.02 450.38 24.71 415.69 24.71 415.72 1.57 400.42 1.57 400.42 30.02"/><path class="cls-3" d="M292.75,436.61v28.46H308v-11.6h26.55v11.6h15.26V436.61H334.59V448.2H308V436.61H292.75" transform="translate(-180.5 -435.05)"/><path class="cls-4" d="M484.07,436.61l-14.21,12-14.71-12-17.63-.09,21.55,17v11.58h15.28V453.23c.13-.08,19.91-16.71,19.91-16.71l-10.19.09" transform="translate(-180.5 -435.05)"/><polyline class="cls-5" points="467.39 30.02 518.33 30.02 518.33 25.23 482.67 25.23 482.67 17.98 516.99 17.98 516.99 13.2 482.67 13.2 482.67 6.34 517.67 6.34 517.7 1.57 467.39 1.57 467.39 30.02"/><path class="cls-6" d="M507,444c0,6.58,8.15,8.17,19.22,9.45,11.3,1.32,16.58,1.67,16.58,4.16,0,2.21-3.36,3.39-13.09,3.39a87.78,87.78,0,0,1-21.64-2.88c-.07.28-1.44,7.62-1.44,7.61,1.59.32,10.31.55,23.71.55,14.73,0,28.94-2.4,28.94-9.87,0-5.12-5.77-7.75-22.19-9.53-6.79-.74-14-1.22-14-3.68,0-1.83,2-2.66,11.66-2.66a87.87,87.87,0,0,1,19,2.21l1.24-5.51a149,149,0,0,0-23.88-1.91c-10.47,0-24.13,1.35-24.13,8.67" transform="translate(-180.5 -435.05)"/><path class="cls-7" d="M219.58,450.85c0,9.19,10.36,15.45,31.82,15.45A156.13,156.13,0,0,0,269.93,465l1.33-4.63V459a145.75,145.75,0,0,1-16.64,1.19c-11.92,0-20-2.68-20-9.36s7.65-9.37,20.17-9.37a132.53,132.53,0,0,1,16.43,1.19l-1.33-6a154,154,0,0,0-18.07-1.29c-21.77,0-32.28,6-32.28,15.44" transform="translate(-180.5 -435.05)"/><path class="cls-8" d="M373.52,465.07H388.8v-23.4c2.09-.12,4.43-.35,8-.35a67.26,67.26,0,0,1,8.59.36c4.65.68,6.17,2.08,6.13,3.95s-2.06,3.69-6.77,4.34a56.13,56.13,0,0,1-7.88.44c-1.58,0-2.78,0-4.65-.1V451l17.37,14L429,466.8v-1.73l-17.6-11.84a27.74,27.74,0,0,0,8.19-1.41c4.67-1.41,7-3.67,7-6.19.05-3.32-2.24-6.19-10.8-8-4.74-1-10.74-1.45-18.84-1.46-11,0-22.3.39-23.42.43v28.46" transform="translate(-180.5 -435.05)"/><path class="cls-9" d="M719,465.07h15.28v-23.4c2.09-.12,4.41-.35,8-.35a68,68,0,0,1,8.62.36c4.62.68,6.14,2.08,6.1,3.95s-2,3.69-6.79,4.34a55.22,55.22,0,0,1-7.86.44c-1.6,0-2.77,0-4.63-.1V451l17.36,14,19.42,1.73v-1.73l-17.6-11.84a27.8,27.8,0,0,0,8.2-1.41c4.65-1.41,6.94-3.67,7-6.19,0-3.32-2.26-6.19-10.83-8-4.75-1-10.72-1.45-18.83-1.46-11,0-22.33.39-23.43.43v28.46" transform="translate(-180.5 -435.05)"/><polyline class="cls-10" points="400.42 31.75 450.38 31.75 450.38 26.07 415.69 26.07 415.72 1.35 400.42 1.35 400.42 31.75"/><path class="cls-11" d="M292.75,436.4v30.4H308V454.41h26.55V466.8h15.26V436.4H334.59v12.37H308V436.4H292.75" transform="translate(-180.5 -435.05)"/><path class="cls-12" d="M484.07,436.4l-14.21,12.84L455.15,436.4H437.4l21.67,18V466.8h15.28V454.15c.13-.08,20.06-17.75,20.06-17.75H484.07" transform="translate(-180.5 -435.05)"/><polyline class="cls-13" points="467.39 31.75 518.33 31.75 518.33 26.64 482.67 26.64 482.67 18.88 516.99 18.88 516.99 13.78 482.67 13.78 482.67 6.46 517.67 6.46 517.7 1.35 467.39 1.35 467.39 31.75"/><path class="cls-14" d="M507,444.31c0,7,8.15,8.73,19.22,10.1,11.3,1.4,16.58,1.78,16.58,4.44,0,2.36-3.36,3.62-13.09,3.62a82.8,82.8,0,0,1-21.64-3.07c-.07.29-1.44,6.36-1.44,6.35a108.79,108.79,0,0,0,23.71,2.36c14.73,0,28.94-2.56,28.94-10.54,0-5.47-5.77-8.28-22.19-10.19-6.79-.79-14-1.29-14-3.92,0-2,2-2.85,11.66-2.85a81.65,81.65,0,0,1,19,2.37l1.24-5.89a139.56,139.56,0,0,0-23.88-2c-10.47,0-24.13,1.44-24.13,9.26" transform="translate(-180.5 -435.05)"/><path class="cls-15" d="M219.58,451.61c0,9.82,10.36,16.5,31.82,16.5a147.74,147.74,0,0,0,18.53-1.41l1.33-6.36a137.21,137.21,0,0,1-16.64,1.27c-11.92,0-20-2.87-20-10s7.65-10,20.17-10a123.9,123.9,0,0,1,16.43,1.27l-1.33-6.38a143.32,143.32,0,0,0-18.07-1.38c-21.77,0-32.28,6.46-32.28,16.5" transform="translate(-180.5 -435.05)"/><path class="cls-16" d="M373.52,466.8H388.8v-25c2.09-.13,4.43-.38,8-.38a62.93,62.93,0,0,1,8.59.39c4.65.72,6.17,2.22,6.13,4.21s-2.06,4-6.77,4.64a52.21,52.21,0,0,1-7.88.48c-1.58,0-2.78,0-4.65-.11L409.6,466.8H429l-17.6-12.65a26.34,26.34,0,0,0,8.19-1.5c4.67-1.51,7-3.92,7-6.63.05-3.54-2.24-6.61-10.8-8.53C411,436.41,405,436,396.94,435.93c-11,0-22.3.43-23.42.47v30.4" transform="translate(-180.5 -435.05)"/><path class="cls-17" d="M719,466.8h15.28v-25c2.09-.13,4.41-.38,8-.38a63.59,63.59,0,0,1,8.62.39c4.62.72,6.14,2.22,6.1,4.21s-2,4-6.79,4.64a51.36,51.36,0,0,1-7.86.48c-1.6,0-2.77,0-4.63-.11l17.36,15.77h19.42l-17.6-12.65a26.4,26.4,0,0,0,8.2-1.5c4.65-1.51,6.94-3.92,7-6.63,0-3.54-2.26-6.61-10.83-8.53-4.75-1.08-10.72-1.54-18.83-1.56-11,0-22.33.43-23.43.47v30.4" transform="translate(-180.5 -435.05)"/><path class="cls-18" d="M501,560c-7.49-.31-19.8.82-23.47,2.26-4.16,1.64-5.43,2.72-15.55,2.72s-30.06-2.72-30.06-2.72S220.12,529.91,214.38,528s-12.84-5.74-20.84-10.58S181,508.16,181,505s5-3.93,5-3.93L419.6,499.6s9.66-.4,12.88.4,17.39,7.22,21.75,8.06c10.48,2,46.73,1.21,46.73,1.21" transform="translate(-180.5 -435.05)"/><path class="cls-19" d="M220.34,511.23l145.08,2.37a42.3,42.3,0,0,1,7.68,1.08,23.55,23.55,0,0,1,6.39,3.28h36.77s-12.6.34-13.64.86-.34.86-.34.86H375.87l1,1,7.94,1,6,5h29s-5.52,1-6.56,1.9l-1,.86H390.54s.69,1.21,3.8,1.38,3.45.87,4.83,1.21,7.6,5.7,20.2,9.32,35,7.43,35,7.43-32.45-.69-46.61-6.74-33.31-20-37.63-21.75a20.34,20.34,0,0,0-8.8-1.2s-98.57-4-109.79-4.84S220.34,511.23,220.34,511.23Z" transform="translate(-180.5 -435.05)"/><path class="cls-20" d="M499.05,560c7.48-.31,19.79.82,23.46,2.26,4.16,1.64,5.43,2.72,15.55,2.72s30.06-2.72,30.06-2.72S779.88,529.91,785.62,528s12.84-5.74,20.84-10.58S819,508.16,819,505s-5-3.93-5-3.93L580.4,499.6s-9.66-.4-12.88.4-17.39,7.22-21.75,8.06c-10.48,2-46.73,1.21-46.73,1.21" transform="translate(-180.5 -435.05)"/><path class="cls-19" d="M779.66,511.23,634.58,513.6a42.3,42.3,0,0,0-7.68,1.08,23.55,23.55,0,0,0-6.39,3.28H583.74s12.6.34,13.64.86.34.86.34.86h26.41l-1,1-7.94,1-6,5h-29s5.52,1,6.56,1.9l1,.86h21.75s-.69,1.21-3.8,1.38-3.45.87-4.83,1.21-7.59,5.7-20.2,9.32-35,7.43-35,7.43,32.45-.69,46.61-6.74,33.31-20,37.63-21.75a20.34,20.34,0,0,1,8.8-1.2s98.57-4,109.79-4.84S779.66,511.23,779.66,511.23Z" transform="translate(-180.5 -435.05)"/><path class="cls-21" d="M501,537.51s-27.29-.1-44.67,0-21.07-2.36-28.25-8.4c-9.62-8.11-8.45-11.84-8.45-11.84H501" transform="translate(-180.5 -435.05)"/><path class="cls-22" d="M501,537.36s-26.89-.1-44,0-21.58-2.94-27.89-8.46c-9.33-8.15-8.26-11.48-8.26-11.48H501" transform="translate(-180.5 -435.05)"/><path class="cls-21" d="M498.09,537.51s27.3-.1,44.68,0,21.07-2.36,28.24-8.4c9.62-8.11,8.46-11.84,8.46-11.84H498.09" transform="translate(-180.5 -435.05)"/><path class="cls-23" d="M498.11,537.36s26.88-.1,44,0,21.59-2.94,27.9-8.46c9.32-8.15,8.25-11.48,8.25-11.48H495.69" transform="translate(-180.5 -435.05)"/><polyline class="cls-21" points="335.31 94.61 346.69 94.61 346.69 93.31 338.79 93.31 338.79 87.68 335.31 87.68 335.31 94.61"/><polyline class="cls-24" points="335.64 94.41 346.36 94.41 346.36 93.19 338.92 93.19 338.92 87.89 335.64 87.89 335.64 94.41"/><path class="cls-21" d="M454.05,522.78v6.83h3.44v-2.79h6v2.79h3.43v-6.83h-3.43v2.78h-6v-2.78h-3.44" transform="translate(-180.5 -435.05)"/><path class="cls-25" d="M454.34,522.93v6.52h3.28v-2.66h5.69v2.66h3.28v-6.52h-3.28v2.66h-5.69v-2.66h-3.28" transform="translate(-180.5 -435.05)"/><path class="cls-21" d="M495.69,522.66l-3.3,3-3.41-3h-4.12l5,4.19v2.87h3.55v-2.94s4.65-4.12,4.65-4.12h-2.4" transform="translate(-180.5 -435.05)"/><path class="cls-26" d="M495.37,522.93l-3.05,2.76-3.15-2.76h-3.81L490,526.8v2.65h3.28v-2.71l4.3-3.81h-2.22" transform="translate(-180.5 -435.05)"/><polyline class="cls-21" points="349.67 94.61 361.26 94.61 361.26 93.44 353.15 93.44 353.15 91.68 360.96 91.68 360.96 90.52 353.15 90.52 353.15 88.84 361.11 88.84 361.12 87.68 349.67 87.68 349.67 94.61"/><polyline class="cls-27" points="350 94.41 360.93 94.41 360.93 93.31 353.28 93.31 353.28 91.64 360.64 91.64 360.64 90.55 353.28 90.55 353.28 88.98 360.79 88.98 360.79 87.89 350 87.89 350 94.41"/><path class="cls-21" d="M499.89,524.52c0,1.61,1.88,2,4.42,2.32s3.81.41,3.81,1-.77.83-3,.83a18.83,18.83,0,0,1-5-.71c0,.07-.33,1.47-.33,1.47a25.63,25.63,0,0,0,5.45.54c3.38,0,6.65-.59,6.65-2.42,0-1.26-1.33-1.91-5.1-2.35-1.56-.18-3.21-.29-3.21-.9,0-.45.45-.65,2.68-.65a18.83,18.83,0,0,1,4.36.54l.29-1.35a31.74,31.74,0,0,0-5.49-.47c-2.41,0-5.55.33-5.55,2.13" transform="translate(-180.5 -435.05)"/><path class="cls-28" d="M500.29,524.63c0,1.51,1.75,1.87,4.12,2.16s3.56.39,3.56,1-.72.77-2.81.77a17.39,17.39,0,0,1-4.64-.66c0,.07-.31,1.37-.31,1.37a23.75,23.75,0,0,0,5.09.5c3.15,0,6.2-.55,6.2-2.26,0-1.17-1.24-1.77-4.76-2.18-1.45-.17-3-.28-3-.84s.42-.61,2.5-.61a18,18,0,0,1,4.07.5l.27-1.26a30.18,30.18,0,0,0-5.13-.44c-2.24,0-5.17.31-5.17,2" transform="translate(-180.5 -435.05)"/><path class="cls-21" d="M438.35,526.2c0,2.22,2.34,3.73,7.19,3.73a34.28,34.28,0,0,0,4.19-.32l.3-1.44a31.48,31.48,0,0,1-3.76.29c-2.69,0-4.51-.65-4.51-2.26s1.73-2.27,4.56-2.27a26.67,26.67,0,0,1,3.71.29l-.3-1.44a31,31,0,0,0-4.08-.32c-4.93,0-7.3,1.46-7.3,3.74" transform="translate(-180.5 -435.05)"/><path class="cls-29" d="M438.65,526.2c0,2.1,2.22,3.53,6.82,3.53a32.68,32.68,0,0,0,4-.3l.28-1.36a29.72,29.72,0,0,1-3.57.27c-2.55,0-4.28-.62-4.28-2.14s1.64-2.15,4.33-2.15a26.66,26.66,0,0,1,3.52.27l-.28-1.37a32.09,32.09,0,0,0-3.88-.29c-4.67,0-6.92,1.38-6.92,3.54" transform="translate(-180.5 -435.05)"/><path class="cls-21" d="M471.47,529.56h3.38V524c.46,0,1-.08,1.78-.08a14,14,0,0,1,1.9.09c1,.16,1.36.49,1.36.93s-.46.87-1.5,1a12,12,0,0,1-1.75.1c-.35,0-.61,0-1,0l3.85,3.49h4.3l-3.9-2.8a6.08,6.08,0,0,0,1.82-.33c1-.34,1.54-.87,1.54-1.47,0-.78-.5-1.47-2.39-1.89a19.78,19.78,0,0,0-4.17-.35c-2.44,0-5,.1-5.19.11v6.73" transform="translate(-180.5 -435.05)"/><path class="cls-30" d="M471.66,529.45h3.28v-5.36c.45,0,.95-.08,1.72-.08a15.18,15.18,0,0,1,1.84.08c1,.16,1.32.48,1.31.91s-.44.84-1.45,1a11.15,11.15,0,0,1-1.69.1c-.34,0-.59,0-1,0l3.73,3.38h4.17l-3.78-2.71a5.74,5.74,0,0,0,1.76-.32c1-.33,1.49-.84,1.49-1.42,0-.76-.48-1.42-2.32-1.83a19.22,19.22,0,0,0-4-.34c-2.36,0-4.79.09-5,.1v6.52" transform="translate(-180.5 -435.05)"/><path class="cls-21" d="M545.39,529.65h3.48V524c.47,0,1-.09,1.82-.09a15,15,0,0,1,2,.09c1.05.16,1.39.51,1.38,1s-.46.9-1.54,1.05a11.16,11.16,0,0,1-1.79.11c-.36,0-.63,0-1.05,0l4,3.59H558l-4-2.87a5.83,5.83,0,0,0,1.87-.35c1-.34,1.58-.89,1.59-1.5,0-.81-.52-1.51-2.47-1.94a19.39,19.39,0,0,0-4.28-.36c-2.5,0-5.08.1-5.33.11v6.91" transform="translate(-180.5 -435.05)"/><path class="cls-31" d="M545.75,529.45H549v-5.36c.45,0,.94-.08,1.71-.08a15.25,15.25,0,0,1,1.85.08c1,.16,1.32.48,1.31.91s-.44.84-1.46,1a11,11,0,0,1-1.68.1c-.34,0-.6,0-1,0l3.73,3.38h4.16l-3.77-2.71a5.74,5.74,0,0,0,1.76-.32c1-.33,1.49-.84,1.5-1.42,0-.76-.49-1.42-2.32-1.83a19.32,19.32,0,0,0-4-.34c-2.36,0-4.79.09-5,.1v6.52" transform="translate(-180.5 -435.05)"/><polyline class="cls-32" points="240 87.91 205.87 87.91 210.8 92.14 244.13 92.14"/><path class="cls-33" d="M416.26,518s-8.87,0-11.64.24c-2.56.26-3.35,1.54-3.35,1.54s6.44,1.91,9.31,1.86c2,.1,8.81.56,8.81.56Z" transform="translate(-180.5 -435.05)"/><path class="cls-34" d="M412.14,529.51H389.59a7,7,0,0,0,5,2.51c3.23.11,30.21,0,30.21,0Z" transform="translate(-180.5 -435.05)"/><path class="cls-34" d="M587.15,529.51h22.56a7,7,0,0,1-5,2.51c-3.22.11-30.21,0-30.21,0Z" transform="translate(-180.5 -435.05)"/><path class="cls-35" d="M422,527.39c-2.74.1-3.71,0-4.63,0a9.91,9.91,0,0,0-5.59,2.11,43.62,43.62,0,0,0,6.19,1.69c3.23.6,8.46,1,8.46,1" transform="translate(-180.5 -435.05)"/><polyline class="cls-36" points="399.1 87.91 433.23 87.91 428.3 92.14 394.97 92.14"/><path class="cls-33" d="M583.84,518s8.4,0,11.17.27a6.56,6.56,0,0,1,3.82,1.51s-6.44,1.91-9.31,1.86c-2,.1-8.81.56-8.81.56Z" transform="translate(-180.5 -435.05)"/><path class="cls-35" d="M578.09,527.39c2.74.1,3.71,0,4.63,0a13,13,0,0,1,6.09,2.11,67.07,67.07,0,0,1-6.69,1.69c-3.23.6-8.46,1-8.46,1" transform="translate(-180.5 -435.05)"/><path d="M500.76,559.06a114,114,0,0,0-14.2.83c-11.48,1.66-9.82,2.8-15.86,4.31s-28.85-1.36-28.85-1.36-200.13-30.55-211.31-32.33c-16.16-2.56-15.49-2.12-28.09-8.45-16.92-8.5-21.3-16-21.3-16s3,1.5,7.25,4.22c21.45,13.83,23.34,13.15,27.49,14.71,11.93,4.48,197.56,31.21,197.56,31.21s42,7.55,48.94,4.83,10.91-5.28,14.2-6c11.78-2.72,28.22-1.85,28.22-1.85" transform="translate(-180.5 -435.05)"/><path d="M499.24,559.06a113.89,113.89,0,0,1,14.2.83c11.48,1.66,9.82,2.8,15.86,4.31s28.85-1.36,28.85-1.36,200.13-30.55,211.31-32.33c16.16-2.56,15.37-2.37,28.09-8.45,17.52-8.39,21.3-16,21.3-16s-3,1.5-7.25,4.22c-21.45,13.83-23.34,13.15-27.49,14.71-11.93,4.48-197.56,31.21-197.56,31.21s-42,7.55-48.94,4.83-10.91-5.28-14.2-6c-11.78-2.72-27.34-1.75-27.34-1.75" transform="translate(-180.5 -435.05)"/><path class="cls-37" d="M502.42,510.27s-45,0-50-1.51c-3.43-1-13.89-6.19-17.22-7.25S424.63,500,424.63,500s-236,1.41-238.14,1.72a12.1,12.1,0,0,0-4.28,1.76s14.7,2.45,21.5,3c70.58,5.44,223.49,2.77,229.08,3.52s9.51,4.84,16.91,4.84h53.47" transform="translate(-180.5 -435.05)"/><path class="cls-38" d="M497.13,510.27s45,0,50-1.51c3.43-1,13.89-6.19,17.21-7.25S574.92,500,574.92,500s236,1.41,238.14,1.72a12.2,12.2,0,0,1,4.28,1.76s-14.71,2.45-21.5,3c-70.59,5.44-223.49,2.77-229.08,3.52s-9.52,4.84-16.92,4.84H496.38" transform="translate(-180.5 -435.05)"/></svg>