<svg height="1600" viewBox="-130 466 336 336" width="2400" xmlns="http://www.w3.org/2000/svg"><path d="m131.3 517zc-25.4-32-59.2-49.6-95.4-49.6s-70 17.6-95.4 49.6c-24.9 31.5-38.7 73.3-38.7 117.6s13.7 86.1 38.7 117.6c25.4 32 59.2 49.6 95.4 49.6s70-17.6 95.4-49.6c24.9-31.5 38.7-73.3 38.7-117.6s-13.8-86.1-38.7-117.6zm-95.4-34.6c64.4 0 117 65.8 118.9 147.6l-118.9-88.9-118.9 88.9c1.9-81.8 54.5-147.6 118.9-147.6zm116.4 184.1c-1.5 9.2-3.7 18.1-6.5 26.7l-109.9-82.1-109.9 82.1c-2.8-8.5-5-17.5-6.5-26.7l116.4-87zm-116.4 120.4c-40.2 0-75.8-25.6-97.3-64.8l97.3-72.8 97.3 72.8c-21.5 39.2-57.1 64.8-97.3 64.8z"/></svg>