<?xml version="1.0" encoding="UTF-8" standalone="no"?>
<!-- Created with Inkscape (http://www.inkscape.org/) -->

<svg
   version="1.1"
   id="svg2"
   width="600"
   height="400"
   viewBox="17 -2 150 122"
   sodipodi:docname="dafra-seeklogo.eps"
   xmlns:inkscape="http://www.inkscape.org/namespaces/inkscape"
   xmlns:sodipodi="http://sodipodi.sourceforge.net/DTD/sodipodi-0.dtd"
   xmlns="http://www.w3.org/2000/svg"
   xmlns:svg="http://www.w3.org/2000/svg">
  <defs
     id="defs6" />
  <sodipodi:namedview
     id="namedview4"
     pagecolor="#ffffff"
     bordercolor="#000000"
     borderopacity="0.25"
     inkscape:showpageshadow="2"
     inkscape:pageopacity="0.0"
     inkscape:pagecheckerboard="0"
     inkscape:deskcolor="#d1d1d1" />
  <g
     id="g8"
     inkscape:groupmode="layer"
     inkscape:label="ink_ext_XXXXXX"
     transform="matrix(1.3333333,0,0,-1.3333333,0,156)">
    <g
       id="g10"
       transform="scale(0.1)">
     
      <path
         d="m 740.355,1161.3 c 159.333,0 298.575,-86.14 373.715,-214.378 77.62,-3.957 153.15,-14.984 224.57,-34.656 21.65,-7.118 35.64,-24.317 35.64,-46.614 0,-34.64 -36.36,-57.718 -67.07,-44.441 C 873.59,979.461 268.586,737.805 156.629,709.984 c -8.379,-2.086 -10.781,7.039 -10.899,8.883 -0.238,4.613 2.469,8.52 5.836,10.121 49.614,23.532 103.86,46.84 161.563,69.02 C 346.41,1003.98 525.023,1161.3 740.355,1161.3 Z M 1198.52,603.227 C 818.871,707.84 323.402,567.91 11.4258,419.941 8.07813,418.352 5.36719,414.453 5.62891,409.832 c 0.08203,-1.855 2.48828,-10.973 10.88279,-8.894 47.1133,11.718 181.5623,61.3 353.7893,103 75.933,-124.872 213.25,-208.336 370.054,-208.336 166.122,0 310.365,93.679 382.915,231.035 14.78,-4.41 29.42,-9.215 43.83,-14.461 30.69,-13.27 67.06,9.785 67.06,44.426 0,22.3 -14,39.515 -35.64,46.625 z M 419.84,515.449 c 200.207,44.567 441.851,73.824 655.67,23.821 -66.08,-116.801 -191.408,-195.672 -335.155,-195.672 -133.726,0 -251.535,68.277 -320.515,171.851 z m 847.77,241.348 C 887.992,861.395 392.516,721.469 80.543,573.5 c -3.3711,-1.594 -6.0782,-5.496 -5.8203,-10.109 0.1054,-1.86 2.5117,-10.977 10.8828,-8.887 C 197.559,582.332 802.57,823.992 1236.19,665.73 c 30.72,-13.269 67.06,9.813 67.06,44.442 0,22.301 -13.97,39.492 -35.64,46.625 z m -211.56,191.789 c -69.585,99.564 -185.027,164.734 -315.695,164.734 -181.839,0 -334.207,-126.172 -374.417,-295.683 209.488,75.136 456.875,132.527 690.112,130.949"
         style="fill:#231f20;fill-opacity:1;fill-rule:evenodd;stroke:none"
         id="path14" />
    </g>
  </g>
</svg>
