<?xml version="1.0" encoding="UTF-8" standalone="no"?>
<svg
   xmlns:dc="http://purl.org/dc/elements/1.1/"
   xmlns:cc="http://creativecommons.org/ns#"
   xmlns:rdf="http://www.w3.org/1999/02/22-rdf-syntax-ns#"
   xmlns:svg="http://www.w3.org/2000/svg"
   xmlns="http://www.w3.org/2000/svg"
   id="ee5ff9d8-0682-11f0-8a6f-0242ac110006"
   version="1.1"
   width="300"
   viewBox="244 -76 228 12"
   height="200">
  <metadata
     id="metadata21">
    <rdf:RDF>
      <cc:Work
         rdf:about="">
        <dc:format>image/svg+xml</dc:format>
        <dc:type
           rdf:resource="http://purl.org/dc/dcmitype/StillImage" />
      </cc:Work>
    </rdf:RDF>
  </metadata>
  <defs
     id="defs19" />
  <g
     id="g2" />
  <g
     id="g10">
    <g
       id="g8">
      <path
         id="path4"
         d="M 245.1566,-130.716 L 245.1566,-9.0676 471.2414,-9.0676 471.2414,-130.716 245.1566,-130.716 245.1566,-130.716 Z"
         style="fill-rule:evenodd;fill:#d3202a;" />
      <path
         id="path6"
         d="M 265.041,-100.9756 C 268.1433,-101.2939 271.1946,-101.6097 274.2969,-101.928 291.0426,-84.7013 307.7883,-67.5256 324.534,-50.3013 358.0374,-52.7429 400.2016,-61.6465 443.6534,-71.5025 455.103,-75.7976 451.6752,-80.0903 433.3772,-84.3855 393.4067,-94.239 353.3828,-95.4561 313.4099,-95.4561 320.9531,-86.0301 351.5583,-63.3447 345.944,-56.7708 339.4139,-56.1367 332.942,-55.5537 326.4119,-54.9099 301.3189,-79.087 286.1134,-93.0753 280.8174,-100.0768 322.984,-103.1451 367.0261,-102.2438 409.1928,-95.4561 556.7164,-72.9407 321.7742,-30.6186 303.136,-28.1965 306.5639,-34.9331 309.982,-41.7208 313.4099,-48.4502 287.7775,-72.7803 263.0514,-96.5202 265.041,-100.9756 L 265.041,-100.9756 265.041,-100.9756 Z"
         style="fill-rule:evenodd;fill:#ffffff;" />
    </g>
  </g>
  <g
     id="g12" />
  <g
     id="g14" />
</svg>
