<?xml version="1.0" encoding="UTF-8" standalone="no"?>
<!-- Created with Inkscape (http://www.inkscape.org/) -->

<svg
   version="1.1"
   id="svg2"
   width="698.66669"
   height="776"
   viewBox="0 0 698.66669 776"
   sodipodi:docname="ducati-seeklogo.eps"
   xmlns:inkscape="http://www.inkscape.org/namespaces/inkscape"
   xmlns:sodipodi="http://sodipodi.sourceforge.net/DTD/sodipodi-0.dtd"
   xmlns="http://www.w3.org/2000/svg"
   xmlns:svg="http://www.w3.org/2000/svg">
  <defs
     id="defs6" />
  <sodipodi:namedview
     id="namedview4"
     pagecolor="#ffffff"
     bordercolor="#000000"
     borderopacity="0.25"
     inkscape:showpageshadow="2"
     inkscape:pageopacity="0.0"
     inkscape:pagecheckerboard="0"
     inkscape:deskcolor="#d1d1d1" />
  <g
     id="g8"
     inkscape:groupmode="layer"
     inkscape:label="ink_ext_XXXXXX"
     transform="matrix(1.3333333,0,0,-1.3333333,0,776)">
    <g
       id="g10"
       transform="scale(0.1)">
      <path
         d="M 2392.73,5805.85 C 1947.19,5766.7 1639.44,5725.97 1210.09,5606.68 870.664,5512.37 485.598,5362.6 264.063,5174.47 135.129,5064.97 43.0078,4969.73 16.3359,4736.16 -39.8398,4244.01 176.664,3427.2 325.609,2985.77 c 197.84,-586.41 349.59,-905.64 676.131,-1387.9 94.03,-138.88 189.89,-274.46 288.68,-403.44 207.56,-271 413.56,-517.465 638.55,-739.578 115.94,-114.454 229.7,-218.938 371.17,-315.043 151,-102.5746 300.5,-188.6371 510.07,-81.352 472.35,241.82 1053.82,985.243 1349.76,1406.303 429.04,610.47 650.6,1156.16 864.58,1891.35 98.46,338.28 202.67,787.98 210.51,1169.98 5.14,249.94 -17.08,400.98 -144.68,543.83 -99.81,111.75 -242.56,211.11 -401.38,290.8 -581.43,291.75 -1621.3,504.44 -2296.27,445.13"
         style="fill:#ffffff;fill-opacity:1;fill-rule:evenodd;stroke:none"
         id="path12" />
      <path
         d="m 448.145,3124.98 c 31.793,17.44 78.796,69.89 185.394,127.68 212.125,115 475.181,184.43 717.801,236.01 865,183.93 2073.05,206.55 2980.05,202.19 103.63,-0.49 213.55,-0.71 315.01,-5.04 94.25,-4.02 218.9,-12.63 311.28,-6.97 16.03,83.49 38.87,163.05 54.6,247.33 45.4,243.48 101.58,590.75 47.24,828.17 -66.14,288.95 -421.68,449.71 -671.26,549.48 -597.22,238.77 -1453.94,370.3 -2112.62,312.31 C 1629.09,5559.22 799.898,5373.52 395.055,5054.99 277.699,4962.66 196.348,4878.81 171.828,4667.55 119.527,4216.81 320.98,3533.97 448.145,3124.98"
         style="fill:#a81b21;fill-opacity:1;fill-rule:evenodd;stroke:none"
         id="path14" />
      <path
         d="m 4893.29,3437.57 c -82,8.86 -760.13,-42.34 -841.82,-50.32 -273.81,-26.79 -533.11,-57.29 -799.47,-96.71 -494.66,-73.22 -999.85,-202.65 -1410.86,-385.14 -351.06,-155.85 -845.484,-477.13 -852.367,-943.37 -1.156,-78.77 8.516,-71.96 62.457,-158.08 78.33,-125.06 186.74,-287.81 271.72,-402.75 256.43,-346.83 725.63,-934.891 1088.87,-1155.384 108.99,-66.164 196.21,-110.015 334.14,-47.757 99.45,44.902 196.93,121.171 267.79,180.207 475.77,396.359 1090.56,1211.894 1378.56,1766.744 196.35,378.29 378.09,846.91 500.98,1292.56"
         style="fill:#a81b21;fill-opacity:1;fill-rule:evenodd;stroke:none"
         id="path16" />
      <path
         d="m 505.473,4053.34 c 335.715,-4.37 679.917,-58.06 795.117,323.14 52.05,172.29 29.46,331.9 -110.94,392.04 -78.32,33.53 -153.3,31.87 -248.127,31.91 -78.554,0.05 -206.578,7.55 -279.097,-2.02 L 505.473,4053.34"
         style="fill:#ffffff;fill-opacity:1;fill-rule:evenodd;stroke:none"
         id="path18" />
      <path
         d="m 2154.39,4799.97 -287.95,0.44 c -18.87,-119.65 -64.74,-316.02 -92.84,-449.43 -10.75,-51.04 -21.67,-103.62 -66.45,-114.18 -72.78,-17.17 -58.61,65.13 -48.6,112.99 11.04,52.73 20.28,98.32 30.98,149.82 18.02,86.66 53.17,215.13 60.75,300.28 l -285.45,0.47 c -11.11,-20.03 -98.56,-448.95 -107.72,-503.05 -37.84,-223.55 140.63,-275.25 340.4,-263.53 354.96,20.82 353.49,258.38 405.54,505.77 15.63,74.26 46.45,188.77 51.34,260.42"
         style="fill:#ffffff;fill-opacity:1;fill-rule:evenodd;stroke:none"
         id="path20" />
      <path
         d="m 2799.28,4052.04 273.37,-0.16 55.61,119.04 208.43,0.69 3.41,-114.21 c 32.04,-11.36 236.3,-4.68 300.11,-4.45 l -78.38,745.11 c -89.12,6.3 -274.43,2.43 -377.6,2.18 l -194.28,-374.91 c -28.17,-52.54 -185.21,-342.06 -190.67,-373.29"
         style="fill:#ffffff;fill-opacity:1;fill-rule:evenodd;stroke:none"
         id="path22" />
      <path
         d="m 2846.94,4327.01 -271.71,2.38 c -11.68,-46.3 -53.39,-137.71 -119.68,-91.7 -54.8,38.03 12.36,316.29 61.47,364.22 18.32,17.88 57.84,32.45 86.55,16.16 26.83,-15.23 21.83,-56.79 21.01,-94.05 l 264.83,-0.14 c 14.32,133.96 -2.12,203.57 -90.41,254.98 -163.87,95.43 -562.81,58 -646.29,-342.37 -50.69,-243.07 35.56,-399.17 277.12,-403.67 217.69,-4.07 381.24,111.09 417.11,294.19"
         style="fill:#ffffff;fill-opacity:1;fill-rule:evenodd;stroke:none"
         id="path24" />
      <path
         d="m 3682.57,4599.94 176.13,-0.67 c 2.58,-65.92 -111.67,-496.3 -106.02,-546.99 l 284.76,-0.52 c 24.03,75.12 42.72,194.62 58.65,273.05 10.94,53.98 41.12,239.83 60.87,272.44 l 172.62,1.07 c 10.72,19.18 40.74,170.23 43.82,201.57 l -649.13,0.24 -41.7,-200.19"
         style="fill:#ffffff;fill-opacity:1;fill-rule:evenodd;stroke:none"
         id="path26" />
      <path
         d="m 4273.54,4053.52 290.97,-0.8 154.44,746.71 -290.17,0.98 -155.24,-746.89"
         style="fill:#ffffff;fill-opacity:1;fill-rule:evenodd;stroke:none"
         id="path28" />
      <path
         d="m 825.379,4224.37 c 124.73,-8.45 157.144,71.57 180.601,173.88 25.88,112.8 57.39,241.21 -93.535,230.7 l -87.066,-404.58"
         style="fill:#a81b21;fill-opacity:1;fill-rule:evenodd;stroke:none"
         id="path30" />
      <path
         d="m 3213.68,4356.65 118.08,-0.85 1.03,269.87 c -17,-18.35 -111.64,-235.35 -119.11,-269.02"
         style="fill:#a81b21;fill-opacity:1;fill-rule:evenodd;stroke:none"
         id="path32" />
    </g>
  </g>
</svg>
