<?xml version="1.0" encoding="UTF-8" standalone="no"?>
<svg
   version="1.1"
   width="300"
   height="200"
   id="svg16"
   viewBox="231 50 383 383"
   sodipodi:docname="effa-seeklogo.cdr"
   xmlns:inkscape="http://www.inkscape.org/namespaces/inkscape"
   xmlns:sodipodi="http://sodipodi.sourceforge.net/DTD/sodipodi-0.dtd"
   xmlns="http://www.w3.org/2000/svg"
   xmlns:svg="http://www.w3.org/2000/svg">
  <defs
     id="defs20" />
  <sodipodi:namedview
     id="namedview18"
     pagecolor="#ffffff"
     bordercolor="#000000"
     borderopacity="0.25"
     inkscape:showpageshadow="2"
     inkscape:pageopacity="0.0"
     inkscape:pagecheckerboard="0"
     inkscape:deskcolor="#d1d1d1"
     inkscape:document-units="pt" />
  <path
     d="M 688.5142,378.9129 H 475.8225 c -7.933,0 -14.4227,-6.4751 -14.4227,-14.3919 v -57.3745 l -0.002,-0.1249 v -6.4005 c -0.313,-12.4752 6.6519,-18.2416 20.8913,-17.306 h 184.5404 c 2.8297,0 5.1438,-1.5794 5.1438,-3.5124 V 268.586 c 0,-1.933 -2.3141,-3.5125 -5.1438,-3.5125 H 463.8793 c -9.6957,18.4362 -19.2876,36.9989 -28.9897,55.667 -39.6778,60.0599 -89.3902,105.5691 -152.3674,103.2713 -10.466,-0.3811 -19.7173,-1.5487 -27.8449,-3.3487 -10.6621,2.5816 -21.7459,3.7687 -33.2772,3.3487 -131.768,-4.8098 -71.7064,-133.2777 4.6573,-98.6172 -42.1038,7.8243 -54.073,65.3804 -11.5946,84.3437 5.6805,2.014 11.4713,2.9837 17.3724,2.8783 -60.5805,-31.7205 -8.2914,-116.1047 55.3443,-87.222 -37.4514,6.96 -51.0584,53.2653 -23.713,76.761 29.8767,-18.7979 62.4632,-63.4962 98.2296,-138.5691 H 150.7007 c -7.8406,0 -14.2541,-6.1265 -14.2541,-13.6183 v -36.5968 h -0.002 v -72.9096 c 0,-10.2373 8.7649,-18.6114 19.4805,-18.6114 h 212.6917 c 7.933,0 14.4227,6.1995 14.4227,13.779 v 54.9275 l 0.002,0.12 v 6.1264 c 0.313,11.9433 -6.6519,17.4649 -20.8913,16.5681 H 177.6098 c -2.8297,0 -5.1437,1.513 -5.1437,3.3633 v 10.7383 c 0,1.8503 2.314,3.3633 5.1437,3.3633 h 199.0717 c 39.6421,-88.028 85.5048,-146.5669 140.9885,-164.888 26.3643,-8.7048 48.9665,-7.8178 64.4221,-1.0086 64.0491,-18.7248 104.254,23.6789 66.9583,62.8021 l -46.9848,-1.693 c 45.8854,-30.1394 23.4746,-66.0664 -8.6675,-54.0097 15.0681,13.3363 15.3016,35.6206 -7.7157,57.8173 l -34.7238,-1.693 c 4.7498,-4.5113 9.3211,-11.5443 11.7325,-16.6556 4.667,-9.8968 -5.2103,-4.1806 -4.2617,-6.6211 -28.568,41.0691 -53.0869,83.1453 -76.3085,125.9771 H 693.739 c 7.8406,0 14.2541,6.399 14.2541,14.2249 v 38.2264 h 0.002 v 76.1578 c 0,10.693 -8.7649,19.44 -19.4805,19.44 z m -407.7466,32.3545 c 41.0724,9.8725 87.7604,-33.9615 141.6825,-146.9041 h -17.3367 c -10.14,18.7962 -20.4438,37.6329 -31.3459,56.3772 -26.2832,39.7848 -56.9708,73.1805 -92.9999,90.5269 z M 421.3993,234.0892 h 14.9449 l 0.2383,-0.5367 C 471.4295,155.392 510.9711,99.738 557.8424,74.8446 549.89,63.3538 529.6295,65.6078 499.8938,104.8867 469.5485,146.092 445.2906,189.7655 421.3993,234.0892 Z m -245.043,-73.3896 h 171.2334 c 2.1405,0 3.8902,1.513 3.8902,3.3632 v 10.7384 c 0,1.8503 -1.7497,3.3632 -3.8902,3.3632 H 176.3563 c -2.1405,0 -3.8902,-1.5129 -3.8902,-3.3632 v -10.7384 c 0,-1.8502 1.7497,-3.3632 3.8902,-3.3632 z M 668.0834,338.3335 H 496.8501 c -2.1406,0 -3.8903,-1.5811 -3.8903,-3.5125 v -11.2167 c 0,-1.933 1.7497,-3.5141 3.8903,-3.5141 h 171.2333 c 2.1405,0 3.8903,1.5811 3.8903,3.5141 v 11.2167 c 0,1.9314 -1.7498,3.5125 -3.8903,3.5125 z"
     style="fill:#df0b1e;fill-rule:evenodd"
     id="path2" />
</svg>
