<svg viewBox="63 -0.4 83 83" width="300" height="200" xmlns="http://www.w3.org/2000/svg">
	<title>GASGAS logo - Brandlogos.net</title>
	<path d="M508.46,476.85a8.39,8.39,0,0,0-8,5.79l-6.6,20.13a4.54,4.54,0,0,0,4.31,5.92h24.22c2.73,0,6.22-2.18,7.07-4.8l1.64-4.89H509.19l4.08-12.79h39.54l-6.66,20.9c-2.05,6.32-7.73,14.18-16.54,14.18H457.5c1.48,6.68,6.2,12.64,15,12.64h63.64c12.71,0,20.91-11.36,23.87-20.47l11.77-36.62Z" style="fill:#cb0d25" transform="translate(-410.97 -451.66)"/>
	<path d="M484.81,475.8c2.05-6.32,12.08-11.51,19.51-11.51h68.34c-1.48-6.68-6.2-12.64-15-12.64H499.58c-10.72,0-25.2,7.49-28.16,16.61l-13,40.44h15.81Z" style="fill:#cb0d25" transform="translate(-410.97 -451.66)"/>
</svg>