<svg height="1600" viewBox="391 280 296 296" width="2400" xmlns="http://www.w3.org/2000/svg"><g fill="#282828"><path d="m470.03 668.93s13.87 14.28-.3 12.94.28 21.13 13.09-33.25zm68-94.06c-53.3-.28-104.36-9.6-150.35-38.33-30.3-18.94-54.07-43.9-63.12-79.3-13.03-50.96 5.07-92.15 44.01-125 32.49-27.41 71.35-40.82 112.77-46.86 60.47-8.82 119.99-5.8 177.37 17.52 18.58 7.55 35.67 17.65 50.92 30.76 62.24 53.52 61.65 136.63-1.59 189.08-35.61 29.53-77.86 42.97-122.87 49.28-15.64 2.2-31.37 2.77-47.14 2.85zm.51-18.56c22.07-.23 44.07-1.36 65.81-5.4 36.53-6.8 71.08-18.32 99.52-43.56 48.3-42.87 50.95-110.82 6.29-157.39-18.21-18.99-39.89-32.84-64.13-42.65-52.36-21.18-106.58-24.63-161.77-15.35-45.47 7.65-86.61 24.73-118.98 58.95-42.38 44.79-40.89 108.97 3.3 152.13 12.64 12.35 27.27 21.77 43.27 29.15 40.22 18.54 82.98 23.8 126.69 24.12z"/><path d="m546.57 356.69 71.08 42.72c-.04 11.91-.27 39.87-.27 39.87-2.62 39 23.73 46.63 51.33 38.14 31.22-9.6 48.17-44.94 38.54-79.29-7.05-25.13-24.05-42.14-45.35-55.54-33.31-20.95-70.57-27.8-109.05-29.75-44.44-2.25-87.34 4.31-127.05 25.33-27.64 14.63-48.64 35.31-54.77 67.65-7.98 42.16 25.73 80.16 65.42 73.79 16.76-2.69 25.69-12.77 26.01-30.1.28-15.41.24-37.13-.03-52.54l71.2-40.62c-.56 37.46.74 84.53-1.33 121.97-1.5 27.08-17.71 43.63-44.62 46.92-33.5 4.1-64.82-1.57-93.4-19.95-50.27-32.34-61.04-96.13-24.25-143.46 22.99-29.58 54.46-45.12 89.96-53.99 65.34-16.31 129.64-14.59 192.44 11.27 36.31 14.96 64 39.01 75.29 77.86 10.98 37.79 1.6 71.4-27.8 97.17-33.36 29.25-73.16 38.42-116.62 29-21.1-4.57-33.42-18.72-35.06-40.34-3.15-41.24-.68-82.58-1.67-126.11z"/></g></svg>