<?xml version="1.0" standalone="no"?>
<!DOCTYPE svg PUBLIC "-//W3C//DTD SVG 20010904//EN"
 "http://www.w3.org/TR/2001/REC-SVG-20010904/DTD/svg10.dtd">
<svg version="1.0" xmlns="http://www.w3.org/2000/svg"
 width="240" height="160" viewBox="35 15 130 130"
 preserveAspectRatio="xMidYMid meet">

<g transform="translate(0.000000,200.000000) scale(0.1,-0.12)"
fill="#c70002" stroke="none">
<path d="M5 1368 c-3 -7 -4 -177 -3 -378 l3 -365 995 0 995 0 0 375 0 375
-993 3 c-791 2 -994 0 -997 -10z m305 -255 c4 -35 8 -41 20 -33 27 18 61 10
91 -19 28 -28 29 -34 29 -116 l0 -86 -27 3 c-27 3 -28 4 -31 78 -3 78 -13 100
-43 100 -28 0 -39 -31 -39 -109 l0 -71 -30 0 -30 0 0 143 c0 79 3 147 7 151 4
4 16 6 28 4 15 -2 21 -12 25 -45z m740 1 c0 -40 2 -45 18 -39 84 36 162 -13
162 -102 0 -50 -21 -88 -61 -109 -35 -18 -57 -18 -91 0 -16 9 -30 11 -33 5 -4
-5 -15 -9 -26 -9 -18 0 -19 8 -19 143 0 79 3 147 7 150 3 4 15 7 25 7 15 0 18
-8 18 -46z m-367 -63 c27 -27 31 -37 35 -110 4 -70 2 -82 -13 -87 -10 -4 -26
-2 -35 4 -13 8 -26 8 -48 0 -60 -23 -142 40 -142 109 0 108 127 161 203 84z
m227 24 c84 -44 78 -171 -11 -210 -129 -58 -227 123 -110 202 39 27 80 29 121
8z m515 -1 c48 -22 67 -68 63 -151 l-3 -68 -65 -1 c-80 -2 -123 15 -150 58
-26 43 -25 77 3 119 39 58 90 73 152 43z m266 -7 c38 -25 63 -83 53 -123 -9
-35 -58 -81 -95 -89 -66 -15 -139 45 -139 115 0 97 101 151 181 97z"/>
<path d="M1072 1017 c-42 -44 -16 -109 44 -109 53 0 79 61 44 105 -26 33 -59
35 -88 4z"/>
<path d="M562 1024 c-15 -10 -22 -25 -22 -47 0 -38 7 -50 39 -67 20 -10 27 -9
50 7 34 26 39 71 11 101 -24 26 -47 28 -78 6z"/>
<path d="M812 1017 c-27 -28 -28 -57 -4 -87 21 -26 66 -30 90 -7 23 24 20 77
-7 99 -31 24 -53 23 -79 -5z"/>
<path d="M1331 1019 c-30 -28 -25 -75 12 -102 l27 -21 28 21 c35 26 41 74 13
102 -27 27 -51 27 -80 0z"/>
<path d="M1585 1015 c-30 -29 -32 -55 -7 -85 35 -44 112 -15 112 42 0 23 -43
68 -65 68 -9 0 -27 -11 -40 -25z"/>
</g>
</svg>
