<?xml version="1.0" encoding="iso-8859-1"?>
<!-- Generator: Adobe Illustrator 27.0.0, SVG Export Plug-In . SVG Version: 6.00 Build 0)  -->
<svg version="1.1" id="Layer_1" xmlns="http://www.w3.org/2000/svg" xmlns:xlink="http://www.w3.org/1999/xlink" x="0px" y="0px" width="240" height="160"
	 viewBox="27 212 76 76" style="enable-background:new 0 0 500 500;" xml:space="preserve">

<g>
	<path style="fill-rule:evenodd;clip-rule:evenodd;fill:#D9261C;" d="M35.659,277.583l-0.078-0.331L22,211.966
		c6.949,0,13.92,0,20.891,0l7.418,34.498c0.13,0,0.287,0,0.443,0c1.437-3.867,1.437-3.867,1.697-4.909
		c0.052-0.056,0.104-0.104,0.182-0.16c0-0.078,0-0.13,0-0.182c0.052-0.365,0.104-0.703,0.186-1.042
		c0.052-0.082,0.104-0.13,0.156-0.186c0-0.052,0-0.104,0-0.156c0.287-1.697,0.573-3.394,0.886-5.066c0-0.052,0-0.104,0-0.156
		c0-0.182,0-0.365,0-0.521c0.052-0.078,0.104-0.13,0.156-0.182c0-0.078,0-0.134,0-0.182c0-2.978,0-5.929,0-8.88
		c0-0.052,0-0.104,0-0.156c-0.052-0.078-0.104-0.13-0.156-0.182c0-0.365,0-0.707,0-1.046c0-0.078,0-0.13,0-0.182
		c-0.078-0.052-0.13-0.104-0.182-0.156c0-0.13,0-0.26,0-0.365c0-0.052,0-0.104,0-0.156c-0.078-0.186-0.13-0.368-0.182-0.525
		l-1.906-10.105c7.023,0,14.05,0,21.073,0l4.18,18.985c0,0.052,0,0.104,0,0.156c0,0.104,0,0.234,0,0.365c0,0.052,0,0.104,0,0.156
		c0.052,0.052,0.104,0.104,0.156,0.182c0,0.16,0,0.342,0,0.525c0,0.052,0,0.104,0,0.182c0,0.104,0,0.208,0,0.339
		c-0.052,0.052-0.104,0.104-0.156,0.182l-9.402,44.734c-0.655,0-1.306,0-1.935,0c-0.048-0.13-0.104-0.234-0.156-0.339
		c0-0.078,0-0.13,0-0.182l-6.632-33.899l-0.703-0.313c-0.811,0.395-1.072,1.831-1.202,2.691c-0.078,0-0.13,0-0.182,0
		c0,0.052,0,0.104,0,0.182c-0.182,0.629-0.365,1.254-0.525,1.906c0,0.056,0,0.104,0,0.182c-0.231,0.629-0.469,1.254-0.677,1.909
		c-0.104,0.13-0.104,0.13,0,0.182c0,0.156,0,0.339,0,0.521c-0.078,0.052-0.13,0.104-0.182,0.182c0,0.052,0,0.104,0,0.156
		c-0.078,0.29-0.13,0.577-0.182,0.89c0,0.052,0,0.104,0,0.156c0,0.104,0,0.234,0,0.365c-0.052,0.052-0.104,0.104-0.156,0.156
		c-0.104,0.13-0.104,0.13,0,0.186c0,0.156,0,0.339,0,0.521c-0.078,0.052-0.13,0.104-0.182,0.182c0,0.052,0,0.104,0,0.156
		c0,0.156,0,0.339,0,0.521c0,0.052,0,0.108,0,0.182c0,0.156,0,0.342,0,0.525c-0.078,0.052-0.13,0.104-0.182,0.182
		c0,0.052,0,0.104,0,0.156c0,0.104,0,0.234,0,0.365c0,0.052,0,0.104,0,0.156c0,0.156,0,0.339,0,0.525
		c-0.052,0.052-0.108,0.104-0.156,0.182c0,0.052,0,0.104,0,0.182c0.048,2.609,0.104,5.222,0.156,7.835c0,0.052,0,0.104,0,0.156
		c0,0.391,0,0.808,0,1.228c0,0.052,0,0.104,0,0.182c0.052,0.052,0.104,0.104,0.182,0.156c0,0.391,0,0.808,0,1.228
		c0.052,0.052,0.104,0.104,0.182,0.182c0.052,0.339,0.104,0.677,0.156,1.042c0,0.052,0,0.104,0,0.16c0,0.104,0,0.234,0,0.365
		c0,0.052,0,0.104,0,0.156c0.052,0.052,0.104,0.104,0.182,0.182c0.104,0.625,0.208,1.254,0.339,1.906c0,0.052,0,0.104,0,0.182
		c0.395,2.01,0.811,4.049,1.228,6.085c0,0.052,0,0.104,0,0.182c-0.078,0-0.13,0-0.182,0
		C49.657,277.695,42.604,277.635,35.659,277.583 M38.347,288.034c-0.052-0.048-0.104-0.104-0.156-0.153c-0.078,0-0.13,0-0.182,0
		l-1.225-5.226c0-0.078,0-0.13,0-0.182c-0.03-0.13-0.056-0.26-0.056-0.391c11.281-0.104,22.566-0.208,33.873-0.287l13.187-61.475
		c0-0.078,0-0.13,0-0.182c0.13-2.27-0.499-2.847-2.482-3.785l0.052-4.206c9.167-0.078,18.334-0.13,27.501-0.182l0.056,4.544
		l-1.779,0.677c-1.228,0.603-1.961,1.775-2.092,3.134l-0.182,0.863L90.42,288.034c-0.078,0-0.13,0-0.182,0
		C72.923,288.034,55.635,288.034,38.347,288.034z"/>
</g>
</svg>
