<?xml version="1.0" encoding="UTF-8"?>
<svg version="1.1" xmlns="http://www.w3.org/2000/svg" width="600" height="400" viewBox="0 0 100 100">
<path d="M0 0 C1.12085999 0.00007553 2.24171997 0.00015106 3.39654541 0.00022888 C4.60083191 0.00539017 5.80511841 0.01055145 7.04589844 0.01586914 C8.28321716 0.01728409 9.52053589 0.01869904 10.79534912 0.02015686 C14.07672285 0.0248043 17.35804717 0.03378192 20.6394043 0.04486084 C23.99104355 0.05511019 27.34268492 0.0595768 30.69433594 0.06469727 C37.26466775 0.07572514 43.83496655 0.09246243 50.40527344 0.11352539 C50.48185527 7.58416109 50.53409503 15.0546941 50.57006836 22.52563477 C50.5850782 25.06278262 50.6054924 27.59990488 50.6315918 30.13696289 C50.66831949 33.80109001 50.68507852 37.46487162 50.69824219 41.12915039 C50.71372604 42.24839905 50.7292099 43.36764771 50.74516296 44.52081299 C50.74860811 60.94453644 45.43746626 73.72674712 34.10449219 85.60180664 C22.74313551 96.17395185 10.02265742 99.77000551 -5.23535156 99.50415039 C-6.48354675 99.4984906 -7.73174194 99.49283081 -9.01776123 99.48699951 C-12.96049189 99.4648101 -16.9022758 99.41464463 -20.84472656 99.36352539 C-23.53610969 99.34115192 -26.22751816 99.32491582 -28.91894531 99.30883789 C-35.47785594 99.26500249 -42.03622358 99.19826653 -48.59472656 99.11352539 C-48.71972656 95.73852539 -48.71972656 95.73852539 -48.59472656 92.11352539 C-46.15024189 89.66904072 -45.50591419 89.85994204 -42.15185547 89.84228516 C-41.22974274 89.83209854 -40.30763 89.82191193 -39.35757446 89.81141663 C-37.85461319 89.80820656 -37.85461319 89.80820656 -36.32128906 89.80493164 C-34.19498459 89.7797415 -32.06868258 89.75434399 -29.94238281 89.72875977 C-26.5942466 89.70018705 -23.24615378 89.67617495 -19.89794922 89.65722656 C5.12357494 89.73958736 5.12357494 89.73958736 26.69433594 78.07446289 C36.04717702 68.16115193 39.65279468 57.16024797 39.81933594 43.80493164 C39.83870209 42.8382103 39.85806824 41.87148895 39.87802124 40.87547302 C39.93746534 37.80907826 39.98406113 34.74264524 40.03027344 31.67602539 C40.06848561 29.58811903 40.1075392 27.50022789 40.14746094 25.41235352 C40.24313782 20.31286877 40.32729798 15.21331028 40.40527344 10.11352539 C34.1974893 10.15796248 27.99069488 10.22809193 21.78344727 10.32104492 C19.67610594 10.34910196 17.56866237 10.37039165 15.46118164 10.38452148 C-0.75186819 10.49969825 -14.04575534 11.43654574 -26.53222656 22.89086914 C-32.03992926 28.69532306 -35.08558929 35.58611357 -37.59472656 43.11352539 C-35.94472656 43.44352539 -34.29472656 43.77352539 -32.59472656 44.11352539 C-32.55347656 43.32977539 -32.51222656 42.54602539 -32.46972656 41.73852539 C-30.24469276 32.52052819 -24.20423028 25.53279366 -16.59472656 20.11352539 C-11.19363495 17.12734493 -5.78481985 14.97979132 0.43945312 15 C1.61021393 15.0001133 1.61021393 15.0001133 2.80462646 15.00022888 C3.63705872 15.00539017 4.46949097 15.01055145 5.32714844 15.01586914 C6.1871344 15.01728409 7.04712036 15.01869904 7.9331665 15.02015686 C10.67390453 15.02574442 13.4145602 15.03829465 16.15527344 15.05102539 C18.01594934 15.056042 19.87662652 15.06060462 21.73730469 15.06469727 C26.29332589 15.07570978 30.84928571 15.09296588 35.40527344 15.11352539 C35.50504472 20.46625491 35.57716293 25.81842896 35.625 31.171875 C35.64496687 32.98837732 35.6721503 34.80481661 35.70703125 36.62109375 C35.96915812 50.63331697 35.33967011 62.27383598 25.40527344 73.11352539 C16.32292813 82.32409205 6.06439234 85.12334629 -6.70742798 85.3013916 C-10.39957439 85.31400143 -14.09036228 85.28082759 -17.78222656 85.23852539 C-19.32193424 85.22846936 -20.86164833 85.21934818 -22.40136719 85.21118164 C-26.13277906 85.1911095 -29.86328094 85.15192792 -33.59472656 85.11352539 C-33.59472656 74.88352539 -33.59472656 64.65352539 -33.59472656 54.11352539 C-38.54472656 54.11352539 -43.49472656 54.11352539 -48.59472656 54.11352539 C-49.15518954 39.54148796 -44.89160439 28.06153857 -35.40722656 16.86352539 C-26.36022811 7.300423 -13.39449257 -0.03016778 0 0 Z " fill="#403D46" transform="translate(48.5947265625,-0.113525390625)"/>
<path d="M0 0 C1.1707608 0.0001133 1.1707608 0.0001133 2.36517334 0.00022888 C3.19760559 0.00539017 4.03003784 0.01055145 4.88769531 0.01586914 C5.74768127 0.01728409 6.60766724 0.01869904 7.49371338 0.02015686 C10.2344514 0.02574442 12.97510707 0.03829465 15.71582031 0.05102539 C17.57649621 0.056042 19.4371734 0.06060462 21.29785156 0.06469727 C25.85387277 0.07570978 30.40983259 0.09296588 34.96582031 0.11352539 C35.0655916 5.46625491 35.13770981 10.81842896 35.18554688 16.171875 C35.20551375 17.98837732 35.23269718 19.80481661 35.26757812 21.62109375 C35.529705 35.63331697 34.90021698 47.27383598 24.96582031 58.11352539 C15.883475 67.32409205 5.62493922 70.12334629 -7.1468811 70.3013916 C-10.83902751 70.31400143 -14.5298154 70.28082759 -18.22167969 70.23852539 C-19.76138737 70.22846936 -21.30110145 70.21934818 -22.84082031 70.21118164 C-26.57223218 70.1911095 -30.30273406 70.15192792 -34.03417969 70.11352539 C-34.03417969 59.88352539 -34.03417969 49.65352539 -34.03417969 39.11352539 C-30.07417969 39.11352539 -26.11417969 39.11352539 -22.03417969 39.11352539 C-22.03417969 45.05352539 -22.03417969 50.99352539 -22.03417969 57.11352539 C-16.23161948 56.99380619 -10.42927025 56.8712362 -4.62695312 56.74121094 C-2.65205507 56.69783336 -0.67711882 56.65616039 1.29785156 56.61621094 C4.13260421 56.55857666 6.96716409 56.49486269 9.80175781 56.42993164 C10.68826019 56.41321915 11.57476257 56.39650665 12.48812866 56.37928772 C16.86507187 56.40267328 16.86507187 56.40267328 20.96582031 55.11352539 C21.29582031 52.47352539 21.62582031 49.83352539 21.96582031 47.11352539 C11.40582031 47.11352539 0.84582031 47.11352539 -10.03417969 47.11352539 C-10.03417969 44.47352539 -10.03417969 41.83352539 -10.03417969 39.11352539 C-9.28209229 39.08846924 -8.53000488 39.06341309 -7.75512695 39.03759766 C-4.36878773 38.92202026 -0.98275356 38.79912194 2.40332031 38.67602539 C3.58732422 38.63670898 4.77132812 38.59739258 5.99121094 38.55688477 C7.11591797 38.51499023 8.240625 38.4730957 9.39941406 38.42993164 C10.44154053 38.39327393 11.48366699 38.35661621 12.55737305 38.31884766 C14.91580291 38.37837198 14.91580291 38.37837198 15.96582031 37.11352539 C16.29582031 34.47352539 16.62582031 31.83352539 16.96582031 29.11352539 C8.05582031 29.11352539 -0.85417969 29.11352539 -10.03417969 29.11352539 C-10.03417969 26.80352539 -10.03417969 24.49352539 -10.03417969 22.11352539 C-9.13062744 22.08846924 -8.2270752 22.06341309 -7.29614258 22.03759766 C-3.95453688 21.94265222 -0.61311717 21.84340918 2.72827148 21.74121094 C4.17646271 21.69780909 5.62470685 21.65613795 7.07299805 21.61621094 C9.15071591 21.55863477 11.22816605 21.49490511 13.30566406 21.42993164 C14.55726318 21.39327393 15.8088623 21.35661621 17.09838867 21.31884766 C19.86212535 21.43548633 19.86212535 21.43548633 20.96582031 20.11352539 C21.29582031 17.80352539 21.62582031 15.49352539 21.96582031 13.11352539 C1.17582031 13.60852539 1.17582031 13.60852539 -20.03417969 14.11352539 C-20.36417969 19.39352539 -20.69417969 24.67352539 -21.03417969 30.11352539 C-24.99417969 30.11352539 -28.95417969 30.11352539 -33.03417969 30.11352539 C-32.65302764 21.34702823 -27.99803467 14.64115696 -21.72167969 8.73852539 C-15.52246095 3.55505702 -8.1912581 -0.02659499 0 0 Z " fill="#E5E312" transform="translate(49.0341796875,14.886474609375)"/>
</svg>
