<svg height="1600" viewBox="22 -15 44 44" width="2400" xmlns="http://www.w3.org/2000/svg">
	<path d="m232.374-.819-1.864-.188m-177.426.632h-5.061v6.15c0 1.213.05 1.213-3.546 1.213-3.666 0-3.653 0-3.653-1.213v-6.15h-4.987v20.496h4.987v-7.4c0-1.175-.012-1.175 3.653-1.175 3.596 0 3.546 0 3.546 1.175v7.4h5.061zm-8.607 24.083c-4.29 0-5.724 0-7.85-.588-.736-.257-2.054-.624-3.009-2.13-1.759-3.009-1.759-8.663-1.759-11.382s0-7.528 1.759-10.5c.955-1.543 2.273-1.911 3.009-2.167 2.125-.551 3.56-.551 7.85-.551 4.184 0 5.612 0 7.78.551.73.256 2.016.624 2.893 2.167 1.912 2.972 1.912 8.111 1.912 10.829 0 2.646 0 8.044-1.912 11.053-.877 1.506-2.163 1.874-2.893 2.13-2.168.588-3.596.588-7.78.588m-.074-38.554c-1.869 0-3.077.326-3.591.441.256 2.383.183 4.295 0 4.846-.46 1.351-2.508 2.164-4.127 2.164-.583 0-1.108-.105-1.486-.327-1.58-.956-1.213-3.858-1.213-5.769 0 0-2.313.57-3.743 1.102-1.158.438-2.894 1.287-2.894 1.287-.367 2.425 0 5.985 2.385 7.198-1.8 1.801-2.385 3.931-3.155 7.857a30.994 30.994 0 0 0 -.482 5.524v.146c.001.861.029 1.645.041 2.374.184 2.787.184 4.295.845 6.83.951 2.897 1.516 4.263 3.445 6.278 3.492 3.644 8.972 3.858 12.727 3.858.463 0 .901-.003 1.304-.004.559.002 1.186.012 1.862.012 3.762 0 9.037-.307 12.245-3.867 1.846-2.044 2.31-3.38 3.229-6.278.809-2.535.697-4.043.956-6.83.073-2.059.185-4.52-.515-8.043-.771-3.926-1.359-6.057-3.155-7.857 2.384-1.213 2.714-4.773 2.384-7.198 0 0-1.824-.904-3.045-1.359-1.329-.49-3.483-1.029-3.483-1.029 0 1.911.216 4.813-1.212 5.769-.388.222-.924.327-1.512.327-1.645 0-3.704-.813-4.137-2.164-.184-.551-.367-2.463 0-4.846-.518-.116-1.946-.442-3.673-.442z" fill="#003985"/>
</svg>