<?xml version="1.0" encoding="UTF-8" standalone="no"?>
<svg
   xmlns:dc="http://purl.org/dc/elements/1.1/"
   xmlns:cc="http://creativecommons.org/ns#"
   xmlns:rdf="http://www.w3.org/1999/02/22-rdf-syntax-ns#"
   xmlns:svg="http://www.w3.org/2000/svg"
   xmlns="http://www.w3.org/2000/svg"
   viewBox="188 340 418 418"
   height="400"
   width="600"
   xml:space="preserve"
   id="svg2"
   version="1.1">
<g transform="scale(1,1.4)">
   <metadata
     id="metadata8"><rdf:RDF><cc:Work
         rdf:about=""><dc:format>image/svg+xml</dc:format><dc:type
           rdf:resource="http://purl.org/dc/dcmitype/StillImage" /></cc:Work></rdf:RDF></metadata><defs
     id="defs6"><clipPath
       id="clipPath18"
       clipPathUnits="userSpaceOnUse"><path
         id="path16"
         d="M 0,595.276 H 595.276 V 0 H 0 Z" /></clipPath></defs><g
     transform="matrix(1.3333333,0,0,-1.3333333,0,793.70133)"
     id="g10"><g
       id="g12"><g
         clip-path="url(#clipPath18)"
         id="g14"><g
           transform="translate(83.646,262.2741)"
           id="g20"><path
             id="path22"
             style="fill:#1d1d1d;fill-opacity:1;fill-rule:nonzero;stroke:none"
             d="m 0,0 h -19.447 c -0.391,0 -0.708,0.317 -0.708,0.708 v 71.409 c 0,0.391 0.317,0.709 0.708,0.709 H 0 c 0.391,0 0.708,-0.318 0.708,-0.709 V 0.708 C 0.708,0.317 0.391,0 0,0" /></g><g
           transform="translate(155.0781,276.9801)"
           id="g24"><path
             id="path26"
             style="fill:#1d1d1d;fill-opacity:1;fill-rule:nonzero;stroke:none"
             d="m 0,0 36.138,57.072 c 0.413,0.652 1.132,1.048 1.904,1.048 h 19.331 c 1.111,0 1.791,-1.221 1.205,-2.165 L 20.679,-5.183 c -9.733,-15.701 -32.663,-15.443 -42.041,0.472 l -35.763,60.693 c -0.557,0.945 0.125,2.138 1.222,2.138 h 19.342 c 0.802,0 1.544,-0.427 1.948,-1.12 L -1.421,0.026 C -1.107,-0.512 -0.333,-0.526 0,0" /></g><g
           transform="translate(243.0322,281.2262)"
           id="g28"><path
             id="path30"
             style="fill:#1d1d1d;fill-opacity:1;fill-rule:nonzero;stroke:none"
             d="m 0,0 v 35.861 c 0,0.388 0.315,0.703 0.703,0.703 h 64.391 c 0.388,0 0.703,0.315 0.703,0.703 V 53.17 c 0,0.389 -0.315,0.704 -0.703,0.704 H 3.213 c -13.432,0 -24.421,-9.99 -24.421,-23.422 V 3.409 c 0,-12.383 10.038,-21.422 22.421,-21.422 h 63.881 c 0.388,0 0.703,0.315 0.703,0.703 v 15.904 c 0,0.388 -0.315,0.703 -0.703,0.703 H 0.703 C 0.315,-0.703 0,-0.388 0,0" /></g><g
           transform="translate(349.4355,281.2262)"
           id="g32"><path
             id="path34"
             style="fill:#1d1d1d;fill-opacity:1;fill-rule:nonzero;stroke:none"
             d="m 0,0 v 35.861 c 0,0.388 0.315,0.703 0.703,0.703 h 64.391 c 0.388,0 0.703,0.315 0.703,0.703 V 53.17 c 0,0.389 -0.315,0.704 -0.703,0.704 H 3.214 c -13.433,0 -24.422,-9.99 -24.422,-23.422 V 3.409 c 0,-12.383 10.038,-21.422 22.422,-21.422 h 63.88 c 0.388,0 0.703,0.315 0.703,0.703 v 15.904 c 0,0.388 -0.315,0.703 -0.703,0.703 H 0.703 C 0.315,-0.703 0,-0.388 0,0" /></g><g
           transform="translate(509.8662,280.5231)"
           id="g36"><path
             id="path38"
             style="fill:#1d1d1d;fill-opacity:1;fill-rule:nonzero;stroke:none"
             d="m 0,0 h -55.794 c -0.393,0 -0.71,0.318 -0.71,0.71 v 35.847 c 0,0.392 0.317,0.71 0.71,0.71 H 0 c 0.393,0 0.71,-0.318 0.71,-0.71 V 0.71 C 0.71,0.318 0.393,0 0,0 m -2.503,54.577 h -50.788 c -12.383,0 -24.422,-10.039 -24.422,-22.422 V 5.112 c 0,-12.383 12.039,-22.422 24.422,-22.422 h 50.788 c 12.383,0 24.422,10.039 24.422,22.422 v 27.043 c 0,12.383 -12.039,22.422 -24.422,22.422" /></g><g
           transform="translate(308.1201,291.0524)"
           id="g40"><path
             id="path42"
             style="fill:#005ba5;fill-opacity:1;fill-rule:nonzero;stroke:none"
             d="m 0,0 h -53.914 c -0.391,0 -0.709,0.317 -0.709,0.709 V 15.5 c 0,0.391 0.318,0.708 0.709,0.708 H 0 c 0.392,0 0.709,-0.317 0.709,-0.708 V 0.709 C 0.709,0.317 0.392,0 0,0" /></g></g></g></g>
           </g></svg>