<svg xmlns="http://www.w3.org/2000/svg" width="2400" height="1600" viewBox="76 -24 690 400">
<g transform="scale(1,1.4)">
<path d="M108.462 51.735s.417-1.468.597-1.789c.18-.332 1.184-3.721 6.03-4.09 0 0 2.442-.218 5.255.653 0 0-1.619 4.175-8.245 4.866-.001 0-2.606.389-3.637.36m648.829 188.222c-1.646 4.068-8.7 9.25-16.984 12.021-8.747 2.924-27.012 3-36.354-.104 0 0-1.969-2.141-8.541-4.071-15.28-4.495-20.221-7.629-27.976-14.853-5.48-5.102-11.514-11.502-17.362-17.534-2.604-2.688-8.938-9.032-20.071-10.963-11.615-2.007-40.123-4.185-50.621-7.896-7.063-2.508-15.434-7.27-25.94-22.986-5.037-7.545-8.853-9.742-16.124-14.381 0 0 5.549 4.383 8.466 9.704 4.212 7.726 6.229 13.284 8.529 17.391 2.317 4.138 4.999 7.822 9.183 11.182 5.188 4.166 8.54 5.084 14.4 6.267 5.604 1.137 24.738 1.98 41.155 2.623 16.141.625 23.043 5.624 28.089 9.857 4.639 3.918 12.033 15.111 17.222 19.691 6.938 6.098 7.119 6.183 15.176 11.238 4.07 2.555 7.659 4.229 10.964 5.416 7.394 4.344 4.336 11.928 4.336 11.928-2.12 6.042-9.75 8.207-18.659 6.947-13.464-1.19-25.052-12.42-34.841-20.477-5.387-4.441-7.291-6.657-17.677-13.872-15.801-10.961-52.931-10.053-52.931-10.053l-27.21-.171c-52.999.777-72.39-41.864-77.681-50.812-1.827-3.114-3.521-5.623-5.132-7.678-2.471-3.333-15.771-20.695-30.021-26.896 0 0 13.68 11.834 12.308 18.31-2.935-.038-6.268.151-10.245.265-53.395 1.563-64.491-1.392-72.926-3.077-8.446-1.695-22.599-5.898-36.354-12.232 0 0 1.534-13.159-3.929-24.094 0 0 44.072 15.564 79.137 11.153 0 0-56.595-2.765-91.898-30.9 0 0 8.711 29.737 1.827 42.224 0 0-9.277 22.674-56.852 7.545 0 0-21.88-8.511-38.893-8.511 0 0-12.809.53-14.341 7.205 0 0-.835 3.19 2.508 4.705 0 0 3.711 1.061 1.959 3.815-2.887 4.554-6.894 8.076-10.869 10.063-13.273-.653-12.289-11.55-12.289-11.55.237-3.863 1.487-6.561 2.67-9.221 8.34-18.66 37.651-21.368 37.651-21.368 31.186-3.114 63.877 4.374 63.877 4.374-23.385-5.577-31.337-9.667-38.022-15.243-9.004-7.517-17.419-32.775-17.419-32.775-3.588 12.383.853 24.899 3.854 31.327-4.432-7.072-10.746-13.045-16.379-17.562-14.4-11.542-35.305-15.271-35.305-15.271-6.041-1.033-8.436-7.29-8.436-7.29-7.745-14.258-16.511-14.93-16.511-14.93 4.316 5.917 3.862 14.012 3.862 14.012 0 14.921-19.189 19.873-19.189 19.873-14.354 14.267-16.843 13.963-19.646 14.172-2.803.199-4.875-2.708-4.875-2.708-.91-1.364.605-2.585.605-2.585 2.423-1.515 4.715-3.493 4.715-3.493 13.993-11.238 15.962-16.984 14.826-24.824-2.282-15.66-14.911-14.504-14.911-14.504-5.937 0-8.871 4.525-8.871 4.525-2.291 2.727-7.3 11.256-7.3 11.256-4.412 7.291-8.359 6.22-8.359 6.22-4.866.313-8.388-4.005-8.388-4.005-.19-.169-.332-.369-.492-.539-3.606-3.873-.502-8.549-.502-8.549 5.938-10.49 16.18-11.521 17.572-11.607 1.4-.085 6.125-.436 6.125-.436 11.567-.842 19.123-11.9 19.123-11.9-4.875-2.357-13.584-1.107-13.584-1.107-8.483.568-10.718 9.571-10.736 9.571-7.347 1.08-6.978-4.563-5.406-6.049 1.24-1.458 5.613-8.54 33.741-12.762 0 0 14.921-2.954 41.42-.047.975.104 1.921.957.672 2.433-3.333 3.911-13.756 12.582-30.476 8.388 0 0-.302 6.684 17.932 10.026 0 0 16.445 3.502 43.294 25.069 0 0-13.017-24.075-35.521-31.413 0 0-1.667-1.06-.152-2.584 0 0 10.65-9.544 29.443-8.54 0 0 62.144 3.191 97.079 39.649 0 0-1.211-6.078-6.532-14.892 0 0-1.07-1.051-.455-1.817 0 0 .455-1.525 6.533-.304 0 0 22.182 3.646 73.674 22.485 0 0 38.599 13.529 59.646 22.258 31.64 13.112 110.908 45.264 160.974 72.975 8.938 4.942 46.173 23.337 46.173 23.337 27.834 17.277 53.444 29.784 53.444 29.784 25.221 11.655 43.559 6.315 43.559 6.315 5.859-2.207 17.052-8.283 21.415-3.968 2.223 2.209 2.355 5.085 1.05 7.805zm6.276-9.781c-3.297-7.677-13.909-5.794-13.909-5.794-4.854.294-10.979 5.376-19.492 7.127-18.31 3.778-32.312-2.45-32.312-2.45-26.98-12.08-45.244-25.24-57.126-32.038-11.88-6.797-55.856-29.898-99.842-52.004 0 0-50.386-25.827-124.933-56.644 0 0-143.829-65.259-247.278-65.259 0 0-53.585-.673-71.733 19.948 0 0-3.2 2.651-1.639 5.917 0 0 .218.9-.454 1.477 0 0-7.981 5.245-14.477 12.771 0 0-3.482 3.56-.682 8.871 0 0 3.465 6.04 5.653 8.635 2.206 2.584 6.617 7.11 13.357 6.438 2.982-.303 3.067-1.05 3.067-1.05 3.096 3.124 8.502 3.313 8.502 3.313-.54-1.921-2.604-5.728-2.784-7.943-.199-2.48.766-4.781.766-4.781 1.127-2.727 3.239-6.107 5.389-7.792 1.912-1.496 6.654-3.048 10.195-.568 2.842 1.989 5.86 8.36 2.453 16.748 0 0-3.834 6.627-7.375 7.365l-.983.047c-2.027-.038-6.542-2.527-6.542-2.527s-.189.54.312 2.822c.293 1.296.71 2.736 1.061 3.843l-.938.757s-2.85 2.292-1.59 5.596c0 0 2.774 10.433 10.518 10.433 6.846.228 12.544-6.267 12.544-6.267 14.685-15.839 35.38-17.969 35.38-17.969 22.938-1.563 55.717 21.926 64.644 28.705-33.969-.369-47.678 12.667-47.678 12.667-19.133 14.893-11.684 32.862-11.684 32.862 1.393 3.909 5.312 6.759 7.812 7.857 3.605 1.571 6.57 1.637 9.363 1.325 2.017-.218 4.23-.966 5.357-1.742 2.604-1.535 7.252-4.573 9.496-7.802 1.497-1.619 3.001-5.585 2.007-9.363 0 0-.604-3.039 2.131-3.655 0 0 9.002-2.281 27.181 5.748 0 0 19.749 11.512 45.367 13.794 0 0 29.132 2.954 36.167-12.819 0 0 16.737 6.845 41.23 9.648 0 0 23.866 2.47 62.58-.445 7.619-.578 16.566.057 16.566.057 12.393 1.486 20.27 7.934 23.375 12.98 12.688 20.6 27.825 61.017 89.809 59.418l28.052-.77c17.052 0 30.938.143 44.572 7.432 5.954 3.191 21.682 18.801 31.365 24.074 28.677 19.325 45.244 10.341 45.244 10.341 9.761-5.689 8.994-15.812 6.617-21.48-2.935-.931 35.531 5.64 51.931-15.896 3.88-4.801 4.56-9.202 3.388-11.958z" fill="#241f20"/>
</g>
</svg>