<svg height="1600" width="2400" xmlns="http://www.w3.org/2000/svg" viewBox="9 -5 37 37">
<g transform="scale(1,1.4)">
<path clip-rule="evenodd" d="M0 11.19v7.09h16.197v-8.099h3.159c2.016 0 5.376.336 8.435 1.009 3.562.772 6.721 2.049 6.721 3.864 0 1.512-2.352 3.226-2.419 3.226h23.153s-.571-2.554-1.781-4.234c-.773-1.108-1.747-2.083-3.226-2.855-1.277-.673-2.924-1.21-5.175-1.58v-.37c1.042 0 3.831-1.008 6.25-2.621C54.573 4.435 55.178.37 55.178.37H32.26s1.916 1.58 1.916 3.024c0 3.024-10.82 5.309-14.752 5.309h-3.226V.37H0z" fill="red" fill-rule="evenodd"/>
</g></svg>