<?xml version="1.0" encoding="UTF-8" standalone="no"?>
<!-- Created with Inkscape (http://www.inkscape.org/) -->

<svg
   version="1.1"
   id="svg2"
   width="600"
   height="400"
   viewBox="800 140 1150 1150"
   sodipodi:docname="marcopolo-seeklogo.eps"
   xmlns:inkscape="http://www.inkscape.org/namespaces/inkscape"
   xmlns:sodipodi="http://sodipodi.sourceforge.net/DTD/sodipodi-0.dtd"
   xmlns="http://www.w3.org/2000/svg"
   xmlns:svg="http://www.w3.org/2000/svg">
  <defs
     id="defs6" />
  <sodipodi:namedview
     id="namedview4"
     pagecolor="transparent"
     bordercolor="#000000"
     borderopacity="0.25"
     inkscape:showpageshadow="2"
     inkscape:pageopacity="0.0"
     inkscape:pagecheckerboard="0"
     inkscape:deskcolor="#d1d1d1" />
  <g
     id="g8"
     inkscape:groupmode="layer"
     inkscape:label="ink_ext_XXXXXX"
     transform="matrix(1.3333333,0,0,-1.3333333,0,2105.3333)">
    <g
       id="g10"
       transform="scale(0.1)">
      <path
         d="M 0.695313,15783.9 H 20015.2 V 5.33984 H 0.695313 V 15783.9"
         style="fill:transparent;fill-opacity:1;fill-rule:evenodd;stroke:none"
         id="path12" />
      
      <path
         d="m 10123.1,14668.7 c 2338.7,0 4235.6,-1896.9 4235.6,-4235.6 0,-2338.76 -1896.9,-4235.67 -4235.6,-4235.67 -2338.76,0 -4235.67,1896.91 -4235.67,4235.67 0,2338.7 1896.91,4235.6 4235.67,4235.6"
         style="fill:#ffffff;fill-opacity:1;fill-rule:evenodd;stroke:none"
         id="path16" />
      <path
         d="m 10123.1,12256.6 c 1006.8,0 1823.5,-816.7 1823.5,-1823.5 0,-1006.9 -816.7,-1823.57 -1823.5,-1823.57 -1006.91,0 -1823.58,816.67 -1823.58,1823.57 0,1006.8 816.67,1823.5 1823.58,1823.5"
         style="fill:#f47216;fill-opacity:1;fill-rule:evenodd;stroke:none"
         id="path18" />
      <path
         d="m 6322.98,12304.9 c 438.56,-104.4 841.22,-365.8 1115.72,-767.1 585.98,-856.6 366.55,-2026.8 -490.24,-2612.87 -206.89,-141.55 -432.09,-235.94 -662.91,-285.87 -255.24,544.84 -398.12,1152.74 -398.12,1794.04 0,672 156.85,1307.3 435.55,1871.8 z m 4046.12,2356.5 c 1323.1,-75.8 2483.8,-759.1 3207.1,-1775.5 -300.3,-336 -721.6,-565.7 -1205,-616.4 -1032.2,-108.3 -1957.3,641.1 -2065.6,1673.4 -26.1,249.1 -2.2,491.9 63.5,718.5 z m 3562.2,-2372.8 c 273.6,-560.5 427.4,-1190 427.4,-1855.5 0,-647.78 -145.7,-1261.53 -405.9,-1810.59 -440.2,97.33 -847,352.29 -1127.9,749.13 -599.7,847.06 -399.1,2020.66 448.1,2620.36 204.6,144.9 428.3,242.9 658.3,296.6 z m -332.5,-4275.85 c -714.4,-1023.92 -1869.6,-1717.53 -3190.3,-1805.52 -129.3,431.65 -104.9,910.87 104.6,1349.35 447.4,936.5 1569.9,1333.34 2506.5,885.87 226,-107.94 420.4,-255.25 579.2,-429.7 z M 9846.09,6206.7 c -1321.18,85.39 -2477.61,776.69 -3193.96,1799.06 302.78,333.72 725.76,560.34 1209.42,607.48 1032.96,100.68 1952.59,-655.46 2053.27,-1688.63 24.31,-249.23 -1.42,-491.8 -68.73,-717.91 z M 6660.8,12872.9 c 719.77,1019.3 1878.33,1706.8 3200.45,1787.5 126.91,-432.3 99.82,-911.4 -112.08,-1348.6 -452.62,-934.1 -1577.36,-1324.6 -2511.43,-872 -225.4,109.3 -419.05,257.7 -576.94,433.1"
         style="fill:#000000;fill-opacity:1;fill-rule:evenodd;stroke:none"
         id="path20" />
    </g>
  </g>
</svg>
