<?xml version="1.0" encoding="UTF-8" standalone="no"?>
<!-- Created with Inkscape (http://www.inkscape.org/) -->

<svg
   version="1.1"
   id="svg2"
   width="2669.3333"
   height="2105.3333"
   viewBox="0 0 2669.3333 2105.3333"
   sodipodi:docname="marcopolo-seeklogo.eps"
   xmlns:inkscape="http://www.inkscape.org/namespaces/inkscape"
   xmlns:sodipodi="http://sodipodi.sourceforge.net/DTD/sodipodi-0.dtd"
   xmlns="http://www.w3.org/2000/svg"
   xmlns:svg="http://www.w3.org/2000/svg">
  <defs
     id="defs6" />
  <sodipodi:namedview
     id="namedview4"
     pagecolor="transparent"
     bordercolor="#000000"
     borderopacity="0.25"
     inkscape:showpageshadow="2"
     inkscape:pageopacity="0.0"
     inkscape:pagecheckerboard="0"
     inkscape:deskcolor="#d1d1d1" />
  <g
     id="g8"
     inkscape:groupmode="layer"
     inkscape:label="ink_ext_XXXXXX"
     transform="matrix(1.3333333,0,0,-1.3333333,0,2105.3333)">
    <g
       id="g10"
       transform="scale(0.1)">
      <path
         d="M 0.695313,15783.9 H 20015.2 V 5.33984 H 0.695313 V 15783.9"
         style="fill:transparent;fill-opacity:1;fill-rule:evenodd;stroke:none"
         id="path12" />
      <path
         d="m 7246.91,4057.24 c 19.9,24.14 40.19,47.93 60.91,71.27 56.34,63.5 117.61,125.99 184.4,178.57 102.46,80.65 222.19,140.78 355.16,140.78 62.01,0 122.1,-14.8 178.71,-39.95 64.8,-29.14 125.82,-72 180.25,-117.33 l 31.2,-25.99 -336.82,-666.08 -49.85,52.04 c -34.6,36.1 -75.8,72.86 -120.81,95.41 l -0.27,0.14 c -35.35,17.98 -72.61,27.8 -112.31,27.8 -113.49,0 -214.44,-67.26 -294.22,-142.31 -118.71,-111.09 -205.85,-257.23 -271.49,-404.83 l -207.4,-882.64 h -677.92 l 486.98,2072.52 h 677.92 z m 2236.21,-1619.2 c -97.77,-44.14 -199.64,-77.71 -304.71,-99.26 -107.53,-22.19 -217.34,-32.27 -327.08,-32.27 -280.48,0 -566.12,66.01 -749.08,294.44 -182.02,227.25 -184.43,517.29 -120.51,789.32 73.12,311.18 227.35,574.89 476.1,776.6 247.42,200.01 535.05,293.76 852.77,293.76 99.32,0 198.79,-10.25 295.47,-33.32 l 0.31,-0.07 c 94.07,-23.08 184.47,-56.84 270.49,-101.49 l 35.24,-18.29 -137.44,-584.92 -57.49,28.19 c -74.9,36.73 -153.77,69.59 -234.31,91.69 -65.03,17.85 -132.72,29.4 -200.29,29.4 -144.03,0 -273.86,-39.84 -384.66,-132.87 -115.39,-96.32 -180.97,-227.31 -214.97,-372.02 -27.26,-116.03 -39.24,-258.88 37.16,-359.88 75.84,-100.35 211.45,-122.37 329.44,-122.37 77.32,0 154.54,12.01 229.49,31.11 94.16,23.46 186.73,57.75 275.81,96.02 l 92.95,39.93 -141.77,-603.35 z m 355.96,952.23 c 72.08,306.8 225.12,566.92 467.92,768.39 237.8,197.39 510.9,297.72 820,297.72 275.3,0 528.8,-80.2 697.3,-307.43 169.6,-230.7 176.9,-511.81 113.4,-782.02 -71.9,-306.17 -225.8,-563.57 -468.3,-764.2 -238.6,-196.89 -514.1,-296.22 -823.5,-296.22 -273.7,0 -526.8,78.4 -694.67,304.51 -169.57,229.52 -175.33,510.36 -112.15,779.25 z m 701.12,-391.49 c 44.9,-88.02 118.4,-122.62 215.5,-122.62 117.9,0 214.8,51.79 295.8,134.93 101.3,104.61 159.9,238.9 192.8,379.18 27.5,116.62 42.3,258.91 -13.4,369.96 -44.2,88.45 -116.7,124.36 -214.2,124.36 -117.6,0 -214.2,-54.3 -295,-137.1 -102.2,-105.19 -161.9,-239.17 -195.1,-380.56 -27.2,-115.61 -42.7,-258.29 13.6,-368.15 z m 2472.6,1321.14 c 57.5,35.01 117.9,65.18 181,88 100.3,36.25 204.5,52.71 311,52.71 252.3,0 464.2,-90.13 596.2,-310.79 141.7,-236.96 130.7,-522.98 69.6,-782.91 -69.4,-295.44 -204.7,-559.3 -427.9,-767.17 -203.1,-189.08 -442.3,-297.51 -721,-297.51 -96.2,0 -192.9,13.08 -282.5,49.09 -54.2,21.78 -103.4,51.43 -147.3,88.22 l -249.5,-1061.88 h -674 l 714.1,3038.96 h 653 z m -106.7,-543.03 -187.1,-796.22 c 28.1,-25.32 59.6,-46.07 94.7,-61.07 42.4,-18.08 86.9,-27.11 132.9,-27.11 127.7,0 237,43.77 330.2,130.98 106,99.19 166.5,230.73 199.3,370.35 27.1,115.42 39.5,253.88 -21.1,361.52 -50.8,91.26 -133.1,125 -235.3,125 -53.8,0 -106.5,-10.26 -157.4,-27.74 l -0.4,-0.16 c -54.8,-18.25 -106.9,-44.78 -155.8,-75.55 z m 1368.6,-386.62 c 72.1,306.8 225.1,566.92 467.9,768.39 237.8,197.39 510.9,297.72 820.1,297.72 275.2,0 528.7,-80.2 697.3,-307.43 169.5,-230.7 176.8,-511.81 113.4,-782.02 -72,-306.17 -225.9,-563.57 -468.3,-764.2 -238.7,-196.89 -514.2,-296.22 -823.6,-296.22 -273.7,0 -526.8,78.4 -694.6,304.51 -169.6,229.52 -175.4,510.36 -112.2,779.25 z m 701.1,-391.49 c 44.9,-88.02 118.4,-122.62 215.6,-122.62 117.9,0 214.7,51.79 295.7,134.93 101.3,104.61 159.9,238.9 192.9,379.18 27.4,116.62 42.2,258.91 -13.5,369.96 -44.2,88.45 -116.7,124.36 -214.2,124.36 -117.5,0 -214.1,-54.3 -295,-137.1 -102.2,-105.19 -161.9,-239.17 -195.1,-380.56 -27.2,-115.61 -42.6,-258.29 13.6,-368.15 z m 2062.7,2355.92 h 677.9 l -602.1,-2562.61 c -11.6,-133.04 72.4,-159.82 206.4,-134.24 -7.8,-106.22 -15.5,-212.42 -23.2,-318.64 -220.3,-50.85 -440.2,-63.03 -659.7,-43.15 -265.5,33.36 -271.9,216.15 -185.6,564.25 z m 416.4,-1964.43 c 72.1,306.8 225.1,566.92 467.9,768.39 237.8,197.39 510.9,297.72 820,297.72 275.3,0 528.8,-80.2 697.3,-307.43 169.6,-230.7 176.9,-511.81 113.4,-782.02 -71.9,-306.17 -225.8,-563.57 -468.3,-764.2 -238.6,-196.89 -514.1,-296.22 -823.5,-296.22 -273.7,0 -526.8,78.4 -694.7,304.51 -169.5,229.52 -175.3,510.36 -112.1,779.25 z m 701.1,-391.49 c 44.9,-88.02 118.4,-122.62 215.5,-122.62 118,0 214.8,51.79 295.8,134.93 101.3,104.61 159.9,238.9 192.9,379.18 27.4,116.62 42.2,258.91 -13.5,369.96 -44.2,88.45 -116.7,124.36 -214.2,124.36 -117.6,0 -214.1,-54.3 -295,-137.1 -102.2,-105.19 -161.9,-239.17 -195.1,-380.56 -27.2,-115.61 -42.7,-258.29 13.6,-368.15 z M 2690.48,4010.87 3681.39,5019.19 h 608.4 L 3655.02,2344.12 h -685.81 l 321.21,1353.66 c 21.79,91.84 11.51,121.25 -64.16,45.08 l -494.35,-497.67 c -235.46,-237.03 -283.16,-266.32 -440.67,41.36 l -225.04,439.6 c -51.14,99.91 -78.02,86.63 -102.63,-17.03 l -323.89,-1365 H 950.344 l 634.766,2675.07 h 595.85 z M 5139.91,2547.7 c -80.4,-64.57 -167.86,-120.56 -262.33,-161.97 -117.71,-51.32 -240.91,-78.46 -369.31,-78.46 -161.76,0 -313.99,46.38 -406.28,186.6 -94.9,143.03 -82.64,318.04 -36.48,475.91 68.05,232.72 207.42,410.72 415.6,534.86 235.68,139.91 516.72,184.3 787.2,184.3 h 170.98 l 8.83,30.19 c 19.52,66.76 31.08,151.6 -20.01,207.6 -55.86,60.43 -165.49,69.95 -242.3,69.95 -94.18,0 -187.42,-17.23 -277.11,-45.35 -100.84,-31.62 -195.9,-77.26 -285.07,-133.83 l -75.09,-47.66 123.44,552.5 19.94,6.52 c 129.96,42.49 262.92,78.94 397.36,104.28 116.78,21.9 235.81,35.43 354.72,35.43 199.03,0 498.65,-24 622.23,-207.03 56.24,-83.93 67.58,-194.9 64.41,-293.38 -4.73,-147.18 -41.36,-302.84 -82.53,-443.68 l -215.72,-737.75 c -21.73,-74.33 -42.43,-149.3 -59.89,-224.75 -13.7,-59.3 -25.83,-119.28 -33.95,-179.61 l -4.3,-31.93 H 5099.64 Z M 5324,3294.66 c -9.32,0.66 -18.64,1.22 -27.97,1.68 -32.42,1.63 -65.09,1.89 -97.55,1.89 -110.71,0 -229.93,-16.95 -325.9,-75.75 -82.15,-50.34 -134.92,-122.38 -161.93,-214.74 -14.98,-51.22 -24.83,-116.8 8.08,-163.47 32.91,-45.45 92,-55.45 144.63,-55.45 101.87,0 190.97,30.67 264.57,101.76 88.24,85.24 141.91,218.81 175.69,334.35 l 20.38,69.73"
         style="fill:#000000;fill-opacity:1;fill-rule:evenodd;stroke:none"
         id="path14" />
      <path
         d="m 10123.1,14668.7 c 2338.7,0 4235.6,-1896.9 4235.6,-4235.6 0,-2338.76 -1896.9,-4235.67 -4235.6,-4235.67 -2338.76,0 -4235.67,1896.91 -4235.67,4235.67 0,2338.7 1896.91,4235.6 4235.67,4235.6"
         style="fill:#ffffff;fill-opacity:1;fill-rule:evenodd;stroke:none"
         id="path16" />
      <path
         d="m 10123.1,12256.6 c 1006.8,0 1823.5,-816.7 1823.5,-1823.5 0,-1006.9 -816.7,-1823.57 -1823.5,-1823.57 -1006.91,0 -1823.58,816.67 -1823.58,1823.57 0,1006.8 816.67,1823.5 1823.58,1823.5"
         style="fill:#f47216;fill-opacity:1;fill-rule:evenodd;stroke:none"
         id="path18" />
      <path
         d="m 6322.98,12304.9 c 438.56,-104.4 841.22,-365.8 1115.72,-767.1 585.98,-856.6 366.55,-2026.8 -490.24,-2612.87 -206.89,-141.55 -432.09,-235.94 -662.91,-285.87 -255.24,544.84 -398.12,1152.74 -398.12,1794.04 0,672 156.85,1307.3 435.55,1871.8 z m 4046.12,2356.5 c 1323.1,-75.8 2483.8,-759.1 3207.1,-1775.5 -300.3,-336 -721.6,-565.7 -1205,-616.4 -1032.2,-108.3 -1957.3,641.1 -2065.6,1673.4 -26.1,249.1 -2.2,491.9 63.5,718.5 z m 3562.2,-2372.8 c 273.6,-560.5 427.4,-1190 427.4,-1855.5 0,-647.78 -145.7,-1261.53 -405.9,-1810.59 -440.2,97.33 -847,352.29 -1127.9,749.13 -599.7,847.06 -399.1,2020.66 448.1,2620.36 204.6,144.9 428.3,242.9 658.3,296.6 z m -332.5,-4275.85 c -714.4,-1023.92 -1869.6,-1717.53 -3190.3,-1805.52 -129.3,431.65 -104.9,910.87 104.6,1349.35 447.4,936.5 1569.9,1333.34 2506.5,885.87 226,-107.94 420.4,-255.25 579.2,-429.7 z M 9846.09,6206.7 c -1321.18,85.39 -2477.61,776.69 -3193.96,1799.06 302.78,333.72 725.76,560.34 1209.42,607.48 1032.96,100.68 1952.59,-655.46 2053.27,-1688.63 24.31,-249.23 -1.42,-491.8 -68.73,-717.91 z M 6660.8,12872.9 c 719.77,1019.3 1878.33,1706.8 3200.45,1787.5 126.91,-432.3 99.82,-911.4 -112.08,-1348.6 -452.62,-934.1 -1577.36,-1324.6 -2511.43,-872 -225.4,109.3 -419.05,257.7 -576.94,433.1"
         style="fill:#000000;fill-opacity:1;fill-rule:evenodd;stroke:none"
         id="path20" />
    </g>
  </g>
</svg>
