<svg height="400" viewBox="1188 -20 180 180" width="600" xmlns="http://www.w3.org/2000/svg"><g transform="scale(1,1)"><path d="m1328.97 3.23c11.88-2.06 23.97-2.41 36.01-2.58 12.02-.06 24.52 1.23 35.23 7.14 9.84 4.04 15.24 16.03 11.64 26.07-4.68 15.5-15.81 27.85-27.12 38.96-28.61 29.45-64.07 50.7-98.15 73.07 5.71-8.33 10.36-17.38 13.89-26.84 2.73-7.44 5.32-15.08 5.64-23.07.43-8.22-1.33-16.96-6.61-23.48-5.35-6-12.88-9.59-20.53-11.67-11.05-3.08-22.6-3.42-34-3.39-25.91.2-51.58 4.44-76.9 9.63-8.89 1.61-17.64 4.32-26.71 4.68 7.71-2.55 14.51-7.04 21.75-10.59 34.1-17.29 69.4-32.34 105.94-43.68 19.58-6.26 39.67-10.77 59.92-14.25z" fill="#ee2629"/></g></svg>