<?xml version="1.0" standalone="no"?>
<!DOCTYPE svg PUBLIC "-//W3C//DTD SVG 20010904//EN"
 "http://www.w3.org/TR/2001/REC-SVG-20010904/DTD/svg10.dtd">
<svg version="1.0" xmlns="http://www.w3.org/2000/svg"
 width="300" height="200" viewBox="460 65 1000 950"
 preserveAspectRatio="xMidYMid meet">

<g transform="translate(0.000000,1080.000000) scale(0.100000,-0.100000)"

     fill="#000000" stroke="none">
    <circle cx="9600" cy="5400" r="4700" fill="#faeb00"/>


<path d="M8750 9929 c-257 -52 -389 -86 -600 -155 -206 -68 -372 -135 -367
-148 21 -49 337 -809 473 -1135 137 -327 174 -407 194 -419 14 -7 58 -31 98
-53 l73 -40 -50 -52 c-28 -29 -51 -57 -51 -64 0 -17 22 -63 30 -63 3 0 44 41
90 91 l83 91 156 -3 c86 -1 197 -6 246 -11 154 -14 408 -57 422 -72 7 -6 2
-59 -32 -376 -12 -114 -35 -332 -50 -470 -2 -19 -9 -91 -16 -160 -7 -69 -15
-129 -19 -133 -13 -15 -286 29 -440 69 -330 88 -610 230 -863 438 -26 21 -47
43 -47 48 0 5 11 19 23 31 13 12 106 106 207 210 l184 187 -18 37 -17 36 -230
-229 -229 -229 -61 60 c-65 64 -304 324 -405 440 -87 100 -216 272 -300 400
-71 109 -170 284 -163 289 2 1 16 12 31 23 l28 21 122 -35 c262 -74 595 -198
890 -333 84 -39 156 -70 160 -70 4 0 -6 26 -21 58 -16 31 -65 136 -109 232
-106 234 -110 242 -189 415 -38 83 -127 277 -198 432 -81 176 -135 283 -144
283 -18 0 -264 -129 -401 -210 -256 -152 -506 -335 -710 -521 -169 -153 -213
-196 -209 -207 2 -5 51 -60 109 -122 58 -61 106 -115 108 -119 1 -4 -10 -6
-26 -3 -21 3 -59 33 -128 103 -54 54 -103 99 -109 98 -11 -1 -159 -163 -242
-264 -223 -273 -444 -617 -585 -911 -32 -67 -58 -125 -58 -129 0 -3 141 -75
313 -159 171 -85 528 -260 792 -391 264 -130 513 -252 553 -271 l72 -34 -16
-25 c-9 -14 -23 -25 -31 -25 -19 0 -944 405 -1358 595 -248 114 -366 165 -380
165 -13 0 -64 -132 -126 -322 -90 -275 -151 -546 -189 -845 -21 -164 -43 -538
-38 -643 l3 -64 35 -7 c19 -4 134 -12 255 -19 121 -6 321 -17 445 -25 124 -8
279 -16 345 -20 66 -3 188 -11 270 -17 l150 -12 -85 -8 c-47 -4 -188 -14 -315
-23 -126 -8 -255 -17 -285 -20 -30 -2 -98 -7 -150 -10 -103 -6 -282 -19 -507
-36 l-143 -12 0 -36 c0 -32 15 -176 24 -241 3 -14 7 -47 11 -75 25 -198 108
-537 196 -799 54 -160 212 -540 244 -582 11 -15 42 -4 316 118 167 75 615 273
994 442 380 169 740 330 802 358 61 28 118 48 126 45 8 -3 17 -14 19 -25 5
-17 -20 -32 -181 -110 -102 -50 -339 -166 -526 -258 -187 -91 -466 -228 -620
-303 -678 -331 -845 -415 -845 -423 0 -13 123 -218 193 -323 91 -136 138 -197
145 -190 4 4 7 23 7 43 l0 37 110 0 110 0 3 -107 3 -108 -66 0 c-36 0 -65 -3
-65 -6 0 -9 122 -154 129 -154 4 0 6 35 6 78 l0 77 115 0 115 0 3 -107 3 -108
-91 0 c-59 0 -90 -4 -88 -10 4 -13 269 -280 278 -280 3 0 70 66 150 146 l145
146 -82 -4 c-46 -3 -84 -1 -85 4 -2 4 -2 55 0 113 l3 105 115 0 114 0 0 -75
c0 -41 2 -75 4 -75 6 0 146 138 146 144 0 3 -34 6 -75 6 l-76 0 3 108 3 107
115 0 115 0 -3 -69 c-2 -41 1 -67 7 -65 10 4 185 175 675 657 283 279 310 303
323 286 24 -33 49 -3 -296 -364 -113 -118 -255 -266 -315 -327 -61 -62 -106
-114 -100 -114 5 -1 45 -2 89 -3 l80 -1 3 -107 3 -108 -116 0 -115 0 0 83 -1
82 -77 -80 -77 -80 78 -3 77 -3 0 -109 0 -110 -27 0 c-16 -1 -66 -2 -113 -3
l-85 -2 -3 68 c-2 37 -6 67 -10 67 -7 0 -485 -497 -490 -509 -9 -23 487 -390
633 -468 20 -11 20 -8 18 333 -1 256 2 344 10 344 7 0 219 0 472 0 l460 0 93
185 c50 102 92 189 92 195 0 5 -27 10 -61 12 l-61 3 0 105 0 105 113 0 113 0
6 -30 c4 -16 12 -40 18 -52 12 -21 -3 -70 -43 -144 -8 -15 -38 -80 -66 -145
-29 -66 -67 -155 -87 -199 l-35 -80 2 -197 c2 -164 0 -201 -14 -227 -25 -49
-69 -71 -145 -71 l-65 0 -98 -223 c-53 -122 -97 -225 -97 -229 0 -6 150 -68
164 -68 3 0 5 44 4 98 l-1 97 112 3 111 3 0 -111 0 -110 -72 0 c-81 0 -81 -10
1 -34 69 -20 69 -20 73 6 3 22 6 23 118 23 l115 0 3 -62 c2 -35 6 -63 11 -63
4 0 50 -9 101 -20 51 -11 100 -20 107 -20 10 0 13 21 13 84 l0 85 108 -3 c59
-2 110 -4 115 -5 4 0 7 -48 7 -105 l0 -103 59 -7 c184 -21 367 -36 444 -36
l87 0 0 78 c0 42 3 100 6 129 l7 52 -69 3 -69 3 0 105 0 105 73 3 72 3 0 85 0
85 -37 -3 -38 -3 -2 348 -2 347 260 -2 261 -3 51 -87 c29 -48 54 -87 57 -87 3
-1 29 40 59 89 l54 90 243 0 244 0 0 -348 0 -348 -172 1 -173 1 0 122 c0 67
-4 121 -8 119 -5 -1 -37 -57 -71 -122 l-61 -120 -114 0 -114 -1 -59 123 c-33
68 -63 123 -68 123 -6 0 -9 -51 -7 -123 l2 -122 -89 1 -89 1 5 -189 c3 -104 8
-192 12 -195 4 -4 44 -7 89 -7 l82 -1 3 -107 3 -108 -86 0 c-78 0 -85 -2 -85
-20 0 -17 7 -20 47 -20 87 0 378 22 398 31 16 6 14 8 -13 8 l-33 1 3 107 3
107 113 3 112 3 0 -106 c0 -81 3 -105 13 -101 6 2 58 12 114 22 l102 18 3 81
3 81 115 0 115 0 0 -47 c0 -25 2 -49 5 -52 3 -2 55 10 115 28 75 23 111 39
113 50 4 17 15 20 72 18 19 -1 62 9 95 21 l60 22 5 90 c5 88 6 90 31 95 l27 5
-63 145 c-35 79 -67 146 -72 147 -4 1 -22 -28 -39 -65 l-30 -67 -172 -1 c-95
-1 -172 1 -172 3 0 2 57 116 126 255 l126 251 -43 101 c-23 56 -55 128 -69
161 -15 33 -30 68 -33 77 -4 11 -19 18 -44 20 l-38 3 -5 95 c-3 52 -9 101 -13
107 -6 9 -40 13 -113 13 l-104 0 0 -110 0 -110 -115 0 -115 0 0 110 0 110 115
0 c63 0 116 3 116 8 1 4 3 52 5 106 l3 100 113 0 113 1 -3 -36 c-2 -22 8 -64
24 -107 l28 -71 91 -3 90 -3 2 -108 3 -107 -28 0 c-16 0 -31 -3 -35 -6 -3 -3
20 -56 50 -117 49 -98 57 -110 67 -93 20 35 47 58 63 52 8 -3 122 -6 254 -6
l239 0 94 -192 c51 -106 126 -260 166 -343 40 -82 74 -152 76 -153 4 -6 186
113 324 212 145 103 330 253 330 266 0 6 -64 76 -141 157 -217 227 -212 223
-258 223 -42 0 -52 11 -44 51 4 20 -7 39 -47 87 -62 74 -75 82 -134 82 l-46 0
0 57 0 56 -123 126 c-114 117 -445 461 -635 661 -80 85 -80 85 -65 114 l15 28
126 -123 c70 -68 258 -253 417 -411 l291 -287 97 -3 97 -3 4 -93 c3 -52 10
-99 16 -107 10 -11 38 -15 116 -15 l104 0 0 -97 c1 -63 5 -103 13 -113 7 -8
79 -80 159 -159 l147 -144 123 124 c68 69 153 158 190 200 63 71 67 78 70 129
l3 55 43 -1 c43 -1 43 -1 111 90 75 102 71 96 182 261 86 127 193 304 187 309
-1 2 -84 43 -183 91 -99 48 -299 146 -445 218 -146 71 -341 167 -435 212 -93
46 -372 183 -620 305 -247 122 -460 226 -472 231 -27 10 -28 18 -9 45 17 23
-33 42 456 -176 212 -95 486 -217 610 -272 235 -104 446 -199 615 -275 190
-86 547 -243 554 -243 7 0 61 111 124 255 82 189 179 469 226 655 12 47 26
101 31 120 30 112 81 425 95 575 3 39 8 86 11 106 l5 36 -78 7 c-43 3 -143 11
-223 16 -80 5 -206 14 -280 20 -74 5 -173 12 -220 15 -118 8 -476 33 -588 41
-51 4 -91 8 -90 9 5 4 274 24 408 30 69 3 231 12 360 20 129 8 316 19 415 25
99 6 209 13 244 16 l64 6 -6 236 c-12 467 -70 831 -202 1267 -29 96 -129 373
-138 381 -2 2 -82 -33 -178 -77 -231 -107 -841 -380 -1084 -484 -55 -24 -186
-81 -292 -128 l-192 -84 -20 21 c-12 12 -21 25 -21 29 0 4 87 49 193 101 105
52 476 234 822 406 347 172 649 320 672 331 l43 18 -45 96 c-96 207 -250 471
-395 675 -141 199 -432 545 -452 538 -4 -2 -50 -45 -102 -96 -57 -56 -107 -96
-126 -102 -18 -5 -30 -5 -28 0 2 5 52 62 113 126 l110 117 -105 100 c-328 312
-712 583 -1117 786 -57 28 -107 51 -111 51 -5 0 -33 -53 -62 -117 -30 -65 -75
-164 -101 -219 -26 -56 -54 -117 -62 -135 -8 -19 -78 -171 -157 -339 -78 -168
-152 -327 -165 -355 -13 -27 -44 -95 -69 -149 -25 -55 -44 -102 -41 -104 3 -3
22 4 43 15 62 35 419 188 562 241 212 79 511 172 554 172 11 0 30 -10 42 -21
l23 -22 -35 -70 c-96 -189 -272 -438 -478 -672 -71 -81 -339 -366 -385 -410
l-32 -29 -222 222 c-122 122 -227 222 -234 222 -6 0 -16 -14 -22 -32 l-11 -32
210 -211 211 -212 -38 -34 c-248 -223 -647 -414 -1016 -484 -96 -19 -299 -46
-304 -42 -2 3 -70 590 -93 812 -32 310 -33 327 -21 335 13 8 134 30 296 55 55
9 194 18 310 22 l209 6 92 -99 92 -98 18 37 18 37 -59 60 c-32 33 -57 61 -54
64 2 2 47 25 99 51 52 26 99 55 105 64 11 19 116 264 211 496 78 187 291 700
374 898 52 123 56 138 41 146 -67 36 -375 145 -566 200 -80 23 -346 82 -450
100 -47 8 -169 11 -375 9 l-305 -3 -6 -130 c-4 -71 -11 -256 -18 -410 -6 -154
-15 -361 -21 -460 -5 -99 -12 -263 -15 -365 -3 -102 -10 -259 -15 -350 -5 -91
-12 -223 -16 -293 -3 -71 -8 -127 -10 -124 -4 4 -25 401 -49 927 -10 228 -26
544 -35 720 -5 102 -12 254 -16 338 l-7 152 -321 -1 c-273 -1 -335 -4 -416
-20z m-1548 -1794 c212 -273 422 -522 632 -749 79 -85 87 -98 75 -113 -34 -45
-315 -323 -326 -323 -14 0 -129 129 -199 225 -100 136 -204 343 -257 511 -56
178 -108 483 -106 629 l0 50 24 -30 c14 -16 84 -106 157 -200z m4953 138 c-22
-402 -114 -711 -297 -1008 -52 -83 -173 -238 -227 -290 l-32 -29 -170 170
-170 170 79 85 c230 247 545 626 756 912 31 42 59 77 61 77 3 0 3 -39 0 -87z
m-2530 -1138 c32 -267 55 -467 55 -479 0 -5 74 -6 180 -2 99 3 180 4 180 1 0
-3 -23 -33 -51 -67 -28 -35 -58 -75 -67 -90 -9 -16 -20 -28 -24 -28 -4 0 -50
27 -104 60 -53 34 -102 62 -108 63 -14 3 -21 31 100 -389 57 -199 104 -367
104 -373 0 -8 -92 -11 -301 -11 -281 0 -300 1 -295 18 109 375 216 756 213
759 -3 2 -53 -26 -113 -62 l-109 -66 -20 28 c-11 14 -44 55 -72 90 -29 34 -53
64 -53 67 0 2 80 2 178 -1 l178 -6 43 344 c43 349 52 406 57 379 2 -8 15 -114
29 -235z m-1452 -62 c111 -75 213 -145 226 -155 21 -16 22 -18 4 -18 -30 0
-113 -57 -113 -78 0 -38 42 -177 72 -236 100 -198 241 -321 473 -412 39 -15
73 -30 77 -33 4 -4 -35 -49 -86 -100 l-94 -94 -98 54 c-55 29 -142 82 -194
116 -84 57 -120 70 -120 45 0 -4 25 -37 55 -73 58 -71 173 -173 243 -217 50
-32 51 -16 -17 -212 -66 -190 -85 -299 -78 -455 8 -179 44 -282 162 -460 38
-57 68 -122 105 -225 28 -80 62 -174 75 -210 13 -36 45 -123 70 -195 26 -71
76 -211 112 -310 65 -180 65 -180 67 -295 1 -102 4 -120 26 -159 37 -66 52
-65 44 1 -8 66 10 156 39 199 25 37 101 99 122 99 10 0 8 -13 -8 -52 -16 -42
-21 -76 -21 -159 -1 -96 1 -109 24 -142 13 -20 35 -41 48 -46 13 -7 101 -11
213 -11 189 0 190 0 215 25 61 61 75 185 35 310 -12 37 -20 69 -17 72 7 7 45
-16 86 -54 53 -47 80 -121 80 -218 0 -42 4 -75 10 -75 5 0 20 19 32 43 18 34
23 65 28 167 l5 125 103 290 c57 160 112 313 122 340 11 28 48 132 84 232 52
150 73 195 118 260 96 136 138 240 159 398 20 153 -17 364 -102 582 -28 71
-38 108 -30 111 59 20 331 277 331 313 0 10 -5 19 -11 19 -6 0 -54 -29 -107
-64 -53 -35 -142 -87 -196 -116 l-99 -51 -93 92 c-51 51 -91 95 -89 97 3 3 46
21 98 42 274 107 450 302 515 570 l21 85 -22 17 c-12 10 -43 26 -69 36 l-47
18 229 153 230 154 34 -27 c67 -51 208 -190 283 -280 327 -390 455 -841 337
-1189 -88 -259 -311 -448 -619 -525 l-103 -25 -90 -211 c-91 -212 -412 -962
-687 -1606 -81 -190 -158 -364 -171 -387 -34 -58 -107 -129 -168 -161 l-51
-27 -376 -3 c-362 -3 -378 -2 -432 18 -66 25 -151 98 -195 168 -17 26 -87 182
-157 347 -111 263 -478 1125 -555 1305 -15 36 -58 137 -95 225 -37 88 -84 198
-104 245 l-37 85 -81 21 c-198 50 -338 122 -453 230 -217 205 -287 516 -194
864 78 294 279 601 551 842 54 48 102 88 106 88 5 0 99 -62 210 -137z m487
-277 c41 -8 101 -24 133 -36 139 -52 292 -195 380 -353 15 -26 27 -49 27 -51
0 -12 -119 -117 -138 -122 -38 -10 -170 24 -258 66 -204 98 -360 271 -394 437
-10 45 -9 57 2 64 20 13 164 10 248 -5z m2109 5 c21 -13 7 -94 -29 -166 -83
-169 -285 -327 -490 -384 -113 -32 -125 -30 -199 37 -75 68 -75 71 -9 171 122
187 297 308 489 340 72 12 220 13 238 2z m-1432 -561 c-30 -91 -69 -225 -88
-298 l-34 -132 -50 -17 c-208 -71 -431 -139 -433 -132 -5 12 36 97 89 181 65
106 139 195 256 310 103 102 306 272 311 260 1 -4 -22 -81 -51 -172z m528 126
c212 -172 358 -322 462 -473 56 -80 127 -217 121 -233 -3 -8 -437 130 -466
148 -7 5 -24 53 -38 108 -34 133 -116 401 -150 488 -9 24 2 18 71 -38z m-470
-881 c94 -43 175 -82 181 -86 7 -6 85 26 206 81 l194 91 146 -89 145 -89 129
78 c71 42 131 76 133 73 9 -8 31 -182 31 -244 0 -124 -61 -412 -94 -439 -7 -6
-49 0 -111 15 -273 67 -497 88 -852 81 -308 -6 -525 -34 -722 -92 -29 -9 -57
-13 -61 -8 -13 13 -68 193 -80 257 -22 126 -6 426 22 426 6 0 65 -33 133 -74
l123 -73 144 88 c78 49 148 87 153 85 6 -2 87 -39 180 -81z m-415 -733 c0 -31
7 -95 15 -141 8 -47 13 -86 11 -89 -8 -8 -91 56 -138 106 -58 62 -99 139 -80
151 8 4 46 14 85 21 40 7 77 13 82 15 20 5 25 -7 25 -63z m1337 47 c39 -6 77
-15 84 -19 31 -20 -107 -197 -189 -243 -32 -18 -32 -18 -32 5 0 13 7 74 15
136 8 62 14 116 14 120 -3 18 2 23 19 18 9 -2 49 -10 89 -17z m-3719 -2171 l3
-106 -73 -4 c-40 -2 -92 -2 -115 0 l-43 3 0 110 0 110 113 -3 112 -3 3 -107z
m1392 2 l0 -110 -113 0 -113 0 -2 102 c-1 55 1 105 4 110 3 4 54 8 115 8 l109
0 0 -110z m928 -2 l3 -108 114 0 115 0 0 111 0 111 103 -3 c56 -2 108 -5 115
-7 8 -3 12 -34 12 -108 l0 -104 -115 0 -115 0 0 -110 0 -110 -115 0 -115 0 0
110 0 110 -115 0 -115 0 0 110 0 111 113 -3 112 -3 3 -107z m930 0 l3 -108
-116 0 -115 0 0 110 0 111 113 -3 112 -3 3 -107z m462 2 l0 -110 -115 0 -115
0 0 -110 0 -110 -115 0 -116 0 3 108 3 107 113 3 112 3 0 109 0 110 115 0 115
0 0 -110z m928 -3 l3 -106 112 -3 112 -3 3 -107 c3 -107 2 -108 -20 -108 -13
0 -65 -2 -116 -3 l-92 -2 0 113 0 112 -115 0 -115 0 0 108 0 107 112 -1 113
-1 3 -106z m462 3 l0 -110 -115 0 -115 0 0 110 0 110 115 0 115 0 0 -110z
m930 0 l0 -111 -112 3 -113 3 -3 108 -3 107 116 0 115 0 0 -110z m470 0 l0
-110 -47 -1 c-67 -1 -123 -1 -155 0 l-28 1 0 110 0 110 115 0 115 0 0 -110z
m-5342 -225 l3 -110 -116 0 -115 0 0 113 0 113 113 -3 112 -3 3 -110z m468 14
c1 -53 -1 -101 -5 -107 -5 -8 -141 -17 -214 -13 -16 1 -18 11 -16 104 1 56 3
106 6 110 2 4 55 6 116 5 l112 -3 1 -96z m462 -11 l3 -108 -116 0 -115 0 0
110 0 111 113 -3 112 -3 3 -107z m930 0 l3 -108 -121 0 -120 0 1 102 c0 57 3
106 6 111 2 4 55 6 116 5 l112 -3 3 -107z m2313 103 c4 0 7 -48 8 -106 l2
-105 -93 -1 c-51 -1 -104 -2 -118 -3 -25 -1 -25 -1 -28 98 -1 55 -1 105 2 112
3 8 36 11 113 9 59 -1 111 -3 114 -4z m937 -103 l3 -108 -98 -2 c-54 0 -107
-1 -118 -2 -19 -1 -20 6 -23 98 -1 55 -1 105 2 112 4 10 34 13 118 11 l113 -2
3 -107z m-4158 -515 c0 -220 2 -241 20 -270 19 -32 21 -33 93 -33 115 0 111
-10 115 291 l3 249 200 0 199 0 -2 -292 c-3 -327 -4 -329 -71 -375 l-40 -28
-356 -1 c-196 -1 -377 1 -404 6 -51 7 -88 35 -115 85 -15 26 -17 70 -18 318
l-1 287 188 0 189 0 0 -237z m-22 -735 l3 -108 -116 0 -115 0 0 110 0 111 113
-3 112 -3 3 -107z m462 2 l0 -110 -115 0 -115 0 0 110 0 110 115 0 115 0 0
-110z m930 0 l0 -110 -115 0 -115 0 0 110 0 110 115 0 115 0 0 -110z m460 0
l0 -110 -115 0 -115 0 0 110 0 110 115 0 115 0 0 -110z m464 -3 l4 -108 -116
3 -117 3 -3 94 c-1 52 0 101 2 108 4 11 30 13 116 11 l110 -3 4 -108z m-1624
-223 l0 -104 -115 0 -115 0 0 103 c0 57 2 106 4 108 2 2 54 3 115 1 l111 -3 0
-105z"/>
<path d="M8220 6300 c0 -5 5 -10 10 -10 6 0 10 5 10 10 0 6 -4 10 -10 10 -5 0
-10 -4 -10 -10z"/>
<path d="M10940 6300 c0 -5 7 -10 15 -10 8 0 15 5 15 10 0 6 -7 10 -15 10 -8
0 -15 -4 -15 -10z"/>
<path d="M8276 6233 c-11 -11 -6 -23 9 -23 8 0 15 4 15 9 0 13 -16 22 -24 14z"/>
<path d="M10887 6233 c-12 -11 -8 -23 8 -23 8 0 15 7 15 15 0 16 -12 20 -23 8z"/>
<path d="M7443 5804 c-8 -21 55 -149 112 -230 112 -157 308 -284 572 -371 67
-22 118 -44 121 -53 3 -8 64 -166 137 -350 72 -184 164 -416 203 -515 39 -99
122 -310 185 -470 63 -159 152 -387 198 -505 80 -204 87 -218 139 -271 62 -64
139 -99 216 -99 38 0 45 3 42 17 -2 12 -22 23 -63 33 -97 26 -171 74 -200 130
-12 24 -139 372 -476 1310 -60 168 -120 334 -134 370 -13 36 -45 124 -70 195
-114 323 -103 302 -167 310 -67 9 -224 50 -289 75 -186 74 -345 201 -452 363
-29 42 -55 77 -60 77 -4 0 -10 -7 -14 -16z"/>
<path d="M11667 5748 c-144 -228 -381 -374 -701 -434 l-96 -18 -20 -53 c-11
-29 -45 -124 -76 -210 -30 -87 -71 -201 -91 -253 -19 -52 -57 -156 -83 -230
-27 -74 -105 -292 -175 -485 -70 -192 -166 -460 -215 -595 -135 -375 -125
-354 -181 -404 -48 -43 -66 -51 -189 -86 -37 -10 -31 -34 9 -38 88 -9 210 55
261 135 17 26 69 146 116 267 48 122 134 340 191 486 58 146 129 326 158 400
29 74 83 212 120 305 37 94 105 267 151 385 46 118 88 222 92 229 5 8 63 34
130 57 67 23 152 56 189 73 153 72 308 200 389 320 47 70 103 191 97 208 -10
27 -31 11 -76 -59z"/>
<path d="M9460 2950 c0 -15 5 -20 18 -18 9 2 17 10 17 18 0 8 -8 16 -17 18
-13 2 -18 -3 -18 -18z"/>
<path d="M9574 2959 c-10 -17 13 -36 27 -22 12 12 4 33 -11 33 -5 0 -12 -5
-16 -11z"/>
<path d="M9686 2955 c-3 -9 1 -18 10 -22 19 -7 39 11 30 26 -10 16 -33 13 -40
-4z"/>
<path d="M8750 6665 c-20 -24 -8 -161 19 -223 24 -53 55 -82 72 -65 5 5 0 36
-11 70 -10 34 -22 96 -26 138 -5 57 -11 78 -24 85 -13 7 -21 5 -30 -5z"/>
<path d="M10401 6671 c-8 -5 -16 -39 -21 -82 -4 -41 -15 -105 -25 -142 -9 -38
-15 -71 -12 -73 12 -13 47 19 67 62 29 58 41 213 18 231 -8 7 -19 8 -27 4z"/>
<path d="M7580 1875 l0 -75 125 0 c125 0 125 0 135 26 14 37 12 76 -6 102 -14
21 -22 22 -135 22 l-119 0 0 -75z"/>
<path d="M11312 1873 c-18 -36 -31 -67 -29 -69 7 -8 142 -6 142 2 -1 15 -65
134 -73 134 -4 0 -22 -30 -40 -67z"/>
<path d="M7588 1578 c-1 -7 -2 -42 -2 -78 l-1 -65 -160 -2 c-88 -1 -164 -2
-170 -3 -13 -1 106 -70 207 -121 76 -38 80 -39 183 -39 l106 0 74 153 c41 83
75 155 75 160 0 4 -70 7 -155 7 -116 0 -155 -3 -157 -12z"/>
<path d="M11290 1581 c0 -22 150 -309 164 -314 10 -4 16 -18 16 -35 0 -16 3
-31 6 -35 3 -3 40 10 82 29 94 43 352 181 369 197 10 9 -25 11 -150 9 l-162
-3 -40 78 -40 78 -122 3 c-73 1 -123 -1 -123 -7z"/>
</g>
</svg>
