<svg xmlns="http://www.w3.org/2000/svg" viewBox="0 0 108.87 143.56"><title>Rolls-Royce cars logo</title><path d="M520.15,462.13H499.8V503.2a54.26,54.26,0,0,1-8,3.05c-1.41.42-3,.78-4.64,1.09V464s.36-6.23-3.1-8.33v-.78h32.5A19.29,19.29,0,0,1,520.15,462.13Zm5.73,56.17c14.74-7.07,21.85-19.51,22-33.77.09-9.7-3.33-15.66-7.16-18.83q-.34-.28-.7-.53a33.89,33.89,0,0,0-.93-3.36,38.6,38.6,0,0,0-2.73-6.31c.7.1,1.36.22,1.94.34,10.69,2.27,19.29,8.59,23.35,20.78,3.31,9.94,1.71,22.27-5.41,32.16a55.92,55.92,0,0,1-11.31,11c-.93.66-1.49,1-2.48,1.65,6.44,10.32,9.62,16.25,13.73,27.52a161,161,0,0,1,6.68,26c.89,7.31,3.08,7.9,3.58,8v.78H540.75V583c.79-.42,7.74-3.27,7.77-14.16,0-8-1.91-16.79-5.47-26.67a137.12,137.12,0,0,0-7.64-16.92l-.08-.13a50.74,50.74,0,0,1-5.22,1.92C528.78,523.94,527.42,521.15,525.88,518.31Zm-26.08-.86v6.67a108,108,0,0,0,13.48-1.64c1.24,2.8,2.31,5.46,3.06,7.52l.1.28c-2.25.36-4.64.69-7.35,1-3.66.41-7.2.65-9.29.79v43.13c0,.95.22,6,3.53,7.81v.78H483.61V583c3.21-1.69,3.53-6.86,3.53-7.81V519.75A113.4,113.4,0,0,0,499.8,517.45Zm2.73-69.75-2.76,0H474.09v63.25c2.54-.11,12-.91,18.26-2.75,20.72-6.13,30.62-20.62,30.78-37.64.09-9.9-3.4-16-7.31-19.21a16.82,16.82,0,0,0-8-3.31A37.77,37.77,0,0,0,502.54,447.7ZM461.17,563.18V449.52s.37-6.35-3.17-8.5v-.8h43.94a63.8,63.8,0,0,1,11.41,1c10.91,2.32,19.68,8.76,23.83,21.2,3.38,10.14,1.74,22.73-5.52,32.82a57,57,0,0,1-11.54,11.24c-.95.68-1.52,1.06-2.53,1.69,6.57,10.54,9.82,16.59,14,28.08a164.38,164.38,0,0,1,6.82,26.51c.91,7.46,3.14,8.21,3.65,8.37v.8H515.87v-.8c.81-.43,7.9-3.49,7.93-14.61,0-8.16-2-17.14-5.58-27.22a140.13,140.13,0,0,0-7.8-17.27l-.08-.13a86.71,86.71,0,0,1-15.62,4.64c-3.41.64-6.87,1.18-11.15,1.65-3.73.42-7.34.67-9.47.8v44.17c0,1,.23,6.15,3.61,8v.79H457.56v-.79C460.85,569.42,461.17,564.15,461.17,563.18Z" transform="translate(-457.56 -440.22)" style="fill:#141414"/></svg>