<?xml version="1.0" encoding="UTF-8" standalone="no"?>
<svg
   version="1.1"
   width="600"
   height="400"
   id="svg11"
   viewBox="6 6 60 60"
   sodipodi:docname="royal-enfield-seeklogo.cdr"
   xmlns:inkscape="http://www.inkscape.org/namespaces/inkscape"
   xmlns:sodipodi="http://sodipodi.sourceforge.net/DTD/sodipodi-0.dtd"
   xmlns="http://www.w3.org/2000/svg"
   xmlns:svg="http://www.w3.org/2000/svg">
  <defs
     id="defs15" />
  <sodipodi:namedview
     id="namedview13"
     pagecolor="#ffffff"
     bordercolor="#000000"
     borderopacity="0.25"
     inkscape:showpageshadow="2"
     inkscape:pageopacity="0.0"
     inkscape:pagecheckerboard="0"
     inkscape:deskcolor="#d1d1d1"
     inkscape:document-units="pt" />
  <path
     d="M 0,0 V 72 H 72 V 0 Z"
     style="fill:none"
     id="path2" />
  <g
     id="Layer1000">
    <path
       d="m 35.9737,6.6002 c 16.2925,0 29.5053,13.1655 29.5053,29.3997 0,2.1862 -0.2417,4.3159 -0.6962,6.3661 l 1.9069,1.1294 -0.0039,1.2431 -2.9465,4.1066 0.4237,0.4595 -3.4408,4.9091 h -1.3178 l -4.4546,6.5537 h -3.0745 c -4.5889,2.9322 -10.0466,4.6324 -15.9016,4.6324 -5.8551,0 -11.3124,-1.7003 -15.9016,-4.6324 h -2.9228 l -4.8248,-6.5537 h -0.909 L 7.8897,49.2914 8.3735,48.8467 5.3103,44.6857 V 43.4823 L 7.1671,42.3778 C 6.711,40.324 6.4684,38.1904 6.4684,35.9999 6.4684,19.7657 19.6811,6.6002 35.9737,6.6002 Z"
       style="fill:#000200;fill-rule:evenodd"
       id="path4" />
    <path
       d="m 7.0449,44.6768 h 57.7844 l -3.3825,4.7466 h -13.155 l 0.8822,3.6586 h 11.4533 l -0.3751,0.5263 H 49.267 l 0.2491,0.7107 h 8.4421 l -3.7796,5.304 H 47.5517 L 46.9471,58.7771 H 25.0357 l -0.4915,0.8459 h -6.7309 l -3.836,-5.3242 h 8.5722 l 0.2492,-0.7107 H 11.888 L 11.5232,53.0819 H 22.9188 L 23.801,49.4234 H 10.4647 Z m 20.4563,15.4524 0.2642,0.7701 0.814,0.0132 -0.6508,0.4891 0.239,0.7783 -0.6664,-0.4677 -0.6663,0.4677 0.2389,-0.7783 -0.6507,-0.4891 0.814,-0.0132 z m 3.9291,-0.0596 0.3572,1.0414 1.1009,0.0179 -0.8801,0.6615 0.3232,1.0525 -0.9012,-0.6325 -0.9012,0.6325 0.3232,-1.0525 -0.8801,-0.6615 1.1009,-0.0179 z m 4.6203,0.1215 0.4144,1.2082 1.2773,0.0208 -1.0211,0.7675 0.3749,1.2211 -1.0455,-0.7338 -1.0456,0.7338 0.375,-1.2211 -1.0211,-0.7675 1.2772,-0.0208 z m 8.5547,-0.0357 -0.2641,0.7701 -0.814,0.0132 0.6507,0.4892 -0.2389,0.7782 0.6663,-0.4677 0.6664,0.4677 -0.239,-0.7782 0.6508,-0.4892 -0.814,-0.0132 z m -3.929,-0.0596 -0.3572,1.0414 -1.1009,0.0179 0.88,0.6616 -0.3231,1.0524 0.9012,-0.6325 0.9011,0.6325 -0.3231,-1.0524 0.8801,-0.6616 -1.1009,-0.0179 z M 14.0334,50.5739 h -0.2399 v 0.4417 l 0.4128,0.0303 0.3961,0.3145 v 0.6595 l -0.3746,0.3146 h -0.6361 l -0.374,-0.3146 v -0.3811 h 0.5758 v 0.2873 h 0.2399 v -0.4532 l -0.4168,-0.0303 -0.3989,-0.312 v -0.6505 l 0.3821,-0.3145 h 0.5996 l 0.3897,0.3145 v 0.3843 h -0.5557 z m 1.3173,-0.4083 h 0.5759 v 2.1689 h -0.5759 z m 1.7982,1.1097 v 1.0592 h -0.5411 v -2.1689 h 0.4816 l 0.3793,1.0406 v -1.0406 h 0.5342 v 2.1689 h -0.4724 z m 2.3817,-0.7014 h -0.2498 v 1.3522 h 0.2498 v -0.5197 h 0.558 v 0.6135 l -0.3811,0.3146 h -0.5892 l -0.4064,-0.3146 v -1.5398 l 0.3752,-0.3145 h 0.6204 l 0.3811,0.3145 v 0.5209 h -0.558 z m 1.2785,-0.4144 h 1.0581 v 0.4144 H 21.385 v 0.4084 h 0.3989 v 0.4054 H 21.385 v 0.5384 h 0.4954 v 0.4084 h -1.0713 z m 29.8883,0.4138 h -0.2117 v -0.3111 l 0.4394,-0.1158 h 0.3046 v 2.2344 h -0.5323 z m 2.1964,-0.0062 h -0.2276 v 0.5049 h 0.2276 z m 0,0.9255 h -0.4201 l -0.3201,-0.2867 v -0.7354 l 0.3335,-0.3241 h 0.5858 l 0.3468,0.3241 v 1.5862 l -0.3468,0.3241 h -0.5735 l -0.3458,-0.3241 v -0.3926 h 0.5126 v 0.296 h 0.2276 z m 1.7951,-0.9255 v 1.393 h 0.2282 v -1.393 z m -0.1801,-0.4207 h 0.575 l 0.3592,0.3241 v 1.5862 l -0.334,0.3241 h -0.6002 l -0.3523,-0.3241 v -1.5862 z m 2.0388,0.4269 h -0.2117 v -0.3111 l 0.4393,-0.1158 h 0.3047 v 2.2344 H 56.5476 Z M 26.9225,46.3736 c 0.1073,0.1725 0.1668,0.3717 0.1626,0.6073 v 3.5213 c -0.0114,0.2529 -0.0648,0.4451 -0.1558,0.5816 h 1.6214 c -0.0795,-0.138 -0.1485,-0.3198 -0.1513,-0.5627 v -1.0412 h 0.1422 c 0.9139,1.2433 1.8377,1.9101 2.8429,2.1065 1.2314,0.2406 2.6271,-0.1142 3.312,-1.2238 0.3227,-0.5234 0.4466,-1.1443 0.2759,-1.7374 -0.3081,-1.0703 -1.4266,-1.6321 -2.5007,-1.4282 -0.7419,0.1417 -1.3285,0.6547 -1.5068,1.3099 -0.2244,0.8241 0.2813,1.8502 1.2011,1.9248 0.2785,0.0232 0.6063,-0.0403 0.9945,-0.2209 l -0.1201,-0.2276 c -0.5071,0.1005 -0.8564,-0.2836 -0.9412,-0.8006 -0.1094,-0.6684 0.2038,-1.5182 1.0285,-1.3331 0.0905,0.0197 0.1784,0.0549 0.2588,0.1061 0.6184,0.3922 0.541,1.6929 0.2157,2.2429 -0.7226,1.2219 -2.9527,0.6234 -3.8593,-1.1675 1.1059,-0.3703 1.2684,-1.8205 0.2384,-2.4274 -0.4792,-0.2818 -0.9573,-0.226 -1.4907,-0.2272 z m 1.4212,0.734 c 0.3128,-0.0198 0.5613,-0.0058 0.746,0.0671 0.5567,0.2194 0.4898,1.1246 0.1013,1.4729 -0.2071,0.1858 -0.5013,0.23 -0.8473,0.1914 z m 6.4006,0.1425 h 1.2956 l 0.8121,1.5868 0.4899,-1.0724 c 0.0783,-0.1779 0.0558,-0.3477 -0.1046,-0.5144 h 1.13 l -1.1198,2.2659 0.0085,1.18 c -0.0023,0.1465 0.0503,0.2738 0.1288,0.3927 h -1.5135 c 0.0696,-0.125 0.109,-0.2628 0.1067,-0.4192 l 0.002,-1.2124 z m 4.3058,-0.0129 h 1.3117 c 0.4539,1.3561 0.9042,2.7189 1.4549,3.8632 h -1.5504 c 0.1277,-0.3558 -0.009,-0.6308 -0.0909,-0.9443 l -1.14,-7e-4 c -0.0314,0.3149 -0.2506,0.481 -0.0931,0.945 h -1.103 c 0.1415,-0.1943 0.2594,-0.395 0.329,-0.6055 l 0.9412,-2.7586 c 0.0519,-0.1945 0.0091,-0.3475 -0.0594,-0.4991 z m 0.546,1.2644 c 0.1001,0.3567 0.216,0.7082 0.3643,1.0485 h -0.729 c 0.1503,-0.3406 0.2663,-0.6916 0.3647,-1.0485 z m 2.4668,-1.2515 h 1.5159 c -0.0602,0.1673 -0.0965,0.3277 -0.093,0.4757 l -0.012,2.5822 1.0815,-0.0021 c 0.1476,0.003 0.2651,-0.0505 0.3767,-0.1148 l -0.1162,0.8857 h -2.7529 c 0.0699,-0.2082 0.1289,-0.4334 0.1193,-0.7581 l -0.0113,-2.4506 c 0.0015,-0.2411 -0.036,-0.4333 -0.108,-0.618 z m -1.0702,5.1698 h 1.5569 c -0.0825,0.1575 -0.1244,0.2814 -0.1268,0.431 l -0.0316,2.7386 c 0.7651,-0.0038 1.4229,0.2351 2.1144,0.2535 0.8376,0.0223 1.4343,-0.2591 1.6302,-1.1323 0.1978,-0.8817 -0.3343,-1.8024 -1.4454,-1.6 l 0.0081,2.3397 c -0.3739,0.067 -0.8346,-0.0056 -1.2903,-0.1521 l 0.0185,-2.1986 c -0.0102,-0.256 -0.0437,-0.4991 -0.1417,-0.7071 1.0728,0.1201 2.0709,-0.1412 2.9806,0.2681 0.4328,0.1947 0.7572,0.4779 0.955,0.851 0.4189,0.7904 0.2364,1.7962 -0.3222,2.4677 -0.5111,0.6144 -1.322,0.9049 -2.3807,0.815 -0.7508,-0.0636 -1.4151,-0.3793 -2.1497,-0.4747 -0.3963,-0.0514 -0.861,-0.0711 -1.3672,-0.0715 0.0705,-0.1738 0.1195,-0.392 0.1257,-0.6982 l 0.0126,-2.6964 C 41.125,52.6909 41.0709,52.5665 40.9927,52.4199 Z m -3.1146,-0.0033 h 2.594 l 0.0902,0.8099 c -0.3869,-0.1176 -0.8227,-0.1291 -1.272,-0.1108 l 0.0015,0.8355 c 0.3125,0.0123 0.6775,0.0059 0.9666,-0.0779 l -0.0101,0.8693 c -0.2325,-0.0736 -0.5777,-0.1278 -0.9472,-0.113 -0.0025,0.2296 -0.0145,0.4923 -0.0116,0.7539 h 0.0011 l -10e-5,0.0604 c 8e-4,0.0402 0.002,0.0802 0.0037,0.12 0.4487,0.0181 1.0052,0.0064 1.3909,-0.1109 l -0.0902,0.8099 h -1.1883 -1.5285 l 0.0011,-0.0016 h -0.0011 c 0.1049,-0.1734 0.1484,-0.3626 0.1394,-0.5678 l 0.0015,-2.888 c -0.0183,-0.1426 -0.0458,-0.2478 -0.1409,-0.3889 z m -1.9442,-0.0029 h 1.4924 c -0.0644,0.1597 -0.1057,0.3103 -0.1139,0.4459 l -0.0064,2.8557 c -0.0012,0.2112 0.0489,0.3827 0.1203,0.546 h -1.4924 c 0.0733,-0.1764 0.1155,-0.3581 0.1167,-0.5464 l 0.0062,-2.8626 c 0.0019,-0.1701 -0.0525,-0.3088 -0.1229,-0.4386 z m -3.0329,0.0029 h 2.6583 l 0.0925,0.8099 c -0.3965,-0.1176 -0.8431,-0.1291 -1.3036,-0.1108 l 0.0015,0.9673 c 0.3204,0.0123 0.636,0.0058 0.9323,-0.0778 l -0.0103,0.8692 c -0.2384,-0.0736 -0.5337,-0.1278 -0.9124,-0.113 -0.0056,0.5054 -0.0582,1.0391 0.1083,1.5015 L 32.901,56.2613 c 0.1076,-0.1734 0.1522,-0.3626 0.1429,-0.5678 l 0.0015,-2.888 c -0.0187,-0.1426 -0.047,-0.2478 -0.1444,-0.3889 z m -4.3689,-0.0149 h 1.1572 l 1.698,2.0776 0.0037,-1.5522 c 0.0081,-0.1648 -0.0222,-0.3366 -0.1466,-0.5254 h 1.2354 c -0.0574,0.1708 -0.1024,0.3452 -0.1035,0.5321 l 0.0013,3.0091 c 9e-4,0.1212 0.0376,0.2294 0.0946,0.3304 h -0.9497 c -0.802,-0.7731 -1.5918,-1.777 -1.8759,-2.0021 l -0.0026,1.1194 c -0.3201,0.0256 -0.6401,0.095 -0.9601,0.201 L 28.69,52.8611 c -0.0052,-0.16 -0.0684,-0.3116 -0.1579,-0.4594 z m -3.2385,0.003 h 2.715 l 0.0787,0.7665 c -0.2037,-0.0593 -0.4034,-0.0883 -0.6016,-0.0895 l -0.9242,-0.0057 0.0081,1.1939 c 0.6656,0.0331 0.8653,-0.0271 1.2979,-0.0406 l 0.0016,0.7884 c -0.3879,-0.0866 -0.7639,-0.1031 -1.2417,-0.0762 l -0.0035,1.08 c 1.4011,0.3201 2.5639,-0.3773 3.6587,-0.3603 l 0.5222,0.587 c -1.6997,-0.0882 -2.5422,1.2915 -5.5371,0.6323 0.107,-0.1808 0.1387,-0.3874 0.1282,-0.6084 l -0.001,-3.455 c 7e-4,-0.1375 -0.0361,-0.275 -0.1013,-0.4124 z"
       style="fill:#ffce00;fill-rule:evenodd"
       id="path6" />
    <path
       d="m 35.9737,7.9164 c 15.5078,0 28.0839,12.5761 28.0839,28.0838 0,2.6169 -0.3593,5.1502 -1.0295,7.5536 h -2.3255 c 0.263,-0.9121 0.4778,-1.8268 0.6405,-2.7442 L 58.819,40.8068 c -0.1035,1.0417 -0.3556,1.97 -0.7426,2.747 h -0.5549 c 0.2634,-0.9121 0.4782,-1.8268 0.6406,-2.7442 l -0.9038,-0.0028 c -0.1035,1.0417 -0.3556,1.97 -0.7429,2.747 h -2.9217 c 1.0044,-2.3232 1.5622,-4.8843 1.5622,-7.5758 0,-4.8634 -1.8183,-9.3027 -4.8112,-12.6762 1.3469,-0.7148 1.7622,-1.9404 1.8293,-3.3571 0.7019,-1.2517 1.0484,-3.1004 2.0749,-3.8341 l -2.4391,-2.0354 -0.2983,0.5263 -2.4565,1.8951 c -1.485,-0.335 -4.2944,1.5717 -4.9546,2.1471 -2.4488,-1.1405 -5.1785,-1.7786 -8.0574,-1.7786 -10.5541,0 -19.113,8.559 -19.113,19.1129 0,2.6757 0.5513,5.2225 1.5446,7.5347 h -2.9252 c -0.3758,-0.7685 -0.6206,-1.6824 -0.7226,-2.7059 l -0.9036,0.0028 c 0.16,0.9038 0.371,1.8047 0.6287,2.7031 H 13.9886 C 13.6129,42.7442 13.3678,41.8303 13.266,40.8068 l -2.524,0.0028 c 0.1603,0.9038 0.3712,1.8047 0.629,2.7031 H 8.908 C 8.2451,41.1215 7.8897,38.6022 7.8897,36.0002 7.8897,20.4925 20.4659,7.9164 35.9737,7.9164 Z M 15.7518,37.5251 c -0.0743,0.7031 0.0786,1.3502 0.2144,2.0534 -0.3353,-0.1705 -0.7527,-0.2842 -1.3163,-0.2965 l -4.5655,-0.0584 c -0.305,0.0222 -0.5737,0.1393 -0.8348,0.276 L 9.2627,37.16 11.931,36.0427 9.3547,34.9649 9.2627,32.4544 c 0.2235,0.1316 0.4557,0.2105 0.6967,0.2366 l 4.8544,0.0119 c 0.5224,0.0072 0.8452,-0.0933 1.1393,-0.2091 l -0.2366,2.1951 C 15.3364,34.58 14.9209,34.5137 14.4533,34.5097 l -2.22,0.0214 2.9575,1.2093 -0.0026,0.7209 -3.0427,1.3321 2.7536,0.0196 c 0.3695,-0.0062 0.6108,-0.1289 0.8527,-0.2879 z M 12.7196,22.3728 c 2.0133,1.0625 3.8754,2.2761 5.468,3.7592 l 2.4054,-3.3648 -0.3154,-1.9585 -3.1941,-2.274 -2.0242,0.3155 z m 2.4054,-0.9069 0.7656,-0.8904 c 0.1174,-0.1367 0.3228,-0.1754 0.5489,-0.0034 l 2.1556,1.5116 c 0.1868,0.1459 0.2033,0.3137 0.0789,0.4994 l -0.6046,0.8544 z m 2.2142,-5.0574 3.4674,-2.5451 1.1895,1.0836 c -0.6224,0.2445 -1.5968,0.8192 -2.0753,1.383 l 0.6051,0.6775 c 0.4178,-0.305 0.6876,-0.5831 0.9764,-0.9886 l 1.2342,1.512 c -0.3771,0.1432 -0.8016,0.3879 -1.2654,0.7865 0.2457,0.3172 0.2974,0.3477 0.5972,0.6948 0.6002,-0.4371 1.6702,-1.2006 1.9251,-1.8538 l 0.9645,1.6549 -1.5797,1.1347 -1.9782,1.688 -0.0036,-0.122 -0.0014,0.0011 c -0.0421,-0.3326 -0.18,-0.6228 -0.4027,-0.8798 l -2.8885,-3.617 C 17.9335,16.852 17.6075,16.4939 17.3392,16.4085 Z m 7.774,-5.1893 c 0.2884,0.4157 0.4935,0.8367 0.6416,1.2614 0.3862,1.1328 1.2472,2.8691 1.4091,3.9948 l 0.1588,1.1058 3.9566,-1.4124 -0.3549,-1.9322 c -0.6861,0.4894 -1.3953,0.8858 -2.1688,1.0253 l -1.2343,-3.479 c -0.1375,-0.4153 -0.1747,-0.8615 -0.1975,-1.3123 z m 5.4632,-1.7933 2.3853,-0.3023 c -0.075,0.3082 -0.1074,0.6236 -0.0773,0.9494 l 0.7104,4.5931 c 0.0564,0.3536 0.1958,0.6968 0.3921,1.033 l -2.2871,0.3251 C 31.7565,15.62 31.7824,15.208 31.699,14.7688 L 31.04,10.3566 C 30.9444,10.0069 30.7768,9.7054 30.5764,9.4259 Z m 3.7744,6.2344 2.229,-0.0393 C 36.3711,15.0608 36.351,14.4571 36.37,13.8443 l 0.7246,-0.623 0.9407,1.9091 -0.0131,0.5652 2.4711,0.3024 -2.1294,-4.1536 2.2328,-2.4486 -2.107,-0.118 -0.1389,0.5556 -1.8665,1.8664 -0.0131,-1.9716 C 36.4839,9.4724 36.5721,9.2304 36.6815,8.9921 L 34.4268,8.9897 c 0.1043,0.2527 0.1966,0.5077 0.2042,0.7779 l -0.0131,4.9685 c -0.0181,0.3285 -0.1263,0.631 -0.2671,0.9242 z m 8.6051,-5.8333 3.977,1.6373 -0.3079,1.5791 C 46.0925,12.6391 45.095,12.106 44.3645,11.9906 L 44.1,12.8595 c 0.4777,0.1982 0.8556,0.2839 1.3522,0.3197 l -0.6508,1.84 c -0.3184,-0.2475 -0.7481,-0.4827 -1.3299,-0.6714 -0.1433,0.3746 -0.1426,0.4346 -0.2834,0.8712 0.6855,0.2851 1.8941,0.8017 2.5848,0.6797 l -0.9132,1.6841 -1.7907,-0.7588 -2.4707,-0.8113 0.1024,-0.0665 -0.0017,-7e-4 c 0.2624,-0.2089 0.4388,-0.4776 0.5427,-0.8013 L 42.832,10.797 c 0.0536,-0.2319 0.1902,-0.6965 0.1239,-0.97 z m 15.5975,14.8461 1.5773,-1.0778 -1.8533,-2.9575 -1.9059,-0.5257 -3.4701,2.1818 -0.3943,1.7351 1.4853,2.3265 1.7087,0.3812 1.5905,-1.091 0.7492,-0.0788 -1.3276,-2.0374 c -0.4989,0.5978 -0.9408,1.007 -1.3051,1.1597 -0.311,0.1305 -0.5655,0.074 -0.7506,-0.2117 -0.3564,-0.5503 -0.0797,-0.9185 0.4262,-1.2547 0.3887,-0.2582 0.8754,-0.4955 1.1826,-0.7711 0.4907,-0.4238 0.9464,-0.3492 1.367,0.2235 0.4583,0.6335 0.7075,1.3118 0.9201,1.9979 z m 2.734,1.2355 0.5915,2.2214 c -1.5594,0.0305 -3.2504,0.797 -4.8755,1.1956 l 0.5124,1.6959 c 1.5727,-0.5082 3.5791,-0.8587 4.718,-1.5246 L 62.8516,31.6 c -1.4626,0.0527 -3.3652,0.66 -5.3214,1.3468 l -1.5266,-0.9475 -0.8686,-2.9215 0.7896,-1.5003 4.5214,-1.1724 c 0.3484,-0.1203 0.5991,-0.3057 0.8414,-0.4965 z m -4.9439,7.7102 v 1.9951 c 0.259,-0.1367 0.5434,-0.2185 0.8728,-0.2026 l 2.7745,0.0935 -3.6629,2.0418 v 1.3716 l 5.8138,0.078 c 0.3585,-0.002 0.5848,0.1239 0.7793,0.2805 v -2.0262 c -0.1916,0.0818 -0.3703,0.1792 -0.6234,0.187 h -2.4783 l 3.1173,-1.6833 v -2.1354 c -0.1642,0.1629 -0.393,0.2739 -0.7326,0.2962 H 57.1072 C 56.8398,33.8675 56.5874,33.76 56.3435,33.6188 Z M 21.9449,25.1121 C 20.2245,30.063 19.4766,37.4553 20.978,43.5127 h -1.0991 c -2.5114,-5.45 -2.566,-12.5889 2.066,-18.4006 z m 2.3143,0.8217 c -2.0803,2.1233 -2.9493,11.6325 -1.1636,17.5789 h -0.5543 c -1.4514,-5.7753 -0.6746,-17.343 1.7179,-17.5789 z m -0.5813,2.2087 0.6534,4.936 c 0.8715,1.376 0.7194,6.1759 -0.4037,5.9132 l -0.0328,0.5879 c 0.51,0.2192 -0.0377,3.2311 -0.2698,3.9331 h -0.1343 c -0.1286,-0.3077 -0.2229,-0.6471 -0.2909,-1.0105 -0.2655,-1.4177 0.1595,-2.4437 0.5396,-3.8108 -0.1936,-0.6443 -0.2541,-1.3687 -0.272,-2.1185 l -0.2281,0.0175 c 0.0205,0.7627 -0.1842,1.066 -0.4914,1.1604 l 0.0216,-3.5669 0.7765,0.5835 c -0.1258,-0.6333 0.1828,-1.1918 0.3115,-1.7767 -0.004,-0.1232 -0.062,-0.2357 -0.1374,-0.3447 -0.1302,-0.1883 -0.265,-0.3278 -0.3368,-0.5477 -0.4767,-1.4566 -0.3127,-2.7595 0.2946,-3.9558 z m 1.1885,4.7517 0.7282,-4.8342 c 1.607,5.2459 0.9633,12.7383 0.113,15.4527 h -0.1174 l -0.7325,-4.3455 0.4507,-0.9026 0.8161,1.1692 0.1403,-1.4857 -0.7941,-0.7428 c 0.0545,-0.7608 0.0285,-1.5295 -0.034,-2.302 l 0.8072,-0.8247 -0.1282,-1.5412 -0.8117,1.1999 z m -0.465,-10.2386 c 4.078,-3.8237 11.9713,-6.0411 18.5648,-2.983 l -12.5988,6.9135 c -0.9224,-2.6374 -2.152,-4.3808 -4.0572,-4.1575 v 0.2724 c 2.5071,-0.1324 3.3958,4.0385 4.0397,7.2541 2.3923,-0.223 2.4212,0.3574 4.1991,1.4495 0.9755,0.5993 2.115,0.587 3.2408,0.1648 1.4531,-0.6074 2.7034,-1.5958 3.9656,-2.5618 l -0.193,1.316 h -1.2283 c -1.3727,1.5923 -3.0388,2.0912 -4.5913,1.8996 -1.4771,-0.1823 -2.0687,-0.9726 -3.2826,-1.5333 -0.4232,-0.1955 -0.8231,-0.2826 -1.1417,-0.27 -0.4805,0.0191 -0.7368,0.4723 -0.7274,0.9218 l 0.0395,1.4911 h 12.125 c 0.3259,-3.1109 0.7119,-5.5005 1.6933,-5.8958 -0.797,2.0428 -1.1772,4.1688 -1.2722,6.352 H 30.7535 c 0.234,3.5069 -0.0524,6.8982 -0.6348,10.2237 h -2.1994 c 0.879,-3.7039 1.0088,-7.5148 0.6232,-11.3993 -0.6551,-5.6458 -1.9886,-8.9592 -4.1411,-9.4578 z m 6.1766,4.7376 13.1602,-7.1942 -0.0214,0.7257 -13.0569,6.726 z m 14.1566,-8.4001 1.2602,-0.8005 -0.2036,0.8004 -1.2434,0.8323 z m 4.0472,-1.742 c 1.442,0 2.6932,1.1944 2.7937,2.6672 0.1011,1.4727 -0.987,2.6671 -2.4289,2.6671 -1.442,0 -2.6932,-1.1944 -2.7937,-2.6671 -0.1012,-1.4728 0.9869,-2.6672 2.4289,-2.6672 z m 0.2304,0.7152 c 0.9618,0 1.7965,0.826 1.8635,1.8445 0.0674,1.0186 -0.6583,1.8446 -1.6202,1.8446 -0.9618,0 -1.7964,-0.826 -1.8635,-1.8446 -0.0674,-1.0185 0.6583,-1.8445 1.6202,-1.8445 z m 1.7153,-0.7909 1.3073,-1.0066 -0.7195,1.5121 z m -3.0412,7.6209 c 2.0303,5.5066 2.4129,11.7455 1.1483,18.7164 h 3.3734 c 2.6074,-6.3372 1.8541,-11.4936 -0.6087,-16.0493 0.7308,4.1601 1.1794,8.3041 0.2688,12.3703 h -0.3027 c 0.8658,-5.8863 -0.5,-12.8456 -2.3349,-15.8972 -0.3545,0.4533 -0.8741,0.7347 -1.5442,0.8598 z m -1.1405,3.2111 c 1.2684,5.2522 1.4904,10.4347 0.0344,15.5053 H 46.488 l -0.664,-4.2675 0.3686,-0.8878 0.816,1.0812 0.1316,-1.5647 -0.7546,-0.8 -0.0504,-2.1531 0.7896,-0.8948 -0.1228,-1.474 -0.8423,1.1581 -0.4913,-0.9651 z m -9.7265,15.5053 c 0.6085,-1.582 1.2888,-2.9013 2.078,-3.8209 1.1059,-1.2888 2.0454,-0.9265 3.6448,-0.8952 l 1.898,0.0372 c 0.9826,-0.228 0.9732,-4.3845 -0.0109,-5.6744 l 0.783,0.0068 c 0.8247,2.2577 0.7135,4.3984 -0.3334,6.4221 0.4088,0.7737 -0.0393,2.4333 -0.3618,3.9244 h -0.1545 l -0.4488,-2.117 0.5264,-1.8424 -1.1756,-0.1405 c 0.0103,1.4063 0.1998,2.7767 0.6241,4.0999 h -0.4404 c -0.2775,-1.3744 -0.4889,-2.7709 -0.64,-4.1875 l -1.5616,-0.158 0.6826,4.3455 z m -4.3989,-4.5736 1.667,0.0176 c -0.636,0.8063 -1.0692,1.7396 -1.1756,2.8776 l -0.2812,-0.005 c -0.0047,-0.8541 0.2268,-1.6803 0.62,-2.4874 z M 11.1296,28.8602 c -0.2844,-0.1623 -0.5762,-0.2155 -0.8723,-0.2078 l 1.0705,-3.0504 c 0.2895,0.2223 0.5983,0.3549 0.923,0.413 l 4.8874,0.4102 c 0.5315,0.0493 0.752,0.0262 0.972,-0.0145 l -1.0441,2.0746 c -0.536,-0.3604 -0.966,-0.501 -1.1626,-0.1582 l -0.4386,1.2527 c 0.2354,0.5904 0.7961,0.5408 1.0572,0.6022 l -0.5352,2.1273 c -0.1358,-0.1655 -0.303,-0.3313 -0.5207,-0.4969 z m 1.056,-1.0985 1.9982,1.194 0.3003,-0.994 z"
       style="fill:#ffce00;fill-rule:evenodd"
       id="path8" />
  </g>
</svg>
