<?xml version="1.0" encoding="UTF-8" standalone="no"?>
<!-- Created with Inkscape (http://www.inkscape.org/) -->

<svg
   version="1.1"
   id="svg2"
   width="300"
   height="200"
   viewBox="10 10 236 236"
   sodipodi:docname="saab-my2001-seeklogo.eps"
   xmlns:inkscape="http://www.inkscape.org/namespaces/inkscape"
   xmlns:sodipodi="http://sodipodi.sourceforge.net/DTD/sodipodi-0.dtd"
   xmlns="http://www.w3.org/2000/svg"
   xmlns:svg="http://www.w3.org/2000/svg">
  <defs
     id="defs6" />
  <sodipodi:namedview
     id="namedview4"
     pagecolor="#ffffff"
     bordercolor="#000000"
     borderopacity="0.25"
     inkscape:showpageshadow="2"
     inkscape:pageopacity="0.0"
     inkscape:pagecheckerboard="0"
     inkscape:deskcolor="#d1d1d1" />
  <g
     id="g8"
     inkscape:groupmode="layer"
     inkscape:label="ink_ext_XXXXXX"
     transform="matrix(1.3333333,0,0,-1.3333333,0,257.01333)">
    <g
       id="g10"
       transform="scale(0.1)">
      <path
         d="M 0,1927.56 H 1927.56 V 0 H 0 v 1927.56 0"
         style="fill:transparent;fill-opacity:1;fill-rule:evenodd;stroke:none"
         id="path12" />
      <path
         d="m 1842.52,963.781 c 0,485.279 -393.47,878.739 -878.743,878.739 -485.269,0 -878.7379,-393.46 -878.7379,-878.739 0,-485.269 393.4689,-878.7419 878.7379,-878.7419 485.273,0 878.743,393.4729 878.743,878.7419 v 0"
         style="fill:#112c5c;fill-opacity:1;fill-rule:evenodd;stroke:none"
         id="path14" />
      <path
         d="m 963.777,1778.82 c 447.803,0 815.043,-365.36 815.043,-815.039 0,-447.801 -367.24,-815.043 -815.043,-815.043 -449.672,0 -815.031,367.242 -815.031,815.043 0,449.679 365.359,815.039 815.031,815.039 v 0"
         style="fill:#deddde;fill-opacity:1;fill-rule:evenodd;stroke:none"
         id="path16" />
      <path
         d="m 1748.84,963.781 c 0,434.689 -352.25,785.059 -785.063,785.059 -432.808,0 -785.054,-350.37 -785.054,-785.059 0,-432.812 352.246,-785.062 785.054,-785.062 432.813,0 785.063,352.25 785.063,785.062 v 0"
         style="fill:#112c5c;fill-opacity:1;fill-rule:evenodd;stroke:none"
         id="path18" />
      <path
         d="m 542.211,1289.8 c 16.859,-15 43.094,-43.1 82.437,-43.1 41.219,0 71.204,14.99 99.305,14.99 20.613,0 56.215,-11.24 73.074,-46.84 -9.367,7.49 -28.105,16.86 -59.957,16.86 -22.48,0 -61.832,-22.48 -95.554,-22.48 -52.461,0 -82.446,43.09 -99.305,80.57 v 0"
         style="fill:#deddde;fill-opacity:1;fill-rule:evenodd;stroke:none"
         id="path20" />
      <path
         d="m 827.004,1437.81 -93.684,217.35 c 39.352,0 78.696,-16.87 78.696,-48.72 0,-9.36 -3.746,-20.61 -11.239,-31.85 0,-1.88 0,-1.88 1.868,-1.88 v 0 c 7.496,7.5 16.863,13.12 28.109,13.12 20.609,0 35.598,-16.86 35.598,-37.47 0,-18.74 -14.989,-35.6 -35.598,-35.6 -1.875,0 -5.621,0 -7.496,0 1.875,-7.49 28.105,-22.48 58.086,-22.48 22.48,0 48.711,9.36 63.699,39.34 -5.617,-5.62 -14.988,-7.49 -22.484,-7.49 -20.606,0 -37.469,14.99 -37.469,35.6 0,20.61 16.863,37.47 37.469,37.47 7.496,0 14.992,-1.87 20.609,-5.62 -7.492,5.62 -13.113,14.99 -13.113,26.23 0,18.74 16.863,35.6 37.472,35.6 20.61,0 37.473,-16.86 37.473,-35.6 0,-9.37 -3.74,-18.73 -11.238,-24.35 5.625,1.87 11.238,3.74 16.868,3.74 20.6,0 37.47,-16.86 37.47,-37.47 0,-20.61 -16.87,-35.6 -37.47,-35.6 -9.37,0 -16.868,3.75 -24.36,7.49 5.617,-14.98 33.72,-41.21 67.45,-41.21 18.73,0 39.35,7.49 58.08,24.35 -1.88,0 -3.74,0 -5.62,0 -22.49,0 -39.34,16.86 -39.34,35.6 0,20.61 16.85,37.47 39.34,37.47 9.37,0 18.73,-5.62 26.23,-13.12 0,0 0,0 1.87,0 0,0 1.87,0 1.87,1.88 -9.36,11.24 -13.11,22.49 -13.11,31.85 0,31.85 39.35,48.72 76.82,48.72 l -89.94,-215.47 H 838.246 c -3.75,0 -7.492,0 -11.242,-1.88 v 0"
         style="fill:#e2ad25;fill-opacity:1;fill-rule:evenodd;stroke:none"
         id="path22" />
      <path
         d="m 798.902,1390.97 c 3.743,22.49 20.606,48.72 39.344,48.72 h 271.674 c 5.63,-5.62 11.24,-13.12 16.87,-20.61 18.74,7.49 37.47,9.37 52.46,9.37 13.11,0 22.49,-1.88 24.36,-1.88 0,0 11.23,-1.87 13.11,-5.62 -13.11,-29.98 -22.48,-46.84 -33.72,-61.83 46.83,-48.71 65.57,-108.67 56.21,-185.49 -13.12,7.5 -39.35,18.74 -54.34,22.48 24.36,-37.47 31.85,-71.2 31.85,-108.67 0,-26.23 -5.62,-54.33 -16.86,-80.56 l -7.5,-20.614 c -14.99,20.614 -26.23,35.604 -43.09,48.714 3.75,-13.11 9.37,-41.218 9.37,-59.953 0,-50.597 -20.61,-95.566 -67.45,-125.539 -9.36,24.364 -28.1,59.953 -46.84,82.438 1.87,-46.836 0,-101.176 -18.74,-136.766 -35.598,-46.851 -84.309,-74.949 -161.133,-93.68 13.117,31.84 24.363,116.161 18.738,217.329 -14.988,-22.481 -31.852,-65.579 -37.473,-119.911 -18.738,14.993 -74.945,56.211 -74.945,129.286 0,29.976 11.238,59.957 29.98,89.936 -26.234,-11.24 -44.972,-28.104 -63.707,-65.581 -5.625,52.461 3.746,108.671 29.981,149.891 -67.449,1.88 -86.192,41.22 -82.442,101.18 18.735,-16.86 39.344,-28.11 67.454,-28.11 28.105,0 63.699,11.25 99.3,58.09 -16.867,9.37 -31.855,14.98 -43.093,18.73 -13.118,3.75 -33.727,7.5 -54.34,33.73 -7.492,9.37 -20.61,11.24 -35.594,11.24 -18.734,0 -46.844,-3.74 -89.938,-26.23 5.622,108.67 58.086,142.4 99.301,142.4 20.614,0 44.973,-7.5 71.203,-22.49 v 0"
         style="fill:#deddde;fill-opacity:1;fill-rule:evenodd;stroke:none"
         id="path24" />
      <path
         d="m 1274.8,497.25 h 73.08 c 9.37,0 16.87,7.488 16.87,14.988 0,9.364 -7.5,14.981 -16.87,14.981 H 1274.8 V 497.25 Z m 69.33,76.809 c 7.49,0 14.99,7.492 14.99,16.871 0,7.492 -7.5,14.992 -14.99,14.992 h -69.33 v -31.863 h 69.33 z M 797.027,525.352 h 65.575 l -33.723,80.57 -31.852,-80.57 z m 239.833,0 h 65.57 l -33.73,80.57 -31.84,-80.57 z M 574.063,662.121 c 69.328,0 133.031,-11.242 133.031,-69.32 h -93.688 c 0,24.359 -16.859,28.109 -39.343,28.109 -20.61,0 -35.602,-5.629 -35.602,-20.621 0,-14.988 13.117,-22.48 46.844,-22.48 84.312,0 121.789,-14.989 129.285,-54.329 l 54.332,134.899 h 121.785 l 58.082,-144.27 59.961,144.27 h 119.91 l 67.45,-159.258 v 159.258 h 192.99 c 48.71,0 59.95,-33.731 59.95,-54.34 0,-18.738 -7.49,-44.969 -44.97,-50.59 43.1,-3.738 52.47,-35.597 52.47,-54.328 0,-22.492 -16.86,-58.082 -58.08,-58.082 h -262.32 l -13.11,33.723 h -106.8 l -14.98,-33.723 H 898.203 l -14.988,33.723 H 776.418 l -14.992,-33.723 h -82.438 l 7.496,18.731 c -13.121,-11.239 -35.605,-24.36 -110.546,-24.36 -71.204,0 -134.903,14.988 -136.778,73.078 h 95.559 c 0,-13.117 9.363,-28.109 39.344,-28.109 37.476,0 41.218,11.242 41.218,20.609 0,13.121 -9.363,24.364 -54.336,24.364 -65.574,0 -112.422,11.238 -112.422,63.699 0,59.961 69.332,73.07 125.54,73.07 v 0"
         style="fill:#deddde;fill-opacity:1;fill-rule:evenodd;stroke:none"
         id="path26" />
      <path
         d="m 879.469,1357.25 c 0,-7.5 -9.371,-18.74 -26.231,-18.74 -14.992,0 -22.484,9.37 -24.359,16.86 -3.746,0 -7.496,0 -11.242,1.88 0,-26.23 18.734,-33.73 37.468,-33.73 13.122,0 33.735,3.75 39.352,33.73 -3.75,0 -9.367,0 -14.988,0 v 0"
         style="fill:#ce0f3e;fill-opacity:1;fill-rule:evenodd;stroke:none"
         id="path28" />
      <path
         d="m 797.027,1364.74 c -26.23,14.99 -50.589,24.36 -69.328,24.36 -44.965,0 -63.699,-50.59 -71.195,-78.69 24.355,7.49 44.965,11.24 61.832,11.24 24.355,0 41.219,-5.62 54.336,-20.61 13.113,-18.74 29.973,-22.49 35.598,-22.49 24.359,-7.49 67.449,-22.48 67.449,-43.09 0,-3.75 0,-9.37 -5.621,-14.99 -43.094,-54.34 -82.438,-69.32 -116.168,-69.32 -16.86,0 -29.977,3.74 -41.215,7.49 9.363,-26.23 35.598,-31.85 56.207,-31.85 16.863,0 31.855,1.87 63.707,9.37 -33.727,-26.23 -61.832,-59.96 -69.328,-112.42 29.98,22.48 61.832,28.1 95.554,28.1 -39.347,-41.21 -61.828,-82.434 -61.828,-123.656 0,-43.094 18.735,-67.454 31.852,-82.446 14.988,69.332 50.59,112.422 73.074,134.907 13.11,-97.434 5.621,-202.356 -1.875,-243.575 41.223,14.989 76.817,33.719 104.922,71.2 16.87,28.109 18.74,110.539 13.12,177.996 35.6,-22.485 67.45,-63.707 82.44,-97.426 20.6,20.601 31.85,48.711 31.85,86.187 0,41.213 -13.11,78.693 -26.23,106.793 29.97,-9.37 56.21,-22.48 76.82,-46.84 5.62,18.74 9.36,35.6 9.36,54.34 0,65.57 -35.59,112.41 -59.95,136.77 39.35,0 61.83,-7.5 84.31,-14.98 1.87,41.21 -9.37,89.93 -46.84,129.27 -33.73,-39.34 -65.57,-61.83 -129.28,-84.31 56.21,-43.09 39.35,-108.67 -13.12,-174.25 -5.61,28.11 -13.11,52.47 -31.843,73.07 3.75,-35.6 -5.625,-101.17 -78.699,-136.77 1.875,28.1 -1.875,52.46 -7.489,76.82 -5.625,-5.62 -14.992,-13.12 -24.359,-20.61 -1.875,7.49 -3.746,20.61 -1.875,29.98 13.113,11.24 24.359,26.23 37.469,41.21 11.246,-28.1 16.867,-65.57 18.742,-82.43 26.226,24.35 46.844,69.32 20.609,149.89 39.352,-20.61 59.955,-41.22 74.945,-74.95 41.22,69.33 -1.87,104.93 -65.578,129.29 74.948,9.36 166.748,43.09 213.598,136.77 -31.86,1.87 -80.57,-9.37 -127.41,-69.33 -5.62,3.75 -13.12,9.37 -14.99,14.99 18.74,26.23 41.23,46.85 65.58,59.96 -1.87,3.75 -3.75,7.49 -5.62,7.49 H 840.117 c -9.363,0 -18.734,-16.86 -22.48,-35.59 5.621,-1.88 14.992,-1.88 24.355,-1.88 9.371,0 18.738,0 29.981,0 18.734,0 46.84,-1.87 63.703,-13.11 -1.871,-7.5 -5.621,-13.12 -9.367,-16.87 -3.75,1.88 -7.496,1.88 -11.246,3.75 -9.364,-43.09 -39.344,-52.46 -59.958,-52.46 -52.46,0 -61.824,41.22 -58.078,63.7 v 0"
         style="fill:#ce0f3e;fill-opacity:1;fill-rule:evenodd;stroke:none"
         id="path30" />
    </g>
  </g>
</svg>
