<?xml version="1.0" encoding="UTF-8" standalone="no"?>
<!-- Created with Inkscape (http://www.inkscape.org/) -->

<svg
   version="1.1"
   id="svg2"
   width="300"
   height="200"
   viewBox="10 10 238 238"
   sodipodi:docname="saab-scania-seeklogo.eps"
   xmlns:inkscape="http://www.inkscape.org/namespaces/inkscape"
   xmlns:sodipodi="http://sodipodi.sourceforge.net/DTD/sodipodi-0.dtd"
   xmlns="http://www.w3.org/2000/svg"
   xmlns:svg="http://www.w3.org/2000/svg">
  <defs
     id="defs6" />
  <sodipodi:namedview
     id="namedview4"
     pagecolor="#ffffff"
     bordercolor="#000000"
     borderopacity="0.25"
     inkscape:showpageshadow="2"
     inkscape:pageopacity="0.0"
     inkscape:pagecheckerboard="0"
     inkscape:deskcolor="#d1d1d1" />
  <g
     id="g8"
     inkscape:groupmode="layer"
     inkscape:label="ink_ext_XXXXXX"
     transform="matrix(1.3333333,0,0,-1.3333333,0,258.66667)">
    <g
       id="g10"
       transform="scale(0.1)">
      <path
         d="M 2.59766,1933.23 H 1930.16 V 5.66797 H 2.59766 V 1933.23"
         style="fill:transparent;fill-opacity:1;fill-rule:evenodd;stroke:none"
         id="path12" />
      <path
         d="m 966.379,1848.19 c 484.351,0 878.741,-394.39 878.741,-878.741 0,-484.355 -394.39,-878.742 -878.741,-878.742 -484.356,0 -878.7423,394.387 -878.7423,878.742 0,484.351 394.3863,878.741 878.7423,878.741"
         style="fill:#112c5c;fill-opacity:1;fill-rule:evenodd;stroke:none"
         id="path14" />
      <path
         d="m 285.844,984.332 v -35.855 c 2.031,6.089 3.383,12.179 5.414,18.265 -2.031,6.09 -3.383,11.5 -5.414,17.59 z m -23,-230.68 h -1.352 v 418.058 h 1.352 c 4.738,175.89 83.207,334.18 207,450.54 127.855,119.73 304.418,193.47 498.562,193.47 194.144,0 370.704,-73.74 498.564,-193.47 124.47,-116.36 202.26,-274.65 207.67,-450.54 h 0.68 V 753.652 h -1.35 c -6.77,-172.5 -84.56,-328.089 -207,-442.414 C 1339.11,191.504 1162.55,117.09 968.406,117.09 c -194.144,0 -370.707,74.414 -498.562,194.148 -122.438,114.325 -200.235,269.914 -207,442.414 z M 968.406,1791.37 c -188.058,0 -358.531,-71.71 -481.648,-187.39 -123.793,-115 -200.235,-273.97 -200.235,-449.18 0,-51.41 6.762,-100.79 18.942,-148.82 35.851,91.32 92.676,172.5 164.379,240.15 127.855,119.73 304.418,193.47 498.562,193.47 194.144,0 370.704,-73.74 498.564,-193.47 72.38,-67.65 128.53,-148.83 164.38,-240.15 12.18,48.03 18.94,97.41 18.94,148.82 0,175.21 -76.44,334.18 -200.24,449.18 -123.11,115.68 -293.59,187.39 -481.644,187.39 z M 316.965,966.742 C 350.109,866.625 408.961,777.332 486.758,704.949 609.875,589.27 780.348,517.563 968.406,517.563 c 188.054,0 358.534,71.707 481.644,187.386 77.8,72.383 136.66,161.676 169.8,261.793 -33.14,99.438 -92,189.418 -169.8,261.798 -123.11,115 -293.59,186.71 -481.644,186.71 -188.058,0 -358.531,-71.71 -481.648,-186.71 -77.797,-72.38 -136.649,-162.36 -169.793,-261.798 z m 1334.005,17.59 c -2.03,-6.09 -3.38,-12.176 -5.41,-17.59 2.03,-6.086 3.38,-12.176 5.41,-17.586 z m -19.62,-57.5 c -35.85,-90.648 -92,-172.5 -164.38,-240.148 -127.86,-119.059 -304.42,-193.473 -498.564,-193.473 -194.144,0 -370.707,74.414 -498.562,193.473 -71.703,67.648 -128.528,149.5 -164.379,240.148 -12.18,-47.355 -18.942,-97.414 -18.942,-148.148 0,-175.207 76.442,-334.856 200.235,-449.856 123.117,-115.676 293.59,-187.387 481.648,-187.387 188.054,0 358.534,71.711 481.644,187.387 123.8,115 200.24,274.649 200.24,449.856 0,50.734 -6.76,100.793 -18.94,148.148"
         style="fill:#ffffff;fill-opacity:1;fill-rule:evenodd;stroke:none"
         id="path16" />
      <path
         d="m 1361.44,1616.16 c 28.41,-18.94 48.7,-37.21 60.88,-53.44 11.5,-16.92 17.59,-33.83 17.59,-50.74 0,-9.47 -2.03,-15.55 -6.77,-19.62 -4.73,-3.38 -11.5,-4.06 -20.96,-2.7 12.17,-11.5 20.96,-23.68 27.05,-35.86 6.09,-12.17 8.8,-24.35 8.8,-35.85 0,-17.59 -6.09,-27.06 -18.94,-27.74 -12.86,-1.35 -31.8,5.42 -57.5,18.95 -51.42,25.03 -102.83,45.32 -154.24,61.55 -6.76,2.04 -14.21,3.39 -20.97,5.42 -21.65,4.73 -43.29,9.47 -64.94,12.85 -2.71,7.45 -4.74,15.56 -6.77,23 -29.09,4.06 -58.17,6.77 -87.26,8.8 -2.71,-7.44 -4.74,-14.89 -7.44,-21.65 -14.21,0 -27.74,0 -41.943,0 -14.207,0 -28.414,-0.68 -43.297,-1.35 -14.203,-0.68 -28.414,-1.35 -42.617,-2.71 -2.027,6.77 -4.734,14.21 -6.765,21.65 -29.086,-4.06 -58.176,-8.12 -87.266,-14.21 -2.027,-7.44 -4.734,-15.56 -7.441,-23.67 -28.411,-6.77 -56.149,-14.21 -84.559,-23.68 1.356,4.73 3.383,10.14 4.734,14.88 0,-0.68 -0.675,-0.68 -0.675,-1.35 -22.325,-20.3 -58.176,-39.92 -106.207,-62.24 -37.879,-20.29 -67.649,-31.79 -87.942,-32.47 -20.293,-2.71 -30.441,6.77 -31.117,27.73 32.469,23.68 64.266,44.65 96.059,63.59 0.679,-5.41 4.734,-7.44 10.824,-7.44 6.09,0.68 14.207,3.39 25.031,8.8 10.82,5.41 18.941,10.14 24.352,15.55 5.414,4.74 8.117,9.48 8.117,14.89 0,4.74 -2.703,7.44 -7.442,8.12 -4.734,0.67 -11.5,-0.68 -20.968,-4.74 -20.293,-7.44 -39.914,-16.23 -59.532,-25.7 -24.351,-12.18 -43.293,-18.27 -55.472,-17.59 -12.172,0.67 -18.262,9.47 -18.262,26.38 0,22.32 8.793,46 27.734,71.71 18.942,24.35 48.707,51.41 89.973,77.79 42.617,23 74.41,33.14 95.383,30.44 20.293,-3.38 31.793,-16.91 33.82,-40.59 -31.113,-11.5 -62.234,-24.35 -92.676,-38.56 -0.675,6.77 -4.734,9.47 -11.5,9.47 -6.761,0 -16.234,-3.38 -28.41,-10.14 -8.793,-5.41 -16.238,-10.83 -20.972,-16.91 -5.411,-5.42 -7.442,-10.15 -7.442,-14.21 0,-4.06 2.031,-6.09 5.414,-6.09 4.059,0.68 12.176,3.39 25.028,8.8 23.675,9.47 48.031,17.58 71.707,25.03 23,5.41 39.91,4.73 50.738,-2.03 7.441,-4.74 12.851,-12.18 14.879,-21.65 8.793,25.03 18.265,49.38 27.062,74.41 8.793,25.03 17.586,50.06 26.383,74.41 33.82,7.44 66.969,13.53 100.793,17.59 10.149,-27.74 20.293,-55.47 30.442,-82.53 10.82,-28.41 20.968,-56.15 31.117,-83.88 11.5,28.41 22.324,56.82 33.145,85.23 11.5,27.74 22.33,55.48 33.83,83.21 33.14,-3.38 66.97,-8.12 100.79,-14.21 10.14,-29.76 20.29,-60.2 30.44,-89.97 10.15,-29.76 20.97,-59.53 31.12,-89.97 0,27.74 0,54.8 0,81.86 0,27.06 0,54.11 0,81.17 54.8,-20.29 110.26,-46 165.06,-77.79 z m -85.91,-2.71 c 0,-9.47 0,-19.62 0,-29.76 18.26,-7.44 35.85,-16.24 53.44,-25.03 12.17,-6.09 18.94,-9.47 22.32,-9.47 4.06,0 5.41,2.7 5.41,8.11 0,5.42 -1.35,10.15 -4.73,14.21 -3.38,4.06 -10.83,9.47 -23,16.24 -17.59,9.47 -35.18,17.58 -53.44,25.7 z m 0,-108.91 c 18.94,-7.44 37.88,-15.56 56.82,-24.35 12.85,-6.09 20.97,-9.48 25.03,-9.48 3.38,0.68 5.41,3.39 5.41,10.15 0,6.09 -2.03,11.5 -6.09,16.24 -3.38,4.74 -12.17,10.15 -24.35,16.91 -18.94,8.79 -37.88,17.59 -56.82,25.03 0,-11.5 0,-23 0,-34.5 z m -219.18,71.03 c 16.91,-2.03 33.82,-3.38 50.74,-6.09 -4.07,13.53 -8.13,27.74 -12.18,41.27 -4.74,13.52 -8.8,27.05 -12.86,41.26 -4.05,-12.85 -8.79,-25.71 -12.85,-38.56 -4.06,-12.17 -8.79,-25.03 -12.85,-37.88 z m -229.327,-12.85 c 16.915,2.7 33.825,5.41 50.735,8.12 -4.055,12.85 -8.113,25.02 -12.176,37.88 -4.059,12.85 -8.117,25.7 -12.176,38.55 -4.734,-14.2 -9.468,-28.41 -13.531,-42.61 -4.059,-14.21 -8.793,-28.41 -12.852,-41.94"
         style="fill:#ffffff;fill-opacity:1;fill-rule:evenodd;stroke:none"
         id="path18" />
      <path
         d="m 1220.73,273.355 c 0,31.797 0,62.915 0,94.711 0,31.114 0,62.235 0,94.028 19.62,9.469 39.91,19.617 60.21,30.441 0,-31.793 0,-63.586 0,-95.383 0,-25.707 0,-51.414 0,-76.441 8.79,29.766 18.26,60.879 27.06,91.32 10.82,39.239 22.32,79.153 33.82,119.739 25.03,18.265 50.73,38.558 76.44,60.207 10.15,-24.352 20.97,-49.383 31.12,-74.414 10.82,-24.352 20.97,-49.383 31.8,-75.09 -21.65,-19.614 -43.98,-37.879 -65.63,-55.469 -1.35,5.414 -3.37,10.824 -4.73,16.234 -22.32,-16.91 -44.65,-32.468 -66.29,-46.672 -2.03,-7.445 -4.06,-15.562 -6.09,-23.003 -18.94,-11.5 -38.56,-22.325 -57.5,-32.469 v 0 c -2.03,-1.356 -4.74,-2.031 -6.76,-3.387 v 0 0 c -18.27,-8.793 -35.86,-16.23 -53.45,-24.352 z M 806.055,231.414 c 3.379,8.121 6.086,15.559 9.468,23.68 -3.382,-2.707 -7.441,-6.09 -10.82,-8.121 -17.59,-10.145 -41.941,-12.852 -73.062,-4.059 -34.5,10.149 -60.203,29.77 -77.793,56.149 -6.766,9.472 -12.18,19.617 -16.239,30.441 -0.671,-3.379 -2.027,-6.766 -4.054,-9.469 -4.059,-7.441 -10.149,-12.18 -18.942,-13.531 -16.914,-3.383 -43.972,4.734 -80.5,27.734 -29.09,18.942 -51.414,43.297 -66.972,69 -15.559,26.383 -23,52.766 -23,77.797 23.675,-20.972 48.031,-40.59 72.382,-59.531 0.676,-6.766 3.383,-12.852 8.118,-19.617 4.734,-6.766 10.824,-12.852 19.617,-18.266 8.117,-5.41 14.207,-8.117 18.265,-8.117 4.059,0 6.09,2.707 6.09,7.441 0,4.735 -2.031,9.473 -5.414,14.883 -3.383,5.41 -8.793,10.824 -16.234,16.91 -15.559,13.532 -30.442,27.063 -45.324,41.266 -18.942,18.266 -32.473,37.883 -41.942,58.18 -9.469,20.293 -14.207,40.589 -14.207,60.882 0,26.379 6.766,38.559 21.649,36.528 14.203,-2.028 35.851,-17.586 67.644,-42.617 32.473,-26.383 56.828,-48.032 72.383,-69 15.559,-20.293 24.355,-41.266 25.707,-64.266 0,0.676 0.68,1.352 0.68,2.031 4.734,11.5 11.5,18.938 20.293,23.676 17.59,8.793 43.293,4.734 77.793,-8.797 32.472,-12.176 57.5,-25.703 75.089,-45.32 8.793,-9.473 15.559,-19.621 20.293,-31.121 4.739,-12.176 7.442,-24.352 8.122,-38.559 -23.004,4.734 -46.004,10.149 -69.004,15.559 -1.352,12.179 -4.735,23 -10.149,31.121 -6.086,8.117 -14.203,13.527 -24.351,17.586 -12.852,4.734 -22.321,4.058 -29.09,-2.707 -7.442,-6.762 -10.821,-18.262 -10.821,-36.528 0,-17.586 3.379,-32.472 10.821,-43.972 6.09,-12.176 16.238,-20.293 29.09,-24.352 9.472,-2.707 16.91,-2.031 23,2.027 5.41,3.383 9.472,10.149 11.5,20.293 21.648,-5.41 43.972,-10.144 66.293,-14.203 2.711,6.762 4.738,12.852 7.441,19.618 11.5,29.765 22.328,60.207 33.828,89.968 25.703,-2.703 50.735,-4.054 76.442,-4.73 10.82,-31.797 20.968,-62.235 31.793,-92.676 9.468,-27.738 18.942,-54.797 28.412,-82.531 0,28.41 0,56.144 0,83.883 0,31.117 0,62.234 0,93.351 23.68,2.031 47.35,4.735 71.03,8.793 10.14,-15.558 20.29,-31.117 30.44,-46.676 9.47,-15.558 19.62,-30.441 29.77,-45.32 0,17.586 0,35.172 0,53.438 0,17.589 0,35.855 0,53.441 19.61,6.09 39.23,12.855 58.85,20.297 0,-31.121 0,-62.238 0,-93.356 0,-31.797 0,-62.91 0,-94.031 -23,-8.117 -45.33,-14.879 -68.33,-20.969 -10.82,14.883 -21.65,30.442 -32.47,46 -10.82,15.559 -21.64,31.793 -32.47,48.032 0,-17.59 0,-35.856 0,-54.122 0,-18.261 0,-35.851 0,-54.117 -18.94,-2.703 -37.88,-5.414 -56.82,-7.441 0,0 0,0 0,0.676 -20.971,-2.028 -41.944,-3.379 -62.237,-3.379 -2.027,6.086 -4.058,12.172 -5.414,18.261 -22.32,0 -43.969,0.68 -66.293,2.032 -2.027,-6.09 -4.058,-12.176 -5.41,-18.266 -21.648,2.703 -43.293,5.414 -64.941,8.793 z m -178.59,167.094 c 0,14.203 2.031,26.379 4.734,35.851 -23,13.528 -46,27.735 -69,43.293 -1.351,7.442 -4.058,14.883 -8.793,22.325 -5.414,6.765 -12.855,14.207 -21.648,21.648 -6.766,5.41 -12.176,8.117 -16.235,8.117 -4.058,0.676 -5.414,-1.355 -5.414,-6.09 0,-4.058 1.356,-8.797 4.063,-12.851 3.379,-4.738 9.469,-12.18 18.941,-20.973 17.586,-17.586 36.528,-33.824 54.793,-49.383 16.91,-13.527 29.762,-27.734 38.559,-41.937 z M 890.613,290.27 c 12.852,-0.676 25.703,-1.356 38.559,-1.356 -3.383,10.824 -6.086,21.649 -9.473,33.149 -2.703,10.824 -6.086,22.324 -9.469,33.148 -2.707,-10.824 -6.765,-21.648 -9.472,-32.473 -3.379,-10.82 -6.762,-21.644 -10.145,-32.468 z m 468.117,125.824 c 12.86,9.469 25.71,18.265 38.56,28.41 -3.38,9.469 -6.09,18.266 -9.47,27.738 -3.38,9.469 -6.09,18.942 -9.47,28.41 -3.38,-14.207 -6.76,-28.41 -10.15,-42.617 -2.7,-13.531 -6.09,-27.734 -9.47,-41.941"
         style="fill:#ffffff;fill-opacity:1;fill-rule:evenodd;stroke:none"
         id="path20" />
      <path
         d="m 837.848,1118.27 -5.414,4.06 -6.086,3.38 -15.559,6.09 -16.914,3.38 h -16.234 l -16.911,-4.05 -16.91,-8.8 -15.562,-12.85 -12.176,-14.88 -7.441,-15.56 -4.059,-15.56 -0.676,-16.24 1.352,-14.88 1.351,-7.44 8.797,4.73 17.586,9.48 18.266,6.76 16.234,2.03 16.238,-2.03 14.204,-5.41 10.148,-7.44 8.793,-10.15 3.387,-5.41 8.113,-0.68 23,-6.09 20.297,-8.11 8.793,-4.741 10.148,-6.761 -6.09,-6.09 -15.558,-14.207 -17.59,-13.531 -16.91,-8.793 -17.59,-6.086 -16.234,-2.032 -15.559,0.68 -14.203,3.379 -12.856,6.09 -6.765,4.734 -6.766,4.738 1.356,-6.089 2.703,-13.532 4.738,-14.203 6.762,-11.5 9.472,-9.472 12.856,-8.118 14.883,-4.738 16.91,-0.672 19.617,2.703 18.941,6.09 9.473,4.059 8.793,3.383 v -1.356 l -1.351,-2.027 -6.09,-5.41 -13.532,-7.442 -15.558,-9.472 -14.883,-12.176 -12.176,-15.559 -8.117,-16.914 -4.059,-19.613 v -19.621 l 3.383,-17.59 2.707,-8.793 3.383,-8.793 4.059,7.438 11.5,16.914 15.554,16.914 14.887,12.851 11.5,7.442 5.41,3.382 2.032,0.676 h 1.351 l 0.676,-1.351 -0.676,-1.356 -4.058,-4.734 -10.825,-11.5 -13.531,-16.91 -10.82,-19.618 -6.09,-20.972 v -24.352 l 5.41,-27.738 10.824,-29.086 14.883,-26.383 16.234,-23.004 6.766,-9.468 7.441,-9.469 0.676,10.144 2.032,27.063 6.085,35.172 10.149,33.148 9.473,25.711 2.703,6.762 2.031,2.031 0.676,2.027 1.351,0.676 h 0.68 l 0.672,-0.676 0.68,-0.675 0.675,-2.707 0.676,-3.383 -1.351,-18.942 -0.68,-17.586 -0.672,-18.945 v -20.969 l -0.68,-20.293 -1.351,-31.121 -2.028,-18.261 -4.062,-12.18 -4.059,-10.82 -2.703,-4.059 -2.707,-4.063 18.942,5.418 33.148,10.821 25.027,10.148 17.587,9.473 13.53,10.82 10.82,13.531 8.12,18.262 4.06,21.649 v 18.265 l -2.7,14.207 -4.06,14.203 -5.42,15.559 -4.73,16.238 -4.06,14.203 -0.68,4.059 -0.67,3.383 v 2.031 l 1.35,0.676 1.35,0.679 2.03,-0.679 2.03,-1.352 2.71,-3.383 3.38,-6.765 9.47,-21.649 9.47,-25.703 7.44,-20.972 4.06,-16.911 2.03,-14.886 0.68,-9.469 v -2.703 l 19.61,17.586 29.77,28.414 16.23,18.941 8.8,16.91 4.73,18.266 v 20.293 l -4.73,18.941 -8.12,19.618 -10.15,20.968 -8.79,16.914 -1.35,4.735 -2.03,4.738 v 2.703 l 0.67,2.031 2.04,1.352 2.02,0.676 h 2.03 l 2.71,-1.352 3.38,-3.379 2.71,-4.062 11.5,-16.235 10.82,-16.914 13.53,-22.32 10.15,-16.914 8.11,18.941 12.18,29.086 6.09,20.973 1.36,18.945 -2.71,20.965 -7.44,20.973 -9.48,17.59 -12.17,15.558 -16.92,18.266 -14.87,16.234 -6.09,8.117 -0.68,1.352 v 2.031 l 1.35,1.352 2.03,0.679 h 2.03 l 3.38,-0.679 4.06,-2.703 6.09,-4.739 13.53,-12.171 18.26,-18.27 16.24,-16.234 11.5,-14.207 4.74,-7.442 3.38,20.973 4.06,31.117 0.67,21.648 -2.03,20.297 -5.41,19.61 -10.82,19.62 -16.91,18.27 -18.94,16.23 -9.48,7.44 4.74,6.77 10.15,17.59 8.11,18.94 6.09,19.62 2.04,10.82 -6.77,0.68 -17.59,0.67 -22.32,-2.7 -23.68,-6.77 -11.5,-4.73 -12.86,-5.42 -25.02,1.36 -26.39,2.03 -27.73,1.35 -26.382,0.68 -26.383,-0.68 h -25.707 l -22.325,-1.35 -31.117,-2.71 -16.91,-3.38 -10.148,-4.06 -6.766,-5.41 -2.707,-3.38 z m -220.532,-91.32 0.68,-4.74 v -5.41 l 3.379,-12.85 6.766,-14.208 10.148,-11.5 14.879,-8.793 21.648,-6.09 25.707,-2.027 20.969,1.356 17.59,2.023 22.324,3.387 25.028,2.703 21.648,1.355 18.266,-1.355 14.207,-4.059 6.761,-2.703 -1.351,5.41 -4.059,12.852 -8.793,15.558 -12.179,11.501 -15.559,6.77 -20.969,3.38 h -25.027 l -31.121,-1.36 -33.149,-3.38 -24.351,-1.35 h -14.883 l -17.586,4.73 -9.473,3.39 -11.5,5.41"
         style="fill:#ffffff;fill-opacity:1;fill-rule:evenodd;stroke:none"
         id="path22" />
      <path
         d="m 838.523,1152.77 23.68,2.71 23.672,2.7 24.355,2.03 25.028,2.04 24.355,1.35 h 25.028 25.029 l 24.36,-1.35 23.67,-2.04 22.32,-2.03 20.3,-2.02 6.09,16.91 7.44,19.62 8.11,20.97 10.15,22.32 10.15,21.65 10.15,19.62 10.82,18.94 10.15,16.91 9.47,16.23 h -6.09 -14.88 l -15.56,-2.7 -13.53,-5.42 -10.83,-7.44 -7.44,-8.79 -3.38,-8.79 v -12.18 l 2.71,-8.8 3.38,-10.14 -4.06,2.7 -9.47,5.42 -10.82,2.7 -10.83,-2.7 -10.14,-5.42 -6.09,-8.11 -2.03,-11.5 0.68,-10.83 4.05,-10.14 7.44,-6.77 8.8,-3.38 h 8.79 l 8.12,3.38 3.38,2.71 -2.7,-4.06 -9.47,-8.12 -12.18,-7.44 -16.91,-4.74 -16.91,-2.02 -16.24,1.35 -15.56,5.41 -12.85,6.76 -10.144,8.8 -6.766,9.47 -2.707,4.74 2.707,-2.03 6.766,-4.74 9.464,-2.03 h 10.15 l 10.15,4.06 8.12,6.09 5.41,9.47 1.35,9.47 -1.35,9.47 -4.74,8.12 -7.44,6.76 -9.47,3.38 -10.82,0.68 -10.148,-2.71 -4.735,-2.7 -5.414,-2.03 3.383,2.71 4.734,8.11 4.059,10.83 v 12.17 l -3.383,10.83 -6.086,7.44 -8.121,5.41 -8.793,1.35 -9.468,-0.68 -8.118,-4.73 -8.121,-7.44 -4.054,-10.83 v -12.17 l 3.382,-11.5 3.379,-6.09 4.059,-5.41 -3.379,2.03 -8.121,4.06 -10.145,2.03 -10.824,-2.03 -9.473,-4.74 -6.765,-7.44 -4.055,-8.12 v -10.82 l 4.735,-10.82 6.765,-8.8 10.145,-4.73 10.824,-1.36 10.148,2.04 9.469,3.37 4.059,2.71 -3.383,-4.06 -8.793,-10.82 -11.5,-9.47 -12.176,-7.44 -15.558,-4.06 -18.266,-1.36 -17.59,3.39 -14.879,6.09 -14.887,8.79 -6.761,5.41 3.379,-1.35 8.796,-2.03 9.473,0.68 10.145,4.73 7.441,8.79 4.059,10.83 -2.032,12.85 -6.086,10.82 -7.441,6.77 -10.144,3.38 h -9.473 l -9.469,-2.7 -8.121,-4.06 -2.707,-2.71 1.355,3.38 3.383,8.8 0.676,11.5 -4.059,10.82 -8.117,10.82 -11.5,9.48 -13.531,6.08 -14.203,3.39 -13.531,0.67 -6.766,-0.67 9.469,-14.89 11.504,-19.61 13.527,-25.03 14.207,-28.42 14.207,-29.76 12.852,-29.76 12.175,-28.42"
         style="fill:#e2ad25;fill-opacity:1;fill-rule:evenodd;stroke:none"
         id="path24" />
      <path
         d="m 927.145,920.066 -12.856,-6.765 6.766,-54.793 6.09,4.058 14.882,12.176 13.528,15.563 6.086,8.793 6.765,9.468 0.68,-10.824 1.352,-22.324 -1.352,-23 -2.707,-23.676 -2.031,-11.5 -2.028,-11.5 4.735,3.383 12.175,8.117 14.883,12.176 13.527,17.59 10.83,20.969 6.76,23.679 4.06,23 0.68,22.321 -0.68,11.5 9.47,-17.586 9.47,-18.266 9.47,-19.617 9.47,-19.621 3.38,4.062 7.45,10.824 8.11,13.528 6.09,16.914 2.71,16.91 -0.68,17.59 -5.41,22.324 -4.06,13.527 -4.74,14.204 -11.5,-6.086 2.03,-6.086 4.74,-13.532 3.38,-12.175 2.03,-11.5 0.68,-10.825 -0.68,-10.82 -2.7,-10.148 -3.39,-10.149 -1.35,-4.734 -2.03,-4.059 -8.79,15.559 -20.3,33.144 -10.82,16.914 -10.82,15.559 -6.77,-3.383 1.35,-8.793 2.03,-18.265 0.68,-18.942 -1.35,-19.617 -2.71,-17.59 -4.06,-16.234 -6.76,-14.883 -8.797,-14.207 -5.414,-6.762 -5.41,-6.765 v 14.203 27.062 l -1.351,26.379 -4.059,23.004 -2.707,10.82 -2.031,10.149 -6.762,-2.707 -2.707,-8.793 -5.414,-18.262 -7.438,-14.211 -8.793,-11.5 -5.414,-4.73 -5.414,-5.414 -4.054,35.175 z m 116.355,120.414 -6.77,10.82 7.44,7.44 20.3,18.94 22.99,18.27 24.36,14.21 12.85,6.09 13.53,6.08 -3.38,-6.08 -12.18,-15.57 -20.97,-19.61 -27.06,-20.98 -14.88,-9.46 z m -176.562,51.41 -15.563,0.68 2.031,-4.74 6.09,-10.15 7.442,-7.44 9.468,-3.38 9.469,-1.35 9.473,2.03 8.797,5.41 6.085,7.44 2.708,4.06 2.027,4.06 -14.879,0.67 -1.356,-1.35 -4.058,-4.74 -7.442,-2.7 -8.792,0.68 -6.09,4.06 -2.703,3.38 z m -12.856,14.88 106.207,-5.41 -2.031,-14.88 -24.352,1.35 -1.351,-4.06 -4.735,-10.14 -7.441,-9.47 -9.473,-7.45 -11.5,-5.41 -12.851,-2.03 -12.176,0.68 -12.176,3.38 -12.18,7.44 -8.793,10.82 -6.765,12.18 -4.059,10.15 -6.086,8.12 -12.855,8.12 -16.235,5.41 -16.91,0.68 -15.558,-3.39 -13.532,-6.76 -10.824,-9.47 -8.117,-11.5 -4.738,-12.18 -2.703,-12.86 -0.676,-6.76 4.734,3.38 13.532,6.77 16.91,4.73 18.265,0.68 18.262,-4.73 15.559,-8.12 13.531,-10.83 5.41,-5.41 5.414,-5.41 14.883,-4.06 17.59,-4.73 -0.68,13.53 92.676,-14.89 v -15.56 l -73.735,10.15 6.09,-3.38 13.532,-9.47 7.441,-6.765 8.793,-7.442 -8.121,-7.441 -14.879,-15.559 -15.563,-14.207 -17.586,-13.527 -17.585,-9.473 -17.59,-6.089 -18.266,-2.707 -18.941,0.679 -9.469,2.028 -10.824,1.355 4.058,-3.383 8.793,-6.765 13.528,-4.735 15.562,-1.351 16.91,2.027 16.239,4.059 16.23,6.086 8.121,2.707 7.442,3.382 4.734,-6.089 6.766,-10.145 2.027,-6.09 -0.676,-6.086 -2.703,-5.414 -6.77,-5.41 -12.851,-8.117 -16.91,-9.473 -14.883,-11.5 -11.5,-12.172 -8.117,-13.531 -4.059,-14.207 -0.676,-6.766 -0.679,-6.086 8.793,7.442 18.941,13.527 8.121,6.09 7.442,4.734 6.765,3.379 5.41,2.032 4.735,1.355 h 4.058 l 4.059,-1.355 2.707,-1.352 2.703,-2.707 2.711,-2.703 1.352,-4.738 0.675,-4.059 -1.355,-4.734 -2.703,-5.411 -4.059,-4.738 -4.058,-4.734 -3.383,-4.059 -10.825,-13.531 -10.148,-16.91 -7.437,-18.266 -2.032,-18.941 2.032,-22.324 6.085,-20.969 9.473,-20.973 6.086,-9.469 6.09,-10.824 2.027,12.176 6.09,25.031 8.117,25.028 8.793,21.648 3.383,8.117 3.383,6.09 3.383,4.059 3.383,3.382 2.707,2.028 3.382,1.355 4.059,0.676 h 3.379 l 2.707,-1.355 3.383,-2.028 2.703,-2.707 2.707,-3.383 1.355,-3.382 1.352,-4.059 0.676,-4.734 0.679,-6.766 v -16.234 l -0.679,-32.469 -1.352,-32.473 V 635.27 l -0.676,-13.532 -1.355,-16.91 -2.027,-12.851 -0.68,-4.735 12.855,6.086 25.028,11.5 20.297,12.856 14.202,12.851 8.12,14.883 3.38,16.91 -0.67,18.27 -4.74,18.937 -6.76,23.676 -6.77,20.973 -2.028,6.086 -0.676,6.089 -0.676,4.059 0.676,4.062 0.676,4.731 2.028,3.383 2.71,3.386 2.7,2.704 4.06,2.027 3.38,1.355 h 4.06 l 4.06,-0.675 4.06,-2.032 4.74,-2.027 3.38,-4.059 4.06,-4.062 3.38,-6.086 4.06,-6.766 8.79,-18.265 8.8,-23 8.11,-24.352 4.74,-12.855 10.82,9.472 16.91,18.262 11.5,16.238 6.09,16.911 1.35,17.589 -2.02,12.852 -4.74,10.824 -8.11,16.914 -10.83,20.973 -6.76,14.879 -2.71,6.765 -1.35,4.735 v 4.734 l 0.67,4.059 1.35,4.062 2.04,4.059 2.7,3.379 3.38,2.711 3.38,2.027 4.74,1.352 h 4.06 4.74 l 4.05,-1.352 4.06,-2.027 4.74,-3.387 4.74,-4.734 9.46,-11.5 8.8,-12.176 16.24,-23 2.7,7.437 4.74,17.59 2.7,20.297 -2.03,20.293 -8.11,20.293 -14.89,22.328 -18.94,21.645 -14.88,16.91 -8.12,10.824 -2.71,5.414 -0.67,3.379 0.67,4.738 v 4.055 l 2.71,3.387 2.7,3.382 4.74,2.028 5.41,1.351 h 6.77 l 7.44,-2.027 8.12,-4.059 9.47,-5.414 12.18,-10.148 10.14,-8.793 19.62,-18.941 0.68,10.824 0.67,22.324 -0.67,9.473 -2.03,9.472 -2.03,8.79 -4.06,8.79 -7.44,12.18 -9.47,11.5 -10.83,10.15 -11.5,8.11 -9.47,6.77 -8.79,-7.44 -29.77,-21.65 -28.41,-18.26 -9.47,-5.41 -10.15,14.88 14.21,8.12 26.38,16.91 20.3,14.88 15.55,14.88 12.18,15.56 10.15,17.59 4.73,10.15 4.06,10.14 -7.44,-0.67 -18.94,-3.38 -25.03,-8.8 -24.35,-12.85 -20.3,-14.21 -17.59,-16.23 -8.11,-9.48 -8.12,-9.46 -12.18,16.91 6.09,6.76 15.56,16.24 9.47,8.12 9.47,8.11 -8.12,1.36 -20.29,2.03 -32.47,1.35 h -20.293 -21.648 -20.293 l -34.5,-2.03 -25.707,-2.71 -12.856,-2.7 -4.734,-4.06 -1.351,-2.03 z m -214.441,-108.231 4.058,-3.383 4.059,-3.383 11.5,-6.765 13.531,-5.41 15.559,-1.356 23.675,2.707 27.735,4.059 20.972,2.703 22.325,2.031 22.32,-0.676 8.797,-1.355 9.469,-2.027 -2.707,2.707 -10.821,6.765 -21.648,5.414 -27.059,1.35 -29.765,-2.029 -27.735,-3.383 -19.617,-2.028 h -17.59 l -16.91,2.028 -10.148,2.031"
         style="fill:#ce0f3e;fill-opacity:1;fill-rule:evenodd;stroke:none"
         id="path26" />
    </g>
  </g>
</svg>
