<?xml version="1.0" encoding="UTF-8" standalone="no"?>
<svg
   version="1.1"
   width="600"
   height="400"
   id="svg28"
   viewBox="148 310 300 150"
   sodipodi:docname="troller-seeklogo.cdr"
   xmlns:inkscape="http://www.inkscape.org/namespaces/inkscape"
   xmlns:sodipodi="http://sodipodi.sourceforge.net/DTD/sodipodi-0.dtd"
   xmlns="http://www.w3.org/2000/svg"
   xmlns:svg="http://www.w3.org/2000/svg">
  <defs
     id="defs32" />
  <sodipodi:namedview
     id="namedview30"
     pagecolor="#ffffff"
     bordercolor="#000000"
     borderopacity="0.25"
     inkscape:showpageshadow="2"
     inkscape:pageopacity="0.0"
     inkscape:pagecheckerboard="0"
     inkscape:deskcolor="#d1d1d1"
     inkscape:document-units="pt" />
  <g
     id="Layer1000">
    <path
       d="M 92.2915,215.5986 V 626.2911 H 502.9841 V 215.5986 Z"
       style="fill:transparent;fill-rule:evenodd"
       id="path2" />
    <g
       id="Layer1001">
      <g
         id="Layer1002">
        <path
           d="m 182.646,296.9673 h 229.9845 c 7.3047,0 13.281,5.977 13.281,13.281 v 137.8785 c 0.1657,2.0676 -0.61,3.606 -1.8138,4.9044 -25.9768,32.0047 -227.434,31.4951 -251.5331,1.07 -1.9267,-0.9689 -3.1996,-2.9471 -3.1996,-5.9568 V 310.2483 c 0,-7.3047 5.9763,-13.281 13.281,-13.281 z m -0.9421,-6.1695 h 231.8687 c 10.18,0 18.5084,8.3297 18.5084,18.5084 v 140.254 c -6.2739,44.3286 -262.8204,44.2151 -268.8855,0 v -140.254 c 0,-10.18 8.3284,-18.5084 18.5084,-18.5084 z"
           style="fill:#e30016;fill-rule:evenodd"
           id="path4" />
        <path
           d="m 196.8692,317.0298 h 98.0145 l -24.2942,149.116 h -22.6188 l 15.9169,-97.5956 c 2.5132,-14.1018 -8.7961,-25.83 -21.3621,-26.3885 l -49.845,0.4189 z"
           style="fill:#e30016;fill-rule:evenodd"
           id="path6" />
        <path
           d="m 305.0982,308.5063 -24.1428,149.0195 h 22.8941 l 17.0664,-103.2314 c 3.7444,-13.5987 13.039,-20.6751 21.6453,-21.229 h 54.9458 l 4.1625,-24.9753 z"
           style="fill:#e30016;fill-rule:evenodd"
           id="path8" />
      </g>
    </g>
  </g>
</svg>
