<?xml version="1.0" encoding="UTF-8" standalone="no"?>
<svg
   version="1.1"
   width="595.27557pt"
   height="841.88977pt"
   id="svg28"
   viewBox="0 0 595.27557 841.88977"
   sodipodi:docname="troller-seeklogo.cdr"
   xmlns:inkscape="http://www.inkscape.org/namespaces/inkscape"
   xmlns:sodipodi="http://sodipodi.sourceforge.net/DTD/sodipodi-0.dtd"
   xmlns="http://www.w3.org/2000/svg"
   xmlns:svg="http://www.w3.org/2000/svg">
  <defs
     id="defs32" />
  <sodipodi:namedview
     id="namedview30"
     pagecolor="#ffffff"
     bordercolor="#000000"
     borderopacity="0.25"
     inkscape:showpageshadow="2"
     inkscape:pageopacity="0.0"
     inkscape:pagecheckerboard="0"
     inkscape:deskcolor="#d1d1d1"
     inkscape:document-units="pt" />
  <g
     id="Layer1000">
    <path
       d="M 92.2915,215.5986 V 626.2911 H 502.9841 V 215.5986 Z"
       style="fill:transparent;fill-rule:evenodd"
       id="path2" />
    <g
       id="Layer1001">
      <g
         id="Layer1002">
        <path
           d="m 182.646,296.9673 h 229.9845 c 7.3047,0 13.281,5.977 13.281,13.281 v 137.8785 c 0.1657,2.0676 -0.61,3.606 -1.8138,4.9044 -25.9768,32.0047 -227.434,31.4951 -251.5331,1.07 -1.9267,-0.9689 -3.1996,-2.9471 -3.1996,-5.9568 V 310.2483 c 0,-7.3047 5.9763,-13.281 13.281,-13.281 z m -0.9421,-6.1695 h 231.8687 c 10.18,0 18.5084,8.3297 18.5084,18.5084 v 140.254 c -6.2739,44.3286 -262.8204,44.2151 -268.8855,0 v -140.254 c 0,-10.18 8.3284,-18.5084 18.5084,-18.5084 z"
           style="fill:#e30016;fill-rule:evenodd"
           id="path4" />
        <path
           d="m 196.8692,317.0298 h 98.0145 l -24.2942,149.116 h -22.6188 l 15.9169,-97.5956 c 2.5132,-14.1018 -8.7961,-25.83 -21.3621,-26.3885 l -49.845,0.4189 z"
           style="fill:#e30016;fill-rule:evenodd"
           id="path6" />
        <path
           d="m 305.0982,308.5063 -24.1428,149.0195 h 22.8941 l 17.0664,-103.2314 c 3.7444,-13.5987 13.039,-20.6751 21.6453,-21.229 h 54.9458 l 4.1625,-24.9753 z"
           style="fill:#e30016;fill-rule:evenodd"
           id="path8" />
      </g>
      <g
         id="Layer1003">
        <path
           d="m 135.6855,550.7705 v -30.1011 h -18.9991 v -10.8472 h 49.6261 v 10.8472 H 147.313 v 30.1011 z"
           style="fill:#e30016;fill-rule:evenodd"
           id="path11" />
        <path
           d="m 210.2805,550.9385 v -6.1328 l -0.0224,-0.01 c 0.1488,-3.0014 -0.5835,-3.9257 -2.8682,-4.1549 h -24.971 v 10.1741 h -11.6275 v -29.9607 -6.6487 -4.1985 l 37.1517,-0.1848 c 11.3204,-0.3096 13.965,4.3265 13.965,13.0287 v 4.4833 4e-4 c 0,5.1588 -2.0539,7.6274 -8.7874,7.599 v 0.006 c 6.464,0.0456 8.649,3.401 8.7806,8.2302 h 0.007 v 0.6172 7.1519 z m -27.8616,-20.461 h 25.0346 c 1.9863,-0.2051 2.7906,-0.9459 2.8578,-3.1429 h -0.0308 v -4.4837 c 0.0156,-1.4683 -0.9547,-2.0399 -2.5186,-1.9967 h -25.343 z"
           style="fill:#e30016;fill-rule:evenodd"
           id="path13" />
        <path
           d="m 466.9617,550.9385 v -6.1328 l -0.0224,-0.01 c 0.1488,-3.0014 -0.5835,-3.9257 -2.8682,-4.1549 h -24.971 v 10.1741 h -11.6276 v -29.9607 -6.6487 -4.1985 l 37.1518,-0.1848 c 11.3204,-0.3096 13.965,4.3265 13.965,13.0287 v 4.4833 4e-4 c 0,5.1588 -2.0539,7.6274 -8.7874,7.599 v 0.006 c 6.464,0.0456 8.649,3.401 8.7806,8.2302 h 0.007 v 0.6172 7.1519 z m -27.8616,-20.461 h 25.0346 c 1.9863,-0.2051 2.7906,-0.9459 2.8578,-3.1429 h -0.0308 v -4.4837 c 0.0156,-1.4683 -0.9547,-2.0399 -2.5186,-1.9967 h -25.343 z"
           style="fill:#e30016;fill-rule:evenodd"
           id="path15" />
        <path
           d="m 286.1947,550.7121 v -40.9439 h 11.6275 v 30.0131 h 29.8427 v 10.9308 z"
           style="fill:#e30016;fill-rule:evenodd"
           id="path17" />
        <path
           d="m 332.1442,551.0925 v -40.9439 h 11.6276 v 30.013 h 29.8426 v 10.9309 z"
           style="fill:#e30016;fill-rule:evenodd"
           id="path19" />
        <path
           d="m 389.7213,539.7769 h 33.272 v 10.99 h -33.272 v 0.004 H 378.0937 V 509.821 h 10.3972 1.2304 33.2216 v 10.822 h -33.2216 v 5.1797 h 32.1529 v 8.7749 h -32.1529 z"
           style="fill:#e30016;fill-rule:evenodd"
           id="path21" />
        <path
           d="m 236.8266,509.8118 h 34.4495 c 5.7416,0 10.4393,4.6977 10.4393,10.4393 v 20.0665 c 0,5.7416 -4.6977,10.4393 -10.4393,10.4393 h -34.4495 c -5.7416,0 -10.4392,-4.6977 -10.4392,-10.4393 v -20.0665 c 0,-5.7416 4.6976,-10.4393 10.4392,-10.4393 z m 5.4584,11.0424 h 23.6079 c 2.3231,0 4.2233,1.9207 4.2233,4.2685 v 10.2305 c 0,2.3478 -1.9002,4.2685 -4.2233,4.2685 H 242.285 c -2.323,0 -4.2233,-1.9207 -4.2233,-4.2685 v -10.2305 c 0,-2.3478 1.9003,-4.2685 4.2233,-4.2685 z"
           style="fill:#e30016;fill-rule:evenodd"
           id="path23" />
      </g>
    </g>
  </g>
</svg>
