<?xml version="1.0" encoding="UTF-8"?>
<svg version="1.1" xmlns="http://www.w3.org/2000/svg" width="600" height="400" viewBox="12 0 68 68"><g transform="scale(1,1)">

<path d="M0 0 C1.32 0 2.64 0 4 0 C6.49114788 3.73672182 6.17644976 5.68551752 6.0625 10.125 C6.00861867 12.41612788 5.97948633 14.70833045 6 17 C6.33 17.33 6.66 17.66 7 18 C7.061875 17.113125 7.12375 16.22625 7.1875 15.3125 C8.21900244 11.10714389 9.56986521 9.60988516 13 7 C16.8125 6.1875 16.8125 6.1875 20 6 C20 7.32 20 8.64 20 10 C20.30404678 11.67225729 20.63128912 13.34080104 21 15 C22.98 15 24.96 15 27 15 C27 15.99 27 16.98 27 18 C23.04 18.495 23.04 18.495 19 19 C19 20.65 19 22.3 19 24 C20.98 24.33 22.96 24.66 25 25 C24.505 26.485 24.505 26.485 24 28 C19.59085217 29.10228696 15.51617599 29.07654536 11 29 C10.67 32.3 10.34 35.6 10 39 C9.34 39 8.68 39 8 39 C7.505 34.05 7.505 34.05 7 29 C6.67 29 6.34 29 6 29 C5.97494385 30.03930664 5.9498877 31.07861328 5.92407227 32.14941406 C5.82979074 36.01102703 5.72962092 39.87246883 5.62768555 43.73388672 C5.58441511 45.40409334 5.54273451 47.07434194 5.50268555 48.74462891 C5.44479149 51.14758955 5.3811526 53.55034041 5.31640625 55.953125 C5.29133751 57.0705307 5.29133751 57.0705307 5.26576233 58.21051025 C5.16938305 61.59509934 5.03929826 64.7600524 4 68 C3.01 68 2.02 68 1 68 C0.97494385 66.89487061 0.9498877 65.78974121 0.92407227 64.65112305 C0.82993491 60.55285956 0.72972959 56.45476306 0.62768555 52.35668945 C0.58436066 50.58264063 0.54268381 48.80855077 0.50268555 47.03442383 C0.4449238 44.48506295 0.38124638 41.9359082 0.31640625 39.38671875 C0.29969376 38.59287277 0.28298126 37.79902679 0.26576233 36.98112488 C0.17882282 33.75316923 0.02749634 31.08248901 -1 28 C-1.78375 28.804375 -2.5675 29.60875 -3.375 30.4375 C-6.97149938 33.94836844 -6.97149938 33.94836844 -9.9453125 34.09765625 C-11.96354167 34.06510417 -13.98177083 34.03255208 -16 34 C-16 33.34 -16 32.68 -16 32 C-15.37351562 31.92523437 -14.74703125 31.85046875 -14.1015625 31.7734375 C-11.59401809 31.37001553 -9.36502817 30.93390509 -7 30 C-5.30834699 27.01716843 -5.30834699 27.01716843 -5 24 C-5.70125 24.33 -6.4025 24.66 -7.125 25 C-10.28057113 26.09758996 -12.68225608 26.22620981 -16 26 C-17 25 -17 25 -17.453125 22.76953125 C-16.77319282 18.61373888 -13.97940273 17.02138313 -10.75 14.6875 C-10.16347656 14.23310547 -9.57695313 13.77871094 -8.97265625 13.31054688 C-5.63638249 10.81771311 -4.280015 10 0 10 C0 6.7 0 3.4 0 0 Z M14 13 C12.515 15.475 12.515 15.475 11 18 C12.32 17.67 13.64 17.34 15 17 C14.67 15.68 14.34 14.36 14 13 Z M-2 15 C-1.67 16.65 -1.34 18.3 -1 20 C-0.67 20 -0.34 20 0 20 C0 18.35 0 16.7 0 15 C-0.66 15 -1.32 15 -2 15 Z M-14 21 C-14 21.33 -14 21.66 -14 22 C-9.85906302 22.20970559 -9.85906302 22.20970559 -6 21 C-6 20.01 -6 19.02 -6 18 C-9.08009879 18 -11.31135136 19.5972268 -14 21 Z M12 20 C11.34 21.98 10.68 23.96 10 26 C12.50965614 25.29660434 12.50965614 25.29660434 15 24 C15.88693303 21.95894361 15.88693303 21.95894361 16 20 C14.68 20 13.36 20 12 20 Z " fill="#000000" transform="translate(43,0)"/>
</g></svg>
